<svg version="1.1" id="Layer_1" xmlns="http://www.w3.org/2000/svg" x="0" y="0" viewBox="0 0 60 60" style="enable-background:new 0 0 60 60" xml:space="preserve">
  <style>
    .st1{fill:none;stroke:currentColor;stroke-miterlimit:10}
		.st2{fill:currentColor;}
    .st4{fill:none;stroke:currentColor;stroke-width:1.1019;stroke-linecap:round;stroke-linejoin:round;}
  </style>
  <path d="m15.3 17.6-9.5 4.6-2.3 10.2 6.6 8.3h10.5l6.6-8.3-2.4-10.2-9.5-4.6z" style="fill:none;stroke:currentColor;stroke-width:1.1019;stroke-miterlimit:10"/>
  <path class="st2" d="m14.4 30.9-.7 2.1h-.9l2.3-6.8h1.1l2.3 6.8h-.9l-.7-2.1h-2.5zm2.2-.7-.7-2c-.2-.4-.3-.8-.4-1.2l-.3 1.2-.7 2h2.1zM45.8 28c0-.8-.6-1.1-1.5-1.1-.4 0-.6 0-.8.1v2.1h.8c.9 0 1.5-.5 1.5-1.1zM44.1 29.8h-.7v2.6H44.2c.9 0 1.7-.3 1.7-1.3 0-.9-.8-1.3-1.8-1.3z"/>
  <path class="st2" d="m54.2 22.2-9.5-4.6-9.5 4.6-2.4 10.2 6.6 8.3h10.5l6.6-8.3-2.3-10.2zm-7.9 10.3c-.5.4-1.2.6-2.4.6-.6 0-1.1 0-1.4-.1v-6.7h.1c.4-.1 1-.1 1.6-.1.9 0 1.4.2 1.9.5.4.3.6.7.6 1.2 0 .7-.4 1.2-1.2 1.5.6.2 1.4.7 1.4 1.7 0 .6-.2 1-.6 1.4z"/>
  <path class="st1" d="M18.5 18a16.8 16.8 0 0 1 23.2-.6"/>
  <path class="st2" d="M37.6 18.2v-.7l3.8-.2-.5-3.8.8-.1.6 4.6-4.7.2z"/>
  <path class="st4" d="M42.3 41.2a16.8 16.8 0 0 1-23.2.6"/>
  <path class="st2" d="M23.1 41v.7l-3.8.2.5 3.8-.7.1-.6-4.6 4.6-.2z"/>
</svg>