<svg enable-background="new 0 0 60 60" version="1.1" viewBox="0 0 60 60" xmlns="http://www.w3.org/2000/svg">
 <style type="text/css">.st0{fill:currentColor;stroke:currentColor;stroke-width:1.1019;stroke-miterlimit:10;}
	.st1{fill:none;stroke:currentColor;stroke-width:1.1019;stroke-miterlimit:10;}
	.st2{fill:currentColor;}
	.st3{fill:#FFFFFF;}
	.st4{fill:none;stroke:currentColor;stroke-width:1.1019;stroke-linecap:round;stroke-linejoin:round;}</style>
 <polygon class="st0" points="44.7 17.6 35.2 22.2 32.8 32.4 39.4 40.7 49.9 40.7 56.5 32.4 54.2 22.2"/>
 <polygon class="st1" points="15.3 17.6 5.8 22.2 3.5 32.4 10.1 40.7 20.6 40.7 27.2 32.4 24.8 22.2"/>
 <path class="st2" d="m14.4 30.9-0.7 2.1h-0.9l2.3-6.8h1.1l2.3 6.8h-0.9l-0.7-2.1h-2.5zm2.2-0.7-0.7-2c-0.2-0.4-0.3-0.8-0.4-1.2l-0.3 1.2-0.7 2h2.1z"/>
 <path class="st3" d="m42.6 26.3c0.4-0.1 1-0.1 1.6-0.1 0.9 0 1.4 0.2 1.9 0.5 0.4 0.3 0.6 0.7 0.6 1.2 0 0.7-0.4 1.2-1.2 1.5 0.6 0.2 1.4 0.7 1.4 1.7 0 0.6-0.2 1-0.6 1.4-0.5 0.4-1.2 0.6-2.4 0.6-0.6 0-1.1 0-1.4-0.1v-6.7zm0.9 2.8h0.8c0.9 0 1.5-0.5 1.5-1.1 0-0.8-0.6-1.1-1.5-1.1-0.4 0-0.6 0-0.8 0.1v2.1zm0 3.3h0.7c0.9 0 1.7-0.3 1.7-1.3 0-0.9-0.8-1.3-1.8-1.3h-0.7v2.6z"/>
 <path class="st4" d="m18.5 18c6.4-6.4 16.6-6.6 23.2-0.6"/>
 <polygon class="st2" points="37.6 18.2 37.6 17.5 41.4 17.3 40.9 13.5 41.7 13.4 42.3 18"/>
 <path class="st4" d="m42.3 41.2c-6.4 6.4-16.6 6.6-23.2 0.6"/>
 <polygon class="st2" points="23.1 41 23.1 41.7 19.3 41.9 19.8 45.7 19.1 45.8 18.5 41.2"/>
</svg>
