<svg enable-background="new 0 0 60 60" version="1.1" viewBox="0 0 60 60" xmlns="http://www.w3.org/2000/svg">
 <style type="text/css">.st0{fill:none;stroke:currentColor;stroke-linecap:round;stroke-linejoin:round;stroke-miterlimit:10;}
	.st1{fill:none;stroke:currentColor;stroke-miterlimit:10;}
	.st2{fill:none;stroke:currentColor;stroke-miterlimit:10;stroke-dasharray:1.8728,1.8728;}
	.st3{fill:none;stroke:currentColor;stroke-miterlimit:10;stroke-dasharray:1.9449,1.9449;}
	.st4{fill:none;stroke:currentColor;stroke-miterlimit:10;stroke-dasharray:1.891,1.891;}
	.st5{fill:none;stroke:currentColor;stroke-miterlimit:10;stroke-dasharray:1.9548,1.9548;}
	.st6{fill:currentColor;}
	.st7{fill:none;stroke:currentColor;stroke-miterlimit:10;stroke-dasharray:1.0249,1.0249;}
	.st8{fill:none;stroke:currentColor;stroke-miterlimit:10;stroke-dasharray:1.898,1.898;}
	.st9{fill:none;stroke:currentColor;stroke-miterlimit:10;stroke-dasharray:2.0374,2.0374;}
	.st10{fill:none;stroke:currentColor;stroke-miterlimit:10;stroke-dasharray:2.0241,2.0241;}</style>
 <rect class="st1" x=".93" y="34.83" width="34.27" height="12.19"/>
 <line class="st1" x1="35.19" x2="35.19" y1="26.23" y2="27.23"/>
 <line class="st7" x1="35.19" x2="35.19" y1="28.26" y2="29.79"/>
 <polyline class="st1" points="35.19 30.31 35.19 31.31 34.19 31.31"/>
 <line class="st8" x1="32.29" x2="2.88" y1="31.31" y2="31.31"/>
 <polyline class="st1" points="1.93 31.31 0.93 31.31 0.93 30.31"/>
 <line class="st9" x1=".93" x2=".93" y1="28.27" y2="21.14"/>
 <polyline class="st1" points="0.93 20.12 0.93 19.12 1.93 19.12"/>
 <line class="st10" x1="3.95" x2="23.18" y1="19.12" y2="19.12"/>
 <line class="st1" x1="24.19" x2="25.19" y1="19.12" y2="19.12"/>
 <circle class="st6" cx="29.32" cy="40.84" r=".92"/>
 <line class="st1" x1="5.9" x2="14.74" y1="40.84" y2="40.84"/>
 <polyline class="st1" points="41.87 22.04 41.87 8.19 25.19 8.19 25.19 25.15 48.03 25.15"/>
 <polygon class="st6" points="45.21 28.62 44.63 28 47.7 25.15 44.63 22.29 45.21 21.67 48.95 25.15"/>
 <polyline class="st1" points="45.98 16.67 59 16.67 59 34.06 42.1 34.06 42.1 28.8"/>
</svg>
