<svg enable-background="new 0 0 60 60" version="1.1" viewBox="0 0 60 60" xmlns="http://www.w3.org/2000/svg">
 <style type="text/css">.st0{fill:none;stroke:currentColor;stroke-linecap:round;stroke-linejoin:round;stroke-miterlimit:10;}
	.st1{fill:none;stroke:currentColor;stroke-miterlimit:10;}
	.st2{fill:none;stroke:currentColor;stroke-miterlimit:10;stroke-dasharray:1.8728,1.8728;}
	.st3{fill:none;stroke:currentColor;stroke-miterlimit:10;stroke-dasharray:1.9449,1.9449;}
	.st4{fill:none;stroke:currentColor;stroke-miterlimit:10;stroke-dasharray:1.891,1.891;}
	.st5{fill:none;stroke:currentColor;stroke-miterlimit:10;stroke-dasharray:1.9548,1.9548;}
	.st6{fill:currentColor;}
	.st7{fill:none;stroke:currentColor;stroke-miterlimit:10;stroke-dasharray:1.0249,1.0249;}
	.st8{fill:none;stroke:currentColor;stroke-miterlimit:10;stroke-dasharray:1.898,1.898;}
	.st9{fill:none;stroke:currentColor;stroke-miterlimit:10;stroke-dasharray:2.0374,2.0374;}
	.st10{fill:none;stroke:currentColor;stroke-miterlimit:10;stroke-dasharray:2.0241,2.0241;}</style>
 <polyline class="st1" points="46.24 20.79 46.24 10.47 33.82 10.47 33.82 23.1 50.76 23.1"/>
 <polygon class="st6" points="48.44 25.96 47.96 25.45 50.49 23.1 47.96 20.75 48.44 20.24 51.51 23.1"/>
 <polyline class="st1" points="49.3 16.79 59 16.79 59 29.74 46.41 29.74 46.41 25.82"/>
 <polyline class="st1" points="29.96 30.42 29.96 20.1 17.54 20.1 17.54 32.73 34.47 32.73"/>
 <polygon class="st6" points="32.16 35.6 31.68 35.08 34.21 32.73 31.68 30.38 32.16 29.87 35.23 32.73"/>
 <polyline class="st1" points="33.02 26.42 42.72 26.42 42.72 39.37 30.13 39.37 30.13 35.46"/>
 <polyline class="st1" points="14.32 40.05 14.32 29.74 1.9 29.74 1.9 42.37 18.84 42.37"/>
 <polygon class="st6" points="16.52 45.23 16.04 44.72 18.57 42.37 16.04 40.02 16.52 39.5 19.6 42.37"/>
 <polyline class="st1" points="17.38 36.05 27.08 36.05 27.08 49 14.49 49 14.49 45.09"/>
</svg>
