<?xml version="1.0" encoding="UTF-8"?>
<!-- Created with Inkscape (http://www.inkscape.org/) -->
<svg width="2851.7" height="1136.3" version="1.1" viewBox="0 0 2851.7 1136.3" xml:space="preserve" xmlns="http://www.w3.org/2000/svg"><defs><clipPath id="clipPath65"><path d="M 0,995.058 H 2363.263 V 0 H 0 Z"/></clipPath></defs><g transform="matrix(1.3333 0 0 -1.3333 -184.21 1240.6)"><g clip-path="url(#clipPath65)"><g transform="translate(211.43 186.2)"><path d="m0 0c80.099-87.583 208.63-121.52 325.87-103.04 128.7 20.28 246.11 96.885 376.36 100.21 68.146 1.742 125.32-22.939 188.96-39.451 69.828-18.118 141.32-30.173 212.88-38.893 149.87-18.264 308.22-29.117 458.81-25.589 179.64 4.208 362.44 82.372 449.47 247.66 67.48 128.15 70.941 288.09 9.067 419.04-20.735 43.885-49.297 85.494-89.646 112.47-54.398 36.373-123.89 42.141-189.05 36.104-119.53-11.075-232.93-57.453-351.18-78.129-130.96-22.899-267.43-13.545-394.04 27.008-40.653 13.021-80.25 29.179-120.93 42.107-74.284 23.606-151.76 36.277-229.49 41.941-74.305 5.414-149.95 4.366-222-14.614-126.93-33.441-230.42-119.36-316.35-215.39-79.625-88.985-183.44-196.5-182-323.59 0.781-68.488 26.942-137.21 73.257-187.85" fill="#e8e8f2"/></g></g></g></svg>
