<svg width="403.3" height="64.1" role="img" version="1.1" viewBox="-1.81 -3.06 403.3 64.1" xmlns="http://www.w3.org/2000/svg">
 <style>svg {enable-background:new 0 0 416 76}</style>
 <style>.st0{fill:#fff}</style>
 <g id="XMLID_1_" transform="translate(-8.21,-8.06)">
  <g id="XMLID_575_">
   <path id="XMLID_643_" class="st0" d="m102.2 33c3.3 0 5.9-1.3 8-3.9l4.3 4.4c-3.4 3.8-7.3 5.7-11.9 5.7s-8.3-1.4-11.3-4.3-4.4-6.5-4.4-10.9 1.5-8.1 4.5-11 6.7-4.4 11.1-4.4c4.9 0 9 1.9 12.2 5.6l-4.1 4.7c-2.1-2.6-4.7-3.9-7.8-3.9-2.5 0-4.6 0.8-6.4 2.4s-2.7 3.8-2.7 6.6 0.8 5 2.5 6.7c1.6 1.4 3.6 2.3 6 2.3z"/>
   <path id="XMLID_641_" class="st0" d="m119.7 38.8v-29.7h6.6v23.8h12.7v5.9z"/>
   <path id="XMLID_638_" class="st0" d="m168 34.7c-3 2.9-6.7 4.4-11.1 4.4s-8.1-1.5-11.1-4.4-4.5-6.6-4.5-10.9c0-4.4 1.5-8 4.5-10.9s6.7-4.4 11.1-4.4 8.1 1.5 11.1 4.4 4.5 6.6 4.5 10.9c0 4.4-1.5 8-4.5 10.9zm-2.3-10.9c0-2.6-0.9-4.9-2.6-6.8s-3.8-2.8-6.3-2.8-4.6 0.9-6.3 2.8-2.6 4.1-2.6 6.8c0 2.6 0.9 4.9 2.6 6.8s3.8 2.8 6.3 2.8 4.6-0.9 6.3-2.8c1.8-1.9 2.6-4.1 2.6-6.8z"/>
   <path id="XMLID_636_" class="st0" d="m186 31.2c1.1 1.4 2.6 2.1 4.5 2.1s3.4-0.7 4.4-2.1c1.1-1.4 1.6-3.3 1.6-5.6v-16.4h6.6v16.6c0 4.3-1.2 7.6-3.6 9.9s-5.4 3.5-9.1 3.5-6.8-1.2-9.2-3.5-3.6-5.6-3.6-9.9v-16.6h6.6v16.4c0.1 2.3 0.7 4.2 1.8 5.6z"/>
   <path id="XMLID_633_" class="st0" d="m232.7 13c2.8 2.6 4.3 6.2 4.3 10.8s-1.4 8.3-4.1 11c-2.8 2.7-7 4-12.6 4h-10.3v-29.7h10.5c5.3 0 9.4 1.3 12.2 3.9zm-4.8 17.7c1.6-1.5 2.4-3.8 2.4-6.7s-0.8-5.2-2.4-6.7c-1.6-1.6-4.1-2.4-7.5-2.4h-3.7v18.1h4.2c3 0 5.3-0.8 7-2.3z"/>
   <path id="XMLID_631_" class="st0" d="m274.7 9.1h6.6v29.7h-6.6l-14.2-18.6v18.6h-6.6v-29.7h6.2l14.6 19.1z"/>
   <path id="XMLID_628_" class="st0" d="m309.8 38.8-2.8-6.4h-12.5l-2.8 6.4h-7.1l12.8-29.7h6.4l12.8 29.7zm-8.9-20.8-3.7 8.6h7.4z"/>
   <path id="XMLID_626_" class="st0" d="m330.8 14.9v24h-6.6v-24h-8.4v-5.7h23.5v5.7z"/>
   <path id="XMLID_624_" class="st0" d="m344 9.1h6.6v29.7h-6.6z"/>
   <path id="XMLID_622_" class="st0" d="m368.9 28 7.6-18.9h7.2l-11.9 29.7h-5.6l-11.9-29.7h7.2z"/>
   <path id="XMLID_620_" class="st0" d="m408.6 9.1v5.9h-14.8v6.1h13.3v5.7h-13.3v6.2h15.3v5.9h-21.9v-29.7h21.4z"/>
   <path id="XMLID_618_" class="st0" d="m94.6 64.1c1.8 0 3.3-0.7 4.5-2.2l2.4 2.5c-1.9 2.1-4.1 3.2-6.7 3.2s-4.7-0.8-6.3-2.4c-1.7-1.6-2.5-3.7-2.5-6.1 0-2.5 0.8-4.5 2.5-6.2s3.8-2.5 6.2-2.5c2.7 0 5 1 6.9 3.1l-2.3 2.6c-1.2-1.5-2.6-2.2-4.4-2.2-1.4 0-2.6 0.5-3.6 1.4s-1.5 2.1-1.5 3.7 0.5 2.8 1.4 3.7c0.9 1 2.1 1.4 3.4 1.4z"/>
   <path id="XMLID_615_" class="st0" d="m118 65.1c-1.7 1.6-3.8 2.5-6.2 2.5-2.5 0-4.5-0.8-6.2-2.5-1.7-1.6-2.5-3.7-2.5-6.1s0.8-4.5 2.5-6.1 3.8-2.5 6.2-2.5c2.5 0 4.5 0.8 6.2 2.5 1.7 1.6 2.5 3.7 2.5 6.1s-0.8 4.5-2.5 6.1zm-1.2-6.1c0-1.5-0.5-2.8-1.4-3.8-1-1-2.1-1.6-3.5-1.6s-2.6 0.5-3.5 1.6c-1 1-1.4 2.3-1.4 3.8s0.5 2.7 1.4 3.8c1 1 2.1 1.6 3.5 1.6s2.6-0.5 3.5-1.6c0.9-1 1.4-2.3 1.4-3.8z"/>
   <path id="XMLID_613_" class="st0" d="m138.6 56.9-4.5 9.1h-2.2l-4.5-9.1v10.5h-3.7v-16.7h5l4.3 9.1 4.3-9.1h5v16.7h-3.7z"/>
   <path id="XMLID_610_" class="st0" d="m157.9 52.3c1.2 1 1.8 2.5 1.8 4.6s-0.6 3.6-1.8 4.5c-1.2 1-3 1.4-5.5 1.4h-2.2v4.6h-3.7v-16.7h5.9c2.5 0.1 4.3 0.6 5.5 1.6zm-2.7 6.5c0.4-0.5 0.7-1.2 0.7-2.2s-0.3-1.6-0.9-2-1.5-0.6-2.7-0.6h-2.1v5.6h2.5c1.2 0 2-0.3 2.5-0.8z"/>
   <path id="XMLID_608_" class="st0" d="m167 63.1c0.6 0.8 1.5 1.2 2.5 1.2s1.9-0.4 2.5-1.2 0.9-1.8 0.9-3.2v-9.2h3.7v9.3c0 2.4-0.7 4.3-2 5.6s-3 1.9-5.1 1.9-3.8-0.7-5.1-2-2-3.2-2-5.6v-9.3h3.7v9.2c0 1.5 0.3 2.6 0.9 3.3z"/>
   <path id="XMLID_606_" class="st0" d="m187.5 54v13.4h-3.7v-13.4h-4.7v-3.2h13.2v3.2z"/>
   <path id="XMLID_604_" class="st0" d="m195 50.8h3.7v16.7h-3.7z"/>
   <path id="XMLID_602_" class="st0" d="m214.4 50.8h3.7v16.7h-3.7l-7.9-10.4v10.4h-3.7v-16.7h3.5l8.2 10.7v-10.7z"/>
   <path id="XMLID_600_" class="st0" d="m233.1 59h3.7v5.9c-1.7 1.8-3.9 2.8-6.9 2.8-2.4 0-4.5-0.8-6.2-2.4s-2.5-3.7-2.5-6.1c0-2.5 0.8-4.5 2.5-6.2s3.7-2.5 6.1-2.5 4.5 0.8 6.2 2.4l-1.9 2.8c-0.7-0.7-1.4-1.1-2.1-1.3-0.6-0.2-1.3-0.4-2-0.4-1.4 0-2.6 0.5-3.6 1.4-1 1-1.5 2.2-1.5 3.8s0.5 2.8 1.4 3.8c0.9 0.9 2 1.4 3.3 1.4s2.4-0.2 3.2-0.7v-4.7z"/>
   <path id="XMLID_598_" class="st0" d="m257.8 50.8v3.3h-7.7v3.6h7.3v3.3h-7.3v6.5h-3.7v-16.7z"/>
   <path id="XMLID_595_" class="st0" d="m275 65.1c-1.7 1.6-3.8 2.5-6.2 2.5-2.5 0-4.5-0.8-6.2-2.5-1.7-1.6-2.5-3.7-2.5-6.1s0.8-4.5 2.5-6.1 3.8-2.5 6.2-2.5c2.5 0 4.5 0.8 6.2 2.5 1.7 1.6 2.5 3.7 2.5 6.1s-0.8 4.5-2.5 6.1zm-1.3-6.1c0-1.5-0.5-2.8-1.4-3.8-1-1-2.1-1.6-3.5-1.6s-2.6 0.5-3.5 1.6c-1 1-1.4 2.3-1.4 3.8s0.5 2.7 1.4 3.8c1 1 2.1 1.6 3.5 1.6s2.6-0.5 3.5-1.6c1-1 1.4-2.3 1.4-3.8z"/>
   <path id="XMLID_593_" class="st0" d="m285.1 63.1c0.6 0.8 1.5 1.2 2.5 1.2s1.9-0.4 2.5-1.2 0.9-1.8 0.9-3.2v-9.2h3.7v9.3c0 2.4-0.7 4.3-2 5.6s-3 1.9-5.1 1.9-3.8-0.7-5.1-2-2-3.2-2-5.6v-9.3h3.7v9.2c-0.1 1.5 0.3 2.6 0.9 3.3z"/>
   <path id="XMLID_591_" class="st0" d="m310.2 50.8h3.7v16.7h-3.7l-7.9-10.4v10.4h-3.7v-16.7h3.5l8.2 10.7v-10.7z"/>
   <path id="XMLID_588_" class="st0" d="m330.7 53c1.6 1.5 2.4 3.5 2.4 6.1s-0.8 4.6-2.3 6.1-3.9 2.3-7.1 2.3h-5.7v-16.7h5.9c3 0 5.3 0.7 6.8 2.2zm-2.7 9.9c0.9-0.9 1.4-2.1 1.4-3.7s-0.5-2.9-1.4-3.8-2.3-1.3-4.2-1.3h-2.1v10.1h2.4c1.7-0.1 3-0.5 3.9-1.3z"/>
   <path id="XMLID_585_" class="st0" d="m347.7 67.4-1.5-3.6h-7l-1.5 3.6h-4l7.2-16.7h3.6l7.2 16.7zm-5-11.7-2.1 4.8h4.2z"/>
   <path id="XMLID_583_" class="st0" d="m359.5 54v13.4h-3.7v-13.4h-4.8v-3.2h13.2v3.2z"/>
   <path id="XMLID_581_" class="st0" d="m366.9 50.8h3.7v16.7h-3.7z"/>
   <path id="XMLID_578_" class="st0" d="m388.7 65.1c-1.7 1.6-3.8 2.5-6.2 2.5-2.5 0-4.5-0.8-6.2-2.5-1.7-1.6-2.5-3.7-2.5-6.1s0.8-4.5 2.5-6.1 3.8-2.5 6.2-2.5c2.5 0 4.5 0.8 6.2 2.5 1.7 1.6 2.5 3.7 2.5 6.1s-0.8 4.5-2.5 6.1zm-1.2-6.1c0-1.5-0.5-2.8-1.4-3.8-1-1-2.1-1.6-3.5-1.6s-2.6 0.5-3.5 1.6c-1 1-1.4 2.3-1.4 3.8s0.5 2.7 1.4 3.8c1 1 2.1 1.6 3.5 1.6s2.6-0.5 3.5-1.6c0.9-1 1.4-2.3 1.4-3.8z"/>
   <path id="XMLID_576_" class="st0" d="m406 50.8h3.7v16.7h-3.7l-7.9-10.4v10.4h-3.7v-16.7h3.5l8.2 10.7z"/>
  </g>
 </g>
 <g id="XMLID_197_" transform="translate(-8.21,-8.06)">
  <g id="XMLID_392_">
   <path id="XMLID_397_" class="st0" d="m15.5 47.7h-9.1v21.4h21.3v-9.2h-12.2z"/>
   <path id="XMLID_395_" class="st0" d="m61.3 47.8v12.1h-12.2v-0.1 9.3h21.3v-21.4h-9.2z"/>
   <path id="XMLID_394_" class="st0" d="m6.4 26.4h9.2l-0.1-0.1v-12.1h12.2v-9.2h-21.3z"/>
   <path id="XMLID_393_" class="st0" d="m49.1 5v9.2h12.2v12.2h9.1v-21.4z"/>
  </g>
  <g id="XMLID_200_" opacity=".8">
   <path id="XMLID_391_" class="st0" d="m47.9 26.4-12.2-12.2h13.4v-9.2h-21.4v9.2l12.2 12.2z"/>
   <path id="XMLID_390_" class="st0" d="m36.9 47.7h-8l10.1 10.1 2 2.1h-13.3v9.2h21.4v-9.3l-6.1-6z"/>
   <path id="XMLID_389_" class="st0" d="m61.3 26.4v13.3l-12.2-12.2v8.1l12.1 12.1h9.2v-21.3z"/>
   <path id="XMLID_388_" class="st0" d="m27.7 38.5-12.1-12.1h-9.2v21.3h9.1v-13.3l12.2 12.2z"/>
  </g>
 </g>
</svg>
