<svg version="1.1" viewBox="0 0 22.122 37.443" xmlns="http://www.w3.org/2000/svg">
 <g transform="translate(-23.254 -18.985)">
  <rect x="4.3148" y="7.7064" width="60" height="60" fill-opacity="0" stop-color="#000000" stroke-linecap="round" stroke-width=".11092"/>
  <path d="m29.641 33.584c-0.14084 0.01032-0.24621 0.13242-0.2359 0.27321l0.72686 9.9247c0.01042 0.14083 0.13241 0.24622 0.2732 0.2359l9.9247-0.72718c0.14083-0.01032 0.24559-0.13238 0.23527-0.27316l-0.72686-9.9247c-0.01042-0.14083-0.1317-0.24627-0.27257-0.23595zm3.8014 1.1362 2.5281-0.18519c0.22779-0.01669 0.42433 0.15303 0.44102 0.38081 0.01667 0.2278-0.15302 0.42435-0.3808 0.44104l-2.5281 0.18519c-0.2278 0.01669-0.42496-0.15298-0.44166-0.38077-0.01667-0.22778 0.15366-0.42438 0.38145-0.44107z" color="#000000" fill="#ac9565" style="paint-order:normal"/>
  <path d="m32.927 28.322-4.7918 5.0215 0.77695 12.09 13.124-0.9385-0.93382-12.241-6.5667-5.8702" fill="none" stroke="currentColor" stroke-linecap="round" stroke-linejoin="round" stroke-width="1.042"/>
  <g transform="matrix(1.042 0 0 1.042 -132.98 -7.5051)" stroke="currentColor" stroke-linejoin="round">
   <path d="m160.68 30.076-1.6308-2.9736 1.7202-1.1811 1.6728 1.1811-1.7622 2.9736c0.9372 1e-6 1.697 0.75975 1.697 1.697s-0.75976 1.697-1.697 1.697c-0.9372 1e-6 -1.697-0.75975-1.697-1.697" fill="none" stop-color="#000000" stroke-linecap="round" style="font-variation-settings:normal;paint-order:stroke fill markers"/>
   <path transform="scale(.26458)" d="m607.63 99.844c-0.68686 0.24653-1.2532 0.75905-1.8816 1.126-0.79726 0.55576-1.6568 1.0462-2.3962 1.6723-0.39586 0.43857 0.11284 0.94759 0.27825 1.3698 1.0823 2.0198 2.1462 4.0547 3.3467 6.0069 0.28821 0.38593 0.86661 0.18518 1.0102-0.22807 1.3104-2.191 2.6324-4.3775 3.8882-6.5997 0.17234-0.60548-0.53349-0.83524-0.8907-1.1553-1.011-0.71967-2.0078-1.4629-3.0514-2.1344-0.10111-0.01673-0.20189-0.04864-0.30334-0.05759z" fill="currentColor" stop-color="#000000" stroke-width=".23862" style="font-variation-settings:normal;paint-order:stroke fill markers"/>
  </g>
  <g transform="matrix(1.0317 0 0 .96923 -104.47 -2.4249)" fill="currentColor" stroke-width=".23552" aria-label="CRANE">
   <path d="m123.79 58.36q0-0.41828 0.15445-0.8237 0.16087-0.40541 0.46332-0.72717t0.73361-0.52124q0.43115-0.19949 0.98457-0.19949 0.66282 0 1.1454 0.27671 0.48907 0.27028 0.72717 0.72073l-0.95883 0.68212q-0.0644-0.16731-0.17375-0.27671-0.10296-0.1094-0.23166-0.17375-0.12871-0.06435-0.27028-0.09009-0.13514-0.02574-0.26384-0.02574-0.27027 0-0.46976 0.1094-0.19306 0.10296-0.32176 0.27671-0.12227 0.16731-0.18662 0.38611-0.0579 0.21236-0.0579 0.42472 0 0.2381 0.0708 0.45689t0.20593 0.38611 0.32819 0.27028q0.19949 0.09653 0.44402 0.09653 0.1287 0 0.26384-0.02574 0.13514-0.03218 0.25741-0.09653 0.1287-0.07079 0.22522-0.17375 0.10297-0.1094 0.16088-0.26384l1.0232 0.61134q-0.10297 0.25097-0.31532 0.45046-0.20593 0.19949-0.4762 0.33463-0.26384 0.13514-0.57273 0.20592-0.30245 0.07079-0.59203 0.07079-0.50837 0-0.93309-0.19949-0.41828-0.20592-0.72717-0.54055-0.30245-0.33463-0.46976-0.75934-0.16732-0.42472-0.16732-0.86231z"/>
   <path d="m128.49 60.683v-4.5689h2.0978q0.33463 0 0.61777 0.14157 0.28315 0.13514 0.48263 0.36037 0.20593 0.21879 0.32176 0.50837 0.11583 0.28315 0.11583 0.57273 0 0.39898-0.17375 0.74647-0.17374 0.34106-0.48263 0.55986l0.96527 1.6796h-1.4157l-0.80439-1.4029h-0.46976v1.4029zm1.2548-2.4968h0.79152q0.11583 0 0.21236-0.1287 0.10296-0.1287 0.10296-0.36037 0-0.2381-0.11583-0.36037-0.11584-0.1287-0.23167-0.1287h-0.75934z"/>
   <path d="m134.02 56.114h1.1454l1.583 4.5689h-1.2742l-0.27671-0.89448h-1.2162l-0.27027 0.89448h-1.2806zm0.97814 2.8379-0.40541-1.4157-0.42472 1.4157z"/>
   <path d="m138.38 58.437v2.2459h-1.2548v-4.5689h0.97813l1.834 2.3231v-2.3231h1.2548v4.5689h-0.99744z"/>
   <path d="m145.23 59.589v1.094h-3.2562v-4.5689h3.1983v1.094h-1.9434v0.64351h1.6603v1.0167h-1.6603v0.72073z"/>
  </g>
  <g transform="matrix(.54536 0 0 .54536 -12.779 -49.338)" fill="currentColor">
   <g transform="matrix(.367 0 0 .367 22.822 85.614)" fill="currentColor">
    <g transform="matrix(1.0329 0 0 1.0329 103.14 74.915)" fill="currentColor">
     <path d="m27.732 175.76c-3.1676 0-5.7639 2.5963-5.7639 5.7639s2.5963 5.7635 5.7639 5.7635 5.7639-2.5958 5.7639-5.7635c0-3.1676-2.5962-5.7639-5.7639-5.7639zm0 2.6395c1.7412 0 3.1244 1.3832 3.1244 3.1244s-1.3832 3.1244-3.1244 3.1244-3.1244-1.3832-3.1244-3.1244 1.3832-3.1244 3.1244-3.1244z" color="currentColor" color-rendering="auto" dominant-baseline="auto" image-rendering="auto" shape-rendering="auto" style="font-feature-settings:normal;font-variant-alternates:normal;font-variant-caps:normal;font-variant-ligatures:normal;font-variant-numeric:normal;font-variant-position:normal;isolation:auto;mix-blend-mode:normal;shape-padding:0;text-decoration-color:#000000;text-decoration-line:none;text-decoration-style:solid;text-indent:0;text-orientation:mixed;text-transform:none;white-space:normal"/>
     <path d="m14.236 186.43v-9.8172h2.6963v3.7333l2.9867-3.7333h3.0419l-3.5674 4.397 3.8163 5.4202h-3.0972l-2.4336-3.6089-0.74667 0.77432v2.8345z"/>
     <path d="m37.034 181.61v4.8256h-2.6963v-9.8172h2.1017l3.9407 4.9916v-4.9916h2.6963v9.8172h-2.1432z"/>
     <path d="m46.657 176.62 1.922 6.4296 1.8943-6.4296h2.8345l-3.6088 9.8172h-2.24l-3.6503-9.8172z"/>
     <path d="m61.051 184.08v2.3506h-6.9965v-9.8172h6.872v2.3506h-4.1758v1.3827h3.5674v2.1847h-3.5674v1.5486z"/>
     <path d="m64.301 176.62 1.756 4.2449 1.7975-4.2449h2.9313l-3.3876 6.5678v3.2494h-2.6825v-3.277l-3.3323-6.5402z"/>
     <path d="m82.156 186.43v-9.8172h4.5076q0.71902 0 1.3274 0.3042 0.60838 0.29036 1.037 0.77431 0.44245 0.47013 0.69134 1.0923 0.24889 0.60838 0.24889 1.2306 0 0.85729-0.37333 1.6039-0.37335 0.73284-1.037 1.203l2.074 3.6089h-3.0419l-1.7284-3.0143h-1.0094v3.0143zm2.6963-5.3649h1.7007q0.24889 0 0.45629-0.27652 0.22124-0.27655 0.22124-0.77433 0-0.5116-0.24889-0.77431-0.24887-0.27654-0.49776-0.27654h-1.6316z"/>
     <path d="m75.652 175.76c-3.1676 0-5.7639 2.5963-5.7639 5.7639s2.5963 5.7635 5.7639 5.7635 5.7639-2.5958 5.7639-5.7635c0-3.1676-2.5962-5.7639-5.7639-5.7639zm0 2.6395c1.7412 0 3.1244 1.3832 3.1244 3.1244s-1.3832 3.1244-3.1244 3.1244-3.1244-1.3832-3.1244-3.1244 1.3832-3.1244 3.1244-3.1244z" color="currentColor" color-rendering="auto" dominant-baseline="auto" image-rendering="auto" shape-rendering="auto" solid-color="#000000" style="font-feature-settings:normal;font-variant-alternates:normal;font-variant-caps:normal;font-variant-ligatures:normal;font-variant-numeric:normal;font-variant-position:normal;isolation:auto;mix-blend-mode:normal;shape-padding:0;text-decoration-color:#000000;text-decoration-line:none;text-decoration-style:solid;text-indent:0;text-orientation:mixed;text-transform:none;white-space:normal"/>
    </g>
   </g>
  </g>
 </g>
</svg>
