<svg version="1.1" viewBox="0 0 31.218 34.863" xmlns="http://www.w3.org/2000/svg">
 <g transform="translate(-18.706 -20.275)">
  <rect x="4.3148" y="7.7064" width="60" height="60" fill="none" stop-color="#000000" stroke-linecap="round" stroke-width=".11092"/>
  <g transform="matrix(1.0317 0 0 .96923 -55.191 -3.7149)" fill="currentColor" stroke-width=".23552" aria-label="FORKLIFT">
   <path d="m71.623 60.683v-4.5689h3.1339v1.094h-1.8791v0.75934h1.5316v1.0167h-1.5316v1.6989z"/>
   <path d="m77.247 60.721q-0.52124 0-0.94596-0.19949t-0.72717-0.52124q-0.30245-0.32819-0.46976-0.74647t-0.16731-0.86231q0-0.45046 0.17375-0.86874t0.48263-0.7336q0.31532-0.32176 0.74004-0.50837 0.43115-0.19305 0.93953-0.19305 0.52124 0 0.94596 0.19949t0.72717 0.52768q0.30245 0.32819 0.46333 0.74647 0.16731 0.41828 0.16731 0.85587 0 0.45046-0.17375 0.86874-0.17375 0.41185-0.48263 0.7336-0.30889 0.31532-0.74004 0.50837-0.42472 0.19305-0.93309 0.19305zm-1.0361-2.3166q0 0.23166 0.06435 0.45046 0.06435 0.21236 0.19305 0.37967t0.32176 0.27028q0.19949 0.10296 0.46976 0.10296t0.46976-0.10296q0.19949-0.1094 0.32176-0.27671 0.1287-0.17375 0.18662-0.39254 0.06435-0.21879 0.06435-0.44402 0-0.23166-0.06435-0.44402-0.06435-0.21879-0.19949-0.37967-0.1287-0.16731-0.32819-0.26384-0.19305-0.10296-0.45689-0.10296-0.27028 0-0.46976 0.10296-0.19305 0.10296-0.32176 0.27671-0.1287 0.16731-0.19305 0.38611-0.05792 0.21236-0.05792 0.43759z"/>
   <path d="m80.111 60.683v-4.5689h2.0978q0.33463 0 0.61777 0.14157 0.28315 0.13514 0.48263 0.36037 0.20592 0.21879 0.32176 0.50837 0.11583 0.28315 0.11583 0.57273 0 0.39898-0.17375 0.74647-0.17375 0.34106-0.48263 0.55986l0.96527 1.6796h-1.4157l-0.80439-1.4029h-0.46976v1.4029zm1.2548-2.4968h0.79152q0.11583 0 0.21236-0.1287 0.10296-0.1287 0.10296-0.36037 0-0.2381-0.11583-0.36037-0.11583-0.1287-0.23166-0.1287h-0.75934z"/>
   <path d="m84.454 60.683v-4.5689h1.2548v1.7375l1.39-1.7375h1.4157l-1.6603 2.0464 1.7761 2.5226h-1.4415l-1.1326-1.6796-0.3475 0.36037v1.3192z"/>
   <path d="m88.894 60.683v-4.5689h1.2548v3.475h2.0721v1.094z"/>
   <path d="m92.659 60.683v-4.5689h1.2548v4.5689z"/>
   <path d="m94.699 60.683v-4.5689h3.1339v1.094h-1.8791v0.75934h1.5316v1.0167h-1.5316v1.6989z"/>
   <path d="m101.88 57.208h-1.3128v3.475h-1.2548v-3.475h-1.3192v-1.094h3.8868z"/>
  </g>
  <path d="m36.098 22.396c-0.11787 0.02996-0.18879 0.14943-0.1588 0.26724l2.1137 8.3051c0.03022 0.11782 0.14942 0.18878 0.26724 0.15879l8.3051-2.114c0.11784-0.03004 0.18825-0.14929 0.15825-0.2671l-2.1137-8.3051c-0.03022-0.11782-0.14882-0.18894-0.26672-0.15893zm3.3945 0.38982 2.1155-0.53846c0.19061-0.04852 0.38287 0.06572 0.43138 0.25633 0.04855 0.19062-0.0657 0.38288-0.25633 0.4314l-2.1155 0.53846c-0.19061 0.04852-0.38339-0.06558-0.43192-0.25621-0.04855-0.19061 0.06625-0.383 0.25687-0.43152z" color="currentColor" fill="#ac9565" style="paint-order:normal"/>
  <g fill="none" stroke="currentColor">
   <path d="m35.296 25.037 1.9426 7.6061 11.32-2.8912" stroke-linejoin="round" stroke-width=".89738"/>
   <path d="m34.081 27.803 2.7107 10.186" stroke-width="1.4358"/>
   <path d="m39.571 40.81a1.8811 1.8811 0 0 1-1.5199 2.1833 1.8811 1.8811 0 0 1-2.1833-1.5199 1.8811 1.8811 0 0 1 1.5199-2.1833 1.8811 1.8811 0 0 1 2.1833 1.5199z" stop-color="#000000" stroke-dashoffset="59.528" stroke-linecap="round" stroke-linejoin="round" stroke-width="1.2563" style="paint-order:stroke fill markers"/>
  </g>
  <path d="m33.539 41.983-2.0726 0.30731c-0.29736-2.0102-1.8429-3.1103-3.111-3.3272l0.33141-3.9932 4.8236-0.66888 1.0628 3.8811c-0.74973 0.79761-1.3794 1.8735-1.0342 3.8009z" fill="currentColor" stroke="currentColor" stroke-width="1.4358"/>
  <path d="m28.977 42.708a1.8811 1.8811 0 0 1-1.5199 2.1833 1.8811 1.8811 0 0 1-2.1833-1.5199 1.8811 1.8811 0 0 1 1.5199-2.1833 1.8811 1.8811 0 0 1 2.1833 1.5199z" fill="none" stop-color="#000000" stroke="currentColor" stroke-dashoffset="59.528" stroke-linecap="round" stroke-linejoin="round" stroke-width="1.2563" style="paint-order:stroke fill markers"/>
  <g transform="matrix(.54536 0 0 .54536 -17.327 -50.628)" fill="currentColor">
   <g transform="matrix(.367 0 0 .367 22.822 85.614)" fill="currentColor">
    <g transform="matrix(1.0329 0 0 1.0329 103.14 74.915)" fill="currentColor">
     <path d="m27.732 175.76c-3.1676 0-5.7639 2.5963-5.7639 5.7639 0 3.1676 2.5963 5.7635 5.7639 5.7635 3.1676 0 5.7639-2.5958 5.7639-5.7635 0-3.1676-2.5962-5.7639-5.7639-5.7639zm0 2.6395c1.7412 0 3.1244 1.3832 3.1244 3.1244 0 1.7412-1.3832 3.1244-3.1244 3.1244s-3.1244-1.3832-3.1244-3.1244c0-1.7412 1.3832-3.1244 3.1244-3.1244z" color="currentColor" color-rendering="auto" dominant-baseline="auto" image-rendering="auto" shape-rendering="auto" solid-color="#000000" style="font-feature-settings:normal;font-variant-alternates:normal;font-variant-caps:normal;font-variant-ligatures:normal;font-variant-numeric:normal;font-variant-position:normal;isolation:auto;mix-blend-mode:normal;shape-padding:0;text-decoration-color:#000000;text-decoration-line:none;text-decoration-style:solid;text-indent:0;text-orientation:mixed;text-transform:none;white-space:normal"/>
     <path d="m14.236 186.43v-9.8172h2.6963v3.7333l2.9867-3.7333h3.0419l-3.5674 4.397 3.8163 5.4202h-3.0972l-2.4336-3.6089-0.74667 0.77432v2.8345z"/>
     <path d="m37.034 181.61v4.8256h-2.6963v-9.8172h2.1017l3.9407 4.9916v-4.9916h2.6963v9.8172h-2.1432z"/>
     <path d="m46.657 176.62 1.922 6.4296 1.8943-6.4296h2.8345l-3.6088 9.8172h-2.24l-3.6503-9.8172z"/>
     <path d="m61.051 184.08v2.3506h-6.9965v-9.8172h6.872v2.3506h-4.1758v1.3827h3.5674v2.1847h-3.5674v1.5486z"/>
     <path d="m64.301 176.62 1.756 4.2449 1.7975-4.2449h2.9313l-3.3876 6.5678v3.2494h-2.6825v-3.277l-3.3323-6.5402z"/>
     <path d="m82.156 186.43v-9.8172h4.5076q0.71902 0 1.3274 0.3042 0.60838 0.29036 1.037 0.77431 0.44245 0.47013 0.69134 1.0923 0.24889 0.60838 0.24889 1.2306 0 0.85729-0.37333 1.6039-0.37335 0.73284-1.037 1.203l2.074 3.6089h-3.0419l-1.7284-3.0143h-1.0094v3.0143zm2.6963-5.3649h1.7007q0.24889 0 0.45629-0.27652 0.22124-0.27655 0.22124-0.77433 0-0.5116-0.24889-0.77431-0.24887-0.27654-0.49776-0.27654h-1.6316z"/>
     <path d="m75.652 175.76c-3.1676 0-5.7639 2.5963-5.7639 5.7639 0 3.1676 2.5963 5.7635 5.7639 5.7635 3.1676 0 5.7639-2.5958 5.7639-5.7635 0-3.1676-2.5962-5.7639-5.7639-5.7639zm0 2.6395c1.7412 0 3.1244 1.3832 3.1244 3.1244 0 1.7412-1.3832 3.1244-3.1244 3.1244s-3.1244-1.3832-3.1244-3.1244c0-1.7412 1.3832-3.1244 3.1244-3.1244z" color="currentColor" color-rendering="auto" dominant-baseline="auto" image-rendering="auto" shape-rendering="auto" solid-color="#000000" style="font-feature-settings:normal;font-variant-alternates:normal;font-variant-caps:normal;font-variant-ligatures:normal;font-variant-numeric:normal;font-variant-position:normal;isolation:auto;mix-blend-mode:normal;shape-padding:0;text-decoration-color:#000000;text-decoration-line:none;text-decoration-style:solid;text-indent:0;text-orientation:mixed;text-transform:none;white-space:normal"/>
    </g>
   </g>
  </g>
 </g>
</svg>
