<svg width="360.19pt" height="97.406pt" version="1.2" viewBox="0 0 360.19 97.406" xmlns="http://www.w3.org/2000/svg">
 <g fill="currentColor">
  <path d="m69.375 41.691h-30.266c-0.78125 0-1.418 0.63281-1.418 1.4141v14.797c0 0.78125 0.63671 1.418 1.418 1.418h11.805v18.387s-2.6484 0.90234-9.9805 0.90234c-8.6484 0-20.727-3.1602-20.727-29.723 0-26.57 12.578-30.066 24.387-30.066 10.223 0 14.629 1.8008 17.43 2.668 0.8789 0.26953 1.6953-0.60547 1.6953-1.3867l3.375-14.301c0-0.36328-0.12109-0.80469-0.53906-1.1055-1.1367-0.80859-8.082-4.6953-25.621-4.6953-20.203 0-40.934 8.5977-40.934 49.922 0 41.324 23.73 47.484 43.73 47.484 16.555 0 26.598-7.0742 26.598-7.0742 0.41407-0.23047 0.46094-0.8086 0.46094-1.0742v-46.152c0-0.78125-0.63281-1.4141-1.4141-1.4141"/>
  <path d="m225.36 4.9531c0-0.78906-0.625-1.4258-1.4062-1.4258h-17.043c-0.77735 0-1.4102 0.63672-1.4102 1.4258 0 4e-3 4e-3 32.934 4e-3 32.934h-26.562v-32.934c0-0.78906-0.62891-1.4258-1.4062-1.4258h-17.043c-0.77344 0-1.4062 0.63672-1.4062 1.4258v89.176c0 0.78516 0.63281 1.4258 1.4062 1.4258h17.043c0.77734 0 1.4062-0.64062 1.4062-1.4258v-38.145h26.562s-0.0469 38.141-0.0469 38.145c0 0.78516 0.63281 1.4258 1.4141 1.4258h17.082c0.77735 0 1.4024-0.64062 1.4062-1.4258z"/>
  <path d="m101.54 16.652c0-6.1328-4.9219-11.094-10.992-11.094-6.0625 0-10.984 4.9609-10.984 11.094s4.9219 11.105 10.984 11.105c6.0703 0 10.992-4.9727 10.992-11.105"/>
  <path d="m100.32 75.316v-41.164c0-0.78125-0.63282-1.418-1.4102-1.418h-16.988c-0.78125 0-1.4766 0.80078-1.4766 1.582v58.977c0 1.7344 1.0781 2.25 2.4766 2.25h15.305c1.6797 0 2.0938-0.82422 2.0938-2.2773z"/>
  <path d="m290.12 32.867h-16.91c-0.77734 0-1.4062 0.63672-1.4062 1.4258v43.727s-4.2969 3.1445-10.395 3.1445c-6.0976 0-7.7188-2.7695-7.7188-8.7383v-38.133c0-0.78906-0.6289-1.4258-1.4062-1.4258h-17.164c-0.77344 0-1.4062 0.63672-1.4062 1.4258v41.02c0 17.734 9.8828 22.074 23.48 22.074 11.156 0 20.148-6.1641 20.148-6.1641s0.42968 3.25 0.625 3.6328c0.1914 0.38282 0.69531 0.77344 1.2422 0.77344l10.918-0.0508c0.77344 0 1.4102-0.63672 1.4102-1.4219l-8e-3 -59.863c0-0.78906-0.62891-1.4258-1.4102-1.4258"/>
  <path d="m329.68 81.109c-5.8672-0.17969-9.8477-2.8398-9.8477-2.8398v-28.242s3.9258-2.4062 8.7422-2.8359c6.0898-0.54687 11.957 1.293 11.957 15.82 0 15.32-2.6484 18.344-10.852 18.098m6.668-50.246c-9.6055 0-16.137 4.2852-16.137 4.2852v-30.195c0-0.78906-0.63282-1.4258-1.4062-1.4258h-17.094c-0.77344 0-1.4062 0.63672-1.4062 1.4258v89.176c0 0.78906 0.63281 1.4258 1.4102 1.4258h11.859c0.53125 0 0.9375-0.27344 1.2344-0.75781 0.29688-0.47656 0.72266-4.1094 0.72266-4.1094s6.9883 6.6211 20.215 6.6211c15.531 0 24.441-7.8789 24.441-35.363 0-27.488-14.227-31.082-23.84-31.082"/>
  <path d="m149.3 32.727h-12.785s-0.0195-16.887-0.0195-16.891c0-0.64062-0.32813-0.96093-1.0703-0.96093h-17.418c-0.67579 0-1.043 0.30078-1.043 0.95312v17.449s-8.7266 2.1094-9.3203 2.2773c-0.58593 0.17188-1.0195 0.71485-1.0195 1.3594v10.969c0 0.78906 0.62891 1.4258 1.4102 1.4258h8.9297v26.383c0 19.598 13.746 21.52 23.023 21.52 4.2383 0 9.3086-1.3594 10.145-1.668 0.50781-0.1875 0.80078-0.71093 0.80078-1.2773l0.0156-12.066c0-0.78515-0.66406-1.4219-1.4141-1.4219-0.74609 0-2.6523 0.30078-4.6133 0.30078-6.2774 0-8.4062-2.918-8.4062-6.6992v-25.07h12.785c0.77735 0 1.4102-0.63672 1.4102-1.4258v-13.738c0-0.78516-0.63281-1.418-1.4102-1.418"/>
 </g>
</svg>
