<svg enable-background="new 0 0 1440 762.871" version="1.1" viewBox="0 0 1379 704.95" xmlns="http://www.w3.org/2000/svg">
 <g transform="translate(-30.491 -26.464)">
  <linearGradient id="SVGID_1_" x1="877.47" x2="1286.7" y1="373.63" y2="373.63" gradientUnits="userSpaceOnUse">
   <stop stop-color="#FAAB43" stop-opacity="0" offset="0"/>
   <stop stop-color="#FAAB43" offset=".95"/>
  </linearGradient>
  <path d="m1282.3 369.21c-132.06-0.207-265.74-0.208-397.4-4e-3v9c131.65-0.204 265.33-0.203 397.38 4e-3h0.01c2.482 0 4.496-2.01 4.5-4.493 0-2.485-2.008-4.503-4.493-4.507z" fill="url(#SVGID_1_)"/>
  <linearGradient id="SVGID_00000020373935808374925940000003038999910597788078_" x1="801.59" x2="1286.7" y1="156.04" y2="156.04" gradientUnits="userSpaceOnUse">
   <stop stop-color="#FAAB43" stop-opacity="0" offset="0"/>
   <stop stop-color="#FAAB43" offset=".95"/>
  </linearGradient>
  <path d="m1282.2 224.04c-39.829-0.01-79.783-0.018-119.79-0.023v-128.48c0-3.995 2.417-7.5 5.173-7.5h114.62c2.485 0 4.5-2.015 4.5-4.5s-2.015-4.5-4.5-4.5h-114.62c-7.814 0-14.173 7.402-14.173 16.5v128.48c-115.97-0.013-232.35-6e-3 -347.41 0.024-0.893 0-1.721 0.263-2.417 0.714 3.928 1.75 7.11 4.821 10.41 7.609 0.241 0.204 0.447 0.433 0.631 0.676 113.66-0.028 228.56-0.035 343.06-0.021 0.078 4e-3 0.151 0.023 0.229 0.023s0.151-0.019 0.229-0.023c41.434 5e-3 82.814 0.013 124.06 0.023h1e-3c2.484 0 4.499-2.014 4.5-4.499 0-2.487-2.013-4.502-4.498-4.503z" fill="url(#SVGID_00000020373935808374925940000003038999910597788078_)"/>
  <linearGradient id="SVGID_00000028305915400310649500000015507233204392779402_" x1="800.11" x2="1286.7" y1="518.74" y2="518.74" gradientUnits="userSpaceOnUse">
   <stop stop-color="#FAAB43" stop-opacity="0" offset="0"/>
   <stop stop-color="#FAAB43" offset=".95"/>
  </linearGradient>
  <path d="m1282.3 514.38c-155.15-0.369-312.38-0.374-467.54-0.021-3.857 3.201-8.482 5.411-12.664 8.221 0.726 0.502 1.604 0.8 2.554 0.8h0.011c158.42-0.378 319.11-0.378 477.62 0h0.011c2.48 0 4.494-2.008 4.5-4.489 0.01-2.485-2.005-4.505-4.49-4.511z" fill="url(#SVGID_00000028305915400310649500000015507233204392779402_)"/>
  <path d="m680.68 522.34h-63.62c26.656 16.461 58.036 25.976 91.6 25.976 96.411 0 174.85-78.436 174.85-174.85s-78.437-174.85-174.85-174.85c-33.564 0-64.944 9.515-91.601 25.977h63.62v297.74z" fill="none"/>
  <linearGradient id="SVGID_00000008125725803904218230000009241048387076806560_" x1="33.17" x2="680.68" y1="373.47" y2="373.47" gradientUnits="userSpaceOnUse">
   <stop stop-color="#FAAB43" stop-opacity="0" offset="0"/>
   <stop stop-color="#FAAB43" offset=".95"/>
  </linearGradient>
  <path d="m530.81 373.47c0-62.226 32.13-117.08 80.664-148.87h-578.31v297.74h578.31c-48.534-31.79-80.664-86.645-80.664-148.87z" fill="url(#SVGID_00000008125725803904218230000009241048387076806560_)"/>
  <linearGradient id="SVGID_00000000927144608524123640000004217519692626857917_" x1="748.99" x2="748.99" y1="551.32" y2="195.62" gradientUnits="userSpaceOnUse">
   <stop stop-color="#FAAB43" offset="0"/>
   <stop stop-color="#FAAB43" offset="1"/>
  </linearGradient>
  <path d="m708.66 195.62c-35.84 0-69.231 10.666-97.184 28.977h5.584c26.656-16.462 58.036-25.977 91.601-25.977 96.411 0 174.85 78.437 174.85 174.85s-78.437 174.85-174.85 174.85c-33.564 0-64.944-9.515-91.6-25.976h-5.584c27.954 18.31 61.344 28.976 97.184 28.976 98.065 0 177.85-79.782 177.85-177.85-1e-3 -98.066-79.783-177.85-177.85-177.85z" fill="url(#SVGID_00000000927144608524123640000004217519692626857917_)"/>
  <path d="m533.81 373.47c0-62.847 33.336-118.05 83.248-148.87h-5.584c-48.534 31.791-80.664 86.645-80.664 148.87s32.13 117.08 80.664 148.87h5.584c-49.913-30.823-83.248-86.024-83.248-148.87z" fill="url(#SVGID_00000008125725803904218230000009241048387076806560_)"/>
  <linearGradient id="SVGID_00000175316673719106143740000017784857795219854739_" x1="573.94" x2="573.94" y1="551.32" y2="195.62" gradientUnits="userSpaceOnUse">
   <stop stop-color="#FAAB43" offset="0"/>
   <stop stop-color="#FAAB43" offset="1"/>
  </linearGradient>
  <path d="m533.81 373.47c0-62.847 33.336-118.05 83.248-148.87h-5.584c-48.534 31.791-80.664 86.645-80.664 148.87s32.13 117.08 80.664 148.87h5.584c-49.913-30.823-83.248-86.024-83.248-148.87z" fill="url(#SVGID_00000175316673719106143740000017784857795219854739_)"/>
  <g id="g69545_00000028311283517303469520000009425056012801552561_" transform="translate(-205.02 -8.4125)">
   <g id="text2288_00000103985956526972265890000017922620193641456794_" transform="matrix(1.0317 0 0 .96923 0 5.2917)" fill="#fff">
    <path id="path65755_00000038408713016946505910000014133978451154454684_" d="m1492.2 581.08h-3.721v9.85h-3.557v-9.85h-3.74v-3.101h11.018z"/>
    <path id="path65757_00000054979259262888709300000017225538798664150658_" d="m1495.7 577.98h3.247l4.487 12.951h-3.612l-0.784-2.536h-3.448l-0.766 2.536h-3.63zm2.773 8.044-1.149-4.013-1.204 4.013z"/>
    <path id="path65759_00000130618663764809986590000011622148571827322255_" d="m1503.3 584.35c0-0.79 0.146-1.569 0.438-2.335 0.304-0.766 0.742-1.453 1.313-2.061 0.572-0.608 1.265-1.101 2.079-1.478 0.815-0.377 1.745-0.565 2.791-0.565 1.253 0 2.335 0.261 3.247 0.784 0.924 0.511 1.611 1.192 2.061 2.043l-2.718 1.934c-0.121-0.316-0.286-0.578-0.492-0.784-0.195-0.207-0.414-0.371-0.657-0.492-0.243-0.122-0.499-0.207-0.766-0.255-0.255-0.049-0.505-0.073-0.748-0.073-0.511 0-0.955 0.103-1.332 0.31-0.365 0.195-0.669 0.456-0.912 0.784-0.231 0.316-0.407 0.681-0.529 1.094-0.109 0.401-0.164 0.803-0.164 1.204 0 0.45 0.067 0.882 0.201 1.295 0.134 0.414 0.328 0.778 0.584 1.094 0.255 0.316 0.565 0.572 0.93 0.766 0.377 0.182 0.797 0.274 1.259 0.274 0.243 0 0.492-0.024 0.748-0.073 0.255-0.061 0.499-0.152 0.73-0.274 0.243-0.134 0.456-0.298 0.638-0.492 0.195-0.207 0.347-0.456 0.456-0.748l2.9 1.733c-0.195 0.474-0.492 0.9-0.894 1.277-0.389 0.377-0.839 0.693-1.35 0.949-0.499 0.255-1.04 0.45-1.623 0.584-0.572 0.134-1.131 0.201-1.678 0.201-0.961 0-1.842-0.189-2.645-0.565-0.791-0.389-1.478-0.9-2.061-1.532-0.572-0.632-1.015-1.35-1.332-2.152-0.316-0.805-0.474-1.62-0.474-2.447z"/>
    <path id="path65761_00000150082603117412896470000016971533153088674233_" d="m1516.6 590.93v-12.951h3.557v4.925l3.94-4.925h4.013l-4.706 5.801 5.035 7.151h-4.086l-3.211-4.761-0.985 1.022v3.739h-3.557z"/>
    <path id="path65763_00000115515119234225450470000018095061453739797406_" d="m1529.2 590.93v-12.951h3.557v9.85h5.874v3.101z"/>
    <path id="path65765_00000038381196826474706350000004496682785225986218_" d="m1549.1 587.83v3.101h-9.23v-12.951h9.066v3.101h-5.509v1.824h4.706v2.882h-4.706v2.043z"/>
   </g>
   <g id="g2463_00000145030435122715887420000017469551215637747860_" transform="matrix(.90772 0 0 .90772 359.27 7.5951)">
    <g fill="#ac9565">
     <path id="rect2425_00000149365865272322899230000001855475385483601027_" d="m1336 515.97 3.656 2.111v28.753l-3.656-2.111z"/>
     <path id="rect2427_00000153692615945041301610000006635898440392923581_" d="m1316 515.97-3.656 2.111v30.04l3.656-2.11z"/>
     <path id="circle2403_00000171718851770328467420000007476830052628175293_" d="m1326.1 565.13c-2.889 0-5.243 2.289-5.347 5.152-1e-3 0.033-1e-3 4.832 0 9.204 0 0.996 0.19 1.418 0.812 2.04 2.895 2.895 6.15 6.151 6.165 6.167 1.378 1.482 1.439 3.901-0.097 5.245v1e-3c-1.543 1.35-3.785 1.475-5.266 0.077-0.01-8e-3 -2.602-2.607-4.408-4.416-0.569-0.569-1.719-0.285-1.719 0.923 0 1.374 1.517 1.285 1.517 1.928 0 4.684 3.66 8.003 8.345 8.003s8.482-3.797 8.483-8.482c0-2.563-1.16-4.989-3.154-6.6-0-5.584 0.02-14.013 0.02-14.049-0.084-2.882-2.447-5.193-5.349-5.193z"/>
    </g>
    <path d="m1342.7 545.24c1e-3 -9.148-7.415-16.564-16.562-16.564-1e-3 0-1e-3 0 0 0-9.148 0-16.563 7.416-16.563 16.564v1e-3c0 1.645 0.246 3.28 0.728 4.853l-0.057 0.019 7.77 23.335c0.771 3.875 4.172 6.666 8.123 6.667 3.78 0 7.081-2.56 8.021-6.221l7.919-23.78-0.099-0.034c0.477-1.57 0.721-3.201 0.722-4.84zm-14.25 27.961c-0.147 0.139-3.078 0.841-3.271 0.784s-2.267-2.245-2.314-2.441 0.81-3.086 0.957-3.225c0.146-0.139 3.078-0.841 3.271-0.784 0.194 0.057 2.267 2.245 2.314 2.441 0.047 0.197-0.811 3.086-0.957 3.225zm2.314-23.079c-0.293 0.278-6.155 1.682-6.542 1.567s-4.534-4.49-4.628-4.882c-0.094-0.393 1.621-6.172 1.914-6.449 0.293-0.278 6.155-1.682 6.542-1.567s4.534 4.49 4.628 4.882-1.621 6.171-1.914 6.449z" fill="#fff"/>
   </g>
   <g id="g69317_00000026861585189550379710000017893354538367140017_" transform="matrix(.54536 0 0 .54536 190.95 -41.621)">
    <g id="g69315_00000155862308999227698930000010649537784198275970_" transform="matrix(.367 0 0 .367 22.822 85.614)">
     <g id="g69313_00000013904939997292459510000002106601139850516115_" transform="matrix(1.0329 0 0 1.0329 103.14 74.915)" fill="#fff">
      <path id="path69297_00000034783078550231286240000001387118310776893857_" d="m6346.7 2593.3c-8.979 0-16.338 7.359-16.338 16.339 0 8.979 7.359 16.337 16.338 16.337s16.339-7.358 16.339-16.337-7.36-16.339-16.339-16.339zm0 7.482c4.936 0 8.856 3.921 8.856 8.856s-3.92 8.856-8.856 8.856-8.856-3.921-8.856-8.856 3.921-8.856 8.856-8.856z"/>
      <path id="path69299_00000121986597206107779110000015045474168274523030_" d="m6308.5 2623.5v-27.828h7.643v10.583l8.466-10.583h8.623l-10.112 12.464 10.818 15.365h-8.779l-6.898-10.23-2.117 2.195v8.035h-7.644z"/>
      <path id="path69301_00000113343867780484574470000002785222663640177083_" d="m6373.1 2609.8v13.679h-7.643v-27.828h5.958l11.17 14.149v-14.149h7.643v27.828h-6.075z"/>
      <path id="path69303_00000130610066780419150350000011329717245008336056_" d="m6400.4 2595.7 5.448 18.226 5.37-18.226h8.035l-10.23 27.828h-6.35l-10.347-27.828z"/>
      <path id="path69305_00000061447455385699538840000012462828614989723054_" d="m6441.2 2616.9v6.663h-19.833v-27.828h19.479v6.663h-11.837v3.919h10.112v6.193h-10.112v4.39z"/>
      <path id="path69307_00000018203674195109623350000007946184555716612256_" d="m6450.4 2595.7 4.978 12.033 5.095-12.033h8.309l-9.603 18.617v9.211h-7.604v-9.289l-9.446-18.539z"/>
      <path id="path69309_00000065796262917559487050000002736411477148274344_" d="m6501 2623.5v-27.828h12.777c1.359 0 2.613 0.287 3.763 0.862 1.15 0.549 2.13 1.28 2.94 2.195 0.836 0.888 1.489 1.921 1.959 3.096 0.47 1.15 0.706 2.312 0.706 3.488 0 1.62-0.353 3.136-1.058 4.547-0.706 1.385-1.686 2.521-2.94 3.41l5.879 10.23h-8.623l-4.899-8.544h-2.861v8.544zm7.643-15.208h4.821c0.47 0 0.901-0.261 1.293-0.784 0.418-0.523 0.627-1.254 0.627-2.195 0-0.967-0.235-1.698-0.706-2.195-0.47-0.523-0.94-0.784-1.411-0.784h-4.625v5.958z"/>
      <path id="path69311_00000170991749756997251490000008453976459218233497_" d="m6482.6 2593.3c-8.979 0-16.339 7.359-16.339 16.339 0 8.979 7.36 16.337 16.339 16.337s16.338-7.358 16.338-16.337-7.359-16.339-16.338-16.339zm0 7.482c4.936 0 8.856 3.921 8.856 8.856s-3.921 8.856-8.856 8.856c-4.936 0-8.856-3.921-8.856-8.856s3.92-8.856 8.856-8.856z"/>
     </g>
    </g>
   </g>
  </g>
  <g id="g69575_00000070082859826348864650000013479918070285930685_" transform="translate(-255.46 -11.336)">
   <g id="text3286_00000036216929378546486550000018002454429092633996_" transform="matrix(1.0317 0 0 .96923 0 5.2917)" fill="#fff">
    <path id="path65735_00000066513374769299437610000001219519982684000190_" d="m1522.7 433.53v-5.824l-1.853 4.096h-1.62l-1.853-4.096v5.824h-3.037v-11.057h3.317l2.383 5.201 2.398-5.201h3.301v11.057z"/>
    <path id="path65737_00000009566775997308852650000013542200306894170530_" d="m1532.6 433.63c-0.841 0-1.604-0.161-2.289-0.483s-1.272-0.742-1.76-1.261c-0.488-0.529-0.867-1.132-1.137-1.806-0.27-0.675-0.405-1.37-0.405-2.087 0-0.727 0.14-1.428 0.42-2.102 0.28-0.675 0.67-1.267 1.168-1.775 0.509-0.519 1.106-0.929 1.791-1.23 0.696-0.311 1.453-0.467 2.274-0.467 0.841 0 1.604 0.161 2.289 0.483s1.272 0.747 1.76 1.277c0.488 0.529 0.862 1.132 1.121 1.806 0.27 0.675 0.405 1.365 0.405 2.071 0 0.727-0.14 1.428-0.421 2.102-0.28 0.664-0.67 1.256-1.168 1.775-0.498 0.509-1.095 0.919-1.791 1.23-0.684 0.311-1.437 0.467-2.257 0.467zm-2.507-5.606c0 0.374 0.052 0.737 0.156 1.09 0.104 0.343 0.259 0.649 0.467 0.919s0.467 0.488 0.779 0.654c0.322 0.166 0.701 0.249 1.137 0.249s0.815-0.083 1.137-0.249c0.322-0.176 0.581-0.4 0.779-0.67 0.208-0.28 0.358-0.597 0.452-0.95 0.104-0.353 0.156-0.711 0.156-1.075 0-0.374-0.052-0.732-0.156-1.075-0.104-0.353-0.265-0.659-0.483-0.919-0.208-0.27-0.472-0.483-0.794-0.638-0.311-0.166-0.68-0.249-1.106-0.249-0.436 0-0.815 0.083-1.137 0.249-0.312 0.166-0.571 0.389-0.779 0.67-0.208 0.27-0.363 0.581-0.467 0.934-0.094 0.344-0.141 0.697-0.141 1.06z"/>
    <path id="path65739_00000075881459126605130220000000626477506987960755_" d="m1541.2 422.48 2.165 7.241 2.134-7.241h3.193l-4.065 11.057h-2.523l-4.111-11.057z"/>
    <path id="path65741_00000155832426518908860300000003988539560811588271_" d="m1557.5 430.88v2.647h-7.88v-11.057h7.74v2.647h-4.703v1.557h4.018v2.461h-4.018v1.744h4.843z"/>
    <path id="path65743_00000076575663002444207330000014845920355052266142_" d="m1558.9 434.28c0-0.752 0.056-1.424 0.168-2.016s0.304-1.128 0.576-1.608c0.272-0.496 0.64-0.952 1.104-1.368s1.048-0.824 1.752-1.224c0.752-0.416 1.376-0.76 1.872-1.032 0.512-0.272 0.912-0.512 1.2-0.72 0.304-0.208 0.52-0.392 0.648-0.552 0.128-0.176 0.192-0.376 0.192-0.6 0-0.448-0.16-0.808-0.48-1.08s-0.776-0.408-1.368-0.408c-0.672 0-1.256 0.168-1.752 0.504-0.496 0.32-0.976 0.744-1.44 1.272l-2.448-2.832c0.256-0.288 0.6-0.568 1.032-0.84s0.92-0.512 1.464-0.72c0.544-0.224 1.136-0.4 1.776-0.528 0.656-0.128 1.336-0.192 2.04-0.192 1.728 0 3.048 0.376 3.96 1.128 0.928 0.752 1.392 1.768 1.392 3.048 0 0.528-0.088 1-0.264 1.416-0.16 0.416-0.376 0.792-0.648 1.128-0.272 0.32-0.576 0.608-0.912 0.864-0.336 0.24-0.68 0.464-1.032 0.672-0.24 0.144-0.528 0.312-0.864 0.504s-0.672 0.392-1.008 0.6c-0.32 0.192-0.624 0.392-0.912 0.6-0.272 0.192-0.48 0.368-0.624 0.528h6.528v3.456z"/>
    <path id="path65745_00000036250685502408873010000000166061187382340004_" d="m1572.8 433.53v-11.057h3.037v4.205l3.364-4.205h3.426l-4.018 4.952 4.298 6.105h-3.488l-2.741-4.065-0.841 0.872v3.192z"/>
    <path id="path65747_00000183212644144278504580000014760205397310673841_" d="m1588.4 430.93c0.353 0 0.654-0.078 0.903-0.234s0.452-0.358 0.607-0.607c0.156-0.26 0.27-0.555 0.343-0.888 0.073-0.332 0.109-0.68 0.109-1.043v-5.684h3.037v5.684c0 0.768-0.099 1.49-0.296 2.165-0.197 0.664-0.504 1.241-0.919 1.729s-0.94 0.872-1.573 1.152c-0.623 0.28-1.36 0.421-2.211 0.42-0.882 0-1.64-0.145-2.274-0.436-0.623-0.301-1.137-0.701-1.542-1.199s-0.701-1.075-0.888-1.729c-0.187-0.664-0.28-1.365-0.28-2.102v-5.684h3.037v5.684c0 0.363 0.036 0.716 0.109 1.059 0.073 0.332 0.187 0.628 0.343 0.888 0.156 0.249 0.353 0.452 0.592 0.607 0.249 0.145 0.55 0.218 0.903 0.218z"/>
    <path id="path65749_00000035508327162018748610000015043175678268979842_" d="m1604.5 430.7c0 0.498-0.104 0.929-0.311 1.293-0.208 0.353-0.493 0.644-0.857 0.872s-0.789 0.4-1.277 0.514c-0.478 0.104-0.986 0.156-1.526 0.156h-5.435v-11.057h6.416c0.384 0 0.732 0.083 1.043 0.249s0.576 0.384 0.794 0.654c0.218 0.26 0.384 0.561 0.498 0.903 0.124 0.332 0.187 0.675 0.187 1.028 0 0.519-0.135 1.017-0.405 1.495-0.259 0.467-0.654 0.82-1.183 1.059 0.633 0.187 1.132 0.514 1.495 0.981 0.374 0.457 0.561 1.075 0.561 1.853zm-3.084-0.622c0-0.27-0.073-0.493-0.218-0.67-0.145-0.187-0.332-0.28-0.561-0.28h-2.507v1.853h2.398c0.249 0 0.457-0.078 0.623-0.234 0.177-0.156 0.265-0.379 0.265-0.669zm-3.285-5.015v1.697h2.071c0.208 0 0.395-0.057 0.561-0.171 0.177-0.114 0.265-0.343 0.265-0.685 0-0.301-0.073-0.514-0.218-0.638-0.145-0.135-0.317-0.202-0.514-0.202h-2.165z"/>
    <path id="path65751_00000109006627655756576000000010998633094877734789_" d="m1613.7 430.88v2.647h-7.88v-11.057h7.74v2.647h-4.703v1.557h4.018v2.461h-4.018v1.744h4.843z"/>
   </g>
   <g id="g69386_00000021101303079792303780000013250598063761687224_" transform="translate(0 2.6458)">
    <path id="path3298_00000176723737615204319940000011235744341443888261_" d="m1619.4 365.71c0.319 0.131 0.47 0.495 0.339 0.813l-9.256 22.46c-0.132 0.319-0.495 0.47-0.813 0.339l-22.46-9.256c-0.319-0.132-0.469-0.494-0.337-0.813l9.256-22.46c0.132-0.319 0.493-0.471 0.812-0.339zm-9.682-0.264-5.721-2.358c-0.516-0.213-1.101 0.031-1.313 0.547-0.213 0.515 0.031 1.101 0.547 1.313l5.721 2.358c0.516 0.213 1.102-0.031 1.314-0.546 0.213-0.516-0.032-1.102-0.548-1.314z" fill="#ac9565"/>
    <g fill="none" stroke="#fff" stroke-linecap="round" stroke-linejoin="round" stroke-miterlimit="11.339">
     <path id="path3300_00000031896416698341411940000004410082395305323701_" d="m1647.4 341.51-14.039 5.583c-1.214 0.488-2.28 1.643-2.989 3.304l-18.271 43.613-16.908-6.795" stroke-width="2.5427"/>
     <path id="circle3304_00000027572604356625115520000007538408187428788358_" d="m1629.5 392.42c0.103 2.893-2.158 5.321-5.051 5.424s-5.321-2.159-5.424-5.051c-0.103-2.893 2.158-5.321 5.051-5.424s5.321 2.159 5.424 5.051z" stroke-width="3.5004"/>
     <path id="path3318_00000005258281292471150380000006065823077264507817_" d="m1647.4 341.51-10.383 4.129" stroke-width="3.6765"/>
    </g>
    <path id="path2572-1_00000157272936316980785300000002455769935794377349_" d="m1621.9 373.76 2.638 10.332c-0.81-0.017-1.708 0.059-2.258 0.152l-1.824-7.569z" fill="#fff"/>
    <path id="path3341_00000055681634613442697020000011503942643564698507_" d="m1612.1 395.28 4.242-6e-3c-0.219-0.78-0.368-1.669-0.414-2.225l-2.938 0.043z" fill="#fff"/>
   </g>
   <g id="g69339_00000021090478051785556600000000440003754225242533_" transform="matrix(.54536 0 0 .54536 235.65 -41.621)">
    <g id="g69337_00000058564674823261144270000001135059423658036360_" transform="matrix(.367 0 0 .367 22.822 85.614)">
     <g id="g69335_00000088815551042055321970000007553329186906048686_" transform="matrix(1.0329 0 0 1.0329 103.14 74.915)" fill="#fff">
      <path id="path69319_00000070809923818264687330000009505851142412075409_" d="m6295.8 1862.5c-8.979 0-16.338 7.359-16.338 16.339 0 8.979 7.359 16.338 16.338 16.338s16.339-7.358 16.339-16.338-7.36-16.339-16.339-16.339zm0 7.482c4.936 0 8.856 3.921 8.856 8.856 0 4.936-3.921 8.857-8.856 8.857s-8.856-3.921-8.856-8.857c0-4.935 3.921-8.856 8.856-8.856z"/>
      <path id="path69321_00000011012171777139746820000011301741458613895344_" d="m6257.5 1892.8v-27.828h7.643v10.583l8.466-10.583h8.623l-10.112 12.464 10.818 15.364h-8.78l-6.898-10.23-2.117 2.195v8.035z"/>
      <path id="path69323_00000001630233516708067710000000647288514745008027_" d="m6322.2 1879.1v13.679h-7.643v-27.828h5.958l11.17 14.149v-14.149h7.643v27.828h-6.075z"/>
      <path id="path69325_00000111888252221838625250000016996203161135877800_" d="m6349.4 1865 5.448 18.226 5.37-18.226h8.035l-10.23 27.828h-6.35l-10.347-27.828z"/>
      <path id="path69327_00000177456602632786490050000007239846384666736536_" d="m6390.3 1886.1v6.663h-19.833v-27.828h19.479v6.663h-11.837v3.919h10.112v6.193h-10.112v4.39z"/>
      <path id="path69329_00000005224914599668316330000001784876529167963312_" d="m6399.5 1865 4.978 12.033 5.095-12.033h8.309l-9.603 18.618v9.211h-7.604v-9.289l-9.446-18.539h8.271z"/>
      <path id="path69331_00000051366950515035892880000014368034770452100755_" d="m6450.1 1892.8v-27.828h12.777c1.359 0 2.613 0.287 3.763 0.862 1.15 0.549 2.129 1.28 2.939 2.195 0.836 0.888 1.49 1.921 1.96 3.096 0.47 1.15 0.706 2.312 0.706 3.488 0 1.62-0.353 3.136-1.058 4.547-0.706 1.385-1.686 2.521-2.94 3.41l5.879 10.23h-8.623l-4.899-8.544h-2.861v8.544zm7.643-15.208h4.821c0.47 0 0.901-0.261 1.293-0.784 0.418-0.523 0.627-1.254 0.627-2.195 0-0.967-0.235-1.698-0.706-2.195-0.47-0.523-0.94-0.784-1.411-0.784h-4.625z"/>
      <path id="path69333_00000147900405644832919920000015322508912182286209_" d="m6431.6 1862.5c-8.979 0-16.339 7.359-16.339 16.339 0 8.979 7.36 16.338 16.339 16.338s16.338-7.358 16.338-16.338-7.359-16.339-16.338-16.339zm0 7.482c4.936 0 8.856 3.921 8.856 8.856 0 4.936-3.921 8.857-8.856 8.857-4.936 0-8.856-3.921-8.856-8.857 0-4.935 3.92-8.856 8.856-8.856z"/>
     </g>
    </g>
   </g>
  </g>
  <g id="g69433_00000000929684999299764270000006407324913500167072_" transform="translate(-55.191 -9.0066)">
   <g id="text2396_00000003783743673455735550000007960161938277855873_" transform="matrix(1.0317 0 0 .96923 0 5.2917)" fill="#fff">
    <path id="path65798_00000081646073229949829390000012720145108087994541_" d="m1327 290.71v-12.951h8.884v3.101h-5.326v2.152h4.341v2.882h-4.341v4.816z"/>
    <path id="path65800_00000111887268168058677830000006397138997466302625_" d="m1343 290.82c-0.985 0-1.879-0.189-2.681-0.565s-1.49-0.869-2.061-1.478c-0.572-0.62-1.015-1.326-1.332-2.116-0.316-0.79-0.474-1.605-0.474-2.444 0-0.851 0.164-1.672 0.493-2.463 0.328-0.79 0.784-1.484 1.368-2.079 0.596-0.608 1.295-1.088 2.098-1.441 0.815-0.365 1.703-0.547 2.663-0.547 0.985 0 1.879 0.189 2.682 0.565s1.49 0.876 2.061 1.496c0.572 0.62 1.009 1.326 1.313 2.116 0.316 0.79 0.474 1.599 0.474 2.426 0 0.851-0.164 1.672-0.493 2.463-0.328 0.778-0.784 1.471-1.368 2.08-0.584 0.596-1.283 1.076-2.098 1.441-0.803 0.364-1.685 0.546-2.645 0.546zm-2.937-6.567c0 0.438 0.061 0.863 0.182 1.277 0.122 0.401 0.304 0.76 0.547 1.076s0.547 0.572 0.912 0.766c0.377 0.195 0.821 0.292 1.332 0.292s0.955-0.097 1.332-0.292c0.377-0.207 0.681-0.468 0.912-0.784 0.243-0.328 0.42-0.699 0.529-1.113 0.122-0.413 0.182-0.833 0.182-1.259 0-0.438-0.061-0.857-0.182-1.259-0.122-0.413-0.31-0.772-0.566-1.076-0.243-0.316-0.553-0.565-0.93-0.748-0.365-0.195-0.797-0.292-1.295-0.292-0.511 0-0.955 0.097-1.332 0.292-0.365 0.195-0.669 0.456-0.912 0.784-0.243 0.316-0.426 0.681-0.547 1.094-0.109 0.403-0.164 0.817-0.164 1.242z"/>
    <path id="path65802_00000182526237365455654130000004408249282886124693_" d="m1351.1 290.71v-12.951h5.947c0.632 0 1.216 0.134 1.751 0.401 0.535 0.255 0.991 0.596 1.368 1.022 0.389 0.413 0.693 0.894 0.912 1.441 0.219 0.535 0.328 1.076 0.328 1.624 0 0.754-0.164 1.459-0.493 2.116-0.328 0.645-0.784 1.174-1.368 1.587l2.736 4.761h-4.013l-2.28-3.977h-1.332v3.977h-3.556zm3.557-7.078h2.244c0.219 0 0.42-0.122 0.602-0.365 0.195-0.243 0.292-0.584 0.292-1.022 0-0.45-0.109-0.79-0.328-1.022-0.219-0.243-0.438-0.365-0.657-0.365h-2.152v2.774z"/>
    <path id="path65804_00000025413196907098562590000006811562990259110565_" d="m1363.4 290.71v-12.951h3.557v4.925l3.94-4.925h4.013l-4.706 5.801 5.035 7.151h-4.086l-3.21-4.761-0.985 1.022v3.739h-3.558z"/>
    <path id="path65806_00000013901977574787213330000010053078894129311678_" d="m1376 290.71v-12.951h3.557v9.85h5.874v3.101z"/>
    <path id="path65808_00000165234486545906106690000016579220868989428116_" d="m1386.7 290.71v-12.951h3.557v12.951z"/>
    <path id="path65810_00000019669856162807796130000016091491327451677069_" d="m1392.5 290.71v-12.951h8.884v3.101h-5.327v2.152h4.341v2.882h-4.341v4.816z"/>
    <path id="path65812_00000026867917939902411500000015081234967130590615_" d="m1412.8 280.86h-3.721v9.85h-3.557v-9.85h-3.74v-3.101h11.018z"/>
   </g>
   <g id="g969_00000092454039846455747440000009759939152556665776_" transform="matrix(.88332 -.15823 .15823 .88332 -17.496 25.394)">
    <path id="path2422_00000119801166975990222840000004779922269810819231_" d="m1541.9 467.48c-0.383 0.027-0.67 0.359-0.643 0.742l1.947 27c0.028 0.383 0.359 0.67 0.742 0.643l27-1.947c0.383-0.028 0.668-0.359 0.641-0.742l-1.947-27c-0.028-0.383-0.357-0.67-0.741-0.643zm10.338 3.103 6.878-0.496c0.62-0.045 1.154 0.418 1.199 1.037 0.045 0.62-0.418 1.154-1.037 1.199l-6.878 0.496c-0.62 0.045-1.156-0.417-1.2-1.037-0.046-0.62 0.418-1.154 1.038-1.199z" fill="#ac9565"/>
    <g fill="none" stroke="#fff" stroke-miterlimit="10.175">
     <path id="path2461_00000057111724811577360050000004927254911370157447_" d="m1537.9 475.24 1.804 24.732 36.808-2.685" stroke-linejoin="round" stroke-width="2.5438"/>
     <path id="path2463_00000126292572136410293810000003222939381788555451_" d="m1532.6 483.17 2.755 33.182" stroke-width="4.07"/>
     <path id="path2465_00000083055056116081754290000000385634479367886232_" d="m1542.5 526.67c0 3.282-2.66 5.942-5.942 5.942v0c-3.282 0-5.942-2.66-5.942-5.942v0c0-3.282 2.66-5.942 5.942-5.942v0c3.281 1e-3 5.942 2.661 5.942 5.942z" stroke-linecap="round" stroke-linejoin="round" stroke-width="3.5613"/>
    </g>
    <path id="path2572_00000042727976299168245500000016225420791482657672_" d="m1523 526.95-6.615-0.199c0.195-6.416-3.998-10.697-7.82-12.078l3.255-12.232 15.37 0.607 1.143 12.659c-2.776 2.063-5.333 5.058-5.333 11.243z" fill="#fff" stroke="#fff" stroke-miterlimit="10.175" stroke-width="4.07"/>
    <path id="circle2574_00000145748063446494736600000011781263528045795997_" d="m1508.5 526.67c0 3.282-2.66 5.942-5.942 5.942v0c-3.282 0-5.942-2.66-5.942-5.942v0c0-3.282 2.66-5.942 5.942-5.942v0c3.281 1e-3 5.942 2.661 5.942 5.942z" fill="none" stroke="#fff" stroke-linecap="round" stroke-linejoin="round" stroke-miterlimit="10.175" stroke-width="3.5613"/>
   </g>
   <g id="g68035-5_00000111912489502367031210000007707246006975248013_" transform="matrix(.54536 0 0 .54536 37.864 -41.621)">
    <g id="g5295-6-3_00000101061174026925969600000000721036917641425568_" transform="matrix(.367 0 0 .367 22.822 85.614)">
     <g id="g5293-9-9-8_00000181063817966405710030000014875120254299550896_" transform="matrix(1.0329 0 0 1.0329 103.14 74.915)" fill="#fff">
      <path id="path5277-5-5-6_00000127009735232847463560000006010308571374286506_" d="m6317.8 1185.8c-8.979 0-16.338 7.359-16.338 16.339s7.359 16.337 16.338 16.337 16.339-7.358 16.339-16.337-7.36-16.339-16.339-16.339zm0 7.482c4.936 0 8.856 3.921 8.856 8.857s-3.92 8.857-8.856 8.857-8.856-3.921-8.856-8.857 3.921-8.857 8.856-8.857z"/>
      <path id="path5279-0-0_00000074431657237509207020000017475303368354198421_" d="m6279.6 1216v-27.828h7.643v10.583l8.466-10.583h8.623l-10.112 12.464 10.818 15.364h-8.78l-6.898-10.23-2.117 2.195v8.035z"/>
      <path id="path5281-4-3_00000029025269643178553910000010158319024831260598_" d="m6344.2 1202.3v13.679h-7.643v-27.828h5.958l11.17 14.149v-14.149h7.643v27.828h-6.075z"/>
      <path id="path5283-8-3_00000043450714990303743980000001535029633449849503_" d="m6371.5 1188.2 5.448 18.226 5.37-18.226h8.035l-10.23 27.828h-6.35l-10.347-27.828z"/>
      <path id="path5285-7-6_00000110469110672951177490000013021136382889461380_" d="m6412.3 1209.4v6.663h-19.833v-27.828h19.479v6.663h-11.837v3.92h10.112v6.193h-10.112v4.39z"/>
      <path id="path5287-1-1_00000025437676837695342350000018437617448589306248_" d="m6421.5 1188.2 4.978 12.033 5.095-12.033h8.309l-9.603 18.618v9.211h-7.604v-9.289l-9.446-18.539h8.271z"/>
      <path id="path5289-7-8_00000108288784245085987270000015874170241790777986_" d="m6472.1 1216v-27.828h12.777c1.359 0 2.613 0.287 3.763 0.862 1.15 0.549 2.129 1.28 2.939 2.195 0.836 0.888 1.49 1.921 1.96 3.096 0.47 1.15 0.706 2.312 0.706 3.488 0 1.62-0.353 3.136-1.058 4.547-0.706 1.385-1.686 2.522-2.94 3.41l5.879 10.23h-8.623l-4.899-8.545h-2.861v8.545zm7.643-15.207h4.821c0.47 0 0.901-0.261 1.293-0.784 0.418-0.523 0.627-1.254 0.627-2.195 0-0.967-0.235-1.698-0.706-2.195-0.47-0.523-0.94-0.784-1.411-0.784h-4.625z"/>
      <path id="path5291-2-7_00000098934543025651166820000016372932514484254340_" d="m6453.6 1185.8c-8.979 0-16.339 7.359-16.339 16.339s7.36 16.337 16.339 16.337 16.338-7.358 16.338-16.337-7.359-16.339-16.338-16.339zm0 7.482c4.936 0 8.856 3.921 8.856 8.857s-3.921 8.857-8.856 8.857c-4.936 0-8.856-3.921-8.856-8.857s3.92-8.857 8.856-8.857z"/>
     </g>
    </g>
   </g>
  </g>
  <g id="g69459_00000153684801927100927730000008357835984350709636_" transform="translate(-104.47 -7.7166)">
   <g id="g2624_00000018237072314721424800000012738793677677970571_" transform="matrix(1.042 0 0 1.042 -37.739 2.092)">
    <g id="g2616_00000085935918255146831020000007986009613991510965_">
     <path id="path2459_00000129205518641693130140000008003077720777270924_" d="m1427.2 70.568c-0.383 0.028-0.67 0.36-0.642 0.743l1.977 26.998c0.028 0.383 0.36 0.67 0.743 0.642l26.998-1.978c0.383-0.028 0.668-0.36 0.64-0.743l-1.977-26.998c-0.028-0.383-0.358-0.67-0.741-0.642zm10.341 3.091 6.877-0.504c0.62-0.045 1.154 0.416 1.2 1.036 0.045 0.62-0.416 1.154-1.036 1.2l-6.877 0.504c-0.62 0.045-1.156-0.416-1.201-1.036-0.046-0.62 0.417-1.155 1.037-1.2z" fill="#ac9565"/>
     <path id="path2576_00000025406347717998251970000018385100409469850501_" d="m1436.1 56.254-13.035 13.66 2.114 32.888 35.7-2.553-2.54-33.299-17.863-15.969" fill="none" stroke="#fff" stroke-linecap="round" stroke-linejoin="round" stroke-miterlimit="11.815" stroke-width="2.9538"/>
     <g id="g2609_00000152257372123167128070000008660383469019727038_" transform="translate(8.8573 -1.8046)" stroke="#fff" stroke-linejoin="round">
      <path id="path2578_00000034064136839619166330000004633708080590106257_" d="m1431.5 45.853-4.623-8.429 4.876-3.348 4.742 3.348-4.995 8.429c2.657 0 4.81 2.154 4.81 4.81 0 2.657-2.154 4.81-4.81 4.81s-4.81-2.154-4.81-4.81" fill="none" stroke-linecap="round" stroke-miterlimit="11.815" stroke-width="2.9538"/>
      <path id="path2605_00000028299041687082549570000002129291080156477119_" d="m1431.7 35.481c-0.515 0.185-0.94 0.569-1.411 0.845-0.598 0.417-1.243 0.785-1.797 1.254-0.297 0.329 0.085 0.711 0.209 1.027 0.812 1.515 1.61 3.041 2.51 4.505 0.216 0.289 0.65 0.139 0.758-0.171 0.983-1.643 1.974-3.283 2.916-4.95 0.129-0.454-0.4-0.626-0.668-0.866-0.758-0.54-1.506-1.097-2.289-1.601-0.077-0.012-0.152-0.036-0.228-0.043z" fill="#fff" stroke-miterlimit="3.1261" stroke-width=".1865"/>
     </g>
    </g>
   </g>
   <g id="text973_00000100365000800991772710000013125045857318060190_" transform="matrix(1.0317 0 0 .96923 0 5.2917)" fill="#fff">
    <path id="path65784_00000127761287497020138300000010593067022429214128_" d="m1387.3 132.68c0-0.79 0.146-1.569 0.438-2.335 0.304-0.766 0.742-1.453 1.313-2.061s1.265-1.101 2.08-1.478 1.745-0.565 2.791-0.565c1.253 0 2.335 0.261 3.247 0.784 0.924 0.511 1.611 1.192 2.061 2.043l-2.718 1.934c-0.122-0.316-0.286-0.578-0.493-0.784-0.194-0.207-0.413-0.371-0.657-0.493s-0.499-0.207-0.766-0.255c-0.255-0.049-0.505-0.073-0.748-0.073-0.511 0-0.955 0.103-1.332 0.31-0.365 0.195-0.669 0.456-0.912 0.784-0.231 0.316-0.407 0.681-0.529 1.094-0.109 0.401-0.164 0.803-0.164 1.204 0 0.45 0.067 0.882 0.201 1.295s0.328 0.778 0.584 1.094c0.255 0.316 0.565 0.572 0.93 0.766 0.377 0.182 0.797 0.274 1.259 0.274 0.243 0 0.493-0.024 0.748-0.073 0.255-0.061 0.499-0.152 0.73-0.274 0.243-0.134 0.456-0.298 0.638-0.493 0.195-0.207 0.347-0.456 0.456-0.748l2.9 1.733c-0.195 0.474-0.493 0.9-0.894 1.277-0.389 0.377-0.839 0.693-1.35 0.949-0.499 0.255-1.04 0.45-1.624 0.584-0.572 0.134-1.131 0.201-1.678 0.201-0.961 0-1.842-0.188-2.645-0.565-0.79-0.389-1.478-0.9-2.061-1.532-0.572-0.632-1.015-1.35-1.332-2.152-0.314-0.804-0.473-1.619-0.473-2.445z"/>
    <path id="path65786_00000144298871126447078330000015903272476068423100_" d="m1400.6 139.27v-12.951h5.947c0.632 0 1.216 0.134 1.751 0.401 0.535 0.255 0.991 0.596 1.368 1.022 0.389 0.413 0.693 0.894 0.912 1.441 0.219 0.535 0.328 1.076 0.328 1.623 0 0.754-0.164 1.459-0.493 2.116-0.328 0.645-0.784 1.174-1.368 1.587l2.736 4.761h-4.013l-2.28-3.977h-1.332v3.977zm3.557-7.078h2.244c0.219 0 0.42-0.122 0.602-0.365 0.195-0.243 0.292-0.584 0.292-1.022 0-0.45-0.109-0.79-0.328-1.022-0.219-0.243-0.438-0.365-0.657-0.365h-2.152v2.774z"/>
    <path id="path65788_00000157997950066873449340000012564896392169596304_" d="m1416.3 126.32h3.247l4.487 12.951h-3.612l-0.784-2.536h-3.448l-0.766 2.536h-3.63zm2.772 8.045-1.149-4.013-1.204 4.013z"/>
    <path id="path65790_00000134236770798006129360000015605494148562970753_" d="m1428.7 132.9v6.366h-3.557v-12.951h2.773l5.199 6.585v-6.585h3.557v12.951h-2.827z"/>
    <path id="path65792_00000084496216274167961970000009106658936356693136_" d="m1448.1 136.17v3.101h-9.23v-12.951h9.066v3.101h-5.509v1.824h4.706v2.882h-4.706v2.043z"/>
   </g>
   <g id="g69273_00000017475707467961302450000013149836675792133533_" transform="matrix(.54536 0 0 .54536 91.687 -41.621)">
    <g id="g69271_00000077307828340321893390000006247768784056658313_" transform="matrix(.367 0 0 .367 22.822 85.614)">
     <g id="g69269_00000163784692511920590700000013786591111936430009_" transform="matrix(1.0329 0 0 1.0329 103.14 74.915)" fill="#fff">
      <path id="path69253_00000001643665329020290990000000202693250611264681_" d="m6358.2 475.78c-8.979 0-16.338 7.359-16.338 16.339 0 8.979 7.359 16.337 16.338 16.337s16.339-7.358 16.339-16.337c0-8.98-7.359-16.339-16.339-16.339zm0 7.482c4.936 0 8.857 3.921 8.857 8.857s-3.921 8.857-8.857 8.857-8.856-3.921-8.856-8.857 3.921-8.857 8.856-8.857z"/>
      <path id="path69255_00000178908526247696022260000005963206070893196702_" d="m6319.9 506.03v-27.828h7.643v10.583l8.466-10.583h8.623l-10.112 12.464 10.817 15.364h-8.779l-6.898-10.23-2.117 2.195v8.035z"/>
      <path id="path69257_00000041999830045054116080000000903275168759241886_" d="m6384.5 492.35v13.679h-7.643v-27.828h5.958l11.17 14.149v-14.149h7.643v27.828h-6.075z"/>
      <path id="path69259_00000052814528772339411140000015479805792785563021_" d="m6411.8 478.2 5.448 18.226 5.37-18.226h8.035l-10.229 27.828h-6.35l-10.348-27.828z"/>
      <path id="path69261_00000136385004139077271980000005499791816079082380_" d="m6452.6 499.37v6.663h-19.833v-27.828h19.479v6.663h-11.836v3.919h10.112v6.193h-10.112v4.39z"/>
      <path id="path69263_00000173132549273984240880000009317889194711970202_" d="m6461.8 478.2 4.978 12.033 5.095-12.033h8.309l-9.603 18.618v9.211h-7.604v-9.289l-9.446-18.539h8.271z"/>
      <path id="path69265_00000010271964271431366750000001972262465648339627_" d="m6512.4 506.03v-27.828h12.777c1.359 0 2.613 0.287 3.763 0.862 1.15 0.549 2.13 1.28 2.94 2.195 0.836 0.888 1.489 1.921 1.959 3.096 0.471 1.15 0.706 2.312 0.706 3.488 0 1.62-0.353 3.136-1.058 4.547-0.706 1.385-1.686 2.522-2.939 3.41l5.879 10.23h-8.623l-4.899-8.544h-2.861v8.544zm7.643-15.207h4.821c0.47 0 0.901-0.261 1.293-0.784 0.418-0.523 0.627-1.254 0.627-2.195 0-0.967-0.235-1.698-0.705-2.195-0.471-0.523-0.941-0.784-1.411-0.784h-4.625z"/>
      <path id="path69267_00000091711387195923919330000007884747804637198209_" d="m6494 475.78c-8.979 0-16.338 7.359-16.338 16.339 0 8.979 7.359 16.337 16.338 16.337s16.339-7.358 16.339-16.337c0-8.98-7.36-16.339-16.339-16.339zm0 7.482c4.936 0 8.856 3.921 8.856 8.857s-3.92 8.857-8.856 8.857-8.856-3.921-8.856-8.857 3.92-8.857 8.856-8.857z"/>
     </g>
    </g>
   </g>
  </g>
  <g fill="#fff">
   <path d="m161.79 348.24h-17.78v-23.798h17.645v4.352h-12.902v5.27h12.307v4.352h-12.307v5.474h13.038v4.35z"/>
   <path d="m176.15 339.86 6 8.38h-5.27l-3.706-5.235-3.638 5.235h-5.133l6.051-8.363-5.898-8.108h5.27l3.553 5.116 3.536-5.116h5.133z"/>
   <path d="m189.98 326.38c0 1.598-1.241 2.822-2.839 2.822s-2.822-1.224-2.822-2.822 1.224-2.855 2.822-2.855 2.839 1.257 2.839 2.855zm-0.596 21.86h-4.437v-16.471h4.437z"/>
   <path d="m205.85 336.36c-1.309-0.646-3.4-1.326-5.252-1.343-1.683 0-2.533 0.595-2.533 1.496 0 0.952 1.19 1.19 2.686 1.411l1.462 0.221c3.57 0.544 5.559 2.142 5.559 4.93 0 3.4-2.788 5.592-7.564 5.592-2.244 0-5.185-0.425-7.326-1.938l1.751-3.366c1.411 0.935 3.127 1.615 5.609 1.615 2.057 0 3.042-0.578 3.042-1.547 0-0.799-0.833-1.241-2.736-1.513l-1.343-0.187c-3.808-0.527-5.694-2.193-5.694-4.998 0-3.383 2.618-5.389 6.952-5.389 2.635 0 4.692 0.493 6.884 1.564z"/>
   <path d="m223.11 335.72h-5.966v6.018c0 2.057 1.088 2.805 2.465 2.805 1.054 0 2.193-0.527 3.094-1.071l1.632 3.467c-1.445 0.986-3.111 1.734-5.457 1.734-4.08 0-6.17-2.312-6.17-6.578v-6.375h-3.179v-3.943h3.179v-4.896h4.437v4.896h5.966v3.943z"/>
   <path d="m232.05 326.38c0 1.598-1.241 2.822-2.839 2.822s-2.822-1.224-2.822-2.822 1.224-2.855 2.822-2.855c1.599-1e-3 2.839 1.257 2.839 2.855zm-0.595 21.86h-4.437v-16.471h4.437z"/>
   <path d="m251.68 337.76v10.488h-4.437v-9.06c0-2.38-1.189-3.688-3.212-3.688-1.904 0-3.485 1.241-3.485 3.723v9.026h-4.437v-16.471h4.318v1.938c1.173-1.75 2.975-2.379 4.844-2.379 3.74-3e-3 6.409 2.598 6.409 6.423z"/>
   <path d="m267.87 333.61v-1.835h4.352v15.111c0 5.287-3.451 8.482-8.89 8.482-2.601 0-5.354-0.68-7.208-1.989l1.581-3.621c1.649 1.088 3.468 1.683 5.439 1.683 2.753 0 4.691-1.53 4.691-4.369v-1.156c-1.122 1.376-2.788 2.227-5.065 2.227-4.012 0-7.581-3.349-7.581-8.397 0-5.065 3.569-8.414 7.581-8.414 2.296 0 3.978 0.884 5.1 2.278zm-8.125 6.136c0 2.38 1.615 4.317 4.148 4.317 2.464 0 4.13-1.87 4.13-4.317 0-2.465-1.666-4.334-4.13-4.334-2.533 0-4.148 1.938-4.148 4.334z"/>
   <path d="m165.97 389.04h-5.065l-2.074-5.541h-10.148l-2.074 5.541h-4.947l9.264-23.798h5.779zm-15.655-9.91h6.884l-3.434-9.195z"/>
   <path d="m185.9 380.8c0 4.946-3.434 8.669-7.972 8.669-2.209 0-3.773-0.866-4.844-2.142v8.517h-4.42v-23.271h4.335v1.818c1.071-1.343 2.651-2.261 4.912-2.261 4.555 1e-3 7.989 3.724 7.989 8.67zm-13.038 0c0 2.601 1.717 4.539 4.232 4.539 2.618 0 4.25-2.023 4.25-4.539s-1.632-4.538-4.25-4.538c-2.515 0-4.232 1.938-4.232 4.538z"/>
   <path d="m206.75 380.8c0 4.946-3.434 8.669-7.972 8.669-2.21 0-3.773-0.866-4.844-2.142v8.517h-4.42v-23.271h4.334v1.818c1.071-1.343 2.652-2.261 4.913-2.261 4.555 1e-3 7.989 3.724 7.989 8.67zm-13.038 0c0 2.601 1.717 4.539 4.232 4.539 2.618 0 4.25-2.023 4.25-4.539s-1.632-4.538-4.25-4.538c-2.515 0-4.232 1.938-4.232 4.538z"/>
   <path d="m214.81 389.04h-4.437v-24.478h4.437z"/>
   <path d="m224.5 367.18c0 1.598-1.241 2.821-2.839 2.821s-2.822-1.224-2.822-2.821c0-1.598 1.224-2.856 2.822-2.856s2.839 1.258 2.839 2.856zm-0.595 21.859h-4.437v-16.471h4.437z"/>
   <path d="m242.91 375.24-3.196 2.669c-1.003-1.07-2.074-1.648-3.519-1.648-2.295 0-4.13 1.802-4.13 4.538 0 2.754 1.819 4.539 4.113 4.539 1.428 0 2.652-0.646 3.587-1.666l3.162 2.702c-1.547 1.989-3.859 3.094-6.612 3.094-5.252 0-8.771-3.671-8.771-8.669 0-4.98 3.519-8.669 8.771-8.669 2.753-1e-3 5.082 1.121 6.595 3.11z"/>
   <path d="m262 389.04h-4.334v-1.818c-1.071 1.325-2.668 2.243-4.929 2.243-4.539 0-7.972-3.723-7.972-8.669s3.434-8.669 7.972-8.669c2.261 0 3.841 0.918 4.929 2.261v-1.818h4.334zm-12.697-8.244c0 2.516 1.648 4.539 4.25 4.539 2.533 0 4.25-1.938 4.25-4.539s-1.717-4.538-4.25-4.538c-2.602 0-4.25 2.023-4.25 4.538z"/>
   <path d="m278.61 376.52h-5.966v6.018c0 2.057 1.088 2.805 2.465 2.805 1.054 0 2.193-0.527 3.094-1.071l1.632 3.468c-1.445 0.986-3.111 1.733-5.457 1.733-4.08 0-6.17-2.312-6.17-6.578v-6.374h-3.179v-3.943h3.179v-4.896h4.437v4.896h5.966v3.942z"/>
   <path d="m287.55 367.18c0 1.598-1.241 2.821-2.839 2.821s-2.822-1.224-2.822-2.821c0-1.598 1.224-2.856 2.822-2.856 1.599 0 2.839 1.258 2.839 2.856zm-0.595 21.859h-4.437v-16.471h4.437z"/>
   <path d="m308.41 380.8c0 4.964-3.791 8.669-8.924 8.669-5.116 0-8.89-3.705-8.89-8.669 0-4.963 3.773-8.669 8.89-8.669 5.133 0 8.924 3.706 8.924 8.669zm-13.293 0c0 2.669 1.87 4.539 4.368 4.539 2.499 0 4.386-1.87 4.386-4.539s-1.887-4.538-4.386-4.538c-2.498 0-4.368 1.869-4.368 4.538z"/>
   <path d="m327.6 378.56v10.487h-4.437v-9.06c0-2.38-1.19-3.688-3.213-3.688-1.904 0-3.485 1.24-3.485 3.723v9.025h-4.437v-16.471h4.318v1.938c1.173-1.751 2.975-2.38 4.844-2.38 3.741 0 6.41 2.601 6.41 6.426z"/>
   <path d="m159.88 429.84-2.567-2.448c-1.734 1.632-3.978 2.873-7.037 2.873-4.691 0-7.479-2.431-7.479-6.323 0-2.788 1.92-4.845 4.113-6.527-1.989-2.04-2.958-3.553-2.958-5.831 0-3.45 2.788-5.966 6.986-5.966 4.13 0 6.935 2.362 6.935 5.881 0 2.567-2.142 4.454-4.471 6.137l3.723 3.604 3.417-4.793 3.349 2.312-3.808 5.354 5.898 5.729h-6.101zm-5.474-5.253-4.572-4.386c-1.326 1.071-2.278 2.159-2.278 3.417 0 1.598 1.224 2.618 3.077 2.618 1.479 1e-3 2.652-0.578 3.773-1.649zm-3.858-9.706c1.598-1.122 2.805-2.142 2.805-3.246 0-1.241-0.901-2.023-2.414-2.023-1.53 0-2.431 0.799-2.431 2.176 0 0.917 0.442 1.53 2.04 3.093z"/>
   <path d="m182.21 429.84h-4.743v-23.798h4.743z"/>
   <path d="m202.81 419.36v10.488h-4.437v-9.061c0-2.38-1.19-3.688-3.213-3.688-1.904 0-3.485 1.241-3.485 3.723v9.026h-4.437v-16.472h4.318v1.938c1.173-1.75 2.975-2.379 4.844-2.379 3.741 0 6.41 2.601 6.41 6.425z"/>
   <path d="m217.99 417.32h-5.117v12.528h-4.437v-12.528h-3.077v-3.943h3.077v-2.04c0-3.858 2.057-6.391 5.898-6.391 2.244 0 3.808 0.646 5.065 1.479l-1.768 3.45c-0.816-0.441-1.785-0.799-2.822-0.799-1.275 0-1.938 0.782-1.938 2.312v1.988h5.117v3.944z"/>
   <path d="m232.29 413.29-0.663 4.402c-0.731-0.322-1.785-0.526-2.686-0.526-2.057 0-3.468 1.258-3.468 3.705v8.976h-4.437v-16.472h4.301v1.802c1.037-1.547 2.618-2.243 4.641-2.243 0.952 0 1.7 0.136 2.312 0.356z"/>
   <path d="m250.97 429.84h-4.334v-1.819c-1.071 1.326-2.668 2.244-4.929 2.244-4.539 0-7.972-3.723-7.972-8.669 0-4.947 3.434-8.669 7.972-8.669 2.261 0 3.841 0.917 4.929 2.261v-1.819h4.334zm-12.697-8.244c0 2.516 1.649 4.538 4.25 4.538 2.533 0 4.25-1.938 4.25-4.538s-1.717-4.539-4.25-4.539c-2.602 0-4.25 2.023-4.25 4.539z"/>
   <path d="m267.44 417.96c-1.309-0.646-3.4-1.326-5.252-1.343-1.683 0-2.533 0.595-2.533 1.495 0 0.952 1.19 1.19 2.686 1.411l1.462 0.221c3.57 0.544 5.559 2.143 5.559 4.93 0 3.399-2.788 5.593-7.564 5.593-2.244 0-5.185-0.425-7.326-1.938l1.751-3.366c1.411 0.935 3.127 1.615 5.609 1.615 2.057 0 3.042-0.578 3.042-1.547 0-0.799-0.833-1.241-2.736-1.513l-1.343-0.188c-3.808-0.526-5.694-2.192-5.694-4.997 0-3.383 2.618-5.389 6.952-5.389 2.635 0 4.692 0.493 6.884 1.563z"/>
   <path d="m284.7 417.32h-5.966v6.018c0 2.057 1.088 2.805 2.465 2.805 1.054 0 2.193-0.526 3.094-1.07l1.632 3.467c-1.445 0.986-3.111 1.734-5.457 1.734-4.08 0-6.17-2.312-6.17-6.578v-6.375h-3.179v-3.943h3.179v-4.896h4.437v4.896h5.966v3.942z"/>
   <path d="m299.86 413.29-0.663 4.402c-0.73-0.322-1.785-0.526-2.686-0.526-2.057 0-3.468 1.258-3.468 3.705v8.976h-4.437v-16.472h4.301v1.802c1.037-1.547 2.618-2.243 4.641-2.243 0.953 0 1.701 0.136 2.312 0.356z"/>
   <path d="m318.22 422.82c0 5.201-3.672 7.445-7.785 7.445-4.131 0-7.802-2.244-7.802-7.445v-9.451h4.437v9.061c0 2.635 1.445 3.705 3.366 3.705 1.904 0 3.366-1.07 3.366-3.705v-9.061h4.419v9.451z"/>
   <path d="m337.09 416.04-3.196 2.669c-1.003-1.071-2.074-1.649-3.519-1.649-2.295 0-4.13 1.802-4.13 4.539 0 2.754 1.819 4.538 4.113 4.538 1.428 0 2.652-0.646 3.587-1.666l3.162 2.703c-1.547 1.988-3.859 3.094-6.612 3.094-5.252 0-8.771-3.672-8.771-8.669 0-4.98 3.519-8.669 8.771-8.669 2.754 0 5.083 1.121 6.595 3.11z"/>
   <path d="m352.43 417.32h-5.966v6.018c0 2.057 1.088 2.805 2.465 2.805 1.054 0 2.193-0.526 3.094-1.07l1.632 3.467c-1.445 0.986-3.111 1.734-5.457 1.734-4.08 0-6.17-2.312-6.17-6.578v-6.375h-3.179v-3.943h3.179v-4.896h4.437v4.896h5.966v3.942z"/>
   <path d="m371.64 422.82c0 5.201-3.672 7.445-7.785 7.445-4.131 0-7.802-2.244-7.802-7.445v-9.451h4.437v9.061c0 2.635 1.445 3.705 3.366 3.705 1.904 0 3.366-1.07 3.366-3.705v-9.061h4.419v9.451z"/>
   <path d="m387.41 413.29-0.663 4.402c-0.731-0.322-1.785-0.526-2.686-0.526-2.057 0-3.468 1.258-3.468 3.705v8.976h-4.437v-16.472h4.301v1.802c1.037-1.547 2.618-2.243 4.641-2.243 0.952 0 1.7 0.136 2.312 0.356z"/>
   <path d="m405.19 421.58c0 0.51-0.034 1.122-0.085 1.496h-11.678c0.476 2.38 2.142 3.417 4.232 3.417 1.428 0 2.975-0.578 4.165-1.581l2.601 2.855c-1.87 1.717-4.25 2.499-7.021 2.499-5.048 0-8.55-3.434-8.55-8.618s3.399-8.72 8.329-8.72c4.744 1e-3 7.991 3.52 8.007 8.652zm-11.745-1.529h7.292c-0.408-2.108-1.683-3.298-3.587-3.298-2.09 0-3.314 1.258-3.705 3.298z"/>
  </g>
  <g fill="#fff">
   <path d="m975.61 183.12c6.014 0 9.236 2.845 9.236 7.67 0 4.141-2.881 6.968-7.724 7.437l7.76 10.101h-6.086l-7.346-10.029h-1.477v10.029h-5.023v-25.207h10.66zm-5.635 4.627v6.176h5.546c2.736 0 4.159-1.008 4.159-3.133 0-2.089-1.495-3.043-4.159-3.043z"/>
   <path d="m1004.5 199.58c0 0.54-0.036 1.188-0.09 1.585h-12.369c0.504 2.521 2.269 3.619 4.483 3.619 1.512 0 3.15-0.612 4.411-1.675l2.754 3.025c-1.979 1.818-4.501 2.646-7.436 2.646-5.348 0-9.057-3.637-9.057-9.129 0-5.491 3.601-9.236 8.822-9.236 5.025 1e-3 8.464 3.728 8.482 9.165zm-12.441-1.62h7.725c-0.433-2.232-1.783-3.493-3.8-3.493-2.214 0-3.511 1.333-3.925 3.493z"/>
   <path d="m1013 192.76c1.242-1.729 3.097-2.341 5.006-2.341 3.961 0 6.788 2.755 6.788 6.806v11.109h-4.7v-9.597c0-2.521-1.26-3.907-3.402-3.907-2.017 0-3.691 1.314-3.691 3.943v9.561h-4.699v-25.945h4.699v10.371z"/>
   <path d="m1047.4 199.6c0 5.258-4.015 9.183-9.453 9.183-5.419 0-9.416-3.925-9.416-9.183s3.997-9.183 9.416-9.183c5.438 0 9.453 3.925 9.453 9.183zm-14.08 0c0 2.826 1.98 4.808 4.627 4.808s4.646-1.981 4.646-4.808-1.998-4.808-4.646-4.808c-2.647 0-4.627 1.981-4.627 4.808z"/>
   <path d="m1063.6 195.74c-1.387-0.684-3.602-1.404-5.563-1.422-1.782 0-2.683 0.63-2.683 1.584 0 1.009 1.26 1.261 2.845 1.494l1.548 0.234c3.781 0.576 5.888 2.269 5.888 5.222 0 3.601-2.952 5.924-8.012 5.924-2.377 0-5.492-0.45-7.761-2.053l1.854-3.565c1.495 0.99 3.313 1.711 5.942 1.711 2.179 0 3.223-0.612 3.223-1.639 0-0.846-0.883-1.314-2.898-1.603l-1.423-0.198c-4.033-0.558-6.032-2.322-6.032-5.293 0-3.583 2.773-5.708 7.364-5.708 2.791 0 4.97 0.522 7.292 1.656z"/>
   <path d="m1081.9 195.06h-6.319v6.373c0 2.179 1.152 2.972 2.61 2.972 1.117 0 2.323-0.559 3.277-1.135l1.729 3.673c-1.53 1.045-3.295 1.837-5.779 1.837-4.321 0-6.536-2.449-6.536-6.968v-6.752h-3.367v-4.178h3.367v-5.186h4.699v5.186h6.319z"/>
  </g>
  <g fill="#fff">
   <path d="m969.26 329.03c6.014 0 9.236 2.845 9.236 7.67 0 4.141-2.881 6.968-7.724 7.437l7.76 10.101h-6.086l-7.346-10.029h-1.477v10.029h-5.023v-25.207h10.66zm-5.636 4.626v6.176h5.546c2.736 0 4.159-1.008 4.159-3.133 0-2.089-1.495-3.043-4.159-3.043z"/>
   <path d="m998.16 345.49c0 0.54-0.036 1.188-0.09 1.585h-12.369c0.504 2.521 2.269 3.619 4.483 3.619 1.512 0 3.15-0.612 4.411-1.675l2.754 3.025c-1.979 1.818-4.501 2.646-7.436 2.646-5.348 0-9.057-3.637-9.057-9.129 0-5.491 3.601-9.236 8.822-9.236 5.025 1e-3 8.465 3.727 8.482 9.165zm-12.441-1.621h7.725c-0.433-2.232-1.783-3.493-3.8-3.493-2.214 0-3.511 1.333-3.925 3.493z"/>
   <path d="m1020.2 345.51c0 5.239-3.638 9.183-8.445 9.183-2.34 0-3.997-0.918-5.131-2.269v9.021h-4.682v-24.649h4.592v1.927c1.134-1.423 2.809-2.395 5.203-2.395 4.826 0 8.463 3.942 8.463 9.182zm-13.81 0c0 2.755 1.818 4.808 4.483 4.808 2.772 0 4.501-2.143 4.501-4.808s-1.729-4.808-4.501-4.808c-2.665 1e-3 -4.483 2.053-4.483 4.808z"/>
   <path d="m1028.8 354.24h-4.699v-25.928h4.699z"/>
   <path d="m1050.9 354.24h-4.591v-1.927c-1.135 1.404-2.827 2.377-5.222 2.377-4.808 0-8.444-3.943-8.444-9.183s3.637-9.183 8.444-9.183c2.395 0 4.069 0.972 5.222 2.395v-1.927h4.591zm-13.449-8.733c0 2.665 1.746 4.808 4.501 4.808 2.683 0 4.501-2.053 4.501-4.808s-1.818-4.808-4.501-4.808c-2.755 1e-3 -4.501 2.143-4.501 4.808z"/>
   <path d="m1068.5 340.97h-6.319v6.373c0 2.179 1.152 2.972 2.61 2.972 1.117 0 2.323-0.559 3.277-1.135l1.729 3.673c-1.53 1.045-3.295 1.837-5.779 1.837-4.321 0-6.536-2.449-6.536-6.968v-6.752h-3.367v-4.178h3.367v-5.186h4.699v5.186h6.319z"/>
   <path d="m1084 340.97h-5.42v13.27h-4.699v-13.27h-3.259v-4.178h3.259v-2.16c0-4.088 2.179-6.771 6.248-6.771 2.377 0 4.033 0.685 5.365 1.566l-1.872 3.655c-0.864-0.468-1.891-0.847-2.989-0.847-1.351 0-2.053 0.829-2.053 2.449v2.106h5.42z"/>
   <path d="m1104.8 345.51c0 5.258-4.015 9.183-9.452 9.183-5.42 0-9.417-3.925-9.417-9.183s3.997-9.183 9.417-9.183c5.437 1e-3 9.452 3.925 9.452 9.183zm-14.08 0c0 2.826 1.98 4.808 4.628 4.808 2.646 0 4.645-1.981 4.645-4.808s-1.998-4.808-4.645-4.808c-2.648 1e-3 -4.628 1.981-4.628 4.808z"/>
   <path d="m1120.5 336.7-0.703 4.663c-0.773-0.342-1.89-0.558-2.845-0.558-2.179 0-3.673 1.332-3.673 3.925v9.507h-4.699v-17.447h4.556v1.908c1.098-1.638 2.772-2.376 4.915-2.376 1.009 1e-3 1.801 0.144 2.449 0.378z"/>
   <path d="m1152 343.13v11.109h-4.682v-9.597c0-2.521-1.278-3.907-3.403-3.907-2.017 0-3.69 1.314-3.69 3.943v9.561h-4.699v-9.597c0-2.521-1.261-3.907-3.403-3.907-2.017 0-3.691 1.314-3.691 3.943v9.561h-4.699v-17.447h4.573v2.053c1.242-1.854 3.151-2.521 5.132-2.521 2.521 0 4.591 1.134 5.762 2.988 1.351-2.214 3.637-2.988 5.924-2.988 4.102 1e-3 6.876 2.755 6.876 6.806z"/>
  </g>
  <g fill="#fff">
   <path d="m973.45 474.94c6.014 0 9.236 2.845 9.236 7.67 0 4.141-2.881 6.968-7.724 7.437l7.76 10.101h-6.086l-7.346-10.029h-1.477v10.029h-5.023v-25.207h10.66zm-5.636 4.627v6.176h5.546c2.736 0 4.159-1.008 4.159-3.133 0-2.089-1.495-3.043-4.159-3.043z"/>
   <path d="m1002.3 491.4c0 0.54-0.036 1.188-0.09 1.585h-12.369c0.504 2.521 2.269 3.619 4.483 3.619 1.512 0 3.15-0.612 4.411-1.675l2.754 3.025c-1.979 1.818-4.501 2.646-7.436 2.646-5.348 0-9.057-3.637-9.057-9.129 0-5.491 3.601-9.236 8.822-9.236 5.025 1e-3 8.464 3.727 8.482 9.165zm-12.442-1.62h7.725c-0.433-2.232-1.783-3.493-3.8-3.493-2.214-1e-3 -3.51 1.332-3.925 3.493z"/>
   <path d="m1017.6 486.88h-5.42v13.27h-4.699v-13.27h-3.259v-4.178h3.259v-2.16c0-4.088 2.179-6.771 6.248-6.771 2.377 0 4.033 0.685 5.365 1.566l-1.872 3.655c-0.864-0.468-1.891-0.847-2.989-0.847-1.351 0-2.053 0.829-2.053 2.449v2.106h5.42z"/>
   <path d="m1037.8 500.15h-4.591v-1.927c-1.135 1.404-2.827 2.377-5.222 2.377-4.808 0-8.444-3.943-8.444-9.183s3.637-9.183 8.444-9.183c2.395 0 4.069 0.972 5.222 2.395v-1.927h4.591zm-13.449-8.733c0 2.665 1.746 4.808 4.501 4.808 2.683 0 4.501-2.053 4.501-4.808s-1.818-4.808-4.501-4.808c-2.755 1e-3 -4.501 2.143-4.501 4.808z"/>
   <path d="m1057.9 485.53-3.385 2.826c-1.062-1.134-2.196-1.746-3.728-1.746-2.431 0-4.375 1.908-4.375 4.808 0 2.917 1.927 4.808 4.357 4.808 1.513 0 2.809-0.685 3.799-1.765l3.35 2.862c-1.639 2.106-4.088 3.277-7.005 3.277-5.563 0-9.29-3.89-9.29-9.183 0-5.275 3.727-9.183 9.29-9.183 2.918 1e-3 5.385 1.189 6.987 3.296z"/>
   <path d="m1074.1 486.88h-6.32v6.373c0 2.179 1.152 2.972 2.61 2.972 1.116 0 2.323-0.559 3.277-1.135l1.729 3.673c-1.53 1.045-3.295 1.837-5.779 1.837-4.321 0-6.536-2.449-6.536-6.968v-6.752h-3.367v-4.178h3.367v-5.186h4.699v5.186h6.32z"/>
   <path d="m1095.9 491.42c0 5.258-4.015 9.183-9.452 9.183-5.42 0-9.417-3.925-9.417-9.183s3.997-9.183 9.417-9.183c5.437 1e-3 9.452 3.925 9.452 9.183zm-14.08 0c0 2.826 1.98 4.808 4.628 4.808 2.646 0 4.645-1.981 4.645-4.808s-1.998-4.808-4.645-4.808c-2.648 1e-3 -4.628 1.981-4.628 4.808z"/>
   <path d="m1111.6 482.62-0.703 4.663c-0.773-0.342-1.89-0.558-2.845-0.558-2.179 0-3.673 1.332-3.673 3.925v9.507h-4.699v-17.447h4.556v1.908c1.098-1.638 2.772-2.376 4.915-2.376 1.008 0 1.8 0.143 2.449 0.378z"/>
  </g>
  <g fill="#fff">
   <path d="m1378.8 681.08h-585.16c0.018 0.719 0.055 1.434 0.055 2.158 0 0.618-0.033 1.227-0.047 1.842h585.16l2.148-1.996z"/>
   <path d="m623.62 683.24c0-0.724 0.037-1.439 0.055-2.158h-585.16l-2.156 2.004 2.148 1.996h585.16c-0.013-0.614-0.047-1.224-0.047-1.842z"/>
   <polygon points="50.812 669.66 48.083 666.73 30.491 683.09 48.083 699.44 50.812 696.52 38.512 685.08 34.83 685.08 34.83 681.08 38.521 681.08"/>
   <polygon points="34.83 685.08 38.512 685.08 36.365 683.09 38.521 681.08 34.83 681.08"/>
   <polygon points="1378.8 681.08 1382.5 681.08 1382.5 685.08 1378.8 685.08 1366.5 696.52 1369.2 699.44 1386.8 683.09 1369.2 666.73 1366.5 669.66"/>
   <polygon points="1381 683.09 1378.8 685.08 1382.5 685.08 1382.5 681.08 1378.8 681.08"/>
  </g>
  <g id="g69518_00000026865668716068416900000013375215357322344068_" transform="translate(-154.93 -9.4614)">
   <g id="g69378_00000048474522178564030880000012029520472464562848_">
    <g id="g1150_00000041264993524836485650000002667156227918835093_" transform="translate(248.18 1.7301)">
     <g id="g1046_00000179623481456403047600000013786308463015156133_" fill="#ac9565">
      <path id="path1040_00000086674643849101064930000000544993117268989371_" d="m652.64 679.26c0 0.859-0.697 1.556-1.556 1.556s-1.556-0.697-1.556-1.556 0.697-1.556 1.556-1.556 1.556 0.696 1.556 1.556z"/>
      <path id="circle1042_00000088092525766302075020000012063589076125170595_" d="m582.82 679.26c0 0.859-0.697 1.556-1.556 1.556s-1.556-0.697-1.556-1.556 0.697-1.556 1.556-1.556 1.556 0.696 1.556 1.556z"/>
     </g>
     <g id="g1052_00000059307063983544105630000014479741494975181241_" transform="rotate(-15 -58.665 41.306)" fill="#ac9565">
      <path id="circle1048_00000165937371305204900400000004753280190926549439_" d="m464.53 832.18c0 0.859-0.697 1.556-1.556 1.556s-1.556-0.697-1.556-1.556 0.697-1.556 1.556-1.556 1.556 0.697 1.556 1.556z"/>
      <path id="circle1050_00000045603014939917203290000011586436778156980404_" d="m394.71 832.18c0 0.859-0.697 1.556-1.556 1.556s-1.556-0.697-1.556-1.556 0.697-1.556 1.556-1.556 1.556 0.697 1.556 1.556z"/>
     </g>
     <g id="g1058_00000142875397334739185020000013096171327413693065_" transform="rotate(-30 -58.665 41.306)" fill="#ac9565">
      <path id="circle1054_00000011736799478215412720000011030137542416352935_" d="m243.25 931.21c0 0.859-0.697 1.556-1.556 1.556s-1.556-0.697-1.556-1.556 0.697-1.556 1.556-1.556 1.556 0.697 1.556 1.556z"/>
      <path id="circle1056_00000057848505169180031580000006661598677323321476_" d="m173.43 931.21c0 0.859-0.697 1.556-1.556 1.556s-1.556-0.697-1.556-1.556 0.697-1.556 1.556-1.556 1.556 0.697 1.556 1.556z"/>
     </g>
     <g id="g1064_00000112615874009118703250000015814448149883254912_" transform="rotate(-45 -58.665 41.306)" fill="#ac9565">
      <path id="circle1060_00000126298046990944901980000012201919220882106293_" d="m3.878 969.59c0 0.859-0.697 1.556-1.556 1.556s-1.556-0.697-1.556-1.556 0.697-1.556 1.556-1.556 1.556 0.696 1.556 1.556z"/>
      <path id="circle1062_00000091723165666931826290000012716400080590790552_" d="m-65.939 969.59c0 0.859-0.697 1.556-1.556 1.556s-1.556-0.697-1.556-1.556 0.697-1.556 1.556-1.556 1.556 0.696 1.556 1.556z"/>
     </g>
     <g id="g1070_00000102503017260196068780000002181624080216497540_" transform="rotate(-60 -58.665 41.306)">
      <path id="circle1066_00000039118454162930366240000009320170323353756337_" d="m-237.27 944.71c0 0.859-0.697 1.556-1.556 1.556s-1.556-0.697-1.556-1.556 0.697-1.556 1.556-1.556c0.86 0 1.556 0.697 1.556 1.556z" fill="#ac9565"/>
     </g>
     <g id="g1076_00000062896773797258437600000001258718824806406064_" transform="rotate(-75 -58.665 41.306)">
      <path id="circle1072_00000178889036064192717950000010929728405119778727_" d="m-463.76 858.26c0 0.859-0.697 1.556-1.556 1.556s-1.556-0.697-1.556-1.556 0.697-1.556 1.556-1.556c0.859 1e-3 1.556 0.697 1.556 1.556z" fill="#ac9565"/>
     </g>
     <g id="g1082_00000101821402733199433980000004557903576080635565_" transform="rotate(-90 -58.665 41.306)">
      <path id="circle1078_00000090972839547280419600000016437009912959137971_" d="m-660.16 716.14c0 0.859-0.697 1.556-1.556 1.556s-1.556-0.697-1.556-1.556 0.697-1.556 1.556-1.556 1.556 0.697 1.556 1.556z" fill="#ac9565"/>
     </g>
     <g id="g1088_00000070798973114213188100000008576737006643094686_" transform="rotate(255 -58.665 41.306)">
      <path id="circle1084_00000162317785836256627740000016991557405656293047_" d="m-813.08 528.03c0 0.859-0.697 1.556-1.556 1.556s-1.556-0.697-1.556-1.556 0.697-1.556 1.556-1.556 1.556 0.697 1.556 1.556z" fill="#ac9565"/>
     </g>
     <g id="g1094_00000134946933476726530920000000600330729866574985_" transform="rotate(240 -58.665 41.306)">
      <path id="circle1090_00000000920463847940238020000009433281597968873138_" d="m-912.11 306.75c0 0.859-0.697 1.556-1.556 1.556s-1.556-0.697-1.556-1.556 0.697-1.556 1.556-1.556 1.556 0.697 1.556 1.556z" fill="#ac9565"/>
     </g>
     <g id="g1100_00000166635285938904605820000002162273615198220478_" transform="rotate(225 -58.665 41.306)" fill="#ac9565">
      <path id="circle1096_00000011717807258834365190000015275426169120789151_" d="m-950.49 67.385c0 0.859-0.697 1.556-1.556 1.556s-1.556-0.697-1.556-1.556 0.697-1.556 1.556-1.556 1.556 0.697 1.556 1.556z"/>
      <path id="circle1098_00000026875345734785078840000001821978030803833248_" d="m-1020.3 67.385c0 0.859-0.697 1.556-1.556 1.556s-1.556-0.697-1.556-1.556 0.697-1.556 1.556-1.556 1.556 0.697 1.556 1.556z"/>
     </g>
     <g id="g1106_00000095326633042994096080000009800979495620747961_" transform="rotate(210 -58.665 41.306)" fill="#ac9565">
      <path id="circle1102_00000039824042745264565150000015289675211046624693_" d="m-925.61-173.76c0 0.859-0.697 1.556-1.556 1.556s-1.556-0.697-1.556-1.556 0.697-1.556 1.556-1.556c0.86 0 1.556 0.696 1.556 1.556z"/>
      <path id="circle1104_00000090280079016375719890000002919834389830877354_" d="m-995.42-173.76c0 0.859-0.697 1.556-1.556 1.556s-1.556-0.697-1.556-1.556 0.697-1.556 1.556-1.556 1.556 0.696 1.556 1.556z"/>
     </g>
     <g id="g1112_00000139983088474118022170000001612719602178774419_" transform="rotate(195 -58.665 41.306)" fill="#ac9565">
      <path id="circle1108_00000104697307278279592710000012794756482488780202_" d="m-839.16-400.25c0 0.859-0.697 1.556-1.556 1.556s-1.556-0.697-1.556-1.556 0.697-1.556 1.556-1.556 1.556 0.697 1.556 1.556z"/>
      <path id="circle1110_00000120555268172167102320000010423115616159813249_" d="m-908.98-400.25c0 0.859-0.697 1.556-1.556 1.556s-1.556-0.697-1.556-1.556 0.697-1.556 1.556-1.556 1.556 0.697 1.556 1.556z"/>
     </g>
    </g>
    <g id="g5310_00000098909795408166664930000000650997576420270501_" transform="rotate(45 63.867 340.2)">
     <path id="rect5276_00000137855000032618274320000008781449502614075025_" d="m870.7-16.465v31.955h5.607v-26.349z" fill="#ac9565"/>
     <path id="rect5278_00000170963849169847399960000016901113899142517687_" d="m870.7-16.465-5.606 5.606v26.349h5.606z" fill="#fff"/>
     <path id="path5302_00000023967572827388038750000014521721560436192139_" d="m870.7 47.445v-31.955h-5.607v26.349z" fill="#ac9565"/>
     <path id="path5304_00000091700416397368869800000006752014782680265659_" d="m870.7 47.445 5.606-5.606v-26.349h-5.606z" fill="#fff"/>
    </g>
   </g>
   <g id="text963_00000111187977547242948290000009539978626733546887_" transform="matrix(1.0317 0 0 .96923 0 5.2917)" fill="#fff">
    <path id="path65769_00000114053749287422691360000004896200116759688364_" d="m795.94 758.78v-12.951h5.582c0.632 0 1.216 0.134 1.751 0.401 0.535 0.255 0.991 0.596 1.368 1.021 0.389 0.413 0.693 0.894 0.912 1.441 0.219 0.535 0.328 1.076 0.328 1.623 0 0.572-0.103 1.131-0.31 1.678-0.207 0.535-0.499 1.015-0.876 1.441-0.365 0.414-0.815 0.748-1.35 1.003-0.523 0.243-1.101 0.365-1.733 0.365h-2.115v3.977h-3.557zm3.557-7.077h1.879c0.219 0 0.419-0.097 0.602-0.292 0.195-0.207 0.292-0.572 0.292-1.094 0-0.535-0.109-0.9-0.328-1.094-0.219-0.195-0.438-0.292-0.657-0.292h-1.788z"/>
    <path id="path65771_00000181776133199091510920000011192887353625110918_" d="m816.54 755.68v3.101h-9.23v-12.951h9.066v3.101h-5.509v1.824h4.706v2.882h-4.706v2.043z"/>
    <path id="path65773_00000005953749367250792770000015871077512152474267_" d="m818.2 758.78v-12.951h3.557v9.85h5.874v3.101z"/>
    <path id="path65775_00000156572231643960837920000004506613924329803951_" d="m834.54 758.89c-0.985 0-1.879-0.188-2.681-0.565-0.803-0.377-1.49-0.87-2.061-1.478-0.572-0.62-1.015-1.326-1.332-2.116-0.316-0.79-0.474-1.605-0.474-2.444 0-0.851 0.164-1.672 0.492-2.463 0.328-0.79 0.784-1.484 1.368-2.079 0.596-0.608 1.295-1.088 2.098-1.441 0.815-0.365 1.703-0.547 2.663-0.547 0.985 0 1.879 0.189 2.681 0.565 0.803 0.377 1.49 0.876 2.061 1.496 0.572 0.62 1.009 1.326 1.313 2.116 0.316 0.79 0.474 1.599 0.474 2.426 0 0.851-0.164 1.672-0.492 2.463-0.328 0.778-0.784 1.471-1.368 2.08-0.584 0.596-1.283 1.076-2.098 1.441-0.801 0.364-1.683 0.546-2.644 0.546zm-2.937-6.567c0 0.438 0.061 0.863 0.182 1.277 0.122 0.401 0.304 0.76 0.547 1.076s0.547 0.572 0.912 0.766c0.377 0.195 0.821 0.292 1.332 0.292s0.955-0.097 1.332-0.292c0.377-0.207 0.681-0.468 0.912-0.784 0.243-0.328 0.419-0.699 0.529-1.113 0.122-0.414 0.182-0.833 0.182-1.259 0-0.438-0.061-0.857-0.182-1.259-0.122-0.413-0.31-0.772-0.565-1.076-0.243-0.316-0.553-0.565-0.93-0.748-0.365-0.195-0.797-0.292-1.295-0.292-0.511 0-0.955 0.097-1.332 0.292-0.365 0.195-0.669 0.456-0.912 0.784-0.243 0.316-0.426 0.681-0.547 1.094-0.11 0.403-0.165 0.816-0.165 1.242z"/>
    <path id="path65777_00000022544311724567262620000003239317420836115085_" d="m842.66 758.78v-12.951h5.947c0.632 0 1.216 0.134 1.751 0.401 0.535 0.255 0.991 0.596 1.368 1.021 0.389 0.413 0.693 0.894 0.912 1.441 0.219 0.535 0.328 1.076 0.328 1.623 0 0.754-0.164 1.459-0.492 2.116-0.328 0.645-0.784 1.174-1.368 1.587l2.736 4.761h-4.013l-2.28-3.977h-1.332v3.977h-3.557zm3.558-7.077h2.244c0.219 0 0.42-0.122 0.602-0.365 0.195-0.243 0.292-0.584 0.292-1.021 0-0.45-0.109-0.79-0.328-1.022-0.219-0.243-0.438-0.365-0.657-0.365h-2.152v2.773z"/>
    <path id="path65779_00000056387992471818388550000001939818299776161449_" d="m860.52 755.73c0.414 0 0.766-0.091 1.058-0.274s0.529-0.42 0.711-0.711c0.182-0.304 0.316-0.651 0.401-1.04s0.128-0.797 0.128-1.222v-6.658h3.557v6.658c0 0.9-0.116 1.745-0.347 2.536-0.231 0.778-0.59 1.453-1.076 2.025s-1.1 1.021-1.842 1.35c-0.73 0.328-1.593 0.492-2.59 0.492-1.034 0-1.921-0.17-2.663-0.511-0.73-0.353-1.332-0.821-1.806-1.405s-0.821-1.259-1.04-2.025c-0.219-0.778-0.328-1.599-0.328-2.463v-6.658h3.557v6.658c0 0.426 0.043 0.839 0.128 1.24 0.085 0.389 0.219 0.736 0.401 1.04 0.182 0.292 0.413 0.529 0.693 0.711 0.291 0.172 0.644 0.257 1.058 0.257z"/>
    <path id="path65781_00000031207649357232774230000013131556789907974551_" d="m876.26 750.06c-0.365-0.219-0.742-0.413-1.131-0.584-0.328-0.146-0.699-0.28-1.113-0.401-0.401-0.134-0.797-0.201-1.186-0.201-0.316 0-0.572 0.049-0.766 0.146-0.182 0.097-0.274 0.261-0.274 0.492 0 0.17 0.055 0.31 0.164 0.42s0.268 0.213 0.474 0.31c0.207 0.085 0.456 0.17 0.748 0.255 0.304 0.085 0.644 0.188 1.021 0.31 0.596 0.182 1.131 0.383 1.605 0.602 0.486 0.219 0.9 0.48 1.24 0.784 0.341 0.292 0.602 0.651 0.784 1.076 0.182 0.426 0.274 0.942 0.273 1.55 0 0.778-0.146 1.435-0.438 1.97-0.28 0.523-0.657 0.942-1.131 1.259-0.462 0.316-0.991 0.547-1.587 0.693-0.584 0.134-1.174 0.201-1.769 0.201-0.474 0-0.961-0.036-1.459-0.109-0.499-0.073-0.997-0.176-1.496-0.31-0.486-0.134-0.961-0.292-1.423-0.474-0.45-0.182-0.87-0.389-1.259-0.62l1.532-3.119c0.426 0.268 0.87 0.505 1.332 0.711 0.389 0.182 0.827 0.347 1.313 0.492 0.499 0.146 1.003 0.219 1.514 0.219 0.389 0 0.657-0.049 0.803-0.146 0.158-0.109 0.237-0.249 0.237-0.419 0-0.182-0.079-0.334-0.237-0.456-0.146-0.134-0.353-0.249-0.62-0.347-0.268-0.097-0.578-0.195-0.93-0.292-0.341-0.097-0.705-0.213-1.094-0.347-0.572-0.195-1.064-0.401-1.478-0.62-0.413-0.231-0.754-0.486-1.022-0.766-0.268-0.292-0.468-0.62-0.602-0.985-0.122-0.365-0.182-0.784-0.182-1.259 0-0.717 0.128-1.35 0.383-1.897 0.268-0.547 0.626-1.003 1.076-1.368s0.961-0.638 1.532-0.821c0.584-0.195 1.198-0.292 1.842-0.292 0.474 0 0.936 0.049 1.386 0.146 0.45 0.085 0.882 0.201 1.295 0.347 0.426 0.134 0.821 0.286 1.186 0.456 0.365 0.158 0.693 0.31 0.985 0.456z"/>
   </g>
   <g id="g69295_00000165936356720769107830000016162858166374216068_" transform="matrix(.54536 0 0 .54536 138.26 -41.621)">
    <g id="g69293_00000165916143623386888080000014275502443211796364_" transform="matrix(.367 0 0 .367 22.822 85.614)">
     <g id="g69291_00000030478402836266189840000005710281128597899961_" transform="matrix(1.0329 0 0 1.0329 103.14 74.915)" fill="#fff">
      <path id="path69275_00000050628097696694532980000016594456464221542299_" d="m3181.6 3380.2c-8.979 0-16.339 7.36-16.339 16.339s7.36 16.337 16.339 16.337 16.339-7.358 16.339-16.337-7.359-16.339-16.339-16.339zm0 7.482c4.936 0 8.857 3.921 8.857 8.856s-3.921 8.856-8.857 8.856-8.856-3.921-8.856-8.856 3.921-8.856 8.856-8.856z"/>
      <path id="path69277_00000114053786612998571790000010187464789334000776_" d="m3143.4 3410.4v-27.828h7.643v10.583l8.466-10.583h8.623l-10.112 12.464 10.818 15.365h-8.78l-6.898-10.23-2.117 2.195v8.035h-7.643z"/>
      <path id="path69279_00000075151814087320388870000017906248620924043437_" d="m3208 3396.7v13.679h-7.643v-27.828h5.958l11.171 14.149v-14.149h7.643v27.828h-6.075z"/>
      <path id="path69281_00000071549967773515923710000017458253099071103908_" d="m3235.3 3382.6 5.448 18.226 5.37-18.226h8.035l-10.23 27.828h-6.35l-10.347-27.828z"/>
      <path id="path69283_00000042696965629531637860000012018643595852324757_" d="m3276.1 3403.8v6.663h-19.833v-27.828h19.48v6.663h-11.837v3.919h10.112v6.193h-10.112v4.39z"/>
      <path id="path69285_00000084496593960096433570000016785150592460210859_" d="m3285.3 3382.6 4.978 12.033 5.095-12.033h8.309l-9.603 18.617v9.211h-7.604v-9.289l-9.446-18.539z"/>
      <path id="path69287_00000112619944022561019880000017770075840917451434_" d="m3335.9 3410.4v-27.828h12.777c1.359 0 2.613 0.287 3.763 0.862 1.15 0.549 2.13 1.28 2.94 2.195 0.836 0.888 1.49 1.921 1.96 3.096 0.47 1.15 0.706 2.312 0.706 3.488 0 1.62-0.353 3.136-1.058 4.547-0.706 1.385-1.685 2.521-2.939 3.41l5.879 10.23h-8.623l-4.899-8.544h-2.861v8.544zm7.643-15.208h4.821c0.47 0 0.901-0.261 1.293-0.784 0.418-0.523 0.627-1.254 0.627-2.195 0-0.967-0.235-1.698-0.705-2.195-0.47-0.522-0.941-0.784-1.411-0.784h-4.625z"/>
      <path id="path69289_00000160180645580526644540000016983021380211120015_" d="m3317.5 3380.2c-8.979 0-16.339 7.36-16.339 16.339s7.359 16.337 16.339 16.337c8.979 0 16.339-7.358 16.339-16.337s-7.36-16.339-16.339-16.339zm0 7.482c4.936 0 8.856 3.921 8.856 8.856s-3.921 8.856-8.856 8.856-8.857-3.921-8.857-8.856 3.921-8.856 8.857-8.856z"/>
     </g>
    </g>
   </g>
  </g>
  <g fill="#fff">
   <path d="m675.25 445.98h-5.366l-2.197-5.87h-10.749l-2.197 5.87h-5.24l9.813-25.207h6.122zm-16.583-10.497h7.292l-3.637-9.741z"/>
   <path d="m690.55 433.39c-1.386-0.684-3.601-1.404-5.563-1.422-1.783 0-2.683 0.63-2.683 1.584 0 1.009 1.261 1.261 2.845 1.494l1.549 0.234c3.781 0.576 5.888 2.269 5.888 5.222 0 3.601-2.953 5.924-8.013 5.924-2.376 0-5.491-0.45-7.76-2.053l1.855-3.565c1.494 0.99 3.312 1.711 5.941 1.711 2.179 0 3.223-0.612 3.223-1.639 0-0.846-0.882-1.314-2.899-1.603l-1.422-0.198c-4.033-0.558-6.032-2.322-6.032-5.293 0-3.583 2.772-5.708 7.364-5.708 2.791 0 4.969 0.522 7.292 1.656z"/>
   <path d="m708.68 433.39c-1.386-0.684-3.601-1.404-5.563-1.422-1.783 0-2.683 0.63-2.683 1.584 0 1.009 1.261 1.261 2.845 1.494l1.549 0.234c3.781 0.576 5.887 2.269 5.887 5.222 0 3.601-2.953 5.924-8.012 5.924-2.376 0-5.491-0.45-7.76-2.053l1.855-3.565c1.494 0.99 3.312 1.711 5.941 1.711 2.179 0 3.223-0.612 3.223-1.639 0-0.846-0.882-1.314-2.899-1.603l-1.422-0.198c-4.033-0.558-6.032-2.322-6.032-5.293 0-3.583 2.772-5.708 7.364-5.708 2.791 0 4.969 0.522 7.292 1.656z"/>
   <path d="m730.58 437.23c0 0.54-0.036 1.188-0.09 1.585h-12.369c0.504 2.521 2.269 3.619 4.483 3.619 1.512 0 3.15-0.612 4.411-1.675l2.755 3.025c-1.98 1.818-4.502 2.646-7.437 2.646-5.348 0-9.057-3.637-9.057-9.129 0-5.491 3.601-9.236 8.822-9.236 5.025 1e-3 8.465 3.727 8.482 9.165zm-12.441-1.62h7.725c-0.433-2.232-1.783-3.493-3.8-3.493-2.214 0-3.511 1.333-3.925 3.493z"/>
   <path d="m746.8 433.39c-1.386-0.684-3.601-1.404-5.563-1.422-1.782 0-2.683 0.63-2.683 1.584 0 1.009 1.26 1.261 2.845 1.494l1.549 0.234c3.78 0.576 5.888 2.269 5.888 5.222 0 3.601-2.953 5.924-8.013 5.924-2.377 0-5.491-0.45-7.761-2.053l1.854-3.565c1.495 0.99 3.313 1.711 5.942 1.711 2.179 0 3.223-0.612 3.223-1.639 0-0.846-0.882-1.314-2.898-1.603l-1.423-0.198c-4.033-0.558-6.031-2.322-6.031-5.293 0-3.583 2.772-5.708 7.364-5.708 2.79 0 4.969 0.522 7.292 1.656z"/>
   <path d="m764.92 433.39c-1.387-0.684-3.602-1.404-5.563-1.422-1.782 0-2.683 0.63-2.683 1.584 0 1.009 1.26 1.261 2.845 1.494l1.548 0.234c3.781 0.576 5.888 2.269 5.888 5.222 0 3.601-2.952 5.924-8.012 5.924-2.377 0-5.492-0.45-7.761-2.053l1.854-3.565c1.495 0.99 3.313 1.711 5.942 1.711 2.179 0 3.223-0.612 3.223-1.639 0-0.846-0.883-1.314-2.898-1.603l-1.423-0.198c-4.033-0.558-6.032-2.322-6.032-5.293 0-3.583 2.773-5.708 7.364-5.708 2.791 0 4.97 0.522 7.292 1.656z"/>
  </g>
  <g id="g69545_00000009563389858996947240000014973215338079553424_" transform="translate(-205.02 -8.4125)">
   <g id="text2288_00000059304700913603111370000005039060106668616095_" transform="matrix(1.0317 0 0 .96923 0 5.2917)" fill="#fff">
    <path id="path65755_00000041288566704796395630000013636632900387123134_" d="m862.66 400.66h-3.721v9.85h-3.557v-9.85h-3.74v-3.101h11.018z"/>
    <path id="path65757_00000174563603914918630370000016463595309966352033_" d="m866.12 397.56h3.247l4.487 12.951h-3.612l-0.784-2.536h-3.448l-0.766 2.536h-3.63zm2.772 8.045-1.149-4.013-1.204 4.013z"/>
    <path id="path65759_00000033367063975941014250000005248179320372086953_" d="m873.69 403.92c0-0.79 0.146-1.569 0.438-2.335 0.304-0.766 0.742-1.453 1.313-2.061 0.572-0.608 1.265-1.101 2.079-1.478s1.745-0.565 2.791-0.565c1.253 0 2.335 0.261 3.247 0.784 0.924 0.511 1.611 1.192 2.061 2.043l-2.718 1.934c-0.122-0.316-0.286-0.578-0.492-0.784-0.195-0.207-0.414-0.371-0.657-0.493s-0.499-0.207-0.766-0.255c-0.255-0.049-0.505-0.073-0.748-0.073-0.511 0-0.955 0.103-1.332 0.31-0.365 0.195-0.669 0.456-0.912 0.784-0.231 0.316-0.407 0.681-0.529 1.094-0.109 0.401-0.164 0.803-0.164 1.204 0 0.45 0.067 0.882 0.201 1.295s0.328 0.778 0.584 1.094c0.255 0.316 0.565 0.572 0.93 0.766 0.377 0.182 0.797 0.274 1.259 0.274 0.243 0 0.492-0.024 0.748-0.073 0.255-0.061 0.499-0.152 0.73-0.274 0.243-0.134 0.456-0.298 0.638-0.493 0.195-0.207 0.347-0.456 0.456-0.748l2.9 1.733c-0.195 0.474-0.492 0.9-0.894 1.277-0.389 0.377-0.839 0.693-1.35 0.949-0.499 0.255-1.04 0.45-1.623 0.584-0.572 0.134-1.131 0.201-1.678 0.201-0.961 0-1.842-0.189-2.645-0.565-0.79-0.389-1.477-0.9-2.061-1.532-0.572-0.632-1.015-1.35-1.332-2.152-0.316-0.804-0.474-1.618-0.474-2.445z"/>
    <path id="path65761_00000163758647340688281380000016310345759573023642_" d="m887.01 410.51v-12.951h3.557v4.925l3.94-4.925h4.013l-4.706 5.801 5.035 7.151h-4.086l-3.21-4.761-0.985 1.022v3.739h-3.558z"/>
    <path id="path65763_00000142177684186327033990000017888330615678607538_" d="m899.59 410.51v-12.951h3.557v9.85h5.874v3.101z"/>
    <path id="path65765_00000140009341136997765900000014659714869933343133_" d="m919.5 407.41v3.101h-9.23v-12.951h9.066v3.101h-5.509v1.824h4.706v2.882h-4.706v2.043z"/>
   </g>
   <g id="g2463_00000157271829253561098610000011020361667586772651_" transform="matrix(.90772 0 0 .90772 359.27 7.5951)">
    <g fill="#ac9565">
     <path id="rect2425_00000044865176523152606130000006638527569359565228_" d="m620.44 323.32 3.656 2.111v28.753l-3.656-2.111z"/>
     <path id="rect2427_00000142138301843285777810000006375847506640913037_" d="m600.39 323.32-3.656 2.111v30.04l3.656-2.111z"/>
     <path id="circle2403_00000069376087162181956740000002428861840691089820_" d="m610.52 372.48c-2.889 0-5.243 2.289-5.347 5.152-1e-3 0.033-1e-3 4.832-2e-3 9.204 0 0.996 0.19 1.418 0.812 2.04 2.895 2.895 6.15 6.151 6.165 6.167 1.378 1.482 1.439 3.901-0.097 5.245v1e-3c-1.543 1.35-3.785 1.475-5.266 0.077-9e-3 -8e-3 -2.602-2.606-4.408-4.416-0.569-0.569-1.719-0.285-1.719 0.923 0 1.374 1.517 1.285 1.517 1.928 0 4.684 3.66 8.003 8.345 8.003s8.482-3.797 8.483-8.482c0-2.563-1.16-4.989-3.154-6.6-1e-3 -5.584 0.02-14.013 0.02-14.049-0.084-2.881-2.447-5.193-5.349-5.193z"/>
    </g>
    <path d="m627.08 352.6c1e-3 -9.148-7.415-16.564-16.562-16.565h-2e-3c-9.148 0-16.563 7.416-16.563 16.564v1e-3c0 1.645 0.246 3.28 0.728 4.853l-0.057 0.019 7.769 23.335c0.771 3.875 4.171 6.667 8.123 6.667 3.78 0 7.081-2.56 8.021-6.221l7.919-23.78-0.1-0.034c0.48-1.569 0.723-3.2 0.724-4.839zm-14.25 27.961c-0.147 0.139-3.078 0.841-3.271 0.784s-2.267-2.245-2.314-2.441 0.811-3.086 0.957-3.225c0.147-0.139 3.078-0.841 3.271-0.784 0.194 0.057 2.267 2.245 2.314 2.441s-0.81 3.086-0.957 3.225zm2.314-23.08c-0.293 0.278-6.155 1.682-6.542 1.567s-4.534-4.49-4.628-4.882 1.621-6.172 1.914-6.449 6.155-1.682 6.542-1.567 4.534 4.49 4.628 4.882c0.094 0.393-1.621 6.172-1.914 6.449z" fill="#fff"/>
   </g>
   <g id="g69317_00000168797188613400780280000016781570468474774936_" transform="matrix(.54536 0 0 .54536 190.95 -41.621)">
    <g id="g69315_00000070798355124706395600000011029785251664938881_" transform="matrix(.367 0 0 .367 22.822 85.614)">
     <g id="g69313_00000123431425068340435680000016671350477382588322_" transform="matrix(1.0329 0 0 1.0329 103.14 74.915)" fill="#fff">
      <path id="path69297_00000103985788787238269860000003517746033376839093_" d="m3204.7 1747.4c-8.979 0-16.339 7.359-16.339 16.339s7.36 16.337 16.339 16.337 16.339-7.358 16.339-16.337-7.36-16.339-16.339-16.339zm0 7.482c4.936 0 8.857 3.921 8.857 8.857s-3.921 8.857-8.857 8.857-8.856-3.921-8.856-8.857 3.92-8.857 8.856-8.857z"/>
      <path id="path69299_00000062870606664080831980000000993147897923451038_" d="m3166.5 1777.7v-27.828h7.643v10.583l8.466-10.583h8.623l-10.112 12.464 10.818 15.364h-8.78l-6.898-10.23-2.117 2.195v8.035z"/>
      <path id="path69301_00000080165379851091048140000003801024906495908229_" d="m3231.1 1764v13.679h-7.643v-27.828h5.958l11.171 14.149v-14.149h7.643v27.828h-6.075z"/>
      <path id="path69303_00000068656622010000274980000001477752628963266445_" d="m3258.4 1749.8 5.448 18.225 5.37-18.225h8.035l-10.23 27.828h-6.35l-10.347-27.828z"/>
      <path id="path69305_00000037664418648944474140000010573858001919608498_" d="m3299.2 1771v6.663h-19.833v-27.828h19.48v6.663h-11.837v3.919h10.112v6.193h-10.112v4.39z"/>
      <path id="path69307_00000173853100170134415000000010594371595763665342_" d="m3308.4 1749.8 4.978 12.033 5.095-12.033h8.309l-9.603 18.618v9.211h-7.604v-9.289l-9.446-18.539h8.271z"/>
      <path id="path69309_00000089551187960922035690000016351150782732834688_" d="m3359 1777.7v-27.828h12.777c1.359 0 2.613 0.287 3.763 0.862 1.15 0.549 2.13 1.28 2.94 2.195 0.836 0.888 1.49 1.921 1.96 3.096 0.47 1.15 0.706 2.312 0.706 3.488 0 1.62-0.353 3.136-1.058 4.547-0.706 1.385-1.685 2.522-2.939 3.41l5.879 10.23h-8.623l-4.899-8.544h-2.861v8.544zm7.643-15.207h4.821c0.47 0 0.901-0.261 1.293-0.784 0.418-0.523 0.627-1.254 0.627-2.195 0-0.967-0.235-1.698-0.705-2.195-0.47-0.523-0.941-0.784-1.411-0.784h-4.625z"/>
      <path id="path69311_00000180336526040418386680000000252602833374613437_" d="m3340.6 1747.4c-8.979 0-16.339 7.359-16.339 16.339s7.359 16.337 16.339 16.337c8.979 0 16.339-7.358 16.339-16.337s-7.36-16.339-16.339-16.339zm0 7.482c4.936 0 8.856 3.921 8.856 8.857s-3.921 8.857-8.856 8.857-8.857-3.921-8.857-8.857 3.922-8.857 8.857-8.857z"/>
     </g>
    </g>
   </g>
  </g>
  <g fill="#fff">
   <circle cx="1281.5" cy="228.3" r="11.108"/>
   <circle cx="1281.5" cy="83.294" r="11.108"/>
   <circle cx="1281.5" cy="374.45" r="11.108"/>
   <circle cx="1281.5" cy="519.4" r="11.108"/>
  </g>
 </g>
</svg>
