<svg width="201.12" height="201.12" version="1.2" viewBox="0 0 150.84 150.84" xmlns="http://www.w3.org/2000/svg">
 <title>Konveyor</title>
 <path d="m103.03 85.621h15.727c1.418 0 2.5586 1.1367 2.5586 2.5547s-1.1406 2.5586-2.5586 2.5586h-15.727c-1.418 0-2.5586-1.1406-2.5586-2.5586s1.1406-2.5547 2.5586-2.5547m-70.941 0h15.727c1.4141 0 2.5586 1.1367 2.5586 2.5547s-1.1445 2.5586-2.5586 2.5586h-15.727c-1.4141 0-2.5586-1.1406-2.5586-2.5586s1.1445-2.5547 2.5586-2.5547m47.938-8.7539c-0.8789 0-1.5859 0.70703-1.5859 1.582v61.738c0 0.87891 0.70703 1.5859 1.5859 1.5859h61.734c0.8789 0 1.582-0.71094 1.582-1.5859v-61.738c0-0.875-0.70313-1.582-1.582-1.582zm-70.945 0c-0.875 0-1.5781 0.70703-1.5781 1.582v61.738c0 0.87891 0.70312 1.5859 1.5781 1.5859h61.742c0.875 0 1.5781-0.71094 1.5781-1.5859v-61.738c0-0.875-0.70312-1.582-1.5781-1.582zm58.477-60.613h15.727c1.418 0 2.5586 1.1367 2.5586 2.5547s-1.1406 2.5586-2.5586 2.5586h-15.727c-1.418 0-2.5547-1.1406-2.5547-2.5586s1.1367-2.5547 2.5547-2.5547m-23.004-8.7539c-0.87891 0-1.5859 0.70703-1.5859 1.582v61.738c0 0.875 0.70703 1.5781 1.5859 1.5781h61.738c0.875 0 1.582-0.70312 1.582-1.5781v-61.738c0-0.875-0.70703-1.582-1.582-1.582z" fill="currentColor"/>
</svg>
