<?xml version="1.0" encoding="utf-8"?>
<svg version="1.1" id="Layer_1" x="0px" y="0px" viewBox="0 0 281.1 275.6" style="enable-background:new 0 0 281.1 275.6;" xmlns="http://www.w3.org/2000/svg" xmlns:xlink="http://www.w3.org/1999/xlink">
  <style type="text/css">
	.st0{fill:#E5DFEE;}
	.st1{fill:none;stroke:#313778;stroke-width:5;stroke-miterlimit:10;}
	.st2{fill:#5A5D9B;stroke:#313778;stroke-width:5;stroke-miterlimit:10;}
	.st3{fill:#FFFFFF;}
</style>
  <g>
    <circle class="st0" cx="140.7" cy="155.9" r="112.8"/>
    <circle class="st1" cx="140.7" cy="155.9" r="112.4"/>
    <a target="_blank" rel="noreferrer" xlink:href="https://github.com/konveyor/community/tree/main/sig-integration">
      <title>SIG Integration</title>
      <g>
        <circle class="st2" cx="231.7" cy="224.1" r="45.7">
          <title>SIG Integration</title>
        </circle>
        <path class="st3" d="M227.1,213.6c0-0.3-0.1-0.5-0.3-0.7s-0.6-0.3-1.1-0.5s-1-0.4-1.3-0.5c-1.1-0.5-1.7-1.3-1.7-2.2 c0-0.5,0.1-0.9,0.4-1.3s0.7-0.6,1.2-0.8s1.1-0.3,1.7-0.3c0.6,0,1.2,0.1,1.6,0.3s0.9,0.5,1.1,0.9s0.4,0.9,0.4,1.4h-2.1 c0-0.3-0.1-0.6-0.3-0.8s-0.5-0.3-0.9-0.3c-0.4,0-0.7,0.1-0.9,0.2s-0.3,0.4-0.3,0.6c0,0.2,0.1,0.4,0.4,0.6s0.6,0.4,1.2,0.6 s1.1,0.4,1.5,0.6c0.9,0.5,1.4,1.3,1.4,2.2c0,0.7-0.3,1.3-0.8,1.8S227,216,226,216c-0.7,0-1.3-0.1-1.9-0.4s-1-0.6-1.3-1 s-0.4-0.9-0.4-1.5h2.1c0,0.5,0.1,0.8,0.4,1s0.6,0.3,1.2,0.3c0.3,0,0.6-0.1,0.8-0.2S227.1,213.9,227.1,213.6z"/>
        <path class="st3" d="M232.4,215.9h-2.1v-8.5h2.1V215.9z"/>
        <path class="st3" d="M240.8,214.8c-0.3,0.4-0.8,0.6-1.4,0.8s-1.3,0.3-2,0.3c-1.1,0-2-0.3-2.7-1s-1-1.6-1.1-2.9l0-0.7 c0-0.8,0.1-1.6,0.4-2.2s0.7-1.1,1.3-1.4s1.2-0.5,1.9-0.5c1.1,0,1.9,0.2,2.5,0.7s0.9,1.2,1,2.2h-2c-0.1-0.5-0.2-0.8-0.5-1 s-0.6-0.3-1-0.3c-0.5,0-0.9,0.2-1.2,0.7s-0.4,1.1-0.4,1.9v0.5c0,0.9,0.1,1.5,0.4,1.9s0.7,0.6,1.4,0.6c0.5,0,0.9-0.1,1.2-0.4v-1.3 h-1.4v-1.4h3.5V214.8z"/>
        <path class="st3" d="M204.7,230.3h-2.1v-8.5h2.1V230.3z"/>
        <path class="st3" d="M207.9,223.9l0.1,0.7c0.4-0.6,1-0.9,1.8-0.9c0.7,0,1.2,0.2,1.5,0.6s0.5,1,0.5,1.8v4.1h-2v-4 c0-0.3-0.1-0.6-0.2-0.7s-0.4-0.2-0.7-0.2c-0.4,0-0.7,0.2-0.9,0.5v4.5h-2v-6.3H207.9z"/>
        <path class="st3" d="M215.1,222.4v1.6h1v1.4h-1v2.9c0,0.2,0,0.4,0.1,0.5s0.3,0.1,0.5,0.1c0.2,0,0.4,0,0.5,0v1.4 c-0.4,0.1-0.7,0.2-1.1,0.2c-0.7,0-1.2-0.2-1.5-0.5s-0.5-0.8-0.5-1.5v-3.1h-0.8v-1.4h0.8v-1.6H215.1z"/>
        <path class="st3" d="M220,230.4c-1,0-1.8-0.3-2.4-0.9s-0.9-1.3-0.9-2.3v-0.2c0-0.6,0.1-1.2,0.4-1.7s0.6-0.9,1.1-1.2s1-0.4,1.6-0.4 c0.9,0,1.6,0.3,2.1,0.8s0.8,1.3,0.8,2.3v0.8h-3.9c0.1,0.4,0.2,0.6,0.5,0.8s0.5,0.3,0.9,0.3c0.6,0,1.1-0.2,1.5-0.7l0.9,1.1 c-0.2,0.3-0.6,0.6-1,0.8S220.5,230.4,220,230.4z M219.8,225.3c-0.6,0-0.9,0.4-1,1.1h2v-0.2c0-0.3-0.1-0.6-0.2-0.7 S220.1,225.3,219.8,225.3z"/>
        <path class="st3" d="M223.3,227.1c0-0.6,0.1-1.2,0.3-1.7s0.5-0.9,0.9-1.1s0.9-0.4,1.4-0.4c0.7,0,1.2,0.2,1.5,0.7l0.1-0.6h1.8v6.1 c0,0.6-0.1,1-0.4,1.5s-0.6,0.7-1.1,0.9s-1.1,0.3-1.7,0.3c-0.5,0-0.9-0.1-1.4-0.3s-0.8-0.4-1-0.7l0.8-1.2c0.4,0.4,0.9,0.7,1.5,0.7 c0.9,0,1.3-0.4,1.3-1.3v-0.2c-0.4,0.4-0.9,0.6-1.4,0.6c-0.8,0-1.4-0.3-1.9-0.9S223.3,228.1,223.3,227.1L223.3,227.1z M225.2,227.2 c0,0.5,0.1,0.9,0.3,1.2s0.5,0.5,0.8,0.5c0.4,0,0.7-0.1,0.9-0.4v-2.7c-0.2-0.3-0.5-0.4-0.9-0.4c-0.4,0-0.6,0.2-0.8,0.5 S225.2,226.6,225.2,227.2z"/>
        <path class="st3" d="M234.2,225.7l-0.7,0c-0.6,0-1,0.2-1.2,0.6v4h-2v-6.3h1.9l0.1,0.8c0.3-0.6,0.8-0.9,1.4-0.9 c0.2,0,0.4,0,0.6,0.1L234.2,225.7z"/>
        <path class="st3" d="M238.3,230.3c-0.1-0.1-0.1-0.3-0.2-0.6c-0.4,0.5-0.9,0.7-1.5,0.7c-0.6,0-1.1-0.2-1.5-0.5s-0.6-0.8-0.6-1.4 c0-0.7,0.3-1.2,0.8-1.6s1.2-0.5,2.2-0.5h0.6v-0.3c0-0.6-0.3-0.9-0.8-0.9c-0.5,0-0.7,0.2-0.7,0.7h-2c0-0.6,0.3-1.1,0.8-1.5 c0.5-0.4,1.2-0.6,2-0.6s1.4,0.2,1.9,0.6s0.7,0.9,0.7,1.6v2.8c0,0.6,0.1,1,0.3,1.3v0.1H238.3z M237.1,229c0.2,0,0.5-0.1,0.6-0.2 s0.3-0.2,0.3-0.4v-1h-0.6c-0.7,0-1,0.3-1,0.9c0,0.2,0.1,0.3,0.2,0.4S236.9,229,237.1,229z"/>
        <path class="st3" d="M243.4,222.4v1.6h1v1.4h-1v2.9c0,0.2,0,0.4,0.1,0.5s0.3,0.1,0.5,0.1c0.2,0,0.4,0,0.5,0v1.4 c-0.4,0.1-0.7,0.2-1.1,0.2c-0.7,0-1.2-0.2-1.5-0.5s-0.5-0.8-0.5-1.5v-3.1h-0.8v-1.4h0.8v-1.6H243.4z"/>
        <path class="st3" d="M245.2,222.3c0-0.3,0.1-0.5,0.3-0.7s0.5-0.3,0.8-0.3s0.6,0.1,0.8,0.3s0.3,0.4,0.3,0.7s-0.1,0.5-0.3,0.7 s-0.5,0.3-0.8,0.3s-0.6-0.1-0.8-0.3S245.2,222.6,245.2,222.3z M247.3,230.3h-2v-6.3h2V230.3z"/>
        <path class="st3" d="M248.3,227c0-0.6,0.1-1.2,0.4-1.7s0.6-0.9,1.1-1.1s1-0.4,1.6-0.4c0.9,0,1.7,0.3,2.2,0.9s0.8,1.4,0.8,2.4v0.1 c0,1-0.3,1.8-0.8,2.4s-1.3,0.9-2.2,0.9c-0.9,0-1.6-0.3-2.2-0.8s-0.8-1.3-0.9-2.2L248.3,227z M250.3,227.2c0,0.6,0.1,1,0.3,1.3 s0.5,0.4,0.8,0.4c0.7,0,1.1-0.5,1.1-1.6V227c0-1.1-0.4-1.7-1.1-1.7c-0.7,0-1,0.5-1.1,1.5L250.3,227.2z"/>
        <path class="st3" d="M257.1,223.9l0.1,0.7c0.4-0.6,1-0.9,1.8-0.9c0.7,0,1.2,0.2,1.5,0.6s0.5,1,0.5,1.8v4.1h-2v-4 c0-0.3-0.1-0.6-0.2-0.7s-0.4-0.2-0.7-0.2c-0.4,0-0.7,0.2-0.9,0.5v4.5h-2v-6.3H257.1z"/>
      </g>
    </a>
    <g>
      <a target="_blank" rel="noreferrer" xlink:href="https://github.com/konveyor/community/tree/main/sig-core">
        <title>SIG Core</title>
        <circle class="st2" cx="141" cy="156.4" r="45.7"/>
      </a>
      <path class="st3" d="M124.9,157.6c0-0.3-0.1-0.5-0.3-0.7s-0.6-0.3-1.1-0.5s-1-0.4-1.3-0.5c-1.1-0.5-1.7-1.3-1.7-2.2 c0-0.5,0.1-0.9,0.4-1.3s0.7-0.6,1.2-0.8s1.1-0.3,1.7-0.3c0.6,0,1.2,0.1,1.6,0.3s0.9,0.5,1.1,0.9s0.4,0.9,0.4,1.4h-2.1 c0-0.3-0.1-0.6-0.3-0.8s-0.5-0.3-0.9-0.3c-0.4,0-0.7,0.1-0.9,0.2s-0.3,0.4-0.3,0.6c0,0.2,0.1,0.4,0.4,0.6s0.6,0.4,1.2,0.6 s1.1,0.4,1.5,0.6c0.9,0.5,1.4,1.3,1.4,2.2c0,0.7-0.3,1.3-0.8,1.8s-1.3,0.6-2.3,0.6c-0.7,0-1.3-0.1-1.9-0.4s-1-0.6-1.3-1 s-0.4-0.9-0.4-1.5h2.1c0,0.5,0.1,0.8,0.4,1s0.6,0.3,1.2,0.3c0.3,0,0.6-0.1,0.8-0.2S124.9,157.8,124.9,157.6z"/>
      <path class="st3" d="M130.2,159.8h-2.1v-8.5h2.1V159.8z"/>
      <path class="st3" d="M138.6,158.8c-0.3,0.4-0.8,0.6-1.4,0.8s-1.3,0.3-2,0.3c-1.1,0-2-0.3-2.7-1s-1-1.6-1.1-2.9l0-0.7 c0-0.8,0.1-1.6,0.4-2.2s0.7-1.1,1.3-1.4s1.2-0.5,1.9-0.5c1.1,0,1.9,0.2,2.5,0.7s0.9,1.2,1,2.2h-2c-0.1-0.5-0.2-0.8-0.5-1 s-0.6-0.3-1-0.3c-0.5,0-0.9,0.2-1.2,0.7s-0.4,1.1-0.4,1.9v0.5c0,0.9,0.1,1.5,0.4,1.9s0.7,0.6,1.4,0.6c0.5,0,0.9-0.1,1.2-0.4v-1.3 h-1.4v-1.4h3.5V158.8z"/>
      <path class="st3" d="M149.7,157c0,0.6-0.2,1.1-0.5,1.6s-0.7,0.8-1.2,1.1s-1.1,0.4-1.8,0.4c-1.1,0-2-0.4-2.6-1.1s-1-1.8-1-3.1v-0.4 c0-0.8,0.1-1.6,0.4-2.2s0.7-1.1,1.3-1.5s1.2-0.5,1.9-0.5c1,0,1.9,0.3,2.5,0.8s1,1.3,1.1,2.3h-2.1c0-0.5-0.1-0.9-0.4-1.1 s-0.6-0.3-1.1-0.3c-0.5,0-0.9,0.2-1.1,0.6s-0.4,1-0.4,1.8v0.6c0,0.9,0.1,1.6,0.3,2s0.6,0.6,1.2,0.6c0.5,0,0.8-0.1,1.1-0.3 s0.4-0.6,0.4-1.1H149.7z"/>
      <path class="st3" d="M150.3,156.6c0-0.6,0.1-1.2,0.4-1.7s0.6-0.9,1.1-1.1s1-0.4,1.6-0.4c0.9,0,1.7,0.3,2.2,0.9s0.8,1.4,0.8,2.4 v0.1c0,1-0.3,1.8-0.8,2.4s-1.3,0.9-2.2,0.9c-0.9,0-1.6-0.3-2.2-0.8s-0.8-1.3-0.9-2.2L150.3,156.6z M152.3,156.7 c0,0.6,0.1,1,0.3,1.3s0.5,0.4,0.8,0.4c0.7,0,1.1-0.5,1.1-1.6v-0.2c0-1.1-0.4-1.7-1.1-1.7c-0.7,0-1,0.5-1.1,1.5L152.3,156.7z"/>
      <path class="st3" d="M161.1,155.3l-0.7,0c-0.6,0-1,0.2-1.2,0.6v4h-2v-6.3h1.9l0.1,0.8c0.3-0.6,0.8-0.9,1.4-0.9 c0.2,0,0.4,0,0.6,0.1L161.1,155.3z"/>
      <path class="st3" d="M164.8,160c-1,0-1.8-0.3-2.4-0.9s-0.9-1.3-0.9-2.3v-0.2c0-0.6,0.1-1.2,0.4-1.7s0.6-0.9,1.1-1.2s1-0.4,1.6-0.4 c0.9,0,1.6,0.3,2.1,0.8s0.8,1.3,0.8,2.3v0.8h-3.9c0.1,0.4,0.2,0.6,0.5,0.8s0.5,0.3,0.9,0.3c0.6,0,1.1-0.2,1.5-0.7l0.9,1.1 c-0.2,0.3-0.6,0.6-1,0.8S165.3,160,164.8,160z M164.6,154.9c-0.6,0-0.9,0.4-1,1.1h2v-0.2c0-0.3-0.1-0.6-0.2-0.7 S164.9,154.9,164.6,154.9z"/>
    </g>
    <a target="_blank" rel="noreferrer" xlink:href="https://github.com/konveyor/community/tree/main/sig-ui">
      <title>SIG UI</title>
      <g>
        <circle class="st2" cx="139.4" cy="49" r="45.7" id="sig-ui"/>
        <path class="st3" d="M127.5,50.4c0-0.3-0.1-0.5-0.3-0.7s-0.6-0.3-1.1-0.5s-1-0.4-1.3-0.5c-1.1-0.5-1.7-1.3-1.7-2.2 c0-0.5,0.1-0.9,0.4-1.3s0.7-0.6,1.2-0.8s1.1-0.3,1.7-0.3c0.6,0,1.2,0.1,1.6,0.3s0.9,0.5,1.1,0.9s0.4,0.9,0.4,1.4h-2.1 c0-0.3-0.1-0.6-0.3-0.8s-0.5-0.3-0.9-0.3c-0.4,0-0.7,0.1-0.9,0.2s-0.3,0.4-0.3,0.6c0,0.2,0.1,0.4,0.4,0.6s0.6,0.4,1.2,0.6 s1.1,0.4,1.5,0.6c0.9,0.5,1.4,1.3,1.4,2.2c0,0.7-0.3,1.3-0.8,1.8s-1.3,0.6-2.3,0.6c-0.7,0-1.3-0.1-1.9-0.4s-1-0.6-1.3-1 s-0.4-0.9-0.4-1.5h2.1c0,0.5,0.1,0.8,0.4,1s0.6,0.3,1.2,0.3c0.3,0,0.6-0.1,0.8-0.2S127.5,50.7,127.5,50.4z"/>
        <path class="st3" d="M132.8,52.7h-2.1v-8.5h2.1V52.7z"/>
        <path class="st3" d="M141.2,51.6c-0.3,0.4-0.8,0.6-1.4,0.8s-1.3,0.3-2,0.3c-1.1,0-2-0.3-2.7-1s-1-1.6-1.1-2.9l0-0.7 c0-0.8,0.1-1.6,0.4-2.2s0.7-1.1,1.3-1.4s1.2-0.5,1.9-0.5c1.1,0,1.9,0.2,2.5,0.7s0.9,1.2,1,2.2h-2c-0.1-0.5-0.2-0.8-0.5-1 s-0.6-0.3-1-0.3c-0.5,0-0.9,0.2-1.2,0.7s-0.4,1.1-0.4,1.9v0.5c0,0.9,0.1,1.5,0.4,1.9s0.7,0.6,1.4,0.6c0.5,0,0.9-0.1,1.2-0.4v-1.3 h-1.4v-1.4h3.5V51.6z"/>
        <path class="st3" d="M152.1,44.1v5.6c0,0.6-0.1,1.2-0.4,1.6s-0.7,0.8-1.2,1.1s-1.1,0.4-1.8,0.4c-1,0-1.9-0.3-2.5-0.8 s-0.9-1.3-0.9-2.2v-5.6h2.1v5.7c0,0.9,0.5,1.4,1.3,1.4c0.4,0,0.7-0.1,1-0.4s0.3-0.6,0.3-1.1v-5.6H152.1z"/>
        <path class="st3" d="M155.6,52.7h-2.1v-8.5h2.1V52.7z"/>
      </g>
    </a>
    <a target="_blank" rel="noreferrer" xlink:href="https://github.com/konveyor/community/tree/main/sig-analyzers">
      <g>
        <title>SIG Analyzers</title>
        <circle class="st2" cx="54.1" cy="224.1" r="45.7"/>
        <path class="st3" d="M48,215.7c0-0.3-0.1-0.5-0.3-0.7s-0.6-0.3-1.1-0.5s-1-0.4-1.3-0.5c-1.1-0.5-1.7-1.3-1.7-2.2 c0-0.5,0.1-0.9,0.4-1.3s0.7-0.6,1.2-0.8s1.1-0.3,1.7-0.3c0.6,0,1.2,0.1,1.6,0.3s0.9,0.5,1.1,0.9s0.4,0.9,0.4,1.4H48 c0-0.3-0.1-0.6-0.3-0.8s-0.5-0.3-0.9-0.3c-0.4,0-0.7,0.1-0.9,0.2s-0.3,0.4-0.3,0.6c0,0.2,0.1,0.4,0.4,0.6s0.6,0.4,1.2,0.6 s1.1,0.4,1.5,0.6c0.9,0.5,1.4,1.3,1.4,2.2c0,0.7-0.3,1.3-0.8,1.8s-1.3,0.6-2.3,0.6c-0.7,0-1.3-0.1-1.9-0.4s-1-0.6-1.3-1 s-0.4-0.9-0.4-1.5h2.1c0,0.5,0.1,0.8,0.4,1s0.6,0.3,1.2,0.3c0.3,0,0.6-0.1,0.8-0.2S48,215.9,48,215.7z"/>
        <path class="st3" d="M53.3,217.9h-2.1v-8.5h2.1V217.9z"/>
        <path class="st3" d="M61.7,216.9c-0.3,0.4-0.8,0.6-1.4,0.8s-1.3,0.3-2,0.3c-1.1,0-2-0.3-2.7-1s-1-1.6-1.1-2.9l0-0.7 c0-0.8,0.1-1.6,0.4-2.2s0.7-1.1,1.3-1.4s1.2-0.5,1.9-0.5c1.1,0,1.9,0.2,2.5,0.7s0.9,1.2,1,2.2h-2c-0.1-0.5-0.2-0.8-0.5-1 s-0.6-0.3-1-0.3c-0.5,0-0.9,0.2-1.2,0.7s-0.4,1.1-0.4,1.9v0.5c0,0.9,0.1,1.5,0.4,1.9s0.7,0.6,1.4,0.6c0.5,0,0.9-0.1,1.2-0.4v-1.3 h-1.4v-1.4h3.5V216.9z"/>
        <path class="st3" d="M32.7,230.8h-2.8l-0.5,1.6h-2.2l3.1-8.5h1.9l3.2,8.5h-2.2L32.7,230.8z M30.3,229.2h1.8l-0.9-3L30.3,229.2z"/>
        <path class="st3" d="M37.4,226l0.1,0.7c0.4-0.6,1-0.9,1.8-0.9c0.7,0,1.2,0.2,1.5,0.6s0.5,1,0.5,1.8v4.1h-2v-4 c0-0.3-0.1-0.6-0.2-0.7s-0.4-0.2-0.7-0.2c-0.4,0-0.7,0.2-0.9,0.5v4.5h-2V226H37.4z"/>
        <path class="st3" d="M46,232.3c-0.1-0.1-0.1-0.3-0.2-0.6c-0.4,0.5-0.9,0.7-1.5,0.7c-0.6,0-1.1-0.2-1.5-0.5s-0.6-0.8-0.6-1.4 c0-0.7,0.3-1.2,0.8-1.6s1.2-0.5,2.2-0.5h0.6v-0.3c0-0.6-0.3-0.9-0.8-0.9c-0.5,0-0.7,0.2-0.7,0.7h-2c0-0.6,0.3-1.1,0.8-1.5 c0.5-0.4,1.2-0.6,2-0.6s1.4,0.2,1.9,0.6s0.7,0.9,0.7,1.6v2.8c0,0.6,0.1,1,0.3,1.3v0.1H46z M44.7,231.1c0.2,0,0.5-0.1,0.6-0.2 s0.3-0.2,0.3-0.4v-1h-0.6c-0.7,0-1,0.3-1,0.9c0,0.2,0.1,0.3,0.2,0.4S44.5,231.1,44.7,231.1z"/>
        <path class="st3" d="M50.8,232.3h-2v-9h2V232.3z"/>
        <path class="st3" d="M54.6,229.6l1.1-3.6h2.1l-2.6,7.4l-0.1,0.3c-0.4,0.8-1,1.2-1.9,1.2c-0.3,0-0.5,0-0.8-0.1v-1.4h0.3 c0.3,0,0.5,0,0.6-0.1s0.3-0.2,0.3-0.4l0.2-0.4l-2.2-6.4h2.1L54.6,229.6z"/>
        <path class="st3" d="M60.6,230.8h2.9v1.5h-5.4v-1.1l2.8-3.7h-2.7V226h5.2v1.1L60.6,230.8z"/>
        <path class="st3" d="M67.4,232.5c-1,0-1.8-0.3-2.4-0.9s-0.9-1.3-0.9-2.3v-0.2c0-0.6,0.1-1.2,0.4-1.7s0.6-0.9,1.1-1.2 s1-0.4,1.6-0.4c0.9,0,1.6,0.3,2.1,0.8s0.8,1.3,0.8,2.3v0.8h-3.9c0.1,0.4,0.2,0.6,0.5,0.8s0.5,0.3,0.9,0.3c0.6,0,1.1-0.2,1.5-0.7 l0.9,1.1c-0.2,0.3-0.6,0.6-1,0.8S67.9,232.5,67.4,232.5z M67.2,227.4c-0.6,0-0.9,0.4-1,1.1h2v-0.2c0-0.3-0.1-0.6-0.2-0.7 S67.5,227.4,67.2,227.4z"/>
        <path class="st3" d="M74.7,227.8l-0.7,0c-0.6,0-1,0.2-1.2,0.6v4h-2V226h1.9l0.1,0.8c0.3-0.6,0.8-0.9,1.4-0.9c0.2,0,0.4,0,0.6,0.1 L74.7,227.8z"/>
        <path class="st3" d="M78.8,230.6c0-0.2-0.1-0.3-0.3-0.4s-0.5-0.2-1-0.3s-0.9-0.3-1.2-0.4s-0.6-0.4-0.7-0.6s-0.3-0.5-0.3-0.9 c0-0.6,0.2-1.1,0.7-1.4s1.1-0.6,1.9-0.6c0.8,0,1.5,0.2,2,0.6s0.8,0.9,0.8,1.5h-2c0-0.5-0.3-0.8-0.8-0.8c-0.2,0-0.4,0.1-0.5,0.2 s-0.2,0.3-0.2,0.4c0,0.2,0.1,0.3,0.3,0.4s0.4,0.2,0.8,0.3s0.7,0.2,1,0.3c1,0.3,1.4,0.9,1.4,1.8c0,0.6-0.3,1-0.8,1.4 s-1.2,0.5-2,0.5c-0.5,0-1-0.1-1.5-0.3s-0.8-0.5-1-0.8s-0.4-0.7-0.4-1.1h1.8c0,0.3,0.1,0.5,0.3,0.6s0.4,0.2,0.7,0.2 c0.3,0,0.5-0.1,0.6-0.2S78.8,230.7,78.8,230.6z"/>
      </g>
    </a>
  </g>
</svg>