<?xml version="1.0" encoding="utf-8"?>
<!-- Generator: Adobe Illustrator 27.0.1, SVG Export Plug-In . SVG Version: 6.00 Build 0)  -->
<svg version="1.1" id="Layer_1" xmlns="http://www.w3.org/2000/svg" xmlns:xlink="http://www.w3.org/1999/xlink" x="0px" y="0px"
	 viewBox="0 0 66.04 64.49" style="enable-background:new 0 0 66.04 64.49;" xml:space="preserve">
<style type="text/css">
	.st0{fill:#E6DFEF;}
	.st1{fill:#2F377D;}
	.st2{fill:#5A5DA0;}
</style>
<g>
	<g>
		<circle class="st0" cx="32.53" cy="36.18" r="24.95"/>
	</g>
	<g>
		<path class="st1" d="M32.53,61.58c-14.01,0-25.41-11.4-25.41-25.41s11.4-25.41,25.41-25.41s25.41,11.4,25.41,25.41
			S46.54,61.58,32.53,61.58z M32.53,11.88c-13.4,0-24.3,10.9-24.3,24.3s10.9,24.3,24.3,24.3s24.3-10.9,24.3-24.3
			S45.93,11.88,32.53,11.88z"/>
	</g>
	<g>
		<circle class="st2" cx="32.25" cy="12.55" r="10.11"/>
		<path class="st1" d="M32.25,23.21c-5.88,0-10.66-4.78-10.66-10.67S26.36,1.88,32.25,1.88s10.67,4.78,10.67,10.67
			S38.13,23.21,32.25,23.21z M32.25,2.99c-5.27,0-9.56,4.29-9.56,9.56s4.29,9.56,9.56,9.56s9.56-4.29,9.56-9.56
			S37.52,2.99,32.25,2.99z"/>
	</g>
	<g>
		<circle class="st2" cx="52.65" cy="51.26" r="10.11"/>
		<path class="st1" d="M52.65,61.92c-5.88,0-10.67-4.78-10.67-10.66s4.78-10.67,10.67-10.67s10.66,4.78,10.66,10.67
			S58.53,61.92,52.65,61.92z M52.65,41.7c-5.27,0-9.56,4.29-9.56,9.56s4.29,9.56,9.56,9.56s9.56-4.29,9.56-9.56
			S57.92,41.7,52.65,41.7z"/>
	</g>
	<g>
		<circle class="st2" cx="13.39" cy="51.26" r="10.11"/>
		<path class="st1" d="M13.39,61.92c-5.88,0-10.66-4.78-10.66-10.66s4.78-10.67,10.66-10.67s10.67,4.78,10.67,10.67
			S19.27,61.92,13.39,61.92z M13.39,41.7c-5.27,0-9.56,4.29-9.56,9.56s4.29,9.56,9.56,9.56s9.56-4.29,9.56-9.56
			S18.66,41.7,13.39,41.7z"/>
	</g>
	<g>
		<circle class="st2" cx="32.61" cy="36.29" r="10.11"/>
		<path class="st1" d="M32.58,46.96c-2.17,0-4.29-0.66-6.1-1.94c-2.33-1.64-3.89-4.08-4.38-6.89c-1.02-5.79,2.87-11.33,8.66-12.35
			c5.79-1.02,11.33,2.87,12.35,8.66c0.49,2.81-0.14,5.64-1.77,7.97c-1.64,2.33-4.08,3.89-6.89,4.38
			C33.83,46.91,33.2,46.96,32.58,46.96z M32.61,26.73c-0.55,0-1.1,0.05-1.66,0.14c-5.19,0.91-8.67,5.88-7.76,11.07
			c0.44,2.52,1.84,4.71,3.93,6.17c2.09,1.47,4.63,2.03,7.14,1.59c2.52-0.44,4.71-1.84,6.17-3.93c1.47-2.09,2.03-4.63,1.59-7.14v0
			C41.21,30.01,37.16,26.73,32.61,26.73z"/>
	</g>
</g>
</svg>
