<?xml version="1.0" encoding="utf-8"?>
<!-- Generator: Adobe Illustrator 27.0.1, SVG Export Plug-In . SVG Version: 6.00 Build 0)  -->
<svg version="1.1" id="Layer_1" xmlns="http://www.w3.org/2000/svg" xmlns:xlink="http://www.w3.org/1999/xlink" x="0px" y="0px"
	 viewBox="0 0 500 264.2" style="enable-background:new 0 0 500 264.2;" xml:space="preserve">
<style type="text/css">
	.st0{fill:url(#SVGID_1_);}
	.st1{fill:url(#SVGID_00000133491735663631620100000010766487695003422123_);}
	.st2{fill:#D8D4E3;}
	.st3{fill:#6E62A6;}
	.st4{fill:#9892C3;}
	.st5{fill:none;stroke:#D8D4E3;stroke-width:2;stroke-miterlimit:10;}
	.st6{fill:#FFFFFF;}
	.st7{fill:#A69770;}
</style>
<linearGradient id="SVGID_1_" gradientUnits="userSpaceOnUse" x1="0.73" y1="44.8993" x2="143.0922" y2="44.8993" gradientTransform="matrix(1 0 0 -1 0 178.2512)">
	<stop  offset="0" style="stop-color:#FFFFFF"/>
	<stop  offset="0.1241" style="stop-color:#F4F0E5"/>
	<stop  offset="0.2461" style="stop-color:#EBE4CC"/>
	<stop  offset="0.3648" style="stop-color:#DFD3AC"/>
	<stop  offset="0.4727" style="stop-color:#D1C087"/>
	<stop  offset="0.6435" style="stop-color:#C3AE63"/>
	<stop  offset="1" style="stop-color:#726135"/>
</linearGradient>
<polygon class="st0" points="143.1,133.4 109.3,91.2 109.3,107.8 0.7,107.8 0.7,158.9 109.3,158.9 109.3,175.5 "/>
<linearGradient id="SVGID_00000128459023126618338230000006951566087522738337_" gradientUnits="userSpaceOnUse" x1="357.5378" y1="44.6012" x2="499.9" y2="44.6012" gradientTransform="matrix(1 0 0 -1 0 178.2512)">
	<stop  offset="0" style="stop-color:#FFFFFF"/>
	<stop  offset="0.1241" style="stop-color:#F4F0E5"/>
	<stop  offset="0.2461" style="stop-color:#EBE4CC"/>
	<stop  offset="0.3648" style="stop-color:#DFD3AC"/>
	<stop  offset="0.4727" style="stop-color:#D1C087"/>
	<stop  offset="0.6435" style="stop-color:#C3AE63"/>
	<stop  offset="1" style="stop-color:#726135"/>
</linearGradient>
<polygon style="fill:url(#SVGID_00000128459023126618338230000006951566087522738337_);" points="499.9,133.7 466.1,91.5 
	466.1,108.1 357.5,108.1 357.5,159.2 466.1,159.2 466.1,175.8 "/>
<path class="st2" d="M153.6,164.7c-0.9,3.8-1.6,7-2.4,10.6c-26.6-62.2,11.8-146.2,96.5-154c0-3,0-6,0-10.2
	c7.6,6.7,14.3,12.8,21.5,19.2c-6.9,6-13.6,11.9-21.1,18.3c0-4.2,0-7.5,0-10.8c-51.1,0.5-108.4,56.4-83.9,130.1
	C160.5,166.8,157.2,165.8,153.6,164.7z"/>
<path class="st3" d="M175.3,187.9c29.5,46.8,106.7,62.4,154.6,7c0.9,3.8,1.6,7.2,2.5,10.8c3.1-0.9,6.2-1.8,10-2.9
	c-38.6,52.7-131.4,63.6-181-6.9c-2.9,1.6-5.7,3.2-9.1,5.1c2-9.5,3.9-18.5,5.9-28.1c8.8,3,17.3,5.9,26.8,9.2
	C181.3,184.2,178.3,186.1,175.3,187.9z"/>
<path class="st4" d="M270.3,38c3.1-2.9,5.6-5.1,8-7.4c-2.4-2.6-4.7-5.2-7-7.6c66.4,7.9,119.7,82.8,84.3,160.3
	c2.7,1.6,5.4,3.3,8.9,5.4c-9.4,3.1-18,5.9-27.3,8.9c-1.8-9.1-3.5-18-5.4-27.9c3.8,2.1,6.8,3.8,10.4,5.8
	c12.9-29.3,13.2-58.1-1.5-86.3C325.9,61,302.2,44.3,270.3,38z"/>
<circle class="st5" cx="255.6" cy="133.2" r="75.9"/>
<path class="st6" d="M345.5,210.6c0,0,0.2-0.5,0.6-1.4c-0.1,0.1-0.1,0.2-0.2,0.2C345.7,209.8,345.6,210.2,345.5,210.6z"/>
<g>
	<path class="st6" d="M146.8,81.3l-1.1,2.1l1,1l-0.6,1.3l-4.7-5l0.7-1.4l6.8,0.9l-0.7,1.3L146.8,81.3z M145.6,81.2l-2.6-0.4l1.9,1.9
		L145.6,81.2z"/>
	<path class="st6" d="M149.6,77c0.2-0.3,0.3-0.5,0.3-0.7c0.1-0.4-0.1-0.7-0.4-0.9c-0.2-0.1-0.4-0.1-0.6,0s-0.4,0.3-0.7,0.6l-0.5,0.5
		c-0.5,0.5-0.9,0.8-1.1,1c-0.5,0.2-1,0.2-1.5-0.1c-0.5-0.3-0.8-0.7-0.9-1.3s0-1.2,0.4-1.9c0.3-0.6,0.8-1,1.3-1.2s1.1-0.2,1.7,0.1
		l-0.6,1.1c-0.4-0.2-0.7-0.2-1,0c-0.2,0.1-0.4,0.3-0.5,0.6c-0.2,0.3-0.2,0.6-0.2,0.8s0.1,0.4,0.4,0.6c0.2,0.1,0.4,0.1,0.6,0
		c0.1-0.1,0.4-0.3,0.6-0.6l0.8-0.8c0.4-0.4,0.7-0.6,1-0.7c0.5-0.2,0.9-0.1,1.4,0.2c0.5,0.3,0.8,0.7,0.9,1.3c0.1,0.6,0,1.2-0.4,1.9
		c-0.4,0.7-0.9,1.2-1.5,1.4c-0.6,0.2-1.2,0.2-1.7-0.2l0.6-1.1c0.3,0.1,0.5,0.2,0.7,0.1C149.1,77.8,149.4,77.5,149.6,77z"/>
	<path class="st6" d="M152.8,71.8c0.2-0.3,0.3-0.5,0.3-0.7c0.1-0.4,0-0.7-0.3-0.9c-0.2-0.1-0.4-0.1-0.6,0c-0.2,0.1-0.4,0.3-0.7,0.6
		l-0.5,0.5c-0.5,0.5-0.9,0.8-1.2,0.9c-0.5,0.2-1,0.1-1.5-0.2c-0.5-0.3-0.8-0.8-0.9-1.3c-0.1-0.6,0.1-1.2,0.5-1.9
		c0.4-0.6,0.8-1,1.4-1.2c0.6-0.2,1.1-0.1,1.7,0.2l-0.7,1.1c-0.3-0.2-0.7-0.2-1,0c-0.2,0.1-0.4,0.3-0.6,0.6c-0.2,0.3-0.3,0.6-0.3,0.8
		s0.1,0.4,0.3,0.6c0.2,0.1,0.4,0.1,0.6,0c0.1-0.1,0.4-0.3,0.7-0.6l0.8-0.8c0.4-0.3,0.7-0.6,1-0.7c0.5-0.2,0.9-0.1,1.4,0.2
		c0.5,0.3,0.8,0.8,0.9,1.4c0.1,0.6-0.1,1.2-0.6,1.9c-0.5,0.7-1,1.2-1.6,1.4c-0.6,0.2-1.2,0.1-1.7-0.2l0.7-1.1
		c0.3,0.1,0.5,0.2,0.7,0.2C152.2,72.5,152.6,72.2,152.8,71.8z"/>
	<path class="st6" d="M156,63.9l-1.8,2.6l1.4,1l2.1-2.9l0.9,0.7l-2.9,4l-5.3-3.8l2.8-3.9l0.9,0.7l-2,2.8l1.1,0.8l1.8-2.6L156,63.9z"
		/>
	<path class="st6" d="M159.9,61.9c0.2-0.2,0.3-0.5,0.4-0.7c0.1-0.4,0.1-0.7-0.2-0.9c-0.2-0.1-0.4-0.2-0.6-0.1
		c-0.2,0.1-0.5,0.2-0.8,0.5l-0.6,0.4c-0.5,0.4-1,0.7-1.3,0.8c-0.5,0.2-1,0-1.5-0.4c-0.4-0.4-0.7-0.8-0.7-1.4s0.2-1.2,0.7-1.8
		c0.4-0.5,0.9-0.9,1.5-1s1.1,0,1.7,0.4l-0.8,1c-0.3-0.2-0.6-0.3-1-0.1c-0.2,0.1-0.4,0.3-0.6,0.5c-0.2,0.3-0.3,0.5-0.4,0.8
		c0,0.2,0.1,0.5,0.3,0.6s0.4,0.2,0.6,0.1c0.1,0,0.4-0.2,0.7-0.5l0.9-0.7c0.4-0.3,0.8-0.5,1.1-0.6c0.5-0.1,0.9,0,1.4,0.4
		s0.7,0.8,0.7,1.5c0,0.6-0.2,1.2-0.7,1.9s-1.1,1.1-1.7,1.2s-1.2,0-1.7-0.4l0.8-1c0.3,0.2,0.5,0.2,0.7,0.2
		C159.3,62.5,159.6,62.3,159.9,61.9z"/>
	<path class="st6" d="M163.9,57.2c0.2-0.2,0.4-0.5,0.4-0.7c0.1-0.4,0.1-0.7-0.2-0.9c-0.2-0.1-0.4-0.2-0.6-0.1
		c-0.2,0.1-0.5,0.2-0.8,0.5l-0.6,0.4c-0.6,0.4-1,0.7-1.3,0.7c-0.5,0.1-1,0-1.5-0.4c-0.4-0.4-0.7-0.9-0.7-1.4s0.2-1.2,0.8-1.8
		c0.4-0.5,1-0.8,1.6-1s1.1,0,1.7,0.5l-0.9,1c-0.3-0.2-0.6-0.3-1-0.2c-0.2,0.1-0.4,0.2-0.6,0.5c-0.2,0.3-0.4,0.5-0.4,0.8
		s0.1,0.5,0.2,0.6c0.2,0.2,0.4,0.2,0.6,0.1c0.1,0,0.4-0.2,0.8-0.5l0.9-0.7c0.4-0.3,0.8-0.5,1.1-0.5c0.5-0.1,0.9,0.1,1.4,0.4
		c0.4,0.4,0.7,0.9,0.7,1.5s-0.3,1.2-0.8,1.8c-0.6,0.6-1.1,1-1.8,1.1c-0.6,0.1-1.2-0.1-1.7-0.5l0.9-1c0.2,0.2,0.5,0.2,0.7,0.3
		C163.2,57.8,163.5,57.6,163.9,57.2z"/>
	<path class="st6" d="M170.3,52c-0.5,0.5-1,0.7-1.5,0.7s-1-0.2-1.3-0.5s-0.4-0.6-0.5-0.9s0-0.8,0.1-1.2v-0.2c-0.3,0-0.5-0.1-0.8-0.2
		c-0.2-0.1-0.4-0.2-0.6-0.4c-0.3-0.3-0.5-0.7-0.4-1.1s0.2-0.8,0.6-1.2c0.3-0.3,0.7-0.5,1.1-0.5c0.4,0,0.8,0.1,1.1,0.4
		c0.3,0.3,0.4,0.5,0.5,0.8c0,0.3,0,0.6-0.1,1l1.4,0.2c0-0.2-0.1-0.4-0.2-0.5c-0.1-0.2-0.2-0.3-0.3-0.5l0.8-0.8
		c0.3,0.3,0.5,0.6,0.6,1c0.1,0.2,0.2,0.5,0.2,0.8l1.8,0.2l-1.1,1.1l-0.7-0.1c0,0.3-0.1,0.5-0.1,0.8C170.8,51.3,170.6,51.7,170.3,52z
		 M166.6,48.4c0.1,0.1,0.2,0.1,0.4,0.2c0.1,0,0.3,0,0.6,0.1c0-0.2,0.1-0.4,0.1-0.5c0-0.2-0.1-0.4-0.2-0.5c-0.1-0.1-0.2-0.2-0.4-0.2
		s-0.3,0-0.4,0.2c-0.1,0.1-0.1,0.2-0.2,0.3C166.4,48.1,166.4,48.3,166.6,48.4z M168.2,49.9c-0.1,0.4-0.1,0.6-0.1,0.8
		s0.1,0.3,0.3,0.5c0.1,0.2,0.4,0.2,0.6,0.2c0.2,0,0.5-0.1,0.7-0.3c0.1-0.1,0.2-0.3,0.3-0.5s0.1-0.4,0.1-0.5L168.2,49.9z"/>
	<path class="st6" d="M176,43.3l-1.1,0.9l1.5,1.8l-1,0.9l-4.2-4.9l2.1-1.8c0.5-0.4,1-0.6,1.5-0.6s1,0.3,1.4,0.8
		c0.5,0.6,0.7,1.1,0.6,1.6C176.9,42.4,176.6,42.8,176,43.3z M175.6,41.9c0-0.2-0.1-0.5-0.3-0.7c-0.2-0.3-0.4-0.4-0.7-0.4
		c-0.2,0-0.5,0.1-0.7,0.3l-1,0.8l1.2,1.5l1-0.8C175.5,42.3,175.6,42.1,175.6,41.9z"/>
	<path class="st6" d="M180.7,39.3l-1.1,0.8l1.6,2l-1.1,0.8l-3.9-5.1l2.5-1.9c0.4-0.3,0.7-0.4,0.9-0.5c0.3-0.1,0.5-0.1,0.8,0
		c0.2,0,0.4,0.1,0.6,0.2s0.4,0.3,0.5,0.5c0.2,0.2,0.3,0.5,0.4,0.9s0,0.7-0.2,1c0.3-0.1,0.6-0.1,0.8,0s0.5,0.3,0.8,0.7l0.3,0.3
		c0.2,0.2,0.3,0.4,0.4,0.5c0.1,0.1,0.3,0.2,0.4,0.1l0.1,0.1l-1.2,0.9c-0.1-0.1-0.2-0.2-0.3-0.2c-0.1-0.1-0.3-0.3-0.4-0.4l-0.4-0.5
		c-0.3-0.3-0.5-0.5-0.7-0.5S181,39,180.7,39.3z M180.6,37.8c0.1-0.3,0.1-0.5-0.1-0.8c-0.2-0.3-0.5-0.4-0.8-0.4
		c-0.2,0-0.4,0.1-0.6,0.3l-1.2,1l1.1,1.4l1.2-0.9C180.4,38.1,180.6,38,180.6,37.8z"/>
	<path class="st6" d="M181.5,33.8l1.1-0.8l3.8,5.3l-1.1,0.8L181.5,33.8z"/>
	<path class="st6" d="M189.9,36.1c-0.8,0.5-1.5,0.7-2.2,0.5c-0.9-0.2-1.6-0.7-2.3-1.7c-0.6-1-0.9-1.9-0.6-2.8
		c0.1-0.7,0.6-1.3,1.4-1.8s1.5-0.7,2.2-0.5c0.9,0.1,1.6,0.7,2.3,1.7c0.6,1,0.9,1.9,0.6,2.8C191.1,35,190.7,35.6,189.9,36.1z
		 M190,33.9c0-0.5-0.1-1.1-0.5-1.7s-0.8-1-1.3-1.1c-0.5-0.2-0.9-0.1-1.4,0.2c-0.4,0.3-0.7,0.7-0.8,1.2s0.1,1.1,0.5,1.7
		s0.8,1,1.3,1.2s0.9,0.1,1.4-0.2S190,34.4,190,33.9z"/>
	<path class="st6" d="M194.4,30.1l-1.2,0.7l1.3,2.2l-1.1,0.7l-3.2-5.6l2.8-1.6c0.4-0.2,0.7-0.4,1-0.4s0.5,0,0.8,0.1
		c0.2,0.1,0.4,0.2,0.6,0.3s0.3,0.3,0.4,0.5c0.1,0.3,0.2,0.6,0.2,0.9s-0.1,0.6-0.4,0.9c0.3,0,0.6,0,0.8,0.1s0.4,0.4,0.7,0.8l0.2,0.4
		c0.1,0.3,0.3,0.4,0.3,0.5c0.1,0.1,0.2,0.2,0.4,0.2l0.1,0.1l-1.3,0.8c-0.1-0.1-0.2-0.2-0.2-0.3c-0.1-0.1-0.2-0.3-0.3-0.5l-0.3-0.5
		c-0.2-0.4-0.4-0.5-0.6-0.6C195.1,29.8,194.8,29.9,194.4,30.1z M194.6,28.6c0.2-0.2,0.2-0.5,0-0.8s-0.4-0.5-0.7-0.5
		c-0.2,0-0.4,0.1-0.6,0.2l-1.4,0.8l0.9,1.5l1.3-0.8C194.3,28.9,194.5,28.8,194.6,28.6z"/>
	<path class="st6" d="M195.9,24.8l1.2-0.6l3,5.7l-1.2,0.6L195.9,24.8z"/>
	<path class="st6" d="M202.7,21.3l0.5,1l-1.7,0.9l2.3,4.8l-1.2,0.6l-2.3-4.8l-1.8,0.9l-0.5-1L202.7,21.3z"/>
	<path class="st6" d="M203.6,20.9l1.2-0.5l2.6,5.9l-1.2,0.5L203.6,20.9z"/>
	<path class="st6" d="M213,24l-4.7,1.9l-0.4-1.1l1.5-5.1l-3,1.2l-0.4-1.1l4.6-1.9l0.4,1l-1.5,5.2l3.1-1.3L213,24z"/>
	<path class="st6" d="M217.2,19.5l-3,1l0.6,1.6l3.4-1.2l0.4,1.1l-4.6,1.6l-2.2-6.1l4.5-1.6l0.4,1.1l-3.2,1.1l0.5,1.3l3-1L217.2,19.5
		z"/>
</g>
<g>
	<path class="st6" d="M274.2,14.9l-1.4-0.2l-0.5,2.5L271,17l1.1-6.4l3.1,0.6c0.5,0.1,0.8,0.2,1,0.4s0.4,0.3,0.5,0.6
		c0.1,0.2,0.2,0.4,0.2,0.6c0,0.2,0,0.4,0,0.7s-0.2,0.6-0.4,0.9s-0.5,0.4-0.9,0.5c0.3,0.2,0.5,0.4,0.5,0.6c0.1,0.2,0.1,0.6,0,1
		l-0.1,0.4c0,0.3-0.1,0.5-0.1,0.6c0,0.2,0.1,0.3,0.2,0.4v0.2l-1.5-0.3c0-0.1,0-0.3,0-0.4c0-0.2,0-0.4,0-0.6l0.1-0.6
		c0.1-0.4,0-0.7-0.1-0.9S274.5,14.9,274.2,14.9z M275.2,13.9c0.3-0.1,0.5-0.3,0.5-0.6c0.1-0.4,0-0.7-0.2-0.9
		c-0.1-0.1-0.3-0.2-0.6-0.2l-1.5-0.3l-0.3,1.7l1.5,0.3C274.8,13.9,275,13.9,275.2,13.9z"/>
	<path class="st6" d="M282.5,16.4l-3.1-0.7l-0.4,1.6l3.5,0.8l-0.3,1.1l-4.8-1.1l1.5-6.3l4.6,1.1l-0.3,1.1l-3.3-0.8l-0.3,1.3l3.1,0.7
		L282.5,16.4z"/>
	<path class="st6" d="M286.6,18l-1.3-0.4l-0.6,2.2l-1.3-0.4l1.8-6.2l2.7,0.8c0.6,0.2,1.1,0.5,1.4,0.9s0.3,1,0.1,1.6
		c-0.2,0.7-0.5,1.2-1,1.4C287.9,18.2,287.3,18.2,286.6,18z M287.6,16.9c0.2-0.1,0.4-0.3,0.5-0.6c0.1-0.3,0.1-0.6-0.1-0.8
		s-0.4-0.3-0.7-0.4l-1.2-0.3l-0.5,1.8l1.2,0.4C287.1,17,287.4,17,287.6,16.9z"/>
	<path class="st6" d="M291.2,15.1l1.3,0.4l-1.7,5l3,1l-0.4,1.1l-4.3-1.5L291.2,15.1z"/>
	<path class="st6" d="M298.4,23.1l-2.2-0.9l-0.9,1.1l-1.3-0.5l4.5-5.2l1.4,0.6l-0.2,6.9l-1.4-0.5L298.4,23.1z M298.5,22l0.2-2.7
		l-1.7,2.1L298.5,22z"/>
	<path class="st6" d="M306.8,21.1l-0.5,1l-1.8-0.8l-2.2,4.9l-1.2-0.5l2.2-4.9l-1.8-0.8l0.5-1L306.8,21.1z"/>
	<path class="st6" d="M311.5,24.7l-2.9-1.5l-0.7,1.3l2.5,1.3l-0.5,1l-2.5-1.3l-1.2,2.4l-1.2-0.6l2.9-5.8l4.1,2L311.5,24.7z"/>
	<path class="st6" d="M312.3,31.5c-0.8-0.5-1.3-1-1.5-1.7c-0.3-0.9-0.1-1.8,0.5-2.8s1.3-1.6,2.2-1.8c0.7-0.2,1.4-0.1,2.2,0.4
		s1.3,1,1.5,1.7c0.3,0.8,0.1,1.8-0.5,2.8s-1.3,1.6-2.2,1.9C313.9,32.1,313.1,32,312.3,31.5z M314.3,30.6c0.5-0.2,0.9-0.6,1.2-1.2
		c0.4-0.6,0.5-1.2,0.4-1.7s-0.4-0.9-0.8-1.1c-0.5-0.3-0.9-0.3-1.4-0.1s-0.9,0.6-1.2,1.2s-0.5,1.2-0.4,1.7s0.4,0.9,0.8,1.1
		C313.4,30.8,313.8,30.8,314.3,30.6z"/>
	<path class="st6" d="M319.7,32.8l-1.2-0.8l-1.4,2.1l-1.1-0.7l3.5-5.5l2.7,1.7c0.4,0.2,0.6,0.5,0.8,0.7s0.2,0.5,0.3,0.7
		c0,0.2,0,0.4,0,0.6s-0.1,0.4-0.3,0.6c-0.2,0.3-0.4,0.5-0.7,0.6c-0.3,0.2-0.6,0.2-1,0.1c0.2,0.3,0.3,0.5,0.3,0.8
		c0,0.2-0.1,0.6-0.4,1l-0.2,0.4c-0.2,0.2-0.3,0.4-0.3,0.5c-0.1,0.2-0.1,0.3,0,0.4l-0.1,0.1l-1.3-0.8c0-0.1,0.1-0.3,0.1-0.3
		c0.1-0.2,0.1-0.3,0.2-0.5l0.3-0.5c0.2-0.3,0.3-0.6,0.2-0.8C320.3,33.2,320.1,33,319.7,32.8z M321.1,32.2c0.3,0,0.5-0.1,0.7-0.4
		c0.2-0.3,0.2-0.6,0.1-0.9c-0.1-0.1-0.2-0.3-0.5-0.5l-1.3-0.9l-0.9,1.5l1.3,0.8C320.7,32.1,320.9,32.2,321.1,32.2z"/>
	<path class="st6" d="M322.5,37.7l-1-0.7l3.8-5.2l1.6,1.2l-2,4.8l3.9-3.5l1.6,1.1l-3.8,5.2l-1-0.7l2.6-3.5c0.1-0.1,0.2-0.2,0.3-0.4
		s0.2-0.3,0.3-0.4l-4.2,3.7l-1.1-0.8l2.2-5.1c-0.1,0.1-0.2,0.2-0.3,0.4c-0.1,0.2-0.2,0.3-0.3,0.4L322.5,37.7z"/>
	<path class="st6" d="M329.5,43l4.1-5.1l0.9,0.7l-4.1,5.1L329.5,43z"/>
	<path class="st6" d="M337.4,46.4l-1-1l-1.7,1.9l-1-0.9l4.4-4.8l2.3,2.2c0.3,0.3,0.5,0.6,0.7,0.8c0.1,0.2,0.2,0.5,0.1,0.8
		c0,0.2,0,0.4-0.1,0.6c-0.1,0.2-0.2,0.4-0.4,0.6c-0.2,0.2-0.5,0.4-0.8,0.5s-0.6,0.1-1-0.1c0.1,0.3,0.2,0.6,0.1,0.8s-0.2,0.5-0.5,0.9
		l-0.3,0.3c-0.2,0.2-0.3,0.4-0.4,0.5c-0.1,0.2-0.1,0.3-0.1,0.4l-0.1,0.1l-1.1-1c0.1-0.1,0.1-0.2,0.2-0.3c0.1-0.2,0.2-0.3,0.3-0.5
		l0.4-0.5c0.3-0.3,0.4-0.6,0.4-0.8C337.9,46.9,337.7,46.7,337.4,46.4z M338.8,46.1c0.3,0.1,0.5,0,0.8-0.3s0.4-0.6,0.2-0.8
		c-0.1-0.2-0.2-0.3-0.4-0.5l-1.2-1.1l-1.2,1.3l1.1,1C338.5,45.9,338.6,46.1,338.8,46.1z"/>
	<path class="st6" d="M343.6,52.2l-2.2-2.2l-1.2,1.2l2.5,2.6l-0.8,0.8l-3.4-3.5l4.6-4.5l3.3,3.4l-0.8,0.8l-2.4-2.5l-1,1l2.2,2.2
		L343.6,52.2z"/>
	<path class="st6" d="M349.7,55.2l-2.2-2.4l-1.1,1l1.9,2.1l-0.8,0.8l-1.9-2.1l-2,1.8l-0.9-1l4.8-4.3l3,3.4L349.7,55.2z"/>
	<path class="st6" d="M349.5,61.2l-1.5-1.8l-1.3,0.5l-0.9-1.1l6.5-2.3l1,1.2l-3.6,5.9l-0.9-1.1L349.5,61.2z M350.1,60.2l1.5-2.2
		l-2.5,1L350.1,60.2z"/>
	<path class="st6" d="M353.2,67.6c-0.6-0.1-1.2-0.5-1.6-1.1c-0.5-0.8-0.7-1.5-0.6-2.3c0.2-0.8,0.7-1.5,1.5-2.1
		c0.9-0.7,1.8-0.9,2.6-0.8c0.7,0.1,1.4,0.5,1.8,1.2c0.6,0.9,0.8,1.7,0.5,2.6c-0.2,0.5-0.4,0.8-0.7,1.1l-0.8-1.1
		c0.2-0.2,0.3-0.5,0.4-0.7c0.1-0.4,0-0.7-0.3-1.1c-0.3-0.4-0.7-0.6-1.2-0.6s-1,0.2-1.6,0.7c-0.6,0.4-0.9,0.9-1.1,1.3s0,0.9,0.2,1.2
		c0.3,0.4,0.6,0.6,1,0.6c0.2,0,0.5,0,0.8-0.2l0.8,1.1C354.5,67.6,353.9,67.7,353.2,67.6z"/>
	<path class="st6" d="M362,69.9l-1,0.6l-1.1-1.6l-4.5,2.9l-0.8-1.1l4.5-2.9l-1.1-1.6l1-0.6L362,69.9z"/>
	<path class="st6" d="M358.2,76.6c-0.5-0.8-0.6-1.5-0.4-2.2c0.2-0.9,0.8-1.6,1.8-2.2s2-0.8,2.8-0.5c0.7,0.2,1.3,0.7,1.7,1.4
		s0.6,1.5,0.4,2.2c-0.2,0.9-0.8,1.6-1.8,2.2s-1.9,0.8-2.8,0.5C359.2,77.9,358.6,77.4,358.2,76.6z M360.3,76.8
		c0.5,0.1,1.1-0.1,1.7-0.4c0.6-0.4,1-0.8,1.2-1.3s0.1-0.9-0.1-1.4c-0.3-0.5-0.7-0.7-1.2-0.8c-0.5-0.1-1.1,0.1-1.7,0.4
		s-1,0.8-1.2,1.3s-0.1,0.9,0.1,1.4C359.4,76.5,359.8,76.7,360.3,76.8z"/>
	<path class="st6" d="M363.9,81.4l-0.6-1.2l-2.3,1.2l-0.6-1.2l5.8-3l1.5,2.8c0.2,0.4,0.3,0.8,0.3,1s0,0.5-0.1,0.8
		c-0.1,0.2-0.2,0.4-0.3,0.6c-0.1,0.2-0.3,0.3-0.5,0.4c-0.3,0.1-0.6,0.2-0.9,0.2s-0.6-0.1-0.9-0.4c0,0.3,0,0.6-0.2,0.8
		s-0.4,0.4-0.8,0.6l-0.4,0.2c-0.3,0.1-0.4,0.2-0.5,0.3c-0.1,0.1-0.2,0.2-0.2,0.4l-0.1,0.1l-0.7-1.3c0.1-0.1,0.2-0.2,0.3-0.2
		c0.1-0.1,0.3-0.2,0.5-0.3l0.5-0.3c0.4-0.2,0.6-0.4,0.6-0.6C364.2,82,364.1,81.8,363.9,81.4z M365.3,81.6c0.2,0.2,0.5,0.2,0.8,0
		c0.4-0.2,0.5-0.4,0.5-0.7c0-0.2-0.1-0.4-0.2-0.6l-0.7-1.4l-1.5,0.8l0.7,1.4C365.1,81.3,365.2,81.5,365.3,81.6z"/>
</g>
<g>
	<path class="st6" d="M235.9,253.5c0.3,0.1,0.6,0.1,0.8,0c0.4-0.1,0.6-0.3,0.7-0.6c0-0.2,0-0.4-0.2-0.5s-0.4-0.3-0.8-0.4l-0.6-0.3
		c-0.6-0.2-1.1-0.5-1.3-0.7c-0.4-0.4-0.5-0.9-0.4-1.5s0.4-1,0.9-1.3s1.1-0.4,1.9-0.3c0.7,0.1,1.2,0.4,1.6,0.8c0.4,0.4,0.6,1,0.5,1.7
		l-1.3-0.2c0-0.4-0.1-0.7-0.4-0.9c-0.2-0.1-0.4-0.2-0.8-0.3c-0.3-0.1-0.6,0-0.9,0.1s-0.4,0.3-0.4,0.5s0,0.4,0.2,0.6
		c0.1,0.1,0.4,0.2,0.8,0.4l1.1,0.4c0.5,0.2,0.8,0.4,1,0.6c0.3,0.4,0.5,0.8,0.4,1.4c-0.1,0.6-0.4,1-0.9,1.4s-1.2,0.4-2,0.3
		c-0.8-0.1-1.5-0.4-1.9-0.9s-0.6-1-0.5-1.7l1.3,0.2c0,0.3,0,0.5,0.1,0.7C235.1,253.2,235.4,253.4,235.9,253.5z"/>
	<path class="st6" d="M244.2,255c-0.5,0.4-1.2,0.6-1.9,0.5c-0.9-0.1-1.6-0.5-2.1-1.1s-0.6-1.5-0.5-2.5c0.1-1.1,0.5-2,1.2-2.5
		c0.6-0.5,1.3-0.7,2.1-0.6c1.1,0.1,1.8,0.6,2.3,1.3c0.2,0.4,0.3,0.8,0.3,1.2l-1.4-0.1c-0.1-0.3-0.1-0.6-0.3-0.7
		c-0.2-0.3-0.6-0.5-1.1-0.5s-0.9,0.1-1.2,0.5s-0.5,0.9-0.6,1.6c-0.1,0.7,0,1.3,0.3,1.7s0.6,0.6,1.1,0.7c0.5,0.1,0.9-0.1,1.1-0.4
		c0.1-0.1,0.3-0.4,0.4-0.7l1.3,0.1C245.1,254.1,244.7,254.6,244.2,255z"/>
	<path class="st6" d="M250.1,254.5l-2.4-0.1l-0.5,1.3l-1.4-0.1l2.6-6.4l1.5,0.1l2,6.6l-1.5-0.1L250.1,254.5z M249.8,253.4l-0.7-2.6
		l-1,2.5L249.8,253.4z"/>
	<path class="st6" d="M253,249.4h1.4v5.3h3.2v1.2H253V249.4z"/>
	<path class="st6" d="M263.1,252.8L260,253l0.1,1.7l3.6-0.2l0.1,1.2l-4.9,0.2l-0.3-6.5l4.7-0.2l0.1,1.1l-3.4,0.2l0.1,1.4l3.1-0.2
		L263.1,252.8z"/>
</g>
<g>
	<path class="st6" d="M217.6,153.5c-4.6,0.1-9-3.7-9.1-9c0-5,4.1-9.1,9.1-9.1s9.2,4.2,9.1,9.1C226.7,149.7,222.4,153.5,217.6,153.5z
		 M222.6,144.5c0-2.8-2.1-4.9-4.8-5c-2.8,0-5,2.1-5,4.8c0,2.8,2.2,5,4.9,5C220.3,149.3,222.5,147.1,222.6,144.5z"/>
	<path class="st6" d="M293.2,153.5c-4.9,0-9-3.9-9.1-9.1c-0.1-4.9,4.1-9.1,9-9.1c5,0,9.1,4,9.1,9.1
		C302.5,149.4,298.3,153.5,293.2,153.5z M288.4,144.4c0,2.7,2.1,4.9,4.9,4.9c2.7,0.1,4.9-2.2,5-4.9c0-2.7-2.2-4.9-4.9-4.9
		C290.6,139.5,288.4,141.7,288.4,144.4z"/>
	<path class="st7" d="M249.9,135.1c-1.9,0-3.9,0-5.8,0c-0.7,0-0.9-0.2-0.9-0.9c0-3.9,0-7.8,0-11.7c0-0.7,0.2-1,1-1
		c3.9,0,7.8,0,11.7,0c0.7,0,1,0.2,1,1c0,3.9,0,7.9,0,11.8c0,0.7-0.2,0.9-0.9,0.9C253.9,135.1,251.9,135.1,249.9,135.1z M249.9,123.4
		L249.9,123.4c-0.5,0-1.1,0-1.6,0c-0.2,0-0.4,0.3-0.4,0.4c0,0.2,0.2,0.5,0.3,0.5c1.1,0,2.2,0,3.4,0c0.1,0,0.3-0.3,0.4-0.4
		c-0.2-0.2-0.4-0.4-0.5-0.4C251,123.4,250.4,123.4,249.9,123.4z"/>
	<path class="st7" d="M242.6,107c1.9,0,3.8,0,5.7,0c0.7,0,1.1,0.1,1.1,1c-0.1,3.9,0,7.8,0,11.6c0,0.8-0.3,1.1-1,1.1
		c-3.9,0-7.8,0-11.7,0c-0.7,0-1-0.2-1-1c0-3.9,0-7.8,0-11.7c0-0.8,0.3-1,1-1C238.6,107,240.6,107,242.6,107z M242.6,109.9
		c0.5,0,1,0,1.5,0c0.2,0,0.4-0.3,0.6-0.4c-0.2-0.2-0.4-0.6-0.6-0.6c-1-0.1-2.1-0.1-3.1,0c-0.2,0-0.4,0.3-0.6,0.5
		c0.2,0.2,0.4,0.4,0.7,0.4C241.5,109.9,242.1,109.9,242.6,109.9z"/>
	<path class="st7" d="M241.9,128.4c0,1.9,0,3.9,0,5.8c0,0.7-0.2,0.9-0.9,0.9c-3.9,0-7.9,0-11.8,0c-0.8,0-1-0.3-1-1
		c0-3.9,0-7.8,0-11.7c0-0.8,0.3-1.1,1.1-1c3.9,0,7.7,0,11.6,0c0.8,0,1.1,0.2,1,1C241.9,124.5,241.9,126.5,241.9,128.4z M235.1,123.5
		L235.1,123.5c-0.5,0-1.1-0.1-1.6,0c-0.2,0-0.4,0.3-0.5,0.5c0,0.1,0.2,0.5,0.4,0.5c1.1,0,2.2,0.1,3.3,0c0.2,0,0.3-0.3,0.5-0.5
		c-0.2-0.1-0.3-0.4-0.5-0.4C236.2,123.4,235.6,123.5,235.1,123.5z"/>
	<path class="st6" d="M237.6,144.1c0-2.5,0-4.9,0-7.5c1.4,0,2.8,0,4.2,0c0,5.2,0,10.3,0,15.5c-1,0-2.1,0-3.1,0
		c-0.3,0-0.6-0.3-0.7-0.6c-1.6-1.9-3.2-3.9-4.7-5.8c-0.2-0.3-0.5-0.6-0.9-1.1c0,2.7,0,5,0,7.5c-1.3,0-2.5,0-3.7,0
		c-0.2,0-0.6-0.5-0.6-0.8c-0.1-1.8,0-3.7,0-5.5c0-2.7,0-5.5,0-8.2c0-0.8,0.2-1,1-1.1c1.7-0.2,2.8,0.4,3.8,1.9
		C234.3,140.4,235.9,142.3,237.6,144.1C237.5,144.2,237.6,144.2,237.6,144.1z"/>
	<path class="st6" d="M307.8,147.5c0,1.5,0,3,0,4.6c-1.4,0-2.8,0-4.2,0c0-5.1,0-10.2,0-15.5c0.8,0,1.6,0,2.3,0c1.7,0,3.5,0,5.2,0.1
		c2.3,0.2,3.7,1.5,4.4,3.6c0.7,2,0.4,3.9-1.1,5.4c-0.8,0.8-0.6,1.3-0.1,2c0.9,1.4,1.7,2.9,2.6,4.6c-1.6,0-3,0-4.4,0
		c-0.3,0-0.6-0.4-0.8-0.6c-0.6-1-1.2-2-1.7-3.1C309.6,147.5,309,147.1,307.8,147.5z M307.9,140.4c0,1.1,0,2.1,0,3.3
		c0.8,0,1.5,0,2.2,0c1,0,1.5-0.6,1.5-1.6s-0.6-1.6-1.6-1.6C309.3,140.4,308.6,140.4,307.9,140.4z"/>
	<path class="st6" d="M210.2,136.6c-1.8,2.2-3.4,4.3-5.1,6.3c-0.5,0.6-0.4,1,0,1.5c1.7,2.3,3.3,4.7,5,7.1c0.1,0.2,0.2,0.4,0.4,0.7
		c-1.6,0-3,0-4.4,0c-0.3,0-0.6-0.3-0.8-0.6c-1.1-1.6-2.3-3.3-3.4-5c-0.8,0.6-1.3,1.2-1.2,2.2c0.1,1.1,0,2.2,0,3.3
		c-1.4,0-2.8,0-4.2,0c0-5.1,0-10.3,0-15.5c1.4,0,2.7,0,4.2,0c0,1.9,0,3.7,0,5.8c1.5-1.9,2.9-3.6,4.2-5.2c0.3-0.3,0.8-0.6,1.2-0.6
		C207.4,136.6,208.6,136.6,210.2,136.6z"/>
	<path class="st6" d="M269,146c-1.9,0-3.6,0-5.5,0c0,0.8,0,1.5,0,2.4c2.2,0,4.4,0,6.7,0c0,1.3,0,2.5,0,3.7c-3.6,0-7.2,0-10.9,0
		c0-5.1,0-10.3,0-15.5c3.6,0,7.1,0,10.7,0c0,1.2,0,2.4,0,3.7c-2.2,0-4.3,0-6.5,0c0,0.8,0,1.4,0,2.2c1.8,0,3.6,0,5.5,0
		C269,143.7,269,144.8,269,146z"/>
	<path class="st6" d="M252.3,152.2c-0.6,0-1,0-1.4,0c-2,0-2.1,0-2.8-1.9c-1.6-4.3-3.2-8.6-4.8-12.9c-0.1-0.2-0.1-0.4-0.2-0.8
		c1.4,0,2.8,0,4.1,0c0.2,0,0.5,0.4,0.6,0.7c0.9,2.8,1.7,5.7,2.6,8.5c0,0.1,0.1,0.3,0.3,0.7c0.7-2.2,1.2-4.1,1.8-6.1
		c0.3-1.1,0.6-2.2,1-3.3c0.1-0.3,0.4-0.6,0.7-0.6c1.3-0.1,2.5,0,4,0C256.1,141.9,254.2,147,252.3,152.2z"/>
	<path class="st6" d="M278.1,143.3c0.7-1.7,1.4-3.2,2-4.8c0.8-1.9,0.8-1.9,2.8-1.9c0.8,0,1.6,0,2.6,0c-0.8,1.6-1.5,3-2.2,4.5
		c-0.8,1.6-1.7,3.2-2.5,4.8c-0.4,0.8-0.5,1.6-0.6,2.5c-0.1,1.2,0,2.5,0,3.8c-1.4,0-2.8,0-4.3,0c0-1.4,0-2.8,0-4.1
		c0-0.7-0.2-1.4-0.5-2c-1.4-2.8-2.8-5.5-4.2-8.3c-0.1-0.3-0.3-0.6-0.5-1.1c1.6,0,3,0,4.4,0c0.2,0,0.4,0.3,0.5,0.6
		C276.4,139.2,277.2,141.1,278.1,143.3z"/>
</g>
<g>
	<path d="M49,120.9h1.8v7.1h4.3v1.5H49V120.9z"/>
	<path d="M61.7,127.7c0,0.4-0.2,0.8-0.6,1.1c-0.5,0.6-1.3,0.9-2.3,0.9c-0.8,0-1.5-0.3-2.2-0.8s-0.9-1.4-0.9-2.6
		c0-1.1,0.3-1.9,0.8-2.5s1.3-0.9,2.2-0.9c0.5,0,1,0.1,1.4,0.3s0.8,0.5,1,0.9s0.4,0.8,0.5,1.3c0,0.3,0.1,0.7,0,1.3h-4.4
		c0,0.6,0.2,1.1,0.6,1.4c0.2,0.2,0.5,0.2,0.8,0.2s0.6-0.1,0.8-0.3c0.1-0.1,0.2-0.2,0.3-0.4L61.7,127.7L61.7,127.7z M60,125.7
		c0-0.4-0.2-0.8-0.4-1s-0.5-0.3-0.9-0.3s-0.7,0.1-0.9,0.4s-0.3,0.6-0.4,1C57.4,125.7,60,125.7,60,125.7z"/>
	<path d="M64.7,130.6c0.2,0.1,0.5,0.2,0.9,0.2c0.6,0,1-0.2,1.2-0.6c0.1-0.3,0.2-0.7,0.2-1.3v-0.4c-0.2,0.3-0.3,0.5-0.5,0.6
		c-0.3,0.2-0.8,0.4-1.3,0.4c-0.8,0-1.5-0.3-2-0.9s-0.7-1.4-0.7-2.3s0.2-1.8,0.7-2.4s1.1-1,2-1c0.3,0,0.6,0.1,0.8,0.2
		c0.4,0.2,0.7,0.5,1,0.9v-0.9h1.6v6.1c0,0.8-0.1,1.4-0.4,1.9c-0.5,0.7-1.4,1.1-2.7,1.1c-0.8,0-1.5-0.2-2-0.5s-0.8-0.8-0.9-1.4h1.8
		C64.5,130.4,64.6,130.6,64.7,130.6z M64.4,127.3c0.2,0.5,0.6,0.8,1.2,0.8c0.4,0,0.7-0.1,1-0.4c0.3-0.3,0.4-0.8,0.4-1.4
		s-0.1-1.1-0.4-1.4s-0.6-0.5-1-0.5c-0.6,0-1,0.3-1.2,0.8c-0.1,0.3-0.2,0.7-0.2,1.1C64.2,126.7,64.3,127.1,64.4,127.3z"/>
	<path d="M70.5,123.8c0.4-0.6,1.2-0.8,2.3-0.8c0.7,0,1.3,0.1,1.9,0.4s0.8,0.8,0.8,1.6v2.9c0,0.2,0,0.4,0,0.7c0,0.2,0,0.4,0.1,0.4
		s0.1,0.1,0.2,0.2v0.2H74c-0.1-0.1-0.1-0.2-0.1-0.4s0-0.2-0.1-0.4c-0.2,0.2-0.5,0.5-0.8,0.6c-0.4,0.2-0.8,0.3-1.2,0.3
		c-0.6,0-1.1-0.2-1.4-0.5s-0.6-0.8-0.6-1.4c0-0.8,0.3-1.3,0.9-1.7c0.3-0.2,0.8-0.3,1.5-0.4l0.6-0.1c0.3,0,0.5-0.1,0.7-0.2
		s0.4-0.3,0.4-0.5c0-0.3-0.1-0.4-0.3-0.5s-0.4-0.2-0.8-0.2s-0.7,0.1-0.8,0.3c-0.1,0.1-0.2,0.3-0.2,0.6H70
		C70,124.7,70.2,124.2,70.5,123.8z M71.7,128.3c0.2,0.1,0.3,0.2,0.6,0.2c0.4,0,0.7-0.1,1-0.3s0.5-0.6,0.5-1.2v-0.6
		c-0.1,0.1-0.2,0.1-0.3,0.2s-0.2,0.1-0.4,0.1l-0.4,0.1c-0.3,0.1-0.6,0.1-0.8,0.2c-0.3,0.2-0.4,0.4-0.4,0.7
		C71.5,128,71.6,128.2,71.7,128.3z"/>
	<path d="M82.4,125.4h-1.7c0-0.2-0.1-0.4-0.2-0.6c-0.2-0.3-0.5-0.4-0.9-0.4c-0.6,0-0.9,0.3-1.2,0.8c-0.1,0.3-0.2,0.7-0.2,1.2
		s0.1,0.8,0.2,1.1c0.2,0.5,0.6,0.8,1.1,0.8c0.4,0,0.7-0.1,0.8-0.3c0.2-0.2,0.3-0.5,0.3-0.8h1.7c0,0.5-0.2,1-0.6,1.4
		c-0.5,0.7-1.3,1.1-2.3,1.1s-1.8-0.3-2.3-0.9s-0.7-1.4-0.7-2.4c0-1.1,0.3-1.9,0.8-2.6c0.5-0.6,1.3-0.9,2.2-0.9c0.8,0,1.5,0.2,2,0.5
		S82.3,124.5,82.4,125.4z"/>
	<path d="M86.2,127.9l1.3-4.7h1.8l-2.2,6.3c-0.4,1.2-0.8,2-1,2.2s-0.7,0.4-1.5,0.4c-0.2,0-0.3,0-0.4,0s-0.2,0-0.4,0v-1.3H84
		c0.2,0,0.3,0,0.5,0s0.3-0.1,0.4-0.1c0.1-0.1,0.2-0.2,0.3-0.4s0.1-0.3,0.1-0.4l-2.3-6.7h1.9L86.2,127.9z"/>
	<path d="M54.1,142.2h-3.2l-0.6,1.8h-1.9l3.1-8.6h2l3.1,8.6h-2L54.1,142.2z M53.6,140.7l-1.1-3.4l-1.1,3.4H53.6z"/>
	<path d="M62.9,138.2c0.5,0.6,0.8,1.4,0.8,2.4c0,1.1-0.2,2-0.8,2.6s-1.2,0.9-2,0.9c-0.5,0-0.9-0.1-1.3-0.4c-0.2-0.1-0.4-0.4-0.5-0.6
		v3.3h-1.7v-8.9H59v0.9c0.2-0.3,0.4-0.5,0.6-0.7c0.4-0.3,0.8-0.4,1.3-0.4C61.8,137.4,62.4,137.7,62.9,138.2z M62,140.7
		c0-0.5-0.1-0.9-0.3-1.3s-0.6-0.6-1.1-0.6c-0.6,0-1,0.3-1.2,0.9c-0.1,0.3-0.2,0.7-0.2,1.2c0,0.7,0.2,1.3,0.6,1.6
		c0.2,0.2,0.5,0.3,0.8,0.3c0.5,0,0.8-0.2,1.1-0.5S62,141.3,62,140.7z"/>
	<path d="M70.2,138.2c0.5,0.6,0.8,1.4,0.8,2.4c0,1.1-0.2,2-0.8,2.6s-1.2,0.9-1.9,0.9c-0.5,0-0.9-0.1-1.3-0.4
		c-0.2-0.1-0.4-0.4-0.5-0.6v3.3h-1.7v-8.9h1.6v0.9c0.2-0.3,0.4-0.5,0.6-0.7c0.4-0.3,0.8-0.4,1.3-0.4
		C69.1,137.4,69.7,137.7,70.2,138.2z M69.3,140.7c0-0.5-0.1-0.9-0.3-1.3s-0.6-0.6-1.1-0.6c-0.6,0-1,0.3-1.2,0.9
		c-0.1,0.3-0.2,0.7-0.2,1.2c0,0.7,0.2,1.3,0.6,1.6c0.2,0.2,0.5,0.3,0.8,0.3c0.5,0,0.8-0.2,1.1-0.5S69.3,141.3,69.3,140.7z"/>
	<path d="M72.2,135.3h1.7v8.6h-1.7V135.3z"/>
	<path d="M77.3,135.2v1.5h-1.7v-1.5H77.3z M77.3,137.6v6.4h-1.7v-6.4H77.3z"/>
	<path d="M84.4,139.8h-1.7c0-0.2-0.1-0.4-0.2-0.6c-0.2-0.3-0.5-0.4-0.9-0.4c-0.6,0-0.9,0.3-1.2,0.8c-0.1,0.3-0.2,0.7-0.2,1.2
		s0.1,0.9,0.2,1.1c0.2,0.5,0.6,0.8,1.1,0.8c0.4,0,0.7-0.1,0.8-0.3s0.3-0.5,0.3-0.8h1.7c0,0.5-0.2,1-0.6,1.4
		c-0.5,0.7-1.3,1.1-2.3,1.1s-1.8-0.3-2.3-0.9s-0.7-1.4-0.7-2.4c0-1.1,0.3-1.9,0.8-2.6s1.3-0.9,2.2-0.9c0.8,0,1.5,0.2,2,0.5
		S84.3,138.9,84.4,139.8z"/>
	<path d="M85.8,138.2c0.4-0.6,1.2-0.8,2.3-0.8c0.7,0,1.3,0.1,1.9,0.4s0.8,0.8,0.8,1.6v2.9c0,0.2,0,0.4,0,0.7c0,0.2,0,0.4,0.1,0.4
		s0.1,0.1,0.2,0.2v0.2h-1.8c-0.1-0.1-0.1-0.2-0.1-0.4s0-0.2-0.1-0.4c-0.2,0.2-0.5,0.5-0.8,0.6c-0.4,0.2-0.8,0.3-1.2,0.3
		c-0.6,0-1.1-0.2-1.4-0.5s-0.6-0.8-0.6-1.4c0-0.8,0.3-1.4,0.9-1.7c0.3-0.2,0.8-0.3,1.5-0.4l0.6-0.1c0.3,0,0.5-0.1,0.7-0.1
		c0.2-0.1,0.4-0.3,0.4-0.5c0-0.3-0.1-0.4-0.3-0.5s-0.4-0.1-0.8-0.1s-0.7,0.1-0.8,0.3c-0.1,0.1-0.2,0.3-0.2,0.6h-1.6
		C85.4,139.1,85.5,138.6,85.8,138.2z M87,142.7c0.2,0.1,0.3,0.2,0.6,0.2c0.4,0,0.7-0.1,1-0.3s0.5-0.6,0.5-1.1v-0.6
		c-0.1,0.1-0.2,0.1-0.3,0.2s-0.2,0.1-0.4,0.1l-0.4,0.1c-0.3,0.1-0.6,0.1-0.8,0.2c-0.3,0.1-0.4,0.4-0.4,0.7
		C86.8,142.4,86.9,142.6,87,142.7z"/>
	<path d="M95.2,142.7v1.2h-0.8c-0.8,0-1.3-0.1-1.6-0.4c-0.2-0.2-0.3-0.5-0.3-0.9v-3.9h-0.9v-1.2h0.9v-1.8h1.7v1.8h1v1.2h-1v3.4
		c0,0.3,0,0.4,0.1,0.5s0.3,0.1,0.6,0.1c0.1,0,0.1,0,0.2,0S95.1,142.8,95.2,142.7z"/>
	<path d="M97.9,135.2v1.5h-1.7v-1.5H97.9z M97.9,137.6v6.4h-1.7v-6.4H97.9z"/>
	<path d="M104.9,138.4c0.5,0.7,0.8,1.5,0.8,2.4s-0.3,1.7-0.8,2.4s-1.4,1-2.5,1s-1.9-0.3-2.5-1s-0.8-1.5-0.8-2.4s0.3-1.7,0.8-2.4
		s1.4-1,2.5-1S104.3,137.7,104.9,138.4z M102.4,138.8c-0.5,0-0.9,0.2-1.1,0.5s-0.4,0.8-0.4,1.5s0.1,1.1,0.4,1.5s0.6,0.5,1.1,0.5
		s0.9-0.2,1.1-0.5s0.4-0.8,0.4-1.5s-0.1-1.1-0.4-1.5S102.9,138.8,102.4,138.8z"/>
	<path d="M109.9,138.8c-0.6,0-1,0.2-1.2,0.7c-0.1,0.2-0.2,0.6-0.2,1v3.5h-1.7v-6.4h1.6v0.9c0.2-0.3,0.4-0.6,0.6-0.7
		c0.3-0.3,0.8-0.4,1.3-0.4c0.7,0,1.2,0.2,1.6,0.5s0.6,0.9,0.6,1.7v4.3H111V140c0-0.3,0-0.6-0.1-0.8
		C110.7,138.9,110.4,138.8,109.9,138.8z"/>
	<path d="M118.6,137.8c0.5,0.3,0.8,0.9,0.9,1.6h-1.7c0-0.2-0.1-0.4-0.2-0.5c-0.2-0.2-0.5-0.3-0.9-0.3s-0.6,0.1-0.8,0.2
		s-0.2,0.2-0.2,0.4s0.1,0.3,0.2,0.4c0.2,0.1,0.7,0.2,1.7,0.5c0.7,0.2,1.2,0.4,1.5,0.7s0.5,0.7,0.5,1.2c0,0.6-0.2,1.1-0.7,1.6
		s-1.2,0.6-2.2,0.6s-1.8-0.2-2.2-0.6s-0.7-1-0.7-1.6h1.7c0,0.3,0.1,0.5,0.2,0.6c0.2,0.2,0.6,0.3,1.2,0.3c0.3,0,0.6-0.1,0.8-0.1
		s0.3-0.2,0.3-0.4s-0.1-0.3-0.2-0.4s-0.7-0.3-1.7-0.5c-0.7-0.2-1.2-0.4-1.5-0.7s-0.4-0.6-0.4-1.1c0-0.6,0.2-1.1,0.7-1.5
		s1.1-0.6,1.9-0.6C117.5,137.4,118.1,137.5,118.6,137.8z"/>
</g>
<g>
	<path d="M397,130.6h-1.7V122h2.6l1.6,6.8l1.6-6.8h2.6v8.6H402v-5.8c0-0.2,0-0.4,0-0.7s0-0.5,0-0.7l-1.6,7.2h-1.8l-1.6-7.2
		c0,0.2,0,0.4,0,0.7s0,0.5,0,0.7V130.6L397,130.6z"/>
	<path d="M410.5,125c0.5,0.7,0.8,1.5,0.8,2.4s-0.3,1.7-0.8,2.4s-1.4,1-2.5,1s-1.9-0.3-2.5-1s-0.8-1.5-0.8-2.4s0.3-1.7,0.8-2.4
		s1.4-1,2.5-1S410,124.4,410.5,125z M408.1,125.4c-0.5,0-0.9,0.2-1.1,0.5s-0.4,0.8-0.4,1.5c0,0.6,0.1,1.1,0.4,1.5s0.6,0.5,1.1,0.5
		s0.9-0.2,1.1-0.5s0.4-0.8,0.4-1.5c0-0.6-0.1-1.1-0.4-1.5S408.5,125.4,408.1,125.4z"/>
	<path d="M418.3,122v8.6h-1.6v-0.9c-0.2,0.4-0.5,0.6-0.8,0.8s-0.7,0.3-1.1,0.3c-0.8,0-1.4-0.3-1.9-0.9s-0.8-1.4-0.8-2.3
		c0-1.1,0.2-1.9,0.8-2.6s1.2-0.9,2-0.9c0.4,0,0.7,0.1,1,0.2s0.5,0.4,0.7,0.7v-3L418.3,122L418.3,122z M413.8,127.5
		c0,0.6,0.1,1.1,0.4,1.4c0.2,0.4,0.6,0.5,1,0.5s0.8-0.2,1.1-0.5s0.4-0.8,0.4-1.4c0-0.8-0.2-1.3-0.6-1.7c-0.2-0.2-0.5-0.3-0.8-0.3
		c-0.5,0-0.9,0.2-1.1,0.6S413.8,126.9,413.8,127.5z"/>
	<path d="M425.3,128.8c0,0.4-0.2,0.8-0.6,1.1c-0.5,0.6-1.3,0.9-2.3,0.9c-0.8,0-1.5-0.3-2.1-0.8s-0.9-1.4-0.9-2.6
		c0-1.1,0.3-1.9,0.8-2.5s1.3-0.9,2.2-0.9c0.5,0,1,0.1,1.4,0.3s0.8,0.5,1,0.9s0.4,0.8,0.5,1.3c0,0.3,0.1,0.7,0,1.3H421
		c0,0.6,0.2,1.1,0.6,1.4c0.2,0.2,0.5,0.2,0.8,0.2s0.6-0.1,0.8-0.3c0.1-0.1,0.2-0.2,0.3-0.4L425.3,128.8L425.3,128.8L425.3,128.8z
		 M423.7,126.8c0-0.4-0.2-0.8-0.4-1s-0.5-0.3-0.9-0.3s-0.7,0.1-0.9,0.4s-0.4,0.6-0.4,1C421.1,126.8,423.7,126.8,423.7,126.8z"/>
	<path d="M429.7,125.8c-0.7,0-1.1,0.2-1.4,0.7c-0.1,0.2-0.2,0.6-0.2,1.1v3.1h-1.7v-6.4h1.6v1.1c0.3-0.4,0.5-0.7,0.7-0.9
		c0.3-0.3,0.7-0.4,1.2-0.4h0.1h0.1v1.7c-0.1,0-0.2,0-0.3,0S429.8,125.8,429.7,125.8z"/>
	<path d="M434.2,125.5c-0.6,0-1,0.2-1.2,0.7c-0.1,0.2-0.2,0.6-0.2,1v3.5h-1.7v-6.4h1.6v0.9c0.2-0.3,0.4-0.6,0.6-0.7
		c0.3-0.3,0.8-0.4,1.3-0.4c0.7,0,1.2,0.2,1.6,0.5s0.6,0.9,0.6,1.7v4.3h-1.7v-3.9c0-0.3,0-0.6-0.1-0.8
		C435,125.6,434.7,125.5,434.2,125.5z"/>
	<path d="M440.2,121.9v1.5h-1.7v-1.5H440.2z M440.2,124.2v6.4h-1.7v-6.4C438.6,124.2,440.2,124.2,440.2,124.2z"/>
	<path d="M446.8,130.6h-5.5v-1.3l3.3-3.7h-3v-1.4h5.2v1.4l-3.2,3.6h3.4L446.8,130.6L446.8,130.6L446.8,130.6z"/>
	<path d="M453.3,128.8c0,0.4-0.2,0.8-0.6,1.1c-0.5,0.6-1.3,0.9-2.3,0.9c-0.8,0-1.5-0.3-2.1-0.8s-0.9-1.4-0.9-2.6
		c0-1.1,0.3-1.9,0.8-2.5s1.3-0.9,2.2-0.9c0.5,0,1,0.1,1.4,0.3s0.8,0.5,1,0.9s0.4,0.8,0.5,1.3c0,0.3,0.1,0.7,0,1.3H449
		c0,0.6,0.2,1.1,0.6,1.4c0.2,0.2,0.5,0.2,0.8,0.2s0.6-0.1,0.8-0.3c0.1-0.1,0.2-0.2,0.3-0.4L453.3,128.8L453.3,128.8L453.3,128.8z
		 M451.7,126.8c0-0.4-0.2-0.8-0.4-1s-0.5-0.3-0.9-0.3s-0.7,0.1-0.9,0.4s-0.4,0.6-0.4,1C449.1,126.8,451.7,126.8,451.7,126.8z"/>
	<path d="M460.4,122v8.6h-1.6v-0.9c-0.2,0.4-0.5,0.6-0.8,0.8s-0.7,0.3-1.1,0.3c-0.8,0-1.4-0.3-1.9-0.9s-0.8-1.4-0.8-2.3
		c0-1.1,0.2-1.9,0.8-2.6s1.2-0.9,2-0.9c0.4,0,0.7,0.1,1,0.2s0.5,0.4,0.7,0.7v-3L460.4,122L460.4,122z M455.9,127.5
		c0,0.6,0.1,1.1,0.4,1.4c0.2,0.4,0.6,0.5,1,0.5s0.8-0.2,1.1-0.5s0.4-0.8,0.4-1.4c0-0.8-0.2-1.3-0.6-1.7c-0.2-0.2-0.5-0.3-0.8-0.3
		c-0.5,0-0.9,0.2-1.1,0.6S455.9,126.9,455.9,127.5z"/>
	<path d="M400.4,143.2h-3.2l-0.6,1.8h-1.9l3.1-8.6h2l3.1,8.6h-2L400.4,143.2z M399.9,141.8l-1.1-3.4l-1.1,3.4H399.9z"/>
	<path d="M409.2,139.3c0.5,0.6,0.8,1.4,0.8,2.4c0,1.1-0.2,2-0.8,2.6s-1.2,0.9-2,0.9c-0.5,0-0.9-0.1-1.3-0.4
		c-0.2-0.1-0.4-0.4-0.5-0.6v3.3h-1.6v-8.9h1.6v0.9c0.2-0.3,0.4-0.5,0.6-0.7c0.4-0.3,0.8-0.4,1.3-0.4
		C408.1,138.5,408.7,138.8,409.2,139.3z M408.3,141.8c0-0.5-0.1-0.9-0.3-1.3s-0.6-0.6-1.1-0.6c-0.6,0-1,0.3-1.2,0.9
		c-0.1,0.3-0.2,0.7-0.2,1.2c0,0.7,0.2,1.3,0.6,1.6c0.2,0.2,0.5,0.3,0.8,0.3c0.5,0,0.8-0.2,1.1-0.5S408.3,142.4,408.3,141.8z"/>
	<path d="M416.5,139.3c0.5,0.6,0.8,1.4,0.8,2.4c0,1.1-0.2,2-0.8,2.6s-1.2,0.9-2,0.9c-0.5,0-0.9-0.1-1.3-0.4
		c-0.2-0.1-0.4-0.4-0.5-0.6v3.3h-1.6v-8.9h1.6v0.9c0.2-0.3,0.4-0.5,0.6-0.7c0.4-0.3,0.8-0.4,1.3-0.4
		C415.4,138.5,416,138.8,416.5,139.3z M415.6,141.8c0-0.5-0.1-0.9-0.3-1.3s-0.6-0.6-1.1-0.6c-0.6,0-1,0.3-1.2,0.9
		c-0.1,0.3-0.2,0.7-0.2,1.2c0,0.7,0.2,1.3,0.6,1.6c0.2,0.2,0.5,0.3,0.8,0.3c0.5,0,0.8-0.2,1.1-0.5S415.6,142.4,415.6,141.8z"/>
	<path d="M418.6,136.4h1.7v8.6h-1.7V136.4z"/>
	<path d="M423.6,136.3v1.5h-1.7v-1.5H423.6z M423.6,138.6v6.4h-1.7v-6.4H423.6z"/>
	<path d="M430.7,140.9H429c0-0.2-0.1-0.4-0.2-0.6c-0.2-0.3-0.5-0.4-0.9-0.4c-0.6,0-1,0.3-1.1,0.8c-0.1,0.3-0.2,0.7-0.2,1.2
		s0,0.9,0.2,1.1c0.2,0.5,0.6,0.8,1.1,0.8c0.4,0,0.7-0.1,0.8-0.3s0.3-0.5,0.3-0.8h1.7c0,0.5-0.2,1-0.5,1.4c-0.5,0.7-1.3,1.1-2.3,1.1
		s-1.8-0.3-2.3-0.9s-0.7-1.4-0.7-2.4c0-1.1,0.3-1.9,0.8-2.6s1.3-0.9,2.2-0.9c0.8,0,1.5,0.2,2,0.5S430.6,140,430.7,140.9z"/>
	<path d="M432.1,139.3c0.4-0.6,1.2-0.8,2.3-0.8c0.7,0,1.3,0.1,1.9,0.4s0.8,0.8,0.8,1.6v2.9c0,0.2,0,0.4,0,0.7c0,0.2,0,0.4,0.1,0.4
		s0.1,0.1,0.2,0.2v0.2h-1.8c0-0.1-0.1-0.2-0.1-0.4s0-0.2,0-0.4c-0.2,0.2-0.5,0.5-0.8,0.6c-0.4,0.2-0.8,0.3-1.2,0.3
		c-0.6,0-1.1-0.2-1.4-0.5s-0.6-0.8-0.6-1.4c0-0.8,0.3-1.4,0.9-1.7c0.3-0.2,0.8-0.3,1.5-0.4l0.6-0.1c0.3,0,0.5-0.1,0.7-0.1
		c0.2-0.1,0.4-0.3,0.4-0.5c0-0.3-0.1-0.4-0.3-0.5s-0.5-0.1-0.8-0.1c-0.4,0-0.7,0.1-0.8,0.3c-0.1,0.1-0.2,0.3-0.2,0.6h-1.6
		C431.7,140.1,431.8,139.7,432.1,139.3z M433.4,143.8c0.2,0.1,0.4,0.2,0.6,0.2c0.4,0,0.7-0.1,1-0.3s0.5-0.6,0.5-1.1V142
		c-0.1,0.1-0.2,0.1-0.3,0.2s-0.2,0.1-0.4,0.1l-0.4,0.1c-0.4,0.1-0.6,0.1-0.8,0.2c-0.3,0.1-0.4,0.4-0.4,0.7
		C433.1,143.5,433.2,143.7,433.4,143.8z"/>
	<path d="M441.5,143.8v1.2h-0.8c-0.8,0-1.3-0.1-1.6-0.4c-0.2-0.2-0.3-0.5-0.3-0.9v-3.9h-0.9v-1.2h0.9v-1.8h1.6v1.8h1v1.2h-1v3.4
		c0,0.3,0,0.4,0.1,0.5s0.3,0.1,0.6,0.1c0,0,0.1,0,0.2,0S441.4,143.8,441.5,143.8z"/>
	<path d="M444.3,136.3v1.5h-1.7v-1.5H444.3z M444.3,138.6v6.4h-1.7v-6.4H444.3z"/>
	<path d="M451.2,139.4c0.5,0.7,0.8,1.5,0.8,2.4s-0.3,1.7-0.8,2.4s-1.4,1-2.5,1s-1.9-0.3-2.5-1s-0.8-1.5-0.8-2.4s0.3-1.7,0.8-2.4
		s1.4-1,2.5-1S450.7,138.8,451.2,139.4z M448.7,139.8c-0.5,0-0.9,0.2-1.1,0.5s-0.4,0.8-0.4,1.5s0.1,1.1,0.4,1.5s0.6,0.5,1.1,0.5
		s0.9-0.2,1.1-0.5s0.4-0.8,0.4-1.5s-0.1-1.1-0.4-1.5S449.2,139.8,448.7,139.8z"/>
	<path d="M456.2,139.9c-0.6,0-1,0.2-1.2,0.7c-0.1,0.2-0.2,0.6-0.2,1v3.5h-1.7v-6.4h1.6v0.9c0.2-0.3,0.4-0.6,0.6-0.7
		c0.3-0.3,0.8-0.4,1.3-0.4c0.7,0,1.2,0.2,1.6,0.5s0.6,0.9,0.6,1.7v4.3h-1.7v-3.9c0-0.3,0-0.6-0.1-0.8
		C457,140,456.7,139.9,456.2,139.9z"/>
	<path d="M464.9,138.9c0.5,0.3,0.8,0.9,0.9,1.6h-1.7c0-0.2-0.1-0.4-0.2-0.5c-0.2-0.2-0.5-0.3-0.9-0.3s-0.6,0.1-0.8,0.2
		s-0.2,0.2-0.2,0.4s0.1,0.3,0.2,0.4c0.2,0.1,0.7,0.2,1.7,0.5c0.7,0.2,1.2,0.4,1.5,0.7s0.5,0.7,0.5,1.2c0,0.6-0.2,1.1-0.7,1.6
		s-1.2,0.6-2.2,0.6s-1.8-0.2-2.2-0.6s-0.7-1-0.7-1.6h1.7c0,0.3,0.1,0.5,0.2,0.6c0.2,0.2,0.6,0.3,1.1,0.3c0.3,0,0.6-0.1,0.8-0.1
		s0.3-0.2,0.3-0.4s-0.1-0.3-0.2-0.4s-0.7-0.3-1.7-0.5c-0.7-0.2-1.2-0.4-1.5-0.7s-0.5-0.6-0.5-1.1c0-0.6,0.2-1.1,0.7-1.5
		s1.1-0.6,2-0.6C463.8,138.4,464.4,138.6,464.9,138.9z"/>
</g>
</svg>
