<svg version="1.1" viewBox="0 0 1506.5 437.08" xmlns="http://www.w3.org/2000/svg">
 <defs>
  <clipPath id="clipPath5254">
   <path d="M 0,995.058 H 2363.263 V 0 H 0 Z"/>
  </clipPath>
  <clipPath id="clipPath5270">
   <path d="m20 497.53c0-85.001 68.907-153.91 153.91-153.91 85 0 153.91 68.907 153.91 153.91 0 85-68.908 153.91-153.91 153.91-85.001 0-153.91-68.908-153.91-153.91"/>
  </clipPath>
  <clipPath id="clipPath5354">
   <path d="M 0,995.058 H 2363.263 V 0 H 0 Z"/>
  </clipPath>
  <clipPath id="clipPath5370">
   <path d="m822.09 497.53c0-85.001 68.907-153.91 153.91-153.91s153.91 68.907 153.91 153.91c0 85-68.906 153.91-153.91 153.91s-153.91-68.908-153.91-153.91"/>
  </clipPath>
  <clipPath id="clipPath5454">
   <path d="M 0,995.058 H 2363.263 V 0 H 0 Z"/>
  </clipPath>
  <clipPath id="clipPath5470">
   <path d="m410.81 497.53c0-85.001 68.907-153.91 153.91-153.91 85 0 153.91 68.907 153.91 153.91 0 85-68.908 153.91-153.91 153.91s-153.91-68.908-153.91-153.91"/>
  </clipPath>
  <clipPath id="clipPath5502">
   <path d="m540.51 512.68h43.187v-72.355h-43.187z"/>
  </clipPath>
 </defs>
 <g transform="matrix(1.3333 0 0 -1.3333 -13.336 881.9)" clip-path="url(#clipPath5254)">
  <g transform="translate(173.91,338.62)">
   <path d="m0 0c-87.622 0-158.91 71.286-158.91 158.91s71.286 158.91 158.91 158.91 158.91-71.286 158.91-158.91-71.286-158.91-158.91-158.91" fill="#fff"/>
  </g>
  <g transform="translate(173.91,661.44)">
   <path d="m0 0c-43.781 0-84.942-17.05-115.9-48.008s-48.008-72.119-48.008-115.9 17.05-84.943 48.008-115.9 72.119-48.007 115.9-48.007 84.942 17.049 115.9 48.007 48.008 72.12 48.008 115.9-17.05 84.942-48.008 115.9-72.119 48.008-115.9 48.008m0-10c85.001 0 153.91-68.907 153.91-153.91s-68.907-153.91-153.91-153.91-153.91 68.907-153.91 153.91 68.907 153.91 153.91 153.91" fill="#e8e8f2"/>
  </g>
 </g>
 <g transform="matrix(1.3333 0 0 -1.3333 -13.336 881.9)" clip-path="url(#clipPath5270)">
  <g transform="translate(237.02,559.98)">
   <path d="m0 0c-0.866 1.785-2.072 3.397-2.84 5.228-1.108 2.639-1.241 5.577-1.225 8.44 0.064 11.038 1.929 22.935-3.704 32.427-4.68 7.885-14.047 12.371-23.216 12.318-9.17-0.053-18.01-4.226-24.845-10.338-4.026-3.6-7.628-7.986-12.671-9.917-7.58-2.903-16.145 0.539-24.166-0.701-7.698-1.191-14.474-7.07-16.738-14.522-0.564-1.858-0.872-3.803-1.675-5.571-2.146-4.722-7.286-7.222-10.774-11.061-3.822-4.207-5.573-10.212-4.611-15.815 0.962-5.601 4.616-10.678 9.622-13.369 2.194-1.179 4.716-1.994 6.278-3.933 1.348-1.674 1.741-3.907 1.987-6.041 0.774-6.703 0.561-13.505 1.643-20.165 1.082-6.658 3.68-13.411 8.914-17.668 5.233-4.256 13.538-5.175 18.59-0.705 4.528 4.008 5.228 10.808 4.652 16.827-0.549 5.751-1.976 11.417-4.216 16.741-3.286 7.813-8.35 15.039-9.689 23.409-2.129 13.314 6.961 27.415 19.888 31.247 12.928 3.831 28.063-2.848 34.204-14.852 4.335-8.472 6.578-25.74 19.243-25.708 11.449 0.028 20.346 13.43 15.349 23.729" fill="#b29656"/>
  </g>
  <g transform="translate(132.2,450.17)">
   <path d="m0 0c1.344-3.317 5.184-23.71 8.281-25.503 18.417-10.653 37.568-20.011 57.774-13.545 6.804 2.177 22.528 13.545 13.256 32.758-5.882 3.338-10.008 9.254-12.203 15.651s-2.612 13.274-2.392 20.033c0.094 2.89 0.296 5.834-0.429 8.633-1.186 4.585-4.729 8.222-8.656 10.87-7.59 5.121-17.127 7.273-26.181 5.91-5.18-0.781-12.56-3.599-13.689-9.408-2-10.282-0.39-20.385-3.89-30.562-2.093-6.085-5.832-12.08-11.871-14.837" fill="#dcd0b5"/>
  </g>
  <g transform="translate(216.67,576.42)">
   <path d="m0 0c10.799-11.17 12.786-27.982 13.554-43.5 1-20.181 0.429-41.979-11.539-58.261-13.031-17.725-45.22-15.693-59.564-1.428-3.848 3.826-7.326 8.024-10.37 12.516-9.708 14.327-14.836 31.515-15.824 48.794-0.751 13.143 1.02 26.939 8.293 37.911 3.891 5.872 9.549 10.677 16.038 13.443 6.597 2.811 12.429 1.99 19.314 2.102 14.68 0.24 29.112-0.215 40.098-11.577" fill="#dcd0b5"/>
  </g>
  <g transform="translate(217.68,569.9)">
   <path d="m0 0c-4.456-6.183-11.371-10.622-18.908-11.748-10.962-1.638-21.766 3.534-32.832 4.168-4.484 0.257-9.332-0.379-12.68-3.372-3.544-3.17-4.618-8.228-5.134-12.954-0.454-4.162-0.628-8.354-0.521-12.538 0.112-4.368 0.51-8.875-0.969-12.986-1.478-4.111-5.528-7.71-9.836-6.985-3.277 0.552-5.686 3.341-7.462 6.149-4.175 6.6-6.473 14.226-7.921 21.901-0.725 3.844-1.25 7.772-0.827 11.66 0.89 8.182 5.879 15.368 11.636 21.248 4.196 4.286 8.95 8.136 14.443 10.544 6.242 2.738 13.162 3.509 19.606 5.732 7.122 2.458 13.504 6.631 20.245 9.996 6.741 3.366 14.238 5.978 21.701 4.944 18.464-2.561 18.349-23.423 9.459-35.759" fill="#b29656"/>
  </g>
  <g transform="translate(137.6,532.76)">
   <path d="m0 0c-3.186 0.573-6.725 0.134-9.19-1.965-5.361-4.564-4.424-13.809-0.438-18.836 4.57-5.761 10.761-9.236 18.119-9.314 1.281-0.014 2.604 0.043 3.763 0.587 5.468 2.563 4.455 12.507 2.495 17.087-2.478 5.793-8.526 11.321-14.749 12.441" fill="#dcd0b5"/>
  </g>
  <g transform="translate(198.37,462.76)">
   <path d="m0 0c-12.342-2.351-26.399 0.589-35.769 7.512 1.731-2.09 3.563-4.096 5.487-6.009 7.995-7.951 21.533-12.096 34.209-11.143-1.225 2.023-2.228 4.188-2.992 6.414-0.364 1.062-0.663 2.141-0.935 3.226" fill="#d4c4a1"/>
  </g>
  <g transform="translate(56.777,209)">
   <path d="m0 0c3.992-43.824 38.306-84.084 29.271-127.15-0.769-3.663-2.34-7.79-5.916-8.898-4.871-1.509-9.087 3.548-11.637 7.964-24.241 41.958-42.9 87.737-49.266 135.78-6.365 48.038 0.154 98.535 23.505 141 3.447 6.269 7.485 12.587 13.649 16.219 6.164 3.633 14.994 3.678 19.712-1.702 4.283-4.885 3.877-12.173 3.225-18.637-4.778-47.359-26.677-97.026-22.543-144.56" fill="#b29656"/>
  </g>
  <g transform="translate(282.11,317.19)">
   <path d="m0 0c1.714-23.531-0.523-47.248 1.754-70.73 5.532-57.027 36.968-108.05 51.872-163.37 0.321-1.192 0.63-2.486 0.172-3.632-0.489-1.22-1.715-1.953-2.861-2.596l-15.231-8.556c-1.457-0.818-3.095-1.664-4.719-1.273-1.538 0.37-2.594 1.74-3.521 3.022-20.537 28.38-41.27 57.112-54.484 89.556-23.875 58.621-21.326 124.24-17.238 187.4 0.921 14.22 11.37 43.956 28.243 24.482 11.685-13.487 14.774-37.294 16.013-54.305" fill="#b29656"/>
  </g>
  <g transform="translate(211.56,-229.14)">
   <path d="m0 0c21.188 1.614 42.376 3.229 63.565 4.844-18.477 106.05-24.199 214.32-17.006 321.74 2.001 29.888 4.835 60.951-5.956 88.895-10.791 27.943-40.162 51.372-69.279 44.335-12.247-2.96-22.824-10.829-31.376-20.081-11.488-12.429-20.055-28.134-21.413-45.005-2.284-28.385 23.18-50.283 32.777-75.793 12.532-33.31 19.355-68.432 23.853-103.64 9.155-71.651 8.496-144.63 24.835-215.29"/>
  </g>
  <g transform="translate(169.4,70.674)">
   <path d="m0 0c10.518 45.068 20.43 91.396 21.66 138.09 0.018 0.656-0.383 1.25-0.996 1.48-9.017 3.385-18.801 6.88-28.802 9.42-0.502-0.396-1.001-0.797-1.493-1.207 10.136-2.498 20.193-6.063 29.754-9.652-1.206-45.761-10.632-90.567-21.034-135.27 0.303-0.953 0.616-1.902 0.911-2.857" fill="#fff"/>
  </g>
  <g transform="translate(65.072,-98.292)">
   <path d="m0 0c-1.837-23.104-3.675-46.219-4.41-69.385-0.781-24.565-0.32-49.17 1.38-73.688 0.227-3.282 0.619-6.88 2.993-9.158 1.793-1.721 4.359-2.318 6.801-2.777 14.418-2.713 29.278-3.059 43.807-1.023 4.989 0.699 10.452 1.995 13.325 6.134 2.003 2.885 2.316 6.581 2.539 10.086 4.044 63.648 8.025 130.74 17.92 193.74 10.94 69.656 30.734 133.35 37.206 203.56 1.179 12.79 1.455 26.43-4.886 37.6-7.309 12.874-22.477 19.938-37.274 20.41-17.881 0.569-35.329-8.425-46.514-22.158-13.366-16.411-19.978-23.095-21.574-43.171-4.011-50.445-0.45-113.55-4.461-164-2.284-28.727-4.568-57.452-6.852-86.179"/>
  </g>
  <g transform="translate(288.4,368.67)">
   <path d="m0 0c-6.689 17.971-10.398 38.085-23.794 51.806-4.789 4.904-10.587 8.68-16.758 11.614-10.107 4.804-21.187 7.17-31.62 11.031-2.304 0.853-4.713 1.41-7.149 1.901 0.813-7.186-1.598-14.957-7.349-18.786-3.412-2.271-7.715-2.689-11.814-2.681-11.788 0.023-23.586 3.027-33.885 8.781-6.95 3.884-22.655 14.715-15.798 24.868-4.209-1.881-9.168-4.53-13.154-6.875-24.74-14.55-56.532-18.402-75.429-40.005-6.344-7.252-10.696-16.008-14.561-24.832-14.785-33.763-23.439-70.201-25.412-107.01 23.318-1.792 36.644-2.997 59.763-6.529-2.586-33.426-9.091-99.053-11.677-132.48 23.831 1.681 44.529 9.973 82.141 10.919 40.414 1.015 104.97-12.948 125.87-10.666-5.591 38.479-18.037 126.67-15.729 165.49 16.971 3.598 31.8-2.711 47.411 3.939 4.253 1.813-4.34 41.477-11.054 59.513" fill="#342b8a"/>
  </g>
  <g transform="translate(68.956,272.59)">
   <path d="m0 0c-5.268-24.41-9.007-48.784-6.929-72.685 1.017-11.162 13.533-50.752 23.512-76.058 8.302-22.414 14.457-44.776 9.616-67.849-0.87-4.146-2.649-8.817-6.696-10.07-5.512-1.708-10.284 4.016-13.17 9.013-27.435 47.488-48.553 99.299-55.758 153.67-3.037 22.919-3.47 46.334-0.989 69.353 18.78-1.485 32.17-2.773 50.414-5.372" fill="#b29656"/>
  </g>
  <g transform="translate(78.917,395.59)">
   <path d="m0 0c-3.759 7.674-8.668 15.072-15.758 19.843-1.242 0.835-2.542 1.555-3.874 2.199-2.719-2.196-5.277-4.614-7.634-7.309-6.343-7.252-10.696-16.007-14.561-24.832-14.785-33.763-23.438-70.201-25.412-107.01 22.301-1.714 44.538-4.25 66.66-7.556l11.151 69.095c1.971 19.064-2.141 38.354-10.572 55.566" fill="#342b8a"/>
  </g>
  <g transform="translate(53.458,412.3)">
   <path d="M 0,0 C 0.455,0.474 0.923,0.93 1.39,1.387 0.923,0.93 0.455,0.475 0,0" fill="#fff"/>
  </g>
  <g transform="translate(78.34,269.39)">
   <path d="m0 0c0.742 0 1.395 0.538 1.516 1.293l11.152 69.095c4e-3 0.028 8e-3 0.057 0.011 0.087 1.927 18.646-1.78 38.149-10.721 56.4-4.665 9.524-9.99 16.211-16.28 20.442-1.032 0.695-2.168 1.336-3.399 1.961-1.831-1.406-3.602-2.896-5.286-4.504 1.274 1.215 2.593 2.37 3.952 3.467 1.332-0.643 2.633-1.364 3.875-2.199 7.089-4.771 11.998-12.169 15.757-19.843 8.432-17.212 12.543-36.502 10.573-55.566l-11.152-69.095c-2.297 0.344-4.601 0.644-6.901 0.97-0.039-0.5-0.082-1.025-0.123-1.537 2.266-0.322 4.535-0.617 6.797-0.954 0.077-0.011 0.153-0.017 0.229-0.017" fill="#8e8abf"/>
  </g>
  <g transform="translate(205.46,327.59)">
   <path d="M 0,0 16.697,16.696 0,33.394" fill="none" stroke="#fff" stroke-linecap="round" stroke-linejoin="round" stroke-miterlimit="10" stroke-width="6"/>
  </g>
  <g transform="translate(159.44,360.98)">
   <path d="M 0,0 -16.697,-16.697 0,-33.394" fill="none" stroke="#fff" stroke-linecap="round" stroke-linejoin="round" stroke-miterlimit="10" stroke-width="6"/>
  </g>
  <g transform="translate(194.74,327.59)">
   <path d="m0 0-24.237 31.625" fill="none" stroke="#fff" stroke-linecap="round" stroke-linejoin="round" stroke-miterlimit="10" stroke-width="6"/>
  </g>
 </g>
 <g transform="matrix(1.3333 0 0 -1.3333 -13.336 881.9)" clip-path="url(#clipPath5354)">
  <g transform="translate(975.99,338.62)">
   <path d="m0 0c-87.622 0-158.91 71.286-158.91 158.91s71.286 158.91 158.91 158.91 158.91-71.286 158.91-158.91-71.286-158.91-158.91-158.91" fill="#fff"/>
  </g>
  <g transform="translate(975.99,661.44)">
   <path d="m0 0c-43.781 0-84.942-17.05-115.9-48.008s-48.008-72.119-48.008-115.9 17.05-84.943 48.008-115.9 72.119-48.007 115.9-48.007 84.942 17.049 115.9 48.007 48.008 72.12 48.008 115.9-17.05 84.942-48.008 115.9-72.119 48.008-115.9 48.008m0-10c85.001 0 153.91-68.907 153.91-153.91s-68.907-153.91-153.91-153.91-153.91 68.907-153.91 153.91 68.907 153.91 153.91 153.91" fill="#e8e8f2"/>
  </g>
 </g>
 <g transform="matrix(1.3333 0 0 -1.3333 -13.336 881.9)" clip-path="url(#clipPath5370)">
  <g transform="translate(912.88,559.98)">
   <path d="m0 0c0.866 1.785 2.073 3.397 2.84 5.228 1.108 2.639 1.242 5.577 1.225 8.44-0.063 11.038-1.929 22.935 3.705 32.427 4.679 7.885 14.046 12.371 23.215 12.318 9.17-0.053 18.01-4.226 24.845-10.338 4.026-3.6 7.628-7.986 12.671-9.917 7.581-2.903 16.145 0.539 24.167-0.701 7.697-1.191 14.473-7.07 16.737-14.522 0.564-1.858 0.872-3.803 1.675-5.571 2.146-4.722 7.286-7.222 10.774-11.061 3.822-4.207 5.573-10.212 4.611-15.815-0.962-5.601-4.615-10.678-9.622-13.369-2.193-1.179-4.716-1.994-6.278-3.933-1.348-1.674-1.741-3.907-1.987-6.041-0.774-6.703-0.56-13.505-1.642-20.165-1.082-6.658-3.681-13.411-8.915-17.668-5.233-4.256-13.538-5.175-18.59-0.705-4.527 4.008-5.228 10.808-4.652 16.827 0.55 5.751 1.977 11.417 4.216 16.741 3.286 7.813 8.35 15.039 9.689 23.409 2.129 13.314-6.961 27.415-19.888 31.247-12.928 3.831-28.063-2.848-34.204-14.852-4.335-8.472-6.577-25.74-19.242-25.708-11.45 0.028-20.346 13.43-15.35 23.729" fill="#342b8a"/>
  </g>
  <g transform="translate(1017.7,450.17)">
   <path d="m0 0c-1.344-3.317-5.184-23.71-8.281-25.503-18.417-10.653-37.568-20.011-57.774-13.545-6.804 2.177-22.528 13.545-13.256 32.758 5.882 3.338 10.008 9.254 12.203 15.651s2.612 13.274 2.392 20.033c-0.094 2.89-0.296 5.834 0.429 8.633 1.186 4.585 4.729 8.222 8.656 10.87 7.59 5.121 17.127 7.273 26.181 5.91 5.18-0.781 12.56-3.599 13.689-9.408 2-10.282 0.39-20.385 3.89-30.562 2.093-6.085 5.832-12.08 11.871-14.837" fill="#dcd0b5"/>
  </g>
  <g transform="translate(933.23,576.42)">
   <path d="m0 0c-10.799-11.17-12.786-27.982-13.554-43.5-1-20.181-0.429-41.979 11.539-58.261 13.031-17.725 45.22-15.693 59.564-1.428 3.848 3.826 7.326 8.024 10.369 12.516 9.709 14.327 14.838 31.515 15.825 48.794 0.751 13.143-1.02 26.939-8.293 37.911-3.891 5.872-9.549 10.677-16.038 13.443-6.597 2.811-12.429 1.99-19.314 2.102-14.68 0.24-29.112-0.215-40.098-11.577" fill="#dcd0b5"/>
  </g>
  <g transform="translate(932.22,569.9)">
   <path d="m0 0c4.456-6.183 11.371-10.622 18.908-11.748 10.962-1.638 21.766 3.534 32.832 4.168 4.484 0.257 9.332-0.379 12.68-3.372 3.544-3.17 4.618-8.228 5.134-12.954 0.454-4.162 0.628-8.354 0.521-12.538-0.112-4.368-0.51-8.875 0.968-12.986s5.529-7.71 9.837-6.985c3.277 0.552 5.685 3.341 7.462 6.149 4.175 6.6 6.473 14.226 7.921 21.901 0.725 3.844 1.249 7.772 0.827 11.66-0.891 8.182-5.88 15.368-11.636 21.248-4.196 4.286-8.95 8.136-14.443 10.544-6.242 2.738-13.163 3.509-19.606 5.732-7.122 2.458-13.504 6.631-20.245 9.996-6.741 3.366-14.238 5.978-21.701 4.944-18.464-2.561-18.349-23.423-9.459-35.759" fill="#342b8a"/>
  </g>
  <g transform="translate(1012.3,532.76)">
   <path d="m0 0c3.187 0.573 6.725 0.134 9.19-1.965 5.361-4.564 4.424-13.809 0.438-18.836-4.57-5.761-10.761-9.236-18.119-9.314-1.281-0.014-2.604 0.043-3.763 0.587-5.468 2.563-4.455 12.507-2.495 17.087 2.478 5.793 8.526 11.321 14.749 12.441" fill="#dcd0b5"/>
  </g>
  <g transform="translate(951.53,462.76)">
   <path d="m0 0c12.342-2.351 26.399 0.589 35.769 7.512-1.731-2.09-3.562-4.096-5.487-6.009-7.995-7.951-21.533-12.096-34.209-11.143 1.225 2.023 2.228 4.188 2.992 6.414 0.364 1.062 0.664 2.141 0.935 3.226" fill="#d4c4a1"/>
  </g>
  <g transform="translate(1093.1,209)">
   <path d="m0 0c-3.992-43.824-38.306-84.084-29.271-127.15 0.769-3.663 2.34-7.79 5.916-8.898 4.871-1.509 9.087 3.548 11.637 7.963 24.241 41.959 42.9 87.738 49.266 135.78s-0.154 98.535-23.505 141c-3.447 6.269-7.485 12.587-13.649 16.219-6.164 3.633-14.994 3.678-19.711-1.702-4.285-4.885-3.878-12.173-3.226-18.637 4.778-47.359 26.677-97.026 22.543-144.56" fill="#b29656"/>
  </g>
  <g transform="translate(867.79,317.19)">
   <path d="m0 0c-1.714-23.531 0.523-47.248-1.754-70.73-5.531-57.027-36.968-108.05-51.872-163.37-0.321-1.192-0.63-2.486-0.172-3.632 0.489-1.22 1.715-1.953 2.861-2.596 5.077-2.852 10.154-5.704 15.232-8.556 1.456-0.818 3.094-1.664 4.718-1.273 1.538 0.37 2.594 1.74 3.521 3.022 20.537 28.38 41.271 57.112 54.484 89.556 23.875 58.621 21.326 124.24 17.238 187.4-0.921 14.22-11.37 43.956-28.243 24.482-11.685-13.487-14.773-37.294-16.013-54.305" fill="#b29656"/>
  </g>
  <g transform="translate(938.34,-229.14)">
   <path d="m0 0c-21.188 1.614-42.376 3.229-63.564 4.844 18.476 106.05 24.199 214.32 17.005 321.74-2.001 29.888-4.835 60.951 5.956 88.895 10.791 27.943 40.162 51.372 69.279 44.335 12.247-2.96 22.824-10.829 31.376-20.081 11.488-12.429 20.055-28.134 21.413-45.005 2.284-28.385-23.18-50.283-32.777-75.793-12.532-33.31-19.355-68.432-23.853-103.64-9.154-71.651-8.496-144.63-24.835-215.29"/>
  </g>
  <g transform="translate(980.5,70.674)">
   <path d="m0 0c-10.518 45.068-20.43 91.396-21.66 138.09-0.018 0.656 0.383 1.25 0.996 1.48 9.017 3.385 18.8 6.88 28.802 9.42 0.502-0.396 1.001-0.797 1.493-1.207-10.135-2.498-20.193-6.063-29.754-9.652 1.206-45.761 10.632-90.567 21.034-135.27-0.304-0.953-0.616-1.902-0.911-2.857" fill="#fff"/>
  </g>
  <g transform="translate(1084.8,-98.292)">
   <path d="m0 0c1.837-23.104 3.675-46.219 4.41-69.385 0.78-24.565 0.32-49.17-1.38-73.688-0.227-3.282-0.619-6.88-2.993-9.158-1.793-1.721-4.359-2.318-6.801-2.777-14.418-2.713-29.278-3.059-43.807-1.023-4.989 0.699-10.452 1.995-13.325 6.134-2.003 2.885-2.316 6.581-2.539 10.086-4.044 63.648-8.025 130.74-17.92 193.74-10.94 69.656-30.734 133.35-37.206 203.56-1.179 12.79-1.455 26.43 4.886 37.6 7.309 12.874 22.477 19.938 37.274 20.41 17.882 0.569 35.329-8.425 46.514-22.158 13.366-16.411 19.978-23.095 21.574-43.171 4.011-50.445 0.45-113.55 4.461-164 2.284-28.726 4.568-57.451 6.852-86.178"/>
  </g>
  <g transform="translate(861.5,368.67)">
   <path d="m0 0c6.689 17.971 10.398 38.085 23.793 51.806 4.79 4.904 10.588 8.68 16.759 11.614 10.107 4.804 21.187 7.17 31.62 11.031 2.304 0.853 4.713 1.41 7.149 1.901-0.813-7.186 1.598-14.957 7.349-18.786 3.412-2.271 7.715-2.689 11.814-2.681 11.788 0.023 23.586 3.027 33.885 8.781 6.95 3.884 22.655 14.715 15.798 24.868 4.209-1.881 9.168-4.53 13.154-6.875 24.74-14.55 56.532-18.402 75.429-40.005 6.343-7.252 10.696-16.008 14.561-24.832 14.785-33.763 23.438-70.201 25.412-107.01-23.318-1.792-36.644-2.997-59.763-6.529 2.586-33.426 9.091-99.053 11.677-132.48-23.831 1.681-44.529 9.973-82.141 10.919-40.414 1.015-104.97-12.948-125.87-10.666 5.591 38.479 18.037 126.67 15.729 165.49-16.971 3.598-31.8-2.711-47.411 3.939-4.253 1.813 4.34 41.477 11.054 59.513" fill="#b29656"/>
  </g>
  <g transform="translate(1080.9,272.59)">
   <path d="m0 0c5.268-24.41 9.007-48.784 6.929-72.685-1.017-11.162-13.533-50.752-23.512-76.058-8.302-22.414-14.457-44.776-9.616-67.849 0.87-4.146 2.649-8.817 6.696-10.07 5.512-1.708 10.284 4.016 13.17 9.013 27.436 47.488 48.553 99.299 55.758 153.67 3.037 22.919 3.47 46.334 0.989 69.353-18.78-1.485-32.17-2.773-50.414-5.372" fill="#b29656"/>
  </g>
  <g transform="translate(1071,395.59)">
   <path d="m0 0c3.759 7.674 8.668 15.072 15.757 19.843 1.243 0.835 2.543 1.555 3.875 2.199 2.719-2.196 5.277-4.614 7.634-7.309 6.343-7.252 10.696-16.007 14.561-24.832 14.785-33.763 23.438-70.201 25.412-107.01-22.301-1.714-44.539-4.25-66.66-7.556l-11.152 69.095c-1.97 19.064 2.141 38.354 10.573 55.566" fill="#b29656"/>
  </g>
  <g transform="translate(1096.4,412.3)">
   <path d="M 0,0 C -0.455,0.474 -0.923,0.93 -1.39,1.387 -0.923,0.93 -0.455,0.475 0,0" fill="#fff"/>
  </g>
  <g transform="translate(1071.6,269.39)">
   <path d="m0 0c-0.742 0-1.395 0.538-1.516 1.293l-11.151 69.095c-5e-3 0.028-9e-3 0.057-0.012 0.087-1.927 18.646 1.78 38.149 10.721 56.4 4.665 9.524 9.991 16.211 16.28 20.442 1.032 0.695 2.168 1.336 3.399 1.961 1.831-1.406 3.602-2.896 5.286-4.504-1.274 1.215-2.593 2.37-3.952 3.467-1.332-0.643-2.632-1.364-3.875-2.199-7.089-4.771-11.998-12.169-15.757-19.843-8.432-17.212-12.543-36.502-10.572-55.566l11.151-69.095c2.298 0.344 4.601 0.644 6.901 0.97 0.039-0.5 0.082-1.025 0.123-1.537-2.266-0.322-4.535-0.617-6.797-0.954-0.077-0.011-0.153-0.017-0.229-0.017" fill="#fff"/>
  </g>
  <g transform="translate(944.44,327.59)">
   <path d="M 0,0 -16.697,16.696 0,33.394" fill="none" stroke="#fff" stroke-linecap="round" stroke-linejoin="round" stroke-miterlimit="10" stroke-width="6"/>
  </g>
  <g transform="translate(990.46,360.98)">
   <path d="M 0,0 16.697,-16.697 0,-33.394" fill="none" stroke="#fff" stroke-linecap="round" stroke-linejoin="round" stroke-miterlimit="10" stroke-width="6"/>
  </g>
  <g transform="translate(955.16,327.59)">
   <path d="m0 0 24.237 31.625" fill="none" stroke="#fff" stroke-linecap="round" stroke-linejoin="round" stroke-miterlimit="10" stroke-width="6"/>
  </g>
 </g>
 <g transform="matrix(1.3333 0 0 -1.3333 -13.336 881.9)" clip-path="url(#clipPath5454)">
  <g transform="translate(564.72,338.62)">
   <path d="m0 0c-87.622 0-158.91 71.286-158.91 158.91s71.286 158.91 158.91 158.91 158.91-71.286 158.91-158.91-71.286-158.91-158.91-158.91" fill="#fff"/>
  </g>
  <g transform="translate(564.72,661.44)">
   <path d="m0 0c-43.781 0-84.942-17.05-115.9-48.008s-48.008-72.119-48.008-115.9 17.05-84.943 48.008-115.9 72.119-48.007 115.9-48.007 84.942 17.049 115.9 48.007 48.008 72.12 48.008 115.9-17.05 84.942-48.008 115.9-72.119 48.008-115.9 48.008m0-10c85.001 0 153.91-68.907 153.91-153.91s-68.907-153.91-153.91-153.91-153.91 68.907-153.91 153.91 68.907 153.91 153.91 153.91" fill="#e8e8f2"/>
  </g>
 </g>
 <g transform="matrix(1.3333 0 0 -1.3333 -13.336 881.9)" clip-path="url(#clipPath5470)">
  <g transform="translate(681.2,109.76)">
   <path d="m0 0c1.246-5.748 2.469-12.149-0.561-17.189-1.741-2.897-4.645-4.869-7.488-6.697-21.281-13.679-46.677-24.893-71.302-19.097-20.749 4.883-37.373 21.517-46.334 40.858s-11.126 41.162-10.813 62.476c0.365 24.963 4.201 50.58 16.808 72.129 6.273 10.724 14.969 20.478 26.323 25.524 12.067 5.362 25.918 4.926 38.95 2.79 11.752-1.927 28.361-5.949 35.66-16.473 7.138-10.292 3.653-29.484 4.436-41.709 2.212-34.497 6.999-68.829 14.321-102.61" fill="#7872b2"/>
  </g>
  <g transform="translate(626.39,414.03)">
   <path d="m0 0c12.794-12.68 20.561-29.498 27.107-46.279 11.317-29.015 19.821-59.245 23.472-90.174 1.25-10.597 1.936-21.295 4.268-31.708 3.305-14.76 9.828-28.57 16.302-42.24l25.11-53.022c-14.363-10.341-31.175-17.258-48.657-20.018-12.052 13.578-21.118 29.489-30.092 45.271-24.792 43.597-49.634 87.295-69.659 133.28-8.048 18.481-15.36 37.507-18.258 57.455-1.846 12.705-1.873 25.616-1.154 38.434 0.372 6.635 1.031 13.54 4.523 19.193 6.395 10.356 20.271 7.777 30.649 7.145 13.723-0.837 26.73-7.76 36.389-17.333" fill="#4a4397"/>
  </g>
  <g transform="translate(530.05,-101.37)">
   <path d="m0 0c-5.144-44.732-11.129-91.2-15.288-136.03-0.191-2.064-0.433-4.241-1.676-5.9-1.865-2.488-5.322-3.016-8.418-3.309-14.106-1.337-28.286-1.9-42.453-1.684-4.374 0.067-9.312 0.469-12.101 3.839-2.402 2.903-2.377 7.047-2.217 10.812 4.011 94.878 16.382 189.34 17.644 284.3 0.622 46.786-1.437 93.886 5.909 140.1 1.921 12.084 4.551 24.262 10.365 35.028 5.814 10.767 15.221 20.085 26.999 23.404 16.456 4.636 34.434-3.395 46.064-15.926 11.307-12.182 23.737-33.648 25.043-50.567 1.646-21.346-1.816-46.077-6.104-66.926-9.615-46.757-21.545-93.003-31.065-139.78-5.212-25.61-9.715-51.38-12.702-77.351"/>
  </g>
  <g transform="translate(667.47,-231.66)">
   <path d="m0 0c0.317-3.917 0.504-8.275-2.08-11.302-2.191-2.566-5.797-3.454-9.168-4.094-12.748-2.419-25.79-3.376-38.768-2.844-3.043 0.125-6.261 0.39-8.735 2.113-3.749 2.612-4.57 7.603-5.08 12.054-6.831 59.556-13.669 119.2-15.252 179.1-0.403 15.233-0.468 30.509-2.344 45.637-7.562 61.013-44.125 116.92-45.506 178.35-0.44 19.541 4.075 41.317 20.466 52.668 17.785 12.318 53.082 13.497 60.311-6.827 18.004-50.619 26.993-71.631 27.96-122.31 1.179-61.73 7.378-157.72 10.995-219.36 2.02-34.423 4.421-68.823 7.201-103.2"/>
  </g>
  <g transform="translate(476.39,503.62)">
   <path d="m0 0c-11.501-12.988-15.691-32.058-10.694-48.67-4.227-4.887-5.652-11.83-4.55-18.196s4.53-12.169 8.935-16.895c3.204-3.438 7.026-6.42 11.463-7.968 4.092-1.429 8.506-1.581 12.84-1.645 6.612-0.099 13.231-0.029 19.829 0.414 7.051 0.474 14.462 1.528 20.03 5.881 2.987 2.335 5.24 5.476 7.204 8.719 8.646 14.269 12.377 31.188 12.266 47.872-0.068 10.134-1.593 20.522-6.585 29.342-14.955 26.417-52.825 21.375-70.738 1.146"/>
  </g>
  <g transform="translate(589.78,405.46)">
   <path d="m0 0c-9.017 0.457-16.928-13.677-25.952-13.362-20.729 0.722-42.582 15.59-63.324 15.56 10.921 11.981 22.042 24.266 28.413 39.173 6.708 15.699 7.669 33.215 7.452 50.286-0.049 3.905-0.047 8.154 2.352 11.234 3.143 4.035 9.01 4.413 14.124 4.313 5.033-0.099 10.242-0.37 14.732-2.645 6.454-3.274 10.297-10.124 12.662-16.964 5.038-14.574 3.159-28.988 2.89-44.032-0.134-7.434 0.058-14.896 1.044-22.274 0.311-2.321 3.064-21.16 5.607-21.289" fill="#b29656"/>
  </g>
  <g clip-path="url(#clipPath5502)" opacity=".5">
   <g transform="translate(576.92,443.06)">
    <path d="m0 0c-4.924 2.696-9.175 6.465-13.177 10.402-5.76 5.666-11.156 11.827-14.949 18.961-5.728 10.774-7.512 23.195-8.191 35.378-0.042 0.754-0.061 1.51-0.096 2.265 3.296 2.423 8.076 2.68 12.339 2.597 5.033-0.099 10.242-0.37 14.732-2.646 6.454-3.273 10.297-10.124 12.662-16.964 5.038-14.573 3.159-28.987 2.89-44.031-0.052-2.899-0.052-5.801 0.022-8.701-2.143 0.743-4.229 1.642-6.232 2.739" fill="#b29656"/>
   </g>
  </g>
  <g transform="translate(623.05,510.32)">
   <path d="m0 0c-0.27-15.036-1.575-30.223-6.319-44.494-1.088-3.272-2.432-6.604-4.962-8.946-3.994-3.7-9.961-4.112-15.404-4.008-9.494 0.18-19.24 1.404-27.568 5.966-4.924 2.696-9.175 6.464-13.177 10.401-5.76 5.667-11.155 11.827-14.949 18.961-5.728 10.774-7.512 23.195-8.191 35.379-0.454 8.146-0.456 16.313-0.258 24.47 0.14 5.77 0.399 11.644 2.349 17.076 2.308 6.426 7.042 11.993 13.127 15.092 4.016 2.046 8.504 3.009 12.986 3.482 15.123 1.595 30.436-2.469 43.071-10.829 4.945-3.273 8.709-5.749 11.262-11.22 3.445-7.382 5.412-15.476 6.594-23.507 1.355-9.201 1.606-18.536 1.439-27.823" fill="#b29656"/>
  </g>
  <g transform="translate(560.92,566.88)">
   <path d="m0 0c3.067-9.764 1.927-20.447-1.189-30.195-2.691-8.417-7.035-16.623-14.057-21.988s-17.102-7.316-24.882-3.124c-9.431 5.082-12.719 17.002-13.241 27.703-0.502 10.287 0.774 20.92 5.672 29.979 4.607 8.521 15.395 18.333 25.777 18.316 10.308-0.016 19.156-11.891 21.92-20.691"/>
  </g>
  <g transform="translate(580.07,601.43)">
   <path d="m0 0c10.763-0.45 21.685-3.205 30.377-9.568 8.693-6.364 14.848-16.694 14.527-27.461-0.069-2.318-0.447-4.682-1.589-6.7-2.586-4.569-8.277-6.225-13.45-7.124-9.384-1.63-18.966-2.121-28.468-1.458-3.909 0.274-7.831 0.747-11.572 1.915-5.615 1.752-10.623 5.001-15.551 8.213-4.743 3.09-9.486 6.18-14.228 9.271-2.897 1.887-5.95 3.957-7.297 7.14-1.899 4.485 1.048 7.656 4.296 10.007 3.945 2.857 7.557 6.287 11.792 8.779 9.297 5.468 20.485 7.432 31.163 6.986"/>
  </g>
  <g transform="translate(533.31,531.28)">
   <path d="m0 0c-3.331 0.6-7.031 0.14-9.608-2.055-5.605-4.771-4.625-14.437-0.458-19.692 4.778-6.024 11.251-9.657 18.944-9.738 1.339-0.015 2.722 0.045 3.934 0.613 5.717 2.681 4.658 13.076 2.608 17.865-2.591 6.056-8.913 11.836-15.42 13.007" fill="#b29656"/>
  </g>
  <g transform="translate(570.9,404.67)">
   <path d="m0 0c-6.205-1.054-12.551 0.437-18.561 2.306-9.453 2.937-23.868 13.953-32.538 18.73 16.808-41.491 11.792-102.55 21.629-146.22 13.455-59.734 108.03-81.873 96.441 6.131-3.696 28.065-8.023 54.944-12.893 77.659-9.098 42.438-37.155 62.781-40.52 62.36 1.64-11.84-0.512-18.743-13.558-20.961" fill="#7872b2"/>
  </g>
  <g transform="translate(651.56,119.04)">
   <path d="m0 0c0.678-9.853 4.677-21.144-2.287-28.145-3.609-3.627-8.859-4.978-13.857-6.078-47.34-10.416-96.709-11.53-144.47-3.26-1.591 0.275-3.289 0.616-4.421 1.767-1.311 1.334-1.503 3.374-1.611 5.241-2.417 41.807 0.306 83.909 8.088 125.06 2.739 14.483 6.299 29.293 14.98 41.206 8.257 11.332 20.558 19.143 33.449 24.657 19.255 8.239 40.779 11.881 61.403 8.24 12.971-2.29 29.476-8.827 34.755-22.204 4.091-10.368 10.648-98.176 13.972-146.48" fill="#fff"/>
  </g>
  <g transform="translate(553.5,379.8)">
   <path d="m0 0c8.184-60.29 6.782-121.42 10.397-182.16 2.437-40.948 7.161-81.76 14.142-122.18 0.662-3.831 1.315-7.924-0.248-11.483-2.657-6.047-10.256-7.832-16.817-8.587-28.837-3.316-58.248-1.572-86.491 5.129-7.511 1.782-15.538 4.317-19.975 10.635-4.537 6.459-4.073 15.068-3.252 22.918 4.026 38.472 12.184 76.467 15.029 115.04 4.151 56.299-3.072 113.06 2.367 169.25 2.107 21.771 11.274 57.133 38.312 59.631 31.677 2.927 43.229-33.834 46.536-58.196" fill="#4a4397"/>
  </g>
  <g transform="translate(508.73,192.38)">
   <path d="m0 0 107.38-17.252c5.481-0.881 10.638 2.849 11.518 8.329l20.608 128.27c0.88 5.48-2.849 10.637-8.33 11.517l-107.38 17.252c-5.481 0.881-10.638-2.849-11.518-8.329l-20.607-128.27c-0.881-5.481 2.848-10.638 8.329-11.518" fill="#4a4397"/>
  </g>
  <g transform="translate(610.39,222.51)">
   <path d="m0 0c10.052-0.556 21.57-0.878 28.462 6.46 5.187 5.522 6.021 13.715 6.588 21.269 0.278 3.718 0.557 7.436 0.836 11.154 0.125 1.675 0.248 3.384-0.158 5.013-1.749 7.016-15.727 8.06-22.95 7.714 1.219 5.539 7.429 8.534 8.273 16.711 0.177 1.709 0.674 3.639-0.447 4.941-1.474 1.71-4.427 0.968-5.937-0.709-1.51-1.678-2.125-3.956-3.233-5.923-3.669-6.509-12.139-8.808-16.609-14.796-2.786-3.731-3.763-8.572-6.547-12.306-2.469-3.309-6.149-5.474-9.811-7.381-9.231-4.806-40.265-3.747-50.345-6.332-4.322-1.108 12.454-6.85 8.691-9.246-3.763-2.395-6.719-6.675-6.098-11.091 1.462-10.413 21.153-5.124 27.824-4.932 13.82 0.399 27.656 0.218 41.461-0.546" fill="#dcd0b5"/>
  </g>
  <g transform="translate(397.45,261.76)">
   <path d="m0 0c2.426 16.874 9.771 68.83 27.107 105.29 16.12 33.908 41.955 52.763 52.896 60.125 8.311 5.593 19.387 10.33 27.914 5.072l-25.763-22.691c12.339 7.638 21.619 11.637 21.185 7.411-1.382-13.476-1.022-27.075-2.147-40.574-1.69-20.269-17.36-38.073-39.184-124.79 27.804 2.619 66.863 3.809 97.841 3.913 4.917 0.015 10.473-50.546 5.423-51.416-40.826-7.039-85.691-13.264-123.67-7.469-10.717 1.636-21.852 4.215-29.961 11.41-14.301 12.694-14.359 34.79-11.638 53.718" fill="#4a4397"/>
  </g>
  <g transform="translate(555.75,260.81)">
   <path d="m0 0c-4.962-0.407-8.573-4.87-8.034-9.82 1.672-15.327 3.821-30.603 6.444-45.797 0.259-1.502 0.664-3.207 2.012-3.92 0.804-0.426 1.765-0.385 2.674-0.333l11.751 0.666c2.081 0.118 4.287 0.278 5.986 1.488 3.006 2.141 3.144 6.483 2.92 10.166-0.724 11.874-0.164 28.792-5.223 39.739-3.487 7.544-10.92 8.436-18.53 7.811" fill="#a5a1cb"/>
  </g>
 </g>
</svg>
