<svg version="1.1" viewBox="0 0 36.179 29.596" xmlns="http://www.w3.org/2000/svg">
 <g transform="translate(-16.225 -22.908)">
  <path d="m46.215 23.557-4.9528 1.9696c-0.42831 0.17204-0.80421 0.57966-1.0543 1.1654l-6.4456 15.386-5.9647-2.3972" fill="none" stroke="currentColor" stroke-linecap="round" stroke-linejoin="round" stroke-width=".897"/>
  <rect x="4.3148" y="7.7064" width="60" height="60" fill="none" stop-color="#000000" stroke-linecap="round" stroke-width=".11092"/>
  <g transform="matrix(1.0317 0 0 .96923 -255.46 -6.044)" fill="currentColor" stroke-width=".20107" aria-label="MOVE2KUBE">
   <path d="m266.27 60.142v-2.0547l-0.65376 1.4449h-0.57135l-0.65376-1.4449v2.0547h-1.0713v-3.9006h1.1702l0.84054 1.8349 0.84605-1.8349h1.1647v3.9006z"/>
   <path d="m269.77 60.175q-0.445 0-0.80759-0.17031-0.36259-0.17031-0.62079-0.445-0.25821-0.28018-0.40105-0.63728t-0.14284-0.73617q0-0.38456 0.14833-0.74166 0.14834-0.3571 0.41204-0.62629 0.26919-0.27469 0.63178-0.43401 0.36808-0.16481 0.80209-0.16481 0.445 0 0.80759 0.17031 0.36259 0.17031 0.6208 0.45049 0.2582 0.28018 0.39555 0.63728 0.14284 0.3571 0.14284 0.73067 0 0.38456-0.14834 0.74166-0.14833 0.3516-0.41203 0.62629-0.2637 0.2692-0.63178 0.43401-0.36259 0.16481-0.7966 0.16481zm-0.8845-1.9778q0 0.19778 0.0549 0.38456 0.0549 0.18129 0.16481 0.32413 0.10988 0.14284 0.27469 0.23074 0.17031 0.0879 0.40105 0.0879 0.23073 0 0.40104-0.0879 0.17031-0.09339 0.27469-0.23623 0.10988-0.14833 0.15932-0.33512 0.0549-0.18679 0.0549-0.37907 0-0.19778-0.0549-0.37907-0.0549-0.18679-0.17031-0.32413-0.10987-0.14284-0.28018-0.22524-0.16481-0.0879-0.39006-0.0879-0.23074 0-0.40104 0.0879-0.16482 0.0879-0.27469 0.23623-0.10988 0.14284-0.16482 0.32963-0.0494 0.1813-0.0494 0.37358z"/>
   <path d="m272.82 56.242 0.76364 2.5546 0.75264-2.5546h1.1262l-1.4339 3.9006h-0.88999l-1.4504-3.9006z"/>
   <path d="m278.54 59.208v0.93394h-2.7798v-3.9006h2.7304v0.93394h-1.6591v0.54938h1.4174v0.86802h-1.4174v0.6153z"/>
   <path d="m279.03 60.407q0-0.39793 0.0593-0.7112t0.2032-0.56727q0.14393-0.26247 0.38947-0.4826 0.24553-0.22013 0.61806-0.4318 0.39794-0.22013 0.6604-0.36407 0.27094-0.14393 0.42334-0.254 0.16086-0.11007 0.2286-0.19473 0.0677-0.09313 0.0677-0.21167 0-0.23707-0.16933-0.381-0.16934-0.14393-0.4826-0.14393-0.3556 0-0.61807 0.1778-0.26247 0.16933-0.508 0.44873l-0.8636-0.99907q0.13547-0.1524 0.36407-0.29633 0.2286-0.14393 0.51646-0.254 0.28787-0.11853 0.62654-0.18627 0.34713-0.06773 0.71966-0.06773 0.9144 0 1.397 0.39793 0.49107 0.39793 0.49107 1.0753 0 0.2794-0.0931 0.49953-0.0847 0.22013-0.2286 0.39793-0.14394 0.16933-0.32174 0.3048-0.1778 0.127-0.36406 0.23707-0.127 0.0762-0.3048 0.1778t-0.3556 0.21167q-0.16934 0.1016-0.32174 0.21167-0.14393 0.1016-0.22013 0.18627h2.3029v1.2192z"/>
   <path d="m283.95 60.142v-3.9006h1.0713v1.4833l1.1867-1.4833h1.2086l-1.4174 1.747 1.5163 2.1536h-1.2306l-0.96691-1.4339-0.29666 0.30765v1.1262z"/>
   <path d="m289.44 59.225q0.18679 0 0.31864-0.08241t0.21426-0.21426q0.0824-0.13734 0.12086-0.31315 0.0385-0.1758 0.0385-0.36808v-2.0052h1.0713v2.0052q0 0.40654-0.10438 0.76364-0.10439 0.3516-0.32414 0.60981t-0.55487 0.40654q-0.32963 0.14833-0.78012 0.14833-0.46697 0-0.80209-0.15383-0.32962-0.15932-0.54388-0.42302-0.21426-0.2637-0.31315-0.60981-0.0989-0.3516-0.0989-0.74166v-2.0052h1.0713v2.0052q0 0.19228 0.0385 0.37358 0.0384 0.1758 0.12086 0.31315 0.0824 0.13185 0.20877 0.21426 0.13185 0.07691 0.31863 0.07691z"/>
   <path d="m295.14 59.143q0 0.2637-0.10987 0.45598-0.10988 0.18679-0.30216 0.30765-0.19228 0.12086-0.45049 0.18129-0.25271 0.05494-0.53839 0.05494h-1.9173v-3.9006h2.2634q0.20327 0 0.36808 0.0879t0.28018 0.23074q0.11537 0.13734 0.1758 0.31864 0.0659 0.1758 0.0659 0.36259 0 0.27469-0.14284 0.5274-0.13734 0.24722-0.41753 0.37358 0.33512 0.09889 0.52741 0.34611 0.19777 0.24173 0.19777 0.65376zm-1.0878-0.21975q0-0.14284-0.0769-0.23623-0.0769-0.09889-0.19777-0.09889h-0.8845v0.65376h0.84604q0.13185 0 0.21975-0.08241 0.0934-0.08241 0.0934-0.23623zm-1.1592-1.769v0.59882h0.73067q0.10988 0 0.19778-0.06043 0.0934-0.06043 0.0934-0.24173 0-0.15932-0.0769-0.22524-0.0769-0.07142-0.1813-0.07142z"/>
   <path d="m298.39 59.208v0.93394h-2.7798v-3.9006h2.7304v0.93394h-1.6591v0.54938h1.4174v0.86802h-1.4174v0.6153z"/>
  </g>
  <path d="m36.339 32.094c0.11248 0.0463 0.16582 0.17459 0.11949 0.28698l-3.2652 7.9235c-0.0465 0.11237-0.17457 0.16579-0.28697 0.11947l-7.9234-3.2654c-0.11242-0.0464-0.16528-0.17437-0.11896-0.28677l3.2652-7.9235c0.0465-0.11237 0.17399-0.16603 0.28646-0.11968zm-3.4155-0.0934-2.0183-0.83175c-0.18185-0.075-0.38833 0.011-0.46326 0.19286-0.075 0.18185 0.0111 0.38831 0.19285 0.46326l2.0183 0.83175c0.18185 0.075 0.3888-0.0108 0.46376-0.19265 0.075-0.18185-0.0114-0.38852-0.19336-0.46347z" color="currentColor" fill="#ac9565" style="paint-order:normal"/>
  <path d="m39.9 41.517a1.8489 1.8489 0 0 1-1.782 1.9135 1.8489 1.8489 0 0 1-1.9135-1.782 1.8489 1.8489 0 0 1 1.782-1.9135 1.8489 1.8489 0 0 1 1.9135 1.782z" fill="none" stop-color="#000000" stroke="currentColor" stroke-dashoffset="59.528" stroke-linecap="round" stroke-linejoin="round" stroke-width="1.2349" style="paint-order:stroke fill markers"/>
  <path d="m46.215 23.557-3.6629 1.4567" fill="none" stroke="currentColor" stroke-linecap="round" stroke-linejoin="round" stroke-width="1.297"/>
  <g fill="currentColor">
   <path d="m37.205 34.936 0.93062 3.6448c-0.28585-6e-3 -0.60269 0.0207-0.79671 0.0536l-0.64352-2.6703z"/>
   <path d="m33.753 42.526 1.4966-2e-3c-0.0771-0.27532-0.1298-0.58892-0.14615-0.78503l-1.0365 0.0153z"/>
   <g transform="matrix(.54536 0 0 .54536 -19.807 -52.957)">
    <g transform="matrix(.367 0 0 .367 22.822 85.614)" fill="currentColor">
     <g transform="matrix(1.0329 0 0 1.0329 103.14 74.915)" fill="currentColor">
      <path d="m27.732 175.76c-3.1676 0-5.7639 2.5963-5.7639 5.7639 0 3.1676 2.5963 5.7635 5.7639 5.7635 3.1676 0 5.7639-2.5958 5.7639-5.7635 0-3.1676-2.5962-5.7639-5.7639-5.7639zm0 2.6395c1.7412 0 3.1244 1.3832 3.1244 3.1244 0 1.7412-1.3832 3.1244-3.1244 3.1244s-3.1244-1.3832-3.1244-3.1244c0-1.7412 1.3832-3.1244 3.1244-3.1244z" color="currentColor" color-rendering="auto" dominant-baseline="auto" image-rendering="auto" shape-rendering="auto" solid-color="#000000" style="font-feature-settings:normal;font-variant-alternates:normal;font-variant-caps:normal;font-variant-ligatures:normal;font-variant-numeric:normal;font-variant-position:normal;isolation:auto;mix-blend-mode:normal;shape-padding:0;text-decoration-color:#000000;text-decoration-line:none;text-decoration-style:solid;text-indent:0;text-orientation:mixed;text-transform:none;white-space:normal"/>
      <path d="m14.236 186.43v-9.8172h2.6963v3.7333l2.9867-3.7333h3.0419l-3.5674 4.397 3.8163 5.4202h-3.0972l-2.4336-3.6089-0.74667 0.77432v2.8345z"/>
      <path d="m37.034 181.61v4.8256h-2.6963v-9.8172h2.1017l3.9407 4.9916v-4.9916h2.6963v9.8172h-2.1432z"/>
      <path d="m46.657 176.62 1.922 6.4296 1.8943-6.4296h2.8345l-3.6088 9.8172h-2.24l-3.6503-9.8172z"/>
      <path d="m61.051 184.08v2.3506h-6.9965v-9.8172h6.872v2.3506h-4.1758v1.3827h3.5674v2.1847h-3.5674v1.5486z"/>
      <path d="m64.301 176.62 1.756 4.2449 1.7975-4.2449h2.9313l-3.3876 6.5678v3.2494h-2.6825v-3.277l-3.3323-6.5402z"/>
      <path d="m82.156 186.43v-9.8172h4.5076q0.71902 0 1.3274 0.3042 0.60838 0.29036 1.037 0.77431 0.44245 0.47013 0.69134 1.0923 0.24889 0.60838 0.24889 1.2306 0 0.85729-0.37333 1.6039-0.37335 0.73284-1.037 1.203l2.074 3.6089h-3.0419l-1.7284-3.0143h-1.0094v3.0143zm2.6963-5.3649h1.7007q0.24889 0 0.45629-0.27652 0.22124-0.27655 0.22124-0.77433 0-0.5116-0.24889-0.77431-0.24887-0.27654-0.49776-0.27654h-1.6316z"/>
      <path d="m75.652 175.76c-3.1676 0-5.7639 2.5963-5.7639 5.7639 0 3.1676 2.5963 5.7635 5.7639 5.7635 3.1676 0 5.7639-2.5958 5.7639-5.7635 0-3.1676-2.5962-5.7639-5.7639-5.7639zm0 2.6395c1.7412 0 3.1244 1.3832 3.1244 3.1244 0 1.7412-1.3832 3.1244-3.1244 3.1244s-3.1244-1.3832-3.1244-3.1244c0-1.7412 1.3832-3.1244 3.1244-3.1244z" color="currentColor" color-rendering="auto" dominant-baseline="auto" image-rendering="auto" shape-rendering="auto" solid-color="#000000" style="font-feature-settings:normal;font-variant-alternates:normal;font-variant-caps:normal;font-variant-ligatures:normal;font-variant-numeric:normal;font-variant-position:normal;isolation:auto;mix-blend-mode:normal;shape-padding:0;text-decoration-color:#000000;text-decoration-line:none;text-decoration-style:solid;text-indent:0;text-orientation:mixed;text-transform:none;white-space:normal"/>
     </g>
    </g>
   </g>
  </g>
 </g>
</svg>
