<svg version="1.1" viewBox="0 0 29.904 33.991" xmlns="http://www.w3.org/2000/svg">
 <g transform="translate(-19.363 -20.711)">
  <rect x="4.3148" y="7.7064" width="60" height="60" fill="none" stop-color="#000000" stroke-linecap="round" stroke-width=".11092"/>
  <g transform="translate(93.249 -7.7314)">
   <g fill="#ac9565">
    <path d="m-45.802 41.306a0.5489 0.5489 0 0 1-0.5489 0.5489 0.5489 0.5489 0 0 1-0.5489-0.5489 0.5489 0.5489 0 0 1 0.5489-0.5489 0.5489 0.5489 0 0 1 0.5489 0.5489z" stop-color="#000000"/>
    <path d="m-70.431 41.306a0.5489 0.5489 0 0 1-0.5489 0.5489 0.5489 0.5489 0 0 1-0.5489-0.5489 0.5489 0.5489 0 0 1 0.5489-0.5489 0.5489 0.5489 0 0 1 0.5489 0.5489z" stop-color="#000000"/>
   </g>
   <g transform="rotate(-15 -58.665 41.306)" fill="#ac9565">
    <path d="m-45.802 41.306a0.5489 0.5489 0 0 1-0.5489 0.5489 0.5489 0.5489 0 0 1-0.5489-0.5489 0.5489 0.5489 0 0 1 0.5489-0.5489 0.5489 0.5489 0 0 1 0.5489 0.5489z" stop-color="#000000"/>
    <path d="m-70.431 41.306a0.5489 0.5489 0 0 1-0.5489 0.5489 0.5489 0.5489 0 0 1-0.5489-0.5489 0.5489 0.5489 0 0 1 0.5489-0.5489 0.5489 0.5489 0 0 1 0.5489 0.5489z" stop-color="#000000"/>
   </g>
   <g transform="rotate(-30 -58.665 41.306)" fill="#ac9565">
    <path d="m-45.802 41.306a0.5489 0.5489 0 0 1-0.5489 0.5489 0.5489 0.5489 0 0 1-0.5489-0.5489 0.5489 0.5489 0 0 1 0.5489-0.5489 0.5489 0.5489 0 0 1 0.5489 0.5489z" stop-color="#000000"/>
    <path d="m-70.431 41.306a0.5489 0.5489 0 0 1-0.5489 0.5489 0.5489 0.5489 0 0 1-0.5489-0.5489 0.5489 0.5489 0 0 1 0.5489-0.5489 0.5489 0.5489 0 0 1 0.5489 0.5489z" stop-color="#000000"/>
   </g>
   <g transform="rotate(-45 -58.665 41.306)" fill="#ac9565">
    <path d="m-45.802 41.306a0.5489 0.5489 0 0 1-0.5489 0.5489 0.5489 0.5489 0 0 1-0.5489-0.5489 0.5489 0.5489 0 0 1 0.5489-0.5489 0.5489 0.5489 0 0 1 0.5489 0.5489z" stop-color="#000000"/>
    <path d="m-70.431 41.306a0.5489 0.5489 0 0 1-0.5489 0.5489 0.5489 0.5489 0 0 1-0.5489-0.5489 0.5489 0.5489 0 0 1 0.5489-0.5489 0.5489 0.5489 0 0 1 0.5489 0.5489z" stop-color="#000000"/>
   </g>
   <g transform="rotate(-60 -58.665 41.306)">
    <path d="m-45.802 41.306a0.5489 0.5489 0 0 1-0.5489 0.5489 0.5489 0.5489 0 0 1-0.5489-0.5489 0.5489 0.5489 0 0 1 0.5489-0.5489 0.5489 0.5489 0 0 1 0.5489 0.5489z" fill="#ac9565" stop-color="#000000"/>
   </g>
   <g transform="rotate(-75 -58.665 41.306)">
    <path d="m-45.802 41.306a0.5489 0.5489 0 0 1-0.5489 0.5489 0.5489 0.5489 0 0 1-0.5489-0.5489 0.5489 0.5489 0 0 1 0.5489-0.5489 0.5489 0.5489 0 0 1 0.5489 0.5489z" fill="#ac9565" stop-color="#000000"/>
   </g>
   <g transform="rotate(-90 -58.665 41.306)">
    <path d="m-45.802 41.306a0.5489 0.5489 0 0 1-0.5489 0.5489 0.5489 0.5489 0 0 1-0.5489-0.5489 0.5489 0.5489 0 0 1 0.5489-0.5489 0.5489 0.5489 0 0 1 0.5489 0.5489z" fill="#ac9565" stop-color="#000000"/>
   </g>
   <g transform="rotate(255 -58.665 41.306)">
    <path d="m-45.802 41.306a0.5489 0.5489 0 0 1-0.5489 0.5489 0.5489 0.5489 0 0 1-0.5489-0.5489 0.5489 0.5489 0 0 1 0.5489-0.5489 0.5489 0.5489 0 0 1 0.5489 0.5489z" fill="#ac9565" stop-color="#000000"/>
   </g>
   <g transform="rotate(240 -58.665 41.306)">
    <path d="m-45.802 41.306a0.5489 0.5489 0 0 1-0.5489 0.5489 0.5489 0.5489 0 0 1-0.5489-0.5489 0.5489 0.5489 0 0 1 0.5489-0.5489 0.5489 0.5489 0 0 1 0.5489 0.5489z" fill="#ac9565" stop-color="#000000"/>
   </g>
   <g transform="rotate(225 -58.665 41.306)" fill="#ac9565">
    <path d="m-45.802 41.306a0.5489 0.5489 0 0 1-0.5489 0.5489 0.5489 0.5489 0 0 1-0.5489-0.5489 0.5489 0.5489 0 0 1 0.5489-0.5489 0.5489 0.5489 0 0 1 0.5489 0.5489z" stop-color="#000000"/>
    <path d="m-70.431 41.306a0.5489 0.5489 0 0 1-0.5489 0.5489 0.5489 0.5489 0 0 1-0.5489-0.5489 0.5489 0.5489 0 0 1 0.5489-0.5489 0.5489 0.5489 0 0 1 0.5489 0.5489z" stop-color="#000000"/>
   </g>
   <g transform="rotate(210 -58.665 41.306)" fill="#ac9565">
    <path d="m-45.802 41.306a0.5489 0.5489 0 0 1-0.5489 0.5489 0.5489 0.5489 0 0 1-0.5489-0.5489 0.5489 0.5489 0 0 1 0.5489-0.5489 0.5489 0.5489 0 0 1 0.5489 0.5489z" stop-color="#000000"/>
    <path d="m-70.431 41.306a0.5489 0.5489 0 0 1-0.5489 0.5489 0.5489 0.5489 0 0 1-0.5489-0.5489 0.5489 0.5489 0 0 1 0.5489-0.5489 0.5489 0.5489 0 0 1 0.5489 0.5489z" stop-color="#000000"/>
   </g>
   <g transform="rotate(195 -58.665 41.306)" fill="#ac9565">
    <path d="m-45.802 41.306a0.5489 0.5489 0 0 1-0.5489 0.5489 0.5489 0.5489 0 0 1-0.5489-0.5489 0.5489 0.5489 0 0 1 0.5489-0.5489 0.5489 0.5489 0 0 1 0.5489 0.5489z" stop-color="#000000"/>
    <path d="m-70.431 41.306a0.5489 0.5489 0 0 1-0.5489 0.5489 0.5489 0.5489 0 0 1-0.5489-0.5489 0.5489 0.5489 0 0 1 0.5489-0.5489 0.5489 0.5489 0 0 1 0.5489 0.5489z" stop-color="#000000"/>
   </g>
  </g>
  <path d="m42.423 25.644-7.9712 7.9712 1.3988 1.3988 6.5727-6.5727z" fill="#ac9565" stop-color="#currentColor"/>
  <path d="m42.423 25.644h-2.797l-6.5727 6.5727 1.3985 1.3985z" fill="currentColor" fill-opacity=".26667" stop-color="#000000"/>
  <path d="m26.481 41.587 7.9712-7.9712-1.3988-1.3988-6.5727 6.5727z" fill="#ac9565" stop-color="#000000"/>
  <g fill="currentColor">
   <path d="m26.481 41.587 2.797-1e-6 6.5727-6.5727-1.3985-1.3985z" fill-opacity=".26667" stop-color="#000000"/>
   <g transform="matrix(1.0317 0 0 .96923 -154.93 -4.1698)" stroke-width=".23552" aria-label="PELORUS">
    <path d="m168.93 60.683v-4.5689h1.9692q0.33463 0 0.61777 0.14157 0.28315 0.13514 0.48264 0.36037 0.20592 0.21879 0.32175 0.50837 0.11583 0.28315 0.11583 0.57273 0 0.30245-0.10939 0.59203-0.1094 0.28314-0.30889 0.50838-0.19305 0.21879-0.4762 0.35393-0.27671 0.1287-0.61133 0.1287h-0.74648v1.4029zm1.2548-2.4968h0.66282q0.11583 0 0.21236-0.10296 0.10296-0.1094 0.10296-0.38611 0-0.28314-0.11583-0.38611t-0.23167-0.10296h-0.63064z"/>
    <path d="m176.2 59.589v1.094h-3.2562v-4.5689h3.1982v1.094h-1.9434v0.64351h1.6603v1.0167h-1.6603v0.72073z"/>
    <path d="m176.78 60.683v-4.5689h1.2548v3.475h2.0721v1.094z"/>
    <path d="m182.55 60.721q-0.52124 0-0.94596-0.19949t-0.72717-0.52124q-0.30245-0.32819-0.46977-0.74647-0.16731-0.41828-0.16731-0.86231 0-0.45046 0.17375-0.86874t0.48263-0.7336q0.31532-0.32176 0.74004-0.50837 0.43116-0.19305 0.93953-0.19305 0.52124 0 0.94596 0.19949t0.72717 0.52768 0.46333 0.74647q0.16731 0.41828 0.16731 0.85587 0 0.45046-0.17374 0.86874-0.17375 0.41185-0.48264 0.7336-0.30888 0.31532-0.74004 0.50837-0.42472 0.19305-0.93309 0.19305zm-1.036-2.3166q0 0.23166 0.0643 0.45046 0.0644 0.21236 0.19305 0.37967 0.1287 0.16731 0.32176 0.27028 0.19948 0.10296 0.46976 0.10296t0.46976-0.10296q0.19949-0.1094 0.32176-0.27671 0.1287-0.17375 0.18662-0.39254 0.0643-0.21879 0.0643-0.44402 0-0.23166-0.0643-0.44402-0.0644-0.21879-0.19949-0.37967-0.1287-0.16731-0.32819-0.26384-0.19306-0.10296-0.4569-0.10296-0.27027 0-0.46976 0.10296-0.19305 0.10296-0.32175 0.27671-0.12871 0.16731-0.19306 0.38611-0.0579 0.21236-0.0579 0.43759z"/>
    <path d="m185.41 60.683v-4.5689h2.0978q0.33463 0 0.61777 0.14157 0.28315 0.13514 0.48264 0.36037 0.20592 0.21879 0.32175 0.50837 0.11584 0.28315 0.11584 0.57273 0 0.39898-0.17375 0.74647-0.17375 0.34106-0.48264 0.55986l0.96527 1.6796h-1.4157l-0.80439-1.4029h-0.46977v1.4029zm1.2548-2.4968h0.79152q0.11583 0 0.21236-0.1287 0.10296-0.1287 0.10296-0.36037 0-0.2381-0.11583-0.36037-0.11583-0.1287-0.23166-0.1287h-0.75935z"/>
    <path d="m191.71 59.608q0.21879 0 0.37324-0.09653 0.15444-0.09653 0.25097-0.25097 0.0965-0.16088 0.14157-0.3668 0.045-0.20592 0.045-0.43115v-2.3488h1.2548v2.3488q0 0.4762-0.12227 0.89448-0.12226 0.41185-0.37967 0.7143-0.2574 0.30245-0.64994 0.4762-0.38611 0.17375-0.91379 0.17375-0.54699 0-0.93953-0.18018-0.38611-0.18662-0.63708-0.4955t-0.3668-0.7143q-0.11583-0.41185-0.11583-0.86874v-2.3488h1.2548v2.3488q0 0.22523 0.045 0.43759 0.0451 0.20592 0.14158 0.3668 0.0965 0.15444 0.24453 0.25097 0.15444 0.09009 0.37324 0.09009z"/>
    <path d="m197.27 57.607q-0.19306-0.11583-0.39898-0.20592-0.17375-0.07722-0.39254-0.14157-0.21236-0.07079-0.41829-0.07079-0.16731 0-0.27027 0.05148-0.0965 0.05148-0.0965 0.17375 0 0.09009 0.0579 0.14801 0.0579 0.05792 0.16731 0.1094 0.1094 0.04505 0.26384 0.09009 0.16088 0.04505 0.36037 0.1094 0.31532 0.09653 0.56629 0.21236 0.2574 0.11583 0.43759 0.27671 0.18018 0.15444 0.27671 0.37967 0.0965 0.22523 0.0965 0.54698 0 0.41185-0.15444 0.69499-0.14801 0.27671-0.39898 0.44402-0.24453 0.16731-0.55985 0.24454-0.30889 0.07079-0.62421 0.07079-0.25097 0-0.51481-0.03861t-0.52768-0.1094q-0.2574-0.07079-0.50194-0.16731-0.2381-0.09653-0.44402-0.21879l0.54055-1.1004q0.22523 0.14157 0.46976 0.25097 0.20593 0.09653 0.46333 0.17375 0.26384 0.07722 0.53412 0.07722 0.20592 0 0.28314-0.05148 0.0837-0.05792 0.0837-0.14801 0-0.09653-0.0837-0.16088-0.0772-0.07079-0.21879-0.12227-0.14158-0.05148-0.32819-0.10296-0.18019-0.05148-0.38611-0.12227-0.30245-0.10296-0.52125-0.21879-0.21879-0.12227-0.36036-0.27028-0.14158-0.15444-0.21236-0.3475-0.0643-0.19305-0.0643-0.44402 0-0.37967 0.13513-0.66925 0.14158-0.28958 0.37968-0.48263 0.2381-0.19305 0.54055-0.28958 0.30888-0.10296 0.64994-0.10296 0.25097 0 0.48907 0.05148 0.2381 0.04505 0.4569 0.12227 0.22523 0.07079 0.41828 0.16088 0.19305 0.08366 0.3475 0.16088z"/>
   </g>
   <g transform="matrix(.54536 0 0 .54536 -16.67 -51.083)">
    <g transform="matrix(.367 0 0 .367 22.822 85.614)" fill="currentColor">
     <g transform="matrix(1.0329 0 0 1.0329 103.14 74.915)" fill="currentColor">
      <path d="m27.732 175.76c-3.1676 0-5.7639 2.5963-5.7639 5.7639 0 3.1676 2.5963 5.7635 5.7639 5.7635 3.1676 0 5.7639-2.5958 5.7639-5.7635 0-3.1676-2.5962-5.7639-5.7639-5.7639zm0 2.6395c1.7412 0 3.1244 1.3832 3.1244 3.1244 0 1.7412-1.3832 3.1244-3.1244 3.1244s-3.1244-1.3832-3.1244-3.1244c0-1.7412 1.3832-3.1244 3.1244-3.1244z" color="currentColor" color-rendering="auto" dominant-baseline="auto" image-rendering="auto" shape-rendering="auto" solid-color="#000000" style="font-feature-settings:normal;font-variant-alternates:normal;font-variant-caps:normal;font-variant-ligatures:normal;font-variant-numeric:normal;font-variant-position:normal;isolation:auto;mix-blend-mode:normal;shape-padding:0;text-decoration-color:#000000;text-decoration-line:none;text-decoration-style:solid;text-indent:0;text-orientation:mixed;text-transform:none;white-space:normal"/>
      <path d="m14.236 186.43v-9.8172h2.6963v3.7333l2.9867-3.7333h3.0419l-3.5674 4.397 3.8163 5.4202h-3.0972l-2.4336-3.6089-0.74667 0.77432v2.8345z"/>
      <path d="m37.034 181.61v4.8256h-2.6963v-9.8172h2.1017l3.9407 4.9916v-4.9916h2.6963v9.8172h-2.1432z"/>
      <path d="m46.657 176.62 1.922 6.4296 1.8943-6.4296h2.8345l-3.6088 9.8172h-2.24l-3.6503-9.8172z"/>
      <path d="m61.051 184.08v2.3506h-6.9965v-9.8172h6.872v2.3506h-4.1758v1.3827h3.5674v2.1847h-3.5674v1.5486z"/>
      <path d="m64.301 176.62 1.756 4.2449 1.7975-4.2449h2.9313l-3.3876 6.5678v3.2494h-2.6825v-3.277l-3.3323-6.5402z"/>
      <path d="m82.156 186.43v-9.8172h4.5076q0.71902 0 1.3274 0.3042 0.60838 0.29036 1.037 0.77431 0.44245 0.47013 0.69134 1.0923 0.24889 0.60838 0.24889 1.2306 0 0.85729-0.37333 1.6039-0.37335 0.73284-1.037 1.203l2.074 3.6089h-3.0419l-1.7284-3.0143h-1.0094v3.0143zm2.6963-5.3649h1.7007q0.24889 0 0.45629-0.27652 0.22124-0.27655 0.22124-0.77433 0-0.5116-0.24889-0.77431-0.24887-0.27654-0.49776-0.27654h-1.6316z"/>
      <path d="m75.652 175.76c-3.1676 0-5.7639 2.5963-5.7639 5.7639 0 3.1676 2.5963 5.7635 5.7639 5.7635 3.1676 0 5.7639-2.5958 5.7639-5.7635 0-3.1676-2.5962-5.7639-5.7639-5.7639zm0 2.6395c1.7412 0 3.1244 1.3832 3.1244 3.1244 0 1.7412-1.3832 3.1244-3.1244 3.1244s-3.1244-1.3832-3.1244-3.1244c0-1.7412 1.3832-3.1244 3.1244-3.1244z" color="currentColor" color-rendering="auto" dominant-baseline="auto" image-rendering="auto" shape-rendering="auto" solid-color="#000000" style="font-feature-settings:normal;font-variant-alternates:normal;font-variant-caps:normal;font-variant-ligatures:normal;font-variant-numeric:normal;font-variant-position:normal;isolation:auto;mix-blend-mode:normal;shape-padding:0;text-decoration-color:#000000;text-decoration-line:none;text-decoration-style:solid;text-indent:0;text-orientation:mixed;text-transform:none;white-space:normal"/>
     </g>
    </g>
   </g>
  </g>
 </g>
</svg>
