<svg version="1.1" viewBox="0 0 24.696 36.051" xmlns="http://www.w3.org/2000/svg">
 <title>tackle</title>
 <g transform="translate(-.9913)" fill="none" fill-rule="evenodd">
  <g id="Artboard" transform="translate(-13,-15)" fill-rule="nonzero">
   <g id="tackle" transform="translate(13.991 15)">
    <g id="Group">
     <g transform="translate(0 31.561)" fill="currentColor">
      <polygon id="Path" points="2.6556 4.4532 1.361 4.4532 1.361 1.0851 0 1.0851 0 0.024812 4.01 0.024812 4.01 1.0851 2.6556 1.0851"/>
      <path id="Shape" d="m5.2687 0.024812h1.1817l1.6332 4.4283h-1.3146l-0.28548-0.86696h-1.2548l-0.27884 0.86696h-1.3212zm1.0091 2.7506-0.41826-1.3721-0.43818 1.3721z"/>
      <path d="m8.0233 2.2017c0-0.27027 0.053112-0.53639 0.15934-0.79835 0.11065-0.26196 0.26999-0.49689 0.47802-0.70479 0.20803-0.20791 0.46031-0.37631 0.75686-0.5052 0.29655-0.1289 0.63515-0.19335 1.0158-0.19335 0.45589 0 0.84979 0.089399 1.1817 0.2682 0.33638 0.17464 0.58646 0.40749 0.75022 0.69855l-0.98924 0.66113c-0.044225-0.10811-0.10397-0.19751-0.17925-0.2682-0.070823-0.070689-0.15049-0.12682-0.23901-0.1684s-0.18147-0.070686-0.27884-0.087318c-0.09295-0.016632-0.18368-0.024948-0.2722-0.024948-0.1859 0-0.34745 0.035345-0.48466 0.10603-0.13278 0.066528-0.24343 0.15593-0.33195 0.2682-0.084097 0.10811-0.14828 0.23285-0.19254 0.37423-0.039824 0.13722-0.059735 0.27443-0.059735 0.41165 0 0.15385 0.024348 0.30146 0.073044 0.44283 0.048696 0.14137 0.11951 0.26612 0.21245 0.37423 0.092949 0.10811 0.20581 0.19543 0.33859 0.26196 0.13721 0.062373 0.28991 0.09356 0.45811 0.09356 0.08852 0 0.17925-0.00832 0.2722-0.024948 0.09295-0.020793 0.18147-0.05198 0.26556-0.09356 0.08852-0.045741 0.16598-0.10188 0.23237-0.1684 0.07082-0.070689 0.12614-0.15593 0.16598-0.25572l1.0556 0.59253c-0.07082 0.16217-0.17925 0.3077-0.32532 0.4366-0.14163 0.1289-0.3054 0.23701-0.4913 0.32433-0.18147 0.087321-0.37843 0.15385-0.59088 0.19958-0.20803 0.045741-0.41162 0.068612-0.6108 0.068612-0.34966 0-0.67056-0.064451-0.96268-0.19335-0.28769-0.13306-0.53776-0.3077-0.75021-0.52392-0.20803-0.21622-0.36958-0.46155-0.48466-0.73598-0.11508-0.27443-0.17261-0.55303-0.17261-0.83578z"/>
      <polygon points="14.167 0.024909 14.167 1.7089 15.601 0.024909 17.062 0.024909 15.349 2.0083 17.181 4.4533 15.694 4.4533 14.525 2.8254 14.167 3.1747 14.167 4.4533 12.872 4.4532 12.872 0.024909"/>
      <polygon points="18.748 0.024909 18.748 3.393 20.885 3.393 20.885 4.4533 17.453 4.4532 17.453 0.024909"/>
      <polygon points="21.336 4.4532 21.336 0.024909 24.636 0.024909 24.636 1.0852 22.631 1.0852 22.631 1.709 24.344 1.709 24.344 2.6944 22.631 2.6944 22.631 3.3929 24.696 3.3929 24.696 4.4532"/>
     </g>
     <polygon points="16.624 9.8834 15.454 9.2076 15.454 0 16.624 0.67584" fill="#ac9565"/>
     <polygon points="7.8641 10.295 9.0347 9.6196 9.0347 0 7.8641 0.67584" fill="#ac9565"/>
     <path id="Combined-Shape" d="m12.279 4.069c1.4068 0 2.756 0.55876 3.7508 1.5535 0.99477 0.99477 1.5535 2.344 1.5535 3.7508-9.9e-5 0.42007-0.0501 0.83827-0.14869 1.2458l-0.08304 0.30355 0.0319 0.01078-2.5358 7.615c-0.30118 1.1725-1.3581 1.9922-2.5687 1.9922-1.2077 0-2.2549-0.81444-2.5622-1.9678l-0.038806-0.16702-2.488-7.4724 0.0183-0.0061c-0.15444-0.50358-0.23302-1.0274-0.23313-1.5541 0-1.4067 0.55868-2.7559 1.5534-3.7507 0.99468-0.99476 2.3438-1.5536 3.7505-1.5536zm0.30642 12.444c-0.06196-0.01838-1.0006 0.20645-1.0475 0.25091-0.04691 0.04445-0.32153 0.96975-0.30646 1.0326 0.0063 0.02619 0.12522 0.16307 0.26634 0.31519l0.17419 0.18374c0.14437 0.14903 0.27471 0.27511 0.30051 0.28277 0.06196 0.01839 1.0006-0.20645 1.0475-0.25091 0.04691-0.04445 0.32153-0.96975 0.30646-1.0326-0.01505-0.06284-0.67904-0.76331-0.74104-0.7817zm-1.7886-8.7035c-0.09381 0.0889-0.64305 1.9395-0.61291 2.0652 0.0301 0.1257 1.3582 1.5266 1.4821 1.5634 0.1239 0.03677 2.0012-0.41289 2.095-0.50182 0.0938-0.08889 0.64305-1.9395 0.61291-2.0652-0.0301-0.1257-1.3582-1.5266-1.4821-1.5634-0.1239-0.03678-2.0012 0.41289-2.095 0.50181z" fill="currentColor"/>
     <path d="m12.279 15.74c0.92934 0 1.6859 0.74015 1.7125 1.6631l-5.34e-4 0.22711c-6.6e-5 0.02866-1.38e-4 0.05978-2.14e-4 0.09321l-7.95e-4 0.35929c-9.9e-5 0.04597-2.01e-4 0.0938-3.05e-4 0.14336l-6.48e-4 0.3168c-1.11e-4 0.05585-2.23e-4 0.11312-3.36e-4 0.17167l-6.82e-4 0.36546c-1.13e-4 0.06307-2.25e-4 0.12712-3.37e-4 0.19201l-6.53e-4 0.39817c-1.05e-4 0.06764-2.07e-4 0.13582-3.07e-4 0.20439l-8.1e-4 0.62374c-7.8e-5 0.0696-1.51e-4 0.13914-2.2e-4 0.20849l-5.59e-4 1.195c0.63877 0.5156 1.0101 1.2924 1.0101 2.1133 0 1.5001-1.2162 2.7161-2.7163 2.7161s-2.6722-1.0628-2.6722-2.5629c0-0.20568-0.48586-0.17728-0.48586-0.61728 0-0.38663 0.36815-0.47787 0.5505-0.29552 0.17002 0.17046 0.36189 0.36276 0.54812 0.54939l0.42203 0.42288c0.25536 0.25585 0.43998 0.44076 0.44125 0.44193 0.4744 0.44782 1.1922 0.40776 1.6864-0.02464l0.09158-0.09067c0.3958-0.44186 0.35153-1.1461-0.06045-1.5891l-0.54146-0.54172c-0.06453-0.06455-0.13331-0.13334-0.20546-0.20551l-0.59095-0.59106c-0.20907-0.20911-0.42573-0.42579-0.63643-0.63652-0.19897-0.19898-0.25988-0.33435-0.25988-0.6532l5.72e-4 -2.9475c0.0334-0.91684 0.78721-1.6499 1.7122-1.6499zm0.30628 0.77257c-0.06196-0.01838-1.0006 0.20645-1.0475 0.25091-0.04691 0.04445-0.32153 0.96975-0.30646 1.0326 0.01505 0.06285 0.67913 0.76331 0.74104 0.7817 0.06196 0.01839 1.0006-0.20645 1.0475-0.25091 0.04691-0.04445 0.32153-0.96975 0.30646-1.0326-0.01505-0.06284-0.67904-0.76331-0.74104-0.7817z" fill="#ac9565"/>
     <g transform="translate(.008115 28.305)" fill="currentColor">
      <path d="m2.7901 0c-0.65484 0-1.1916 0.53674-1.1916 1.1916 0 0.65484 0.53674 1.1915 1.1916 1.1915 0.65484 0 1.1916-0.53663 1.1916-1.1915 0-0.65484-0.53672-1.1916-1.1916-1.1916zm0 0.54567c0.35996 0 0.64591 0.28595 0.64591 0.64591 0 0.35996-0.28595 0.64591-0.64591 0.64591-0.35996 0-0.64591-0.28595-0.64591-0.64591 0-0.35996 0.28595-0.64591 0.64591-0.64591z"/>
      <polygon points="0.55741 0.1763 0.55741 0.94809 1.1749 0.1763 1.8037 0.1763 1.0662 1.0853 1.8552 2.2058 1.2149 2.2058 0.71178 1.4598 0.55742 1.6198 0.55742 2.2058 -7.3446e-16 2.2058 -7.3446e-16 0.1763"/>
      <polygon points="4.1557 2.207 4.1557 0.17746 4.5902 0.17746 5.4048 1.2094 5.4048 0.17746 5.9622 0.17746 5.9622 2.207 5.5192 2.207 4.7131 1.2094 4.7131 2.207"/>
      <polygon points="7.4914 0.17779 8.0774 0.17779 7.3313 2.2073 6.8683 2.2073 6.1136 0.17779 6.7025 0.17779 7.0998 1.507"/>
      <polygon points="8.2318 2.206 8.2318 0.17643 9.6524 0.17643 9.6524 0.66237 8.7891 0.66237 8.7891 0.94822 9.5266 0.94822 9.5266 1.3999 8.7891 1.3999 8.7891 1.72 9.6782 1.72 9.6782 2.206"/>
      <polygon points="11.085 0.17779 11.691 0.17779 10.99 1.5356 10.99 2.2073 10.436 2.2073 10.436 1.5299 9.7469 0.17779 10.35 0.17779 10.713 1.0553"/>
      <path d="m14.041 2.2058v-2.0295h0.93186c0.0991 0 0.19057 0.020963 0.27442 0.062888 0.08385 0.040018 0.15531 0.093376 0.21438 0.16007 0.06098 0.064794 0.10862 0.14007 0.14292 0.22581 0.0343 0.083848 0.05145 0.16865 0.05145 0.2544 0 0.11815-0.02573 0.22868-0.07718 0.33158-0.05146 0.101-0.12292 0.1839-0.21438 0.2487l0.42876 0.74608h-0.62885l-0.35732-0.62315h-0.20868v0.62315zm0.55741-1.1091h0.35159c0.0343 0 0.06575-0.019055 0.09433-0.057165 0.03049-0.038115 0.04574-0.091474 0.04574-0.16008 0-0.070509-0.01715-0.12387-0.05145-0.16007-0.0343-0.038113-0.0686-0.05717-0.1029-0.05717h-0.3373z"/>
      <path d="m12.697 0c-0.65484 0-1.1916 0.53674-1.1916 1.1916 0 0.65484 0.53674 1.1915 1.1916 1.1915s1.1916-0.53663 1.1916-1.1915c0-0.65484-0.53672-1.1916-1.1916-1.1916zm0 0.54567c0.35996 0 0.64591 0.28595 0.64591 0.64591 0 0.35996-0.28595 0.64591-0.64591 0.64591s-0.64591-0.28595-0.64591-0.64591c0-0.35996 0.28595-0.64591 0.64591-0.64591z"/>
     </g>
    </g>
   </g>
  </g>
 </g>
</svg>
