<?xml version="1.0" encoding="UTF-8" standalone="no"?>
<!-- Created with Inkscape (http://www.inkscape.org/) -->

<svg
   version="1.1"
   id="svg2"
   width="855.49335"
   height="312.10666"
   viewBox="0 0 855.49335 312.10666"
   sodipodi:docname="CLARANET + MMH - main logo.eps"
   xmlns:inkscape="http://www.inkscape.org/namespaces/inkscape"
   xmlns:sodipodi="http://sodipodi.sourceforge.net/DTD/sodipodi-0.dtd"
   xmlns="http://www.w3.org/2000/svg"
   xmlns:svg="http://www.w3.org/2000/svg">
  <defs
     id="defs6" />
  <sodipodi:namedview
     id="namedview4"
     pagecolor="#ffffff"
     bordercolor="#000000"
     borderopacity="0.25"
     inkscape:showpageshadow="2"
     inkscape:pageopacity="0.0"
     inkscape:pagecheckerboard="0"
     inkscape:deskcolor="#d1d1d1" />
  <g
     id="g8"
     inkscape:groupmode="layer"
     inkscape:label="ink_ext_XXXXXX"
     transform="matrix(1.3333333,0,0,-1.3333333,0,312.10667)">
    <g
       id="g10"
       transform="scale(0.1)">
      <path
         d="m 6320.09,473.16 c -43.81,0 -80.08,36.93 -80.08,81.789 0,44.86 36.27,81.781 80.08,81.781 43.81,0 79.57,-36.921 79.57,-81.781 0,-44.859 -35.66,-81.789 -79.57,-81.789 z m 0,180.692 c -53.08,0 -96.38,-43.832 -96.38,-98.493 0,-54.66 42.99,-99.109 96.38,-99.109 53.39,0 96.08,44.352 96.08,99.109 0,54.762 -43,98.493 -96.08,98.493 v 0"
         style="fill:#e21d25;fill-opacity:1;fill-rule:nonzero;stroke:none"
         id="path12" />
      <path
         d="m 6314.79,557.012 h -11 v 29.699 h 16.3 -0.31 c 8.97,0 17.43,-4.02 17.43,-14.441 0,-14.129 -11.82,-15.258 -22.52,-15.258 z m 40.45,14.949 c 0,6.301 -1.43,12.687 -5.91,18.16 -7.34,9.789 -16.81,11.551 -28.43,11.551 h -34.02 v -94.274 h 17.11 v 35.172 h 15.49 l 18.03,-35.172 h 19.97 L 6337,545.77 c 11.52,3.511 18.24,13.82 18.24,26.191 v 0"
         style="fill:#e21d25;fill-opacity:1;fill-rule:nonzero;stroke:none"
         id="path14" />
      <path
         d="m 456.035,1031.81 c 159.957,0 341.926,90.24 413.957,293 L 643.91,1370.09 C 615.992,1294.9 599.793,1242.1 460.008,1242.1 v -0.31 c -145.391,0 -231.684,121.18 -231.684,290.32 0,188.21 101.274,291.34 228.016,291.34 126.746,0 172.898,-60.23 189.508,-122.52 l 215.382,56.52 C 813.445,1866.66 695.566,2023.22 463.879,2023.22 202.445,2023.53 0,1814.27 0,1526.64 0,1239 200.508,1031.81 456.035,1031.81 v 0"
         style="fill:#e21d25;fill-opacity:1;fill-rule:nonzero;stroke:none"
         id="path16" />
      <path
         d="m 954.25,2340.76 h 228.73 V 1053.57 H 954.25 v 1287.19 0"
         style="fill:#e21d25;fill-opacity:1;fill-rule:nonzero;stroke:none"
         id="path18" />
      <path
         d="m 1890.98,1336.36 c -23.95,-56.52 -103.21,-112.31 -215.08,-112.31 -87.62,0 -148.04,37.75 -148.04,111.28 0,100.04 110.54,123.24 188.18,139.54 104.23,21.76 187.57,39.18 187.57,39.18 v -92.61 c 0,-28.56 0,-56.82 -12.63,-85.08 z m 7.33,-282.79 h 225.37 v 613.95 c 0,101.79 -19.26,227.71 -127.76,295.78 h -1.02 c -81,48.99 -168.93,60.23 -256.96,60.23 -58.37,0 -258.58,0 -346.91,-164.08 -28.83,-53.74 -33.22,-92.62 -36.48,-138.82 h 226.09 c 0.3,21.45 2.95,42.9 22.21,67.03 21.9,29.91 53.08,60.23 144.67,60.23 152.01,0 157.62,-103.44 157.62,-150.78 -101.28,-22.79 -76.72,-17.32 -255.22,-56.82 -108.51,-23.83 -248.3,-52.81 -314.62,-188.22 -18.24,-37.74 -29.24,-81.37 -29.24,-128.29 0,-162.02 125.11,-293 332.24,-293 126.13,0 212.43,54.14 259.91,95.29 v -72.5 h 0.1 v 0"
         style="fill:#e21d25;fill-opacity:1;fill-rule:nonzero;stroke:none"
         id="path20" />
      <path
         d="m 3287.1,1474.97 c 104.23,21.76 187.57,39.19 187.57,39.19 v -92.61 c 0,-28.57 0,-56.83 -12.64,-85.09 -23.94,-56.51 -103.21,-112.31 -215.07,-112.31 -87.63,0 -148.04,37.75 -148.04,111.28 0,100.04 110.54,123.25 188.18,139.54 z m -78.35,-444.19 c 126.13,0 212.43,54.14 259.6,95.29 v -72.5 h 225.37 v 613.95 c 0,101.79 -18.95,227.71 -127.76,295.78 -81,48.99 -168.93,60.23 -256.96,60.23 -58.38,0 -258.58,0 -346.91,-164.08 -28.84,-53.74 -32.91,-92.62 -36.48,-138.82 h 225.68 c 0.3,21.45 2.95,42.9 22.21,67.03 21.9,29.91 53.08,60.23 144.37,60.23 152.01,0 157.61,-103.44 157.61,-150.78 -100.86,-22.79 -76.72,-17.32 -255.22,-56.82 -108.5,-23.83 -248.29,-52.81 -314.62,-188.22 -18.23,-37.74 -29.24,-81.37 -29.24,-128.29 0,-162.02 125.12,-293 332.25,-293 h 0.1"
         style="fill:#e21d25;fill-opacity:1;fill-rule:nonzero;stroke:none"
         id="path22" />
      <path
         d="m 2545.28,1439.9 c 0,233.8 51.45,276.4 95.57,307.34 70.7,49.4 198.47,36.4 198.47,36.4 v 230.4 c -230.98,0 -294.14,-127.27 -294.14,-127.27 v -0.31 116.75 h -228.73 v -949.22 h 228.73 v 385.91 h 0.1 v 0"
         style="fill:#e21d25;fill-opacity:1;fill-rule:nonzero;stroke:none"
         id="path24" />
      <path
         d="m 6128.04,1384.42 v 451.61 h 171.98 v 167.08 h -171.98 v 337.65 h -222.41 v -337.65 h -123.79 v -167.08 h 123.79 v -488.02 c 0,-95.6 0,-156.86 14.98,-194.71 42.48,-116.02 198.16,-121.8 244.62,-121.8 36.17,0 78.66,7.84 137.75,13.31 v 188.52 c -31.89,-1.34 -54.81,-1.75 -69.38,-1.75 -105.56,0 -105.56,34.34 -105.56,152.84 v 0"
         style="fill:#e21d25;fill-opacity:1;fill-rule:nonzero;stroke:none"
         id="path26" />
      <path
         d="m 4472.12,1639.67 v -586.41 h 214.77 V 1654 c 0,51.36 0,100.77 -14.98,150.48 -42.79,144.59 -171.88,219.15 -310.85,219.15 -90.88,0 -187.36,-44.24 -254.71,-113.03 v 92.61 h -221.39 v -949.53 h 220.78 v 477.8 c 0,6.5 0.71,105.2 0.71,111.59 0,98.39 74.07,185.13 191.85,185.13 101.58,0 173.92,-64.67 173.92,-188.53 h -0.1"
         style="fill:#e21d25;fill-opacity:1;fill-rule:nonzero;stroke:none"
         id="path28" />
      <path
         d="m 5268.04,1850.06 c 190.22,0 229.64,-199.46 229.64,-199.46 h -446.76 c 0,0 26.9,199.46 217.12,199.46 z m 35.86,-817.53 c 187.16,0 302.7,71.47 416.2,228.75 l -159.35,123.24 c -27.51,-39.5 -110.24,-146.03 -260.52,-146.03 -150.28,0 -242.99,99 -269.48,239.99 l 689.45,0.72 c 0,334.25 -177.28,544.84 -446.46,544.84 l -0.3,-0.31 c -261.23,-3.4 -454.1,-199.45 -454.1,-487.71 0,-18.77 3.97,-57.85 3.97,-57.85 27.2,-304.66 254.92,-445.53 480.59,-445.53 v -0.11"
         style="fill:#e21d25;fill-opacity:1;fill-rule:nonzero;stroke:none"
         id="path30" />
      <path
         d="M 366.898,221.422 209.691,617.449 H 167.918 V 165.832 h 37.293 L 199.809,549.07 351.105,165.832 h 29.344 L 528.184,549.07 524.922,165.832 h 37.391 v 451.617 h -42.18 L 366.898,221.422 v 0 0"
         style="fill:#e21d25;fill-opacity:1;fill-rule:nonzero;stroke:none"
         id="path32" />
      <path
         d="m 1121.35,355.59 127.77,125.101 h -47.79 L 1029.45,315.27 V 617.551 H 992.367 V 165.52 h 37.393 v 100.14 l 65.51,63.84 117.68,-163.871 h 46.15 L 1121.35,355.59 v 0 0"
         style="fill:#e21d25;fill-opacity:1;fill-rule:nonzero;stroke:none"
         id="path34" />
      <path
         d="m 1335.92,355.488 c 3.87,29.192 14.47,52.391 31.59,70.442 17.11,18.05 39.63,26.808 67.44,26.808 27.82,0 49.72,-9.168 65.52,-26.808 15.79,-18.051 25.47,-41.25 28.73,-70.442 h -193.58 0.3 v 0 z m 237.39,-31.449 c 0,44.859 -12.22,83.531 -36.78,115.301 -24.55,31.762 -58.68,47.441 -101.58,47.441 -42.89,0 -77.12,-15.679 -102.59,-46.82 -25.47,-31.152 -38.41,-68.789 -38.41,-113.352 h 0.3 c 0,-48.468 12.53,-88.07 37.39,-119.527 24.86,-31.141 60.62,-46.82 107.08,-46.82 63.27,0 108.1,29.808 134.19,89.418 l -35.46,10.832 c -20.99,-43.942 -53.18,-65.801 -96.79,-65.801 -35.15,0 -61.64,11.141 -79.06,33.719 -17.73,22.59 -26.49,52.39 -26.49,89.109 v 6.602 h 238.1 l 0.1,-0.102 v 0"
         style="fill:#e21d25;fill-opacity:1;fill-rule:nonzero;stroke:none"
         id="path36" />
      <path
         d="m 2595.71,233.18 c -16.1,-25.27 -41.98,-37.75 -76.41,-37.75 -32.61,0 -57.06,12.172 -72.54,36.101 -15.8,23.918 -23.54,53.828 -23.54,88.899 l -0.61,0.308 c 0,24.641 2.85,46.301 8.35,65.282 5.5,19.082 16.41,35.48 31.89,49.191 15.8,13.41 35.76,20.32 60.32,20.32 33.52,0 57.77,-12.48 73.56,-37.441 15.79,-24.961 23.53,-54.141 23.53,-91.578 0,-37.442 -8.04,-68.582 -24.55,-93.543 z m -70.61,255.039 c -45.84,0 -80.99,-15.778 -105.45,-47.539 -24.45,-31.77 -36.78,-71.578 -36.78,-119.43 l -0.3,-0.309 c 0,-45.269 12.22,-83.332 36.47,-114.16 24.56,-30.531 58.08,-46 101.58,-46 43.51,0 78.04,16.09 102.9,48.258 24.86,31.871 37.4,70.859 37.4,115.82 0,44.969 -11.92,83.332 -35.46,115.512 -23.53,32.18 -57.05,47.949 -100.36,47.949 v -0.101"
         style="fill:#e21d25;fill-opacity:1;fill-rule:nonzero;stroke:none"
         id="path38" />
      <path
         d="m 2945.17,279.172 c -2.54,-13.922 -6.41,-27.434 -12.53,-41.043 -6.11,-13.508 -15.48,-23.828 -27.71,-31.047 -12.23,-7.32 -27.41,-10.934 -45.44,-10.934 -16.81,0 -31.28,3.614 -43.91,11.243 -12.23,7.64 -21.91,17.539 -28.43,30.429 -6.72,12.578 -11.61,26.09 -14.47,40.321 -3.26,14.23 -4.48,29.39 -4.48,45.691 v 0.309 c 0,34.031 7.74,63.839 23.23,89.621 15.49,25.777 38.72,38.668 69.38,38.668 18.75,0 34.85,-4.95 48.7,-14.539 26.49,-17.532 39.33,-54.551 39.33,-110.762 0,-18.149 -1.32,-34.027 -3.56,-47.957 z m 2.86,151.808 c -6.12,18.149 -17.43,32.079 -34.24,41.668 -16.81,9.59 -35.15,14.231 -55.12,14.231 -41.26,0 -73.56,-16.188 -96.79,-48.57 -23.23,-32.387 -34.84,-70.34 -34.84,-114.27 0,-32.391 6.11,-62.09 17.42,-89.207 11.31,-27.133 28.43,-45.793 53.59,-59.41 17.73,-9.902 38.92,-15.16 57.98,-15.16 20.27,0 38.51,5.879 56.24,17.84 17.72,11.859 29.75,25.988 35.86,45.179 v -57.652 h 37.08 v 451.82 h -37.08 V 430.98 h -0.1 v 0"
         style="fill:#e21d25;fill-opacity:1;fill-rule:nonzero;stroke:none"
         id="path40" />
      <path
         d="m 3104.22,355.488 c 3.87,29.192 14.46,52.391 31.58,70.442 17.12,18.05 39.63,26.808 67.45,26.808 27.81,0 49.72,-9.168 65.51,-26.808 15.79,-18.051 25.47,-41.25 28.73,-70.442 h -193.58 0.31 v 0 z m 237.39,-31.449 c 0,44.859 -12.23,83.531 -36.78,115.301 -24.56,31.762 -58.69,47.441 -101.58,47.441 -42.9,0 -77.13,-15.679 -102.6,-46.82 -25.47,-31.152 -38.41,-68.789 -38.41,-113.352 h 0.3 c 0,-48.468 12.54,-88.07 37.4,-119.527 24.86,-31.141 60.62,-46.82 107.08,-46.82 63.27,0 108.1,29.808 134.18,89.418 l -35.46,10.832 c -20.99,-43.942 -53.18,-65.801 -96.79,-65.801 -35.15,0 -61.64,11.141 -79.06,33.719 -17.73,22.59 -26.49,52.39 -26.49,89.109 v 6.602 h 238.1 l 0.11,-0.102 v 0"
         style="fill:#e21d25;fill-opacity:1;fill-rule:nonzero;stroke:none"
         id="path42" />
      <path
         d="m 3549.04,486.781 c -40.65,0 -69.07,-18.152 -85.48,-55.281 v 49.191 h -37.08 V 165.52 h 36.78 v 135.718 c 0,2.274 -0.31,9.801 -0.31,20.012 v 21.449 c 0.31,3.61 0.61,9.903 1.02,18.883 0,30.828 13.86,51.867 17.42,57.227 3.57,5.261 8.05,9.902 13.25,14.242 13.55,12.578 31.28,18.871 53.18,18.871 8.66,0 17.42,-0.621 26.49,-1.961 v 34.758 c -8.66,1.34 -17.12,1.953 -25.17,1.953 l -0.1,0.109"
         style="fill:#e21d25;fill-opacity:1;fill-rule:nonzero;stroke:none"
         id="path44" />
      <path
         d="m 3774.21,486.879 c -21.91,0 -41.57,-4.949 -58.99,-15.879 -17.43,-10.93 -29.65,-26.09 -37.09,-46.309 v 55.899 h -37.09 V 165.629 h 37.7 v 137.68 c 0,1.652 -0.3,7.941 -0.3,18.871 v 20.519 c 0,44.449 14.46,66.52 18.03,71.473 3.57,4.949 7.74,9.898 12.53,14.848 15.49,15.582 35.46,23.109 60.93,23.109 19.05,0 34.23,-4.34 45.85,-13.207 6.11,-4.953 11.31,-10.621 15.18,-16.91 3.56,-6.293 6.42,-14.231 7.74,-23.821 1.33,-9.902 2.24,-16.921 2.24,-21.453 0.31,-4.636 0.31,-12.898 0.31,-24.449 v -186.66 h 37.7 v 98.07 c 0.3,43.012 0.3,75.391 0.3,96.949 0,84.364 -34.84,126.332 -105.14,126.332 l 0.1,-0.101"
         style="fill:#e21d25;fill-opacity:1;fill-rule:nonzero;stroke:none"
         id="path46" />
      <path
         d="m 2209.21,486.879 c -21.9,0 -41.56,-4.949 -58.99,-15.879 -16.91,-10.621 -36.57,-32.59 -44.42,-52.289 -13.65,45.379 -46.05,68.168 -97.71,68.168 -21.9,0 -41.56,-4.949 -58.99,-15.879 -17.42,-10.93 -27.4,-21.66 -37.08,-42.391 v 51.981 h -37.09 V 165.629 h 37.7 v 137.68 c 0,1.652 -0.31,7.941 -0.31,18.871 v 20.519 c 0,44.449 14.47,66.52 18.04,71.473 3.56,4.949 7.74,9.898 12.53,14.848 15.49,15.582 35.45,23.109 60.93,23.109 19.05,0 34.23,-4.34 45.84,-13.207 6.12,-4.953 11.31,-10.621 15.18,-16.91 3.57,-6.293 6.42,-14.231 7.75,-23.821 1.32,-9.902 2.24,-16.921 2.24,-21.453 0.3,-4.636 0.3,-12.898 0.3,-24.449 v -186.66 h 37.7 0.82 v 137.68 c 0,1.652 -0.31,7.941 -0.31,18.871 v 20.519 c 0,44.449 14.47,66.52 18.04,71.473 3.56,4.949 7.74,9.898 12.53,14.848 15.48,15.582 35.45,23.109 60.92,23.109 19.06,0 34.24,-4.34 45.85,-13.207 6.11,-4.953 11.31,-10.621 15.18,-16.91 3.57,-6.293 6.42,-14.231 7.75,-23.821 1.32,-9.902 2.24,-16.921 2.24,-21.453 0.3,-4.636 0.3,-12.898 0.3,-24.449 v -186.66 h 37.7 v 98.07 c 0.31,43.012 0.31,75.391 0.31,96.949 0,84.364 -34.85,126.332 -105.15,126.332 l 0.2,-0.101"
         style="fill:#e21d25;fill-opacity:1;fill-rule:nonzero;stroke:none"
         id="path48" />
      <path
         d="m 6014.44,486.879 c -21.91,0 -41.57,-4.949 -59,-15.879 -17.42,-10.93 -29.64,-26.09 -37.08,-46.309 v 55.899 h -37.09 V 165.629 h 37.7 v 137.68 c 0,1.652 -0.31,7.941 -0.31,18.871 v 20.519 c 0,44.449 14.47,66.52 18.04,71.473 3.56,4.949 7.74,9.898 12.53,14.848 15.49,15.582 35.46,23.109 60.93,23.109 19.05,0 34.23,-4.34 45.85,-13.207 6.11,-4.953 11.3,-10.621 15.18,-16.91 3.56,-6.293 6.41,-14.231 7.74,-23.821 1.32,-9.902 2.24,-16.921 2.24,-21.453 0.31,-4.636 0.31,-12.898 0.31,-24.449 v -186.66 h 37.69 v 98.07 c 0.31,43.012 0.31,75.391 0.31,96.949 0,84.364 -34.85,126.332 -105.15,126.332 l 0.11,-0.101"
         style="fill:#e21d25;fill-opacity:1;fill-rule:nonzero;stroke:none"
         id="path50" />
      <path
         d="m 4412.71,456.461 c -18.03,20.211 -43.91,30.418 -76.82,30.418 -45.13,0 -77.13,-18.559 -95.47,-55.899 v 186.571 h -38.41 V 165.629 h 38.72 v 172.43 c 0,2.273 0.31,7.32 0.31,14.543 0.3,7.628 0.61,12.886 1.32,16.187 0.61,3.313 1.32,7.949 2.55,14.551 1.32,6.601 2.54,11.551 4.48,14.851 1.94,3.61 4.18,7.629 6.42,12.579 2.24,4.949 5.19,9.281 8.66,13.199 3.26,3.922 7.13,7.633 11.31,10.929 14.16,11.551 32.3,17.231 54.51,17.231 27.1,0 45.84,-7.949 56.44,-23.52 10.29,-15.879 15.79,-38.05 15.79,-67.14 v -195.84 h 37.09 v 208.84 c 0,34.441 -9.07,61.883 -27.1,81.992 h 0.2"
         style="fill:#e21d25;fill-opacity:1;fill-rule:nonzero;stroke:none"
         id="path52" />
      <path
         d="m 5076.49,265.25 c -6.12,-18.871 -16.41,-35.371 -31.59,-48.988 -15.18,-13.512 -33.21,-20.524 -55.12,-20.524 -30.66,0 -52.57,11.551 -66.12,34.453 -13.24,22.789 -19.97,50.938 -19.97,84.047 l -0.3,-0.308 c 0,18.152 1.02,34.031 2.85,47.961 1.93,13.507 5.81,28.148 11.31,43 5.81,15.257 14.47,26.507 26.49,34.757 12.22,8.25 27.1,12.274 45.13,12.274 32.91,0 57.06,-12.274 72.95,-36.102 15.79,-23.82 23.54,-53.629 23.54,-89.308 0,-21.864 -3.26,-42.282 -9.07,-61.16 z m -80.29,221.629 c -44.83,0 -75.49,-19.18 -92.61,-57.238 V 480.59 H 4866.5 V 0 h 37.09 v 219.25 c 6.42,-19.488 18.03,-33 35.35,-43.52 17.32,-10.519 38.21,-15.16 59.1,-15.16 40.04,0 71.52,16.61 93.42,50.02 21.91,33.422 32.3,68.789 32.3,113.14 0,44.34 -11.31,82.711 -33.21,114.782 -22.21,32.386 -53.59,48.269 -94.55,48.269 l 0.2,0.098"
         style="fill:#e21d25;fill-opacity:1;fill-rule:nonzero;stroke:none"
         id="path54" />
      <path
         d="m 5412.1,265.25 c -6.12,-18.871 -16.41,-35.371 -31.59,-48.988 -15.18,-13.512 -33.21,-20.524 -55.12,-20.524 -30.67,0 -52.57,11.551 -66.12,34.453 -13.25,22.789 -19.97,50.938 -19.97,84.047 l -0.31,-0.308 c 0,18.152 1.02,34.031 2.86,47.961 1.93,13.507 5.8,28.148 11.31,43 5.8,15.257 14.46,26.507 26.49,34.757 12.22,8.25 27.1,12.274 45.13,12.274 32.91,0 57.06,-12.274 72.95,-36.102 15.79,-23.82 23.53,-53.629 23.53,-89.308 0,-21.864 -3.26,-42.282 -9.06,-61.16 z m -80.29,221.629 c -44.83,0 -75.5,-19.18 -92.61,-57.238 v 50.949 h -37.09 V 0 h 37.09 v 219.25 c 6.42,-19.488 18.03,-33 35.35,-43.52 17.32,-10.519 38.21,-15.16 59.09,-15.16 40.04,0 71.53,16.61 93.43,50.02 21.91,33.422 32.3,68.789 32.3,113.14 0,44.34 -11.31,82.711 -33.21,114.782 -22.22,32.386 -53.6,48.269 -94.55,48.269 l 0.2,0.098"
         style="fill:#e21d25;fill-opacity:1;fill-rule:nonzero;stroke:none"
         id="path56" />
      <path
         d="m 5565.23,355.59 c 3.87,29.09 14.47,52.289 31.58,70.34 17.12,17.941 39.63,26.808 67.45,26.808 27.81,0 49.72,-9.168 65.51,-26.808 15.79,-17.942 25.47,-41.25 28.73,-70.34 h -193.58 0.31 v 0 z m 237.39,-31.352 c 0,44.762 -12.23,83.442 -36.78,115.102 -24.56,31.762 -58.69,47.441 -101.58,47.441 -42.89,0 -77.13,-15.679 -102.6,-46.722 -25.47,-31.039 -38.41,-68.688 -38.41,-113.137 h 0.31 c 0,-48.371 12.53,-87.973 37.39,-119.32 24.86,-31.043 60.62,-46.723 107.08,-46.723 63.27,0 108.1,29.812 134.18,89.312 l -35.45,10.829 c -20.99,-43.829 -53.19,-65.688 -96.79,-65.688 -35.15,0 -61.65,11.137 -79.07,33.719 -17.72,22.59 -26.49,52.289 -26.49,89 v 6.5 h 238.11 l 0.1,-0.313 v 0"
         style="fill:#e21d25;fill-opacity:1;fill-rule:nonzero;stroke:none"
         id="path58" />
      <path
         d="m 4721.11,318.879 v -15.16 c 0,-20.731 -2.24,-36.918 -6.72,-47.75 -7.44,-18.149 -20.99,-33.309 -40.65,-44.758 -19.66,-11.449 -40.04,-17.121 -60.62,-17.121 -16.1,0 -30.36,4.64 -41.98,13.512 -11.61,8.867 -17.42,21.757 -17.42,38.57 0,13.816 6.42,26.297 19.05,37.226 4.48,3.301 13.55,7.942 27.41,13.204 14.16,5.257 28.02,9.898 41.57,13.507 13.85,3.61 29.65,7.942 47.07,12.891 17.73,4.648 28.42,7.531 32.29,8.871 v -12.891 -0.101 z m -22.21,160.062 c -17.72,5.258 -35.15,7.938 -52.26,7.938 -66.43,0 -108.1,-27.641 -115.03,-96.738 l 39.43,0.519 c 1.94,19.488 8.15,34.141 18.95,43.828 13.24,11.864 29.24,17.742 56.04,17.742 26.79,0 44.21,-5.57 56.44,-16.5 12.23,-11.242 18.75,-28.98 18.75,-54.351 v -16.09 l -35.46,-8.867 c -2.55,-0.313 -6.72,-1.34 -12.94,-2.684 -19.97,-4.949 -37.08,-9.179 -51.65,-12.886 -14.17,-3.301 -30.67,-9.18 -48.4,-16.813 -18.03,-7.949 -31.89,-18.461 -41.57,-31.98 -9.98,-13.508 -14.87,-28.981 -14.87,-46.399 0,-27.019 9.06,-48.058 27.4,-62.91 18.34,-14.859 40.96,-22.379 68.37,-22.379 36.78,0 65.51,9.899 85.79,29.289 8.35,7.942 15.79,19.07 22.92,33.309 v -57.34 h 37.09 V 379.73 l 0.3,-1.031 c 0,34.961 -6.42,60.223 -19.36,75.801 -9.06,10.832 -22.21,19.078 -40.04,24.34 l 0.1,0.101"
         style="fill:#e21d25;fill-opacity:1;fill-rule:nonzero;stroke:none"
         id="path60" />
      <path
         d="m 840.969,318.879 v -15.16 c 0,-20.731 -2.242,-36.918 -6.727,-47.75 -7.437,-18.149 -20.988,-33.309 -40.652,-44.758 -19.66,-11.449 -40.039,-17.121 -60.621,-17.121 -16.098,0 -30.36,4.64 -41.977,13.512 -11.613,8.867 -17.422,21.757 -17.422,38.57 0,13.816 6.418,26.297 19.055,37.226 4.48,3.301 13.551,7.942 27.406,13.204 14.16,5.257 28.02,9.898 41.571,13.507 13.855,3.61 29.648,7.942 47.07,12.891 17.726,4.648 28.426,7.531 32.297,8.871 v -12.891 -0.101 z m -22.211,160.062 c -17.731,5.258 -35.153,7.938 -52.27,7.938 -66.425,0 -108.097,-27.641 -115.023,-96.738 l 39.426,0.519 c 1.937,19.488 8.152,34.141 18.953,43.828 13.242,11.864 29.238,17.742 56.035,17.742 26.797,0 44.219,-5.57 56.445,-16.5 12.227,-11.242 18.746,-28.98 18.746,-54.351 v -16.09 l -35.457,-8.867 c -2.547,-0.313 -6.722,-1.34 -12.937,-2.684 -19.973,-4.949 -37.086,-9.179 -51.656,-12.886 -14.165,-3.301 -30.668,-9.18 -48.395,-16.813 -18.035,-7.949 -31.891,-18.461 -41.57,-31.98 -9.985,-13.508 -14.875,-28.981 -14.875,-46.399 0,-27.019 9.07,-48.058 27.406,-62.91 18.34,-14.859 40.957,-22.379 68.363,-22.379 36.781,0 65.516,9.899 85.789,29.289 8.356,7.942 15.793,19.07 22.922,33.309 v -57.34 h 37.09 V 379.73 l 0.305,-1.031 c 0,34.961 -6.418,60.223 -19.36,75.801 -9.066,10.832 -22.211,19.078 -40.039,24.34 l 0.102,0.101"
         style="fill:#e21d25;fill-opacity:1;fill-rule:nonzero;stroke:none"
         id="path62" />
    </g>
  </g>
</svg>
