<svg width="229.43mm" height="27.364mm" version="1.1" viewBox="0 0 229.43 27.364" xmlns="http://www.w3.org/2000/svg">
 <g transform="translate(-35.719 -49.062)">
  <path d="m248.26 49.062h5.3854v11.062h0.21911c0.6904-2.0009 2.2917-3.6752 5.3123-3.6752 3.8943 0 5.9683 2.7657 5.9683 7.5696v11.971h-5.3854v-11.534c0-2.4378-0.69177-3.6394-2.6569-3.6394-1.7474 0-3.4575 0.90951-3.4575 2.8016v12.372h-5.3854zm-20.013 17.356c0-6.113 3.1654-9.9701 8.9145-9.9701 3.8571 0 6.514 1.8562 7.6426 4.9857l-4.367 1.892c-0.32797-1.4552-1.3836-2.6196-3.2756-2.6196-2.1828 0-3.3114 1.5641-3.3114 3.966v3.5664c0 2.4019 1.1286 3.966 3.3114 3.966 2.147 0 3.0207-1.3463 3.5664-2.8746l4.1851 1.819c-1.2733 3.6394-4.0032 5.2765-7.7515 5.2765-5.7492 0-8.9145-3.893-8.9145-10.007m-13.319 9.5705v-19.104h5.3854v4.1493h0.1819c0.43684-2.1112 1.892-4.1493 4.8769-4.1493h0.94533v5.0216h-1.3463c-3.1295 0-4.6578 0.69178-4.6578 2.9118v11.17zm-10.771-5.785v-2.2558h-2.6196c-2.074 0-3.1667 0.76343-3.1667 2.147v0.5457c0 1.3822 0.91088 2.0367 2.5122 2.0367 1.7818 0 3.2742-0.7276 3.2742-2.4736m4.1851 5.785c-1.9293 0-3.3114-1.3091-3.6394-3.3473h-0.21773c-0.58291 2.475-2.6927 3.7841-5.6045 3.7841-3.8199 0-5.9311-2.2558-5.9311-5.5673 0-4.039 3.1295-5.9683 8.1869-5.9683h3.0207v-1.2003c0-1.8562-0.90951-3.0207-3.1654-3.0207-2.147 0-3.2756 1.0914-4.1121 2.2572l-3.2026-2.8388c1.5282-2.2558 3.7124-3.6394 7.7143-3.6394 5.3854 0 8.1511 2.475 8.1511 6.9867v8.3702h1.7832v4.1837zm-30.202-11.644v0.29214h6.6945v-0.32797c0-2.3289-1.0542-3.893-3.2012-3.893-2.147 0-3.4933 1.5641-3.4933 3.9288m-5.5673 2.0739c0-6.0399 3.2012-9.9701 8.9504-9.9701 6.3321 0 8.8801 4.5861 8.8801 9.7524v1.6013h-12.263v0.29077c0 2.5108 1.3463 4.1121 4.2209 4.1121 2.2558 0 3.4933-1.0556 4.6936-2.2931l2.6927 3.3486c-1.7101 1.9651-4.5117 3.1654-8.005 3.1654-5.8594 0-9.1695-3.893-9.1695-10.007m-18.704 6.587 3.1654-3.2012c1.3463 1.491 2.9834 2.4364 5.0588 2.4364 2.1098 0 2.8374-0.6904 2.8374-1.819 0-0.94534-0.58153-1.4194-1.9279-1.5999l-2.074-0.25631c-4.3312-0.5457-6.441-2.4378-6.441-5.8939 0-3.6752 2.8746-6.2232 7.4221-6.2232 4.0032 0 5.8594 1.0914 7.7873 2.9835l-3.0923 3.1667c-1.2016-1.2003-2.8016-1.9651-4.4028-1.9651-1.819 0-2.548 0.65456-2.548 1.6013 0 1.0184 0.43683 1.5641 2.0023 1.7832l2.147 0.29076c4.1479 0.5457 6.2949 2.4378 6.2949 5.7492 0 3.6752-3.2756 6.3679-8.1883 6.3679-3.6752 0-6.0758-1.2361-8.0408-3.4203m-14.519-8.661v0.29214h6.6945v-0.32797c0-2.3289-1.0542-3.893-3.2012-3.893-2.147 0-3.4933 1.5641-3.4933 3.9288m-5.5673 2.0739c0-6.0399 3.2012-9.9701 8.9504-9.9701 6.3321 0 8.8801 4.5861 8.8801 9.7524v1.6013h-12.263v0.29077c0 2.5108 1.3463 4.1121 4.2209 4.1121 2.2558 0 3.4933-1.0556 4.6936-2.2931l2.6927 3.3486c-1.7101 1.9651-4.5117 3.1654-8.005 3.1654-5.8594 0-9.1695-3.893-9.1695-10.007m-11.136-4.4015c1.6371 0 2.6569-0.87368 2.6569-2.5122v-1.6013c0-1.6371-1.0198-2.5108-2.6569-2.5108h-5.8222v6.6242zm-5.8222 13.972h-5.5314v-25.399h12.045c4.6936 0 7.6784 3.2742 7.6784 8.1153 0 3.4203-1.5282 6.1488-4.6219 7.3132l4.9858 9.9701h-6.1502l-4.44-9.3142h-3.966zm-21.832-21.395h-0.1819l-2.147 4.2568-6.0772 11.062-6.0413-11.062-2.147-4.2209h-0.18052v21.36h-2.9848v-25.399h4.0032l7.2774 13.683h0.14607l7.3132-13.683h4.0032v25.399h-2.9834zm-40.465 18.703h7.5324c2.6196 0 4.2209-1.3822 4.2209-3.9288v-1.2375c0-2.548-1.6013-3.9302-4.2209-3.9302h-7.5324zm0-11.717h7.0225c2.4019 0 3.8571-1.2733 3.8571-3.5292v-1.2375c0-2.2558-1.4552-3.5292-3.8571-3.5292h-7.0225zm-3.0565-10.988h10.443c4.1851 0 6.7689 2.5838 6.7689 6.5498 0 3.7841-2.4377 5.1304-4.1121 5.3854v0.21773c1.819 0.11024 4.9857 1.6743 4.9857 5.8952 0 4.1851-2.8029 7.3505-6.5498 7.3505h-11.536zm-15.756 25.399v-2.5466h3.5664v-20.305h-3.5664v-2.5466h10.189v2.5466h-3.5664v20.305h3.5664v2.5466z" fill="currentColor"/>
 </g>
</svg>
