<svg enable-background="new 0 0 60 60" version="1.1" viewBox="0 0 60 60" xmlns="http://www.w3.org/2000/svg">
 <style type="text/css">.st0{fill:none;stroke:currentColor;stroke-miterlimit:10;}
	.st1{fill:none;stroke:currentColor;stroke-width:2;stroke-miterlimit:10;}
	.st2{fill:none;stroke:currentColor;stroke-linecap:round;stroke-linejoin:round;stroke-miterlimit:10;}
	.st3{fill:currentColor;stroke:currentColor;stroke-linecap:round;stroke-linejoin:round;stroke-miterlimit:10;}
	.st4{fill:currentColor;}
	.st5{fill:none;stroke:currentColor;stroke-width:0.5;stroke-linecap:round;stroke-linejoin:round;stroke-miterlimit:10;}
	.st6{fill:none;stroke:currentColor;stroke-width:0.9663;stroke-linecap:round;stroke-linejoin:round;stroke-miterlimit:10;}
	.st7{fill:none;stroke:currentColor;stroke-width:0.9663;stroke-linecap:round;stroke-linejoin:round;}
	.st8{fill:none;stroke:currentColor;stroke-width:1.9326;stroke-linecap:round;stroke-linejoin:round;stroke-miterlimit:10;}
	.st9{fill:none;stroke:currentColor;stroke-width:0.9344;stroke-linecap:round;stroke-linejoin:round;}
	.st10{fill:none;stroke:currentColor;stroke-width:0.9344;stroke-linecap:round;stroke-linejoin:round;stroke-miterlimit:10;}</style>
 <path class="st2" d="m29.76 47.55h-11.44m-4.47 0c0 1.23 1 2.24 2.24 2.24s2.24-1 2.24-2.24-1-2.24-2.24-2.24c-1.24 0.01-2.24 1.01-2.24 2.24zm7.21-9.77v4.12c0 1.15 3.07 2.1 7.11 2.3 0.89 0.04 1.59 0.78 1.59 1.67v1.68h11.44m4.47 0c0 1.23-1 2.24-2.24 2.24s-2.24-1-2.24-2.24 1-2.24 2.24-2.24c1.24 0.01 2.24 1.01 2.24 2.24zm-7.2-9.77v4.12c0 1.06-2.61 1.95-6.19 2.24m6.19-10.49v4.12c0 1.29-3.9 2.34-8.7 2.34-4.81 0-8.71-1.05-8.71-2.34v-4.12m17.41-4.12v4.12c0 1.29-3.9 2.34-8.7 2.34-4.81 0-8.71-1.05-8.71-2.34v-4.12m17.41 0c0 1.29-3.9 2.34-8.7 2.34-4.81 0-8.71-1.05-8.71-2.34s3.9-2.34 8.71-2.34c4.8 0 8.7 1.05 8.7 2.34zm-20.15 6.84h-4.54c-4.68-0.62-7.92-5.37-7.92-10.32 0-5.89 4.78-10.67 10.67-10.67 1.02 0 1.98 0.19 2.91 0.45 0.72-5.2 5.13-9.21 10.53-9.21 5.35 0 9.74 3.95 10.51 9.09 0.81-0.2 1.64-0.33 2.51-0.33 5.89 0 10.67 4.78 10.67 10.67 0 4.99-3.33 9.63-8.06 10.31h-4.53"/>
</svg>
