<svg enable-background="new 0 0 1920 1080" version="1.1" viewBox="0 0 1379 741.75" xmlns="http://www.w3.org/2000/svg">
 <linearGradient id="SVGID_1_" x1="1048.6" x2="1542.1" y1="611.96" y2="611.96" gradientTransform="matrix(1,0,0,-1,0,1080)" gradientUnits="userSpaceOnUse">
  <stop stop-color="#FAAB43" stop-opacity="0" offset="0"/>
  <stop stop-color="#FAAB43" offset=".7"/>
 </linearGradient>
 <line x1="771.28" x2="1255.8" y1="347.17" y2="347.17" fill="none" stroke="url(#SVGID_1_)" stroke-linecap="round" stroke-linejoin="round" stroke-width="9"/>
 <linearGradient id="SVGID_00000101785810052228733170000004369050522335425175_" x1="1048.6" x2="1542.1" y1="757.13" y2="757.13" gradientTransform="matrix(1,0,0,-1,0,1080)" gradientUnits="userSpaceOnUse">
  <stop stop-color="#FAAB43" stop-opacity="0" offset="0"/>
  <stop stop-color="#FAAB43" offset=".7"/>
 </linearGradient>
 <line x1="771.28" x2="1255.8" y1="202" y2="202" fill="none" stroke="url(#SVGID_00000101785810052228733170000004369050522335425175_)" stroke-linecap="round" stroke-linejoin="round" stroke-width="9"/>
 <linearGradient id="SVGID_00000134942123078327153790000017436788189694339495_" x1="1048.6" x2="1542.1" y1="466.79" y2="466.79" gradientTransform="matrix(1,0,0,-1,0,1080)" gradientUnits="userSpaceOnUse">
  <stop stop-color="#FAAB43" stop-opacity="0" offset="0"/>
  <stop stop-color="#FAAB43" offset=".7"/>
 </linearGradient>
 <line x1="771.28" x2="1255.8" y1="492.34" y2="492.34" fill="none" stroke="url(#SVGID_00000134942123078327153790000017436788189694339495_)" stroke-linecap="round" stroke-linejoin="round" stroke-width="9"/>
 <linearGradient id="SVGID_00000074438814484869462250000012569615780569721525_" x1="1408.8" x2="1542.1" y1="829.63" y2="829.63" gradientTransform="matrix(1 0 0 -1 -281.83 959.13)" gradientUnits="userSpaceOnUse">
  <stop stop-color="#FAAB43" offset="0"/>
  <stop stop-color="#FAAB43" offset="1"/>
 </linearGradient>
 <path d="m1131.5 202v-133c0-6.6 4.35-12 9.67-12h114.62" fill="none" stroke="url(#SVGID_00000074438814484869462250000012569615780569721525_)" stroke-linecap="round" stroke-linejoin="round" stroke-width="9"/>
 <linearGradient id="SVGID_00000046301069276277427650000013678950353970430133_" x1="284.51" x2="932.02" y1="612.2" y2="612.2" gradientTransform="matrix(1 0 0 -1 -281.83 959.13)" gradientUnits="userSpaceOnUse">
  <stop stop-color="#FAAB43" stop-opacity="0" offset="0"/>
  <stop stop-color="#FAAB43" offset=".95"/>
 </linearGradient>
 <rect x="2.68" y="198.06" width="647.51" height="297.74" fill="url(#SVGID_00000046301069276277427650000013678950353970430133_)"/>
 <circle transform="rotate(-45)" cx="234.21" cy="724.85" r="176.35" fill="#303681" stroke="#24245b" stroke-miterlimit="10" stroke-width="5"/>
 <g transform="translate(-281.83 -120.87)">
  <g fill="#fff">
   <path d="m1585.9 654.42h-3.84v9.58h-3.67v-9.54h-3.86v-3h11.37z"/>
   <path d="m1589.5 651.41h3.35l4.63 12.55h-3.73l-0.81-2.45h-3.55l-0.8 2.45h-3.74zm2.86 7.8-1.19-3.89-1.24 3.89z"/>
   <path d="m1597.3 657.58c0-0.775 0.155-1.543 0.45-2.26 0.318-0.749 0.78-1.429 1.36-2 0.613-0.612 1.34-1.097 2.14-1.43 0.911-0.382 1.892-0.57 2.88-0.55 1.163-0.032 2.315 0.23 3.35 0.76 0.889 0.446 1.629 1.141 2.13 2l-2.81 1.88c-0.109-0.289-0.284-0.549-0.51-0.76-0.194-0.197-0.421-0.359-0.67-0.48-0.251-0.118-0.517-0.202-0.79-0.25-0.257-0.048-0.518-0.071-0.78-0.07-0.474-0.01-0.943 0.093-1.37 0.3-0.367 0.179-0.688 0.439-0.94 0.76-0.244 0.319-0.43 0.677-0.55 1.06-0.11 0.38-0.167 0.774-0.17 1.17-1e-3 0.426 0.07 0.848 0.21 1.25 0.131 0.388 0.335 0.748 0.6 1.06 0.281 0.313 0.621 0.568 1 0.75 0.411 0.175 0.853 0.264 1.3 0.26 0.258 1e-3 0.516-0.022 0.77-0.07 0.262-0.059 0.517-0.147 0.76-0.26 0.243-0.125 0.466-0.287 0.66-0.48 0.204-0.21 0.364-0.458 0.47-0.73l3 1.68c-0.211 0.476-0.525 0.9-0.92 1.24-0.418 0.374-0.89 0.684-1.4 0.92-0.532 0.257-1.092 0.448-1.67 0.57-0.568 0.126-1.148 0.19-1.73 0.19-0.939 0.012-1.869-0.175-2.73-0.55-0.796-0.356-1.518-0.858-2.13-1.48-0.584-0.605-1.048-1.314-1.37-2.09-0.323-0.749-0.489-1.555-0.49-2.37z"/>
   <path d="m1611.1 664v-12.59h3.67v4.78l4.06-4.78h4.14l-4.85 5.62 5.19 6.93h-4.21l-3.32-4.61-1 1v3.65z"/>
   <path d="m1624 664v-12.59h3.67v9.59h6.06v3z"/>
   <path d="m1644.6 661v3h-9.53v-12.59h9.36v3h-5.69v1.77h4.86v2.82h-4.86v2z"/>
  </g>
  <path d="m1618.4 561.88 3.32 1.91v26.1l-3.32-1.91z" fill="#ac9565"/>
  <path d="m1600.2 561.88-3.32 1.91v27.27l3.32-1.91z" fill="#ac9565"/>
  <path d="m1609.4 573.41c-8.284 0-15 6.716-15 15 0 1.491 0.226 2.974 0.66 4.4l7 21.18c0.807 4.074 4.764 6.722 8.838 5.915 2.838-0.562 5.102-2.703 5.822-5.505l7.19-21.59h-0.09c2.419-7.952-2.066-16.36-10.019-18.779-1.414-0.43-2.884-0.65-4.361-0.651z" fill="#fff"/>
  <path d="m1609.4 606.5c-2.612-2e-3 -4.758 2.06-4.86 4.67v8.36c-0.073 0.701 0.204 1.393 0.74 1.85l5.6 5.6c1.29 1.326 1.26 3.447-0.066 4.737-0.01 8e-3 -0.016 0.015-0.024 0.023-1.331 1.268-3.413 1.298-4.78 0.07l-4-4c-0.385-0.349-0.979-0.319-1.328 0.066-0.19 0.21-0.276 0.494-0.232 0.774 0 1.25 1.37 1.16 1.37 1.75-0.021 3.993 3.198 7.247 7.191 7.268 0.13 1e-3 0.259-2e-3 0.389-8e-3 4.253-5e-3 7.696-3.456 7.692-7.708 0-2.323-1.054-4.522-2.862-5.982v-12.75c-0.076-2.624-2.225-4.711-4.85-4.71z" fill="#ac9565"/>
  <path d="m1613.6 592.88c-1.933 0.652-3.921 1.127-5.94 1.42-1.533-1.345-2.939-2.828-4.2-4.43 0.398-1.999 0.981-3.958 1.74-5.85 1.929-0.656 3.914-1.135 5.93-1.43 1.531 1.349 2.94 2.832 4.21 4.43-0.408 2-0.99 3.961-1.74 5.86z" fill="#323581"/>
  <path d="m1611.4 613.83c-0.978 0.322-1.982 0.559-3 0.71-0.768-0.673-1.471-1.416-2.1-2.22 0.2-0.998 0.491-1.975 0.87-2.92 0.975-0.334 1.979-0.571 3-0.71 0.763 0.674 1.465 1.414 2.1 2.21-0.205 1-0.496 1.98-0.87 2.93z" fill="#323581"/>
  <g fill="#fff">
   <path d="m1582.5 642.11c-1.867 0-3.38 1.513-3.38 3.38s1.513 3.38 3.38 3.38 3.38-1.513 3.38-3.38c-0.01-1.864-1.516-3.375-3.38-3.38zm0 1.55c1.011 0 1.83 0.819 1.83 1.83s-0.819 1.83-1.83 1.83-1.83-0.819-1.83-1.83c-0.01-1.005 0.805-1.824 1.81-1.83h0.02z"/>
   <path d="m1574.6 648.37v-5.76h1.58v2.19l1.75-2.19h1.79l-2.09 2.58 2.23 3.18h-1.82l-1.43-2.12-0.44 0.46v1.66z"/>
   <path d="m1587.9 645.54v2.83h-1.58v-5.76h1.24l2.31 2.93v-2.93h1.58v5.76h-1.26z"/>
   <path d="m1593.6 642.61 1.13 3.77 1.11-3.77h1.66l-2.11 5.76h-1.35l-2.13-5.76z"/>
   <path d="m1602 647v1.38h-4.1v-5.76h4v1.38h-2.45v0.81h2.09v1.28h-2.09v0.91z"/>
   <path d="m1603.9 642.61 1 2.49 1.06-2.49h1.71l-2 3.85v1.91h-1.57v-1.92l-2-3.84z"/>
   <path d="m1614.4 648.37v-5.76h2.63c0.271-2e-3 0.538 0.06 0.78 0.18 0.227 0.114 0.431 0.27 0.6 0.46 0.179 0.183 0.319 0.401 0.41 0.64 0.099 0.227 0.15 0.472 0.15 0.72-1e-3 0.326-0.077 0.647-0.22 0.94-0.146 0.278-0.355 0.518-0.61 0.7l1.21 2.12h-1.78l-1-1.77h-0.54v1.77zm1.58-3.15h1c0.111-4e-3 0.213-0.065 0.27-0.16 0.094-0.13 0.141-0.289 0.13-0.45 0.01-0.165-0.041-0.328-0.14-0.46-0.075-0.091-0.183-0.148-0.3-0.16h-1z"/>
   <path d="m1610.6 642.11c-1.867-6e-3 -3.385 1.503-3.39 3.37-0.01 1.867 1.503 3.384 3.37 3.39s3.385-1.503 3.39-3.37v-0.01c-0.011-1.858-1.512-3.364-3.37-3.38zm0 1.55c1.011 0 1.83 0.819 1.83 1.83s-0.819 1.83-1.83 1.83-1.83-0.819-1.83-1.83c-0.01-1.005 0.805-1.824 1.81-1.83h0.02z"/>
  </g>
 </g>
 <g transform="translate(-281.83 -120.87)">
  <g fill="#fff">
   <path d="m1566.9 508.49v-5.65l-1.91 4h-1.67l-1.91-4v5.65h-3.14v-10.72h3.43l2.45 5 2.48-5h3.4v10.72z"/>
   <path d="m1577.2 508.58c-0.814 0.01-1.621-0.15-2.37-0.47-0.674-0.291-1.287-0.705-1.81-1.22-0.499-0.507-0.896-1.104-1.17-1.76-0.567-1.294-0.567-2.766 0-4.06 0.287-0.647 0.698-1.231 1.21-1.72 0.533-0.508 1.158-0.912 1.84-1.19 0.745-0.306 1.544-0.459 2.35-0.45 0.811-0.015 1.616 0.146 2.36 0.47 0.679 0.291 1.297 0.709 1.82 1.23 0.496 0.505 0.887 1.103 1.15 1.76 0.276 0.631 0.419 1.312 0.42 2 0 0.689-0.15 1.37-0.43 2-0.29 0.645-0.701 1.229-1.21 1.72-0.535 0.506-1.159 0.91-1.84 1.19-0.736 0.313-1.53 0.47-2.33 0.46zm-2.59-5.44c0 0.36 0.052 0.717 0.16 1.06 0.105 0.323 0.268 0.625 0.48 0.89 0.22 0.263 0.493 0.477 0.8 0.63 0.371 0.167 0.774 0.249 1.18 0.24 0.403 0.01 0.803-0.072 1.17-0.24 0.313-0.152 0.587-0.374 0.8-0.65 0.219-0.271 0.379-0.584 0.47-0.92 0.103-0.323 0.157-0.661 0.16-1-1e-3 -0.34-0.055-0.677-0.16-1-0.1-0.33-0.27-0.633-0.5-0.89-0.221-0.268-0.502-0.48-0.82-0.62-0.356-0.168-0.746-0.25-1.14-0.24-0.403-0.01-0.803 0.072-1.17 0.24-0.312 0.154-0.585 0.376-0.8 0.65-0.223 0.267-0.39 0.577-0.49 0.91-0.085 0.306-0.132 0.622-0.14 0.94z"/>
   <path d="m1586.1 497.77 2.23 7 2.2-7h3.3l-4.2 10.72h-2.59l-4.24-10.72z"/>
   <path d="m1602.8 505.92v2.57h-8.13v-10.72h8v2.56h-4.85v1.51h4.14v2.39h-4.14v1.69z"/>
   <path d="m1604.2 509.21c-0.01-0.654 0.052-1.307 0.17-1.95 0.111-0.55 0.314-1.077 0.6-1.56 0.302-0.504 0.688-0.954 1.14-1.33 0.562-0.453 1.168-0.849 1.81-1.18 0.77-0.41 1.41-0.74 1.93-1 0.423-0.21 0.834-0.444 1.23-0.7 0.25-0.144 0.476-0.326 0.67-0.54 0.135-0.163 0.206-0.369 0.2-0.58 1e-3 -0.391-0.18-0.761-0.49-1-0.412-0.294-0.915-0.436-1.42-0.4-0.635-0.017-1.261 0.154-1.8 0.49-0.55 0.341-1.051 0.755-1.49 1.23l-2.52-2.74c0.313-0.321 0.67-0.597 1.06-0.82 0.481-0.275 0.987-0.506 1.51-0.69 0.593-0.228 1.206-0.402 1.83-0.52 0.697-0.122 1.403-0.182 2.11-0.18 1.443-0.097 2.878 0.286 4.08 1.09 0.952 0.696 1.493 1.822 1.44 3 0.01 0.471-0.085 0.937-0.27 1.37-0.163 0.397-0.39 0.765-0.67 1.09-0.284 0.311-0.599 0.592-0.94 0.84-0.35 0.23-0.7 0.45-1.07 0.65l-0.89 0.49c-0.35 0.18-0.69 0.38-1 0.58s-0.64 0.38-0.94 0.58c-0.229 0.15-0.443 0.321-0.64 0.51h6.73v3.35z"/>
   <path d="m1618.6 508.49v-10.72h3.13v4.07l3.47-4.07h3.54l-4.15 4.8 4.43 5.92h-3.59l-2.83-3.94-0.87 0.84v3.1z"/>
   <path d="m1634.7 506c0.327 0.012 0.652-0.064 0.94-0.22 0.248-0.148 0.46-0.35 0.62-0.59 0.166-0.265 0.287-0.556 0.36-0.86 0.072-0.328 0.109-0.664 0.11-1v-5.51h3.13v5.51c0 0.711-0.097 1.419-0.3 2.1-0.387 1.273-1.333 2.3-2.57 2.79-0.729 0.287-1.507 0.426-2.29 0.41-0.802 0.022-1.599-0.124-2.34-0.43-1.214-0.525-2.133-1.562-2.51-2.83-0.19-0.65-0.287-1.323-0.29-2v-5.51h3.14v5.51c0 0.336 0.034 0.672 0.11 1 0.063 0.306 0.182 0.597 0.35 0.86 0.156 0.24 0.365 0.442 0.61 0.59 0.288 0.146 0.607 0.218 0.93 0.21z"/>
   <path d="m1651.3 505.74c0.01 0.444-0.108 0.881-0.34 1.26-0.218 0.352-0.52 0.645-0.88 0.85-0.411 0.234-0.856 0.399-1.32 0.49-0.516 0.111-1.042 0.165-1.57 0.16h-5.61v-10.73h6.62c0.374-6e-3 0.744 0.076 1.08 0.24 0.312 0.155 0.59 0.369 0.82 0.63 0.221 0.26 0.394 0.559 0.51 0.88 0.128 0.318 0.193 0.657 0.19 1 0 0.511-0.147 1.012-0.41 1.45-0.29 0.455-0.717 0.805-1.22 1 0.599 0.151 1.137 0.482 1.54 0.95 0.406 0.51 0.612 1.149 0.58 1.8zm-3.19-0.61c0.011-0.234-0.068-0.462-0.22-0.64-0.136-0.182-0.353-0.286-0.58-0.28h-2.59v1.79h2.48c0.235 7e-3 0.463-0.075 0.64-0.23 0.187-0.162 0.287-0.403 0.27-0.65zm-3.39-4.86v1.65h2.14c0.206 4e-3 0.409-0.055 0.58-0.17 0.202-0.156 0.305-0.407 0.27-0.66 0.026-0.23-0.055-0.458-0.22-0.62-0.146-0.13-0.335-0.201-0.53-0.2z"/>
   <path d="m1660.8 505.92v2.57h-8.13v-10.72h8v2.56h-4.85v1.51h4.13v2.39h-4.15v1.69z"/>
  </g>
  <path d="m1615.3 451.36c0.317 0.129 0.47 0.491 0.341 0.808 0 1e-3 -1e-3 1e-3 -1e-3 2e-3l-9.26 22.46c-0.129 0.317-0.491 0.47-0.808 0.341v-1e-3l-22.46-9.26c-0.317-0.129-0.47-0.491-0.341-0.808 0-1e-3 1e-3 -1e-3 1e-3 -2e-3l9.26-22.46c0.129-0.317 0.491-0.47 0.808-0.341v1e-3zm-9.68-0.27-5.73-2.36c-0.514-0.21-1.1 0.036-1.31 0.55s0.036 1.1 0.55 1.31l5.72 2.36c0.514 0.213 1.102-0.031 1.315-0.545s-0.031-1.102-0.545-1.315z" fill="#ac9565"/>
  <g fill="none" stroke="#fff" stroke-linecap="round" stroke-linejoin="round">
   <path d="m1643.3 427.16-14 5.58c-1.397 0.66-2.476 1.846-3 3.3l-18.3 43.62-16.9-6.8" stroke-width="2.54"/>
   <path d="m1625.4 478.07c0.093 2.892-2.177 5.312-5.07 5.405-2.893 0.092-5.312-2.177-5.405-5.07-0.093-2.892 2.177-5.312 5.07-5.405h0.01c2.891-0.101 5.317 2.159 5.42 5.05z" stroke-width="3.5"/>
   <path d="m1643.3 427.16-10.38 4.13" stroke-width="3.68"/>
  </g>
  <path d="m1617.8 459.41 2.64 10.33c-0.756-9e-3 -1.512 0.041-2.26 0.15l-1.82-7.56z" fill="#fff"/>
  <path d="m1608 480.93h4.24c-0.201-0.727-0.342-1.47-0.42-2.22h-2.93z" fill="#fff"/>
  <g fill="#fff">
   <path d="m1566.2 488.12c-1.867 0-3.38 1.513-3.38 3.38s1.513 3.38 3.38 3.38 3.38-1.513 3.38-3.38c-0.011-1.862-1.518-3.369-3.38-3.38zm0 1.55c1.011 0 1.83 0.819 1.83 1.83s-0.819 1.83-1.83 1.83-1.83-0.819-1.83-1.83c0-1.005 0.805-1.824 1.81-1.83h0.02z"/>
   <path d="m1558.3 494.37v-5.75h1.58v2.19l1.75-2.19h1.79l-2.09 2.58 2.23 3.17h-1.81l-1.43-2.11-0.44 0.45v1.66z"/>
   <path d="m1571.6 491.54v2.83h-1.58v-5.75h1.23l2.31 2.92v-2.92h1.58v5.75h-1.25z"/>
   <path d="m1577.3 488.62 1.13 3.77 1.11-3.77h1.66l-2.11 5.75h-1.32l-2.14-5.75z"/>
   <path d="m1585.7 493v1.37h-4.1v-5.75h4v1.38h-2.44v0.81h2.09v1.28h-2.09v0.91z"/>
   <path d="m1587.6 488.62 1 2.49 1-2.49h1.72l-2 3.85v1.9h-1.57v-1.92l-2-3.83z"/>
   <path d="m1598.1 494.37v-5.75h2.64c0.271-2e-3 0.538 0.059 0.78 0.18 0.229 0.106 0.434 0.259 0.6 0.45 0.175 0.186 0.314 0.403 0.41 0.64 0.094 0.228 0.142 0.473 0.14 0.72 0 0.325-0.069 0.647-0.21 0.94-0.144 0.282-0.353 0.525-0.61 0.71l1.21 2.11h-1.78l-1-1.76h-0.59v1.76zm1.58-3.14h1c0.11-9e-3 0.209-0.068 0.27-0.16 0.096-0.133 0.142-0.296 0.13-0.46 0.013-0.164-0.041-0.326-0.15-0.45-0.067-0.095-0.174-0.154-0.29-0.16h-1z"/>
   <path d="m1594.3 488.12c-1.867 0-3.38 1.513-3.38 3.38s1.513 3.38 3.38 3.38 3.38-1.513 3.38-3.38c-0.01-1.864-1.515-3.375-3.38-3.38zm0 1.55c1.011 0 1.83 0.819 1.83 1.83s-0.819 1.83-1.83 1.83-1.83-0.819-1.83-1.83 0.819-1.83 1.83-1.83z"/>
  </g>
 </g>
 <g transform="translate(-281.83 -120.87)">
  <g fill="#fff">
   <path d="m1565.3 372.39v-12.56h9.17v3h-5.49v2.08h4.48v2.8h-4.48v4.67z"/>
   <path d="m1581.8 372.49c-0.949 0.015-1.89-0.172-2.76-0.55-0.794-0.337-1.517-0.823-2.13-1.43-0.585-0.588-1.05-1.284-1.37-2.05-0.323-0.749-0.489-1.555-0.49-2.37 1e-3 -0.823 0.171-1.636 0.5-2.39 0.337-0.754 0.82-1.433 1.42-2 0.624-0.601 1.357-1.076 2.16-1.4 0.872-0.358 1.807-0.538 2.75-0.53 0.949-0.015 1.89 0.172 2.76 0.55 0.795 0.344 1.518 0.836 2.13 1.45 0.582 0.589 1.044 1.285 1.36 2.05 0.318 0.743 0.485 1.542 0.49 2.35 1e-3 0.824-0.173 1.638-0.51 2.39-0.342 0.748-0.82 1.426-1.41 2-0.63 0.597-1.366 1.072-2.17 1.4-0.865 0.357-1.794 0.538-2.73 0.53zm-3-6.36c0 0.417 0.067 0.831 0.19 1.23 0.121 0.383 0.315 0.74 0.57 1.05 0.258 0.31 0.578 0.562 0.94 0.74 0.875 0.374 1.865 0.374 2.74 0 0.387-0.174 0.729-0.434 1-0.76 0.251-0.32 0.435-0.687 0.54-1.08 0.127-0.394 0.191-0.806 0.19-1.22 0-0.414-0.061-0.826-0.19-1.22-0.119-0.371-0.317-0.712-0.58-1-0.27-0.32-0.613-0.57-1-0.73-0.418-0.197-0.877-0.293-1.34-0.28-0.472-0.013-0.941 0.083-1.37 0.28-0.365 0.182-0.685 0.441-0.94 0.76-0.254 0.315-0.447 0.675-0.57 1.06-0.112 0.394-0.17 0.801-0.17 1.21z"/>
   <path d="m1590.2 372.39v-12.56h6.13c0.625-7e-3 1.244 0.126 1.81 0.39 0.531 0.239 1.009 0.578 1.41 1 0.402 0.4 0.722 0.876 0.94 1.4 0.223 0.493 0.339 1.029 0.34 1.57 0.01 1.444-0.714 2.795-1.92 3.59l2.82 4.62h-4.14l-2.35-3.86h-1.37v3.86zm3.67-6.86h2.31c0.253-0.012 0.484-0.146 0.62-0.36 0.22-0.285 0.327-0.641 0.3-1 0.026-0.364-0.092-0.723-0.33-1-0.171-0.202-0.416-0.328-0.68-0.35h-2.22z"/>
   <path d="m1602.8 372.39v-12.56h3.67v4.78l4.07-4.78h4.14l-4.86 5.62 5.2 6.94h-4.22l-3.31-4.62-1 1v3.63z"/>
   <path d="m1615.8 372.39v-12.56h3.67v9.55h6.06v3z"/>
   <path d="m1626.8 372.39v-12.56h3.67v12.56z"/>
   <path d="m1632.8 372.39v-12.56h9.19v3h-5.5v2.08h4.5v2.8h-4.48v4.67z"/>
   <path d="m1653.8 362.84h-3.82v9.55h-3.67v-9.55h-3.86v-3h11.37z"/>
  </g>
  <path d="m1614.6 279.68c-0.332 0.088-0.532 0.426-0.45 0.76l6 23.54c0.084 0.331 0.419 0.532 0.75 0.45l23.55-6c0.327-0.082 0.525-0.414 0.442-0.741-1e-3 -3e-3 0-6e-3 0-9e-3l-6-23.54c-0.077-0.328-0.406-0.531-0.733-0.454-0.01 1e-3 -0.011 3e-3 -0.017 4e-3zm9.63 1.1 6-1.52c0.533-0.144 1.082 0.172 1.226 0.705 1e-3 5e-3 0 0.01 0 0.015 0.143 0.534-0.174 1.082-0.708 1.224-0.01 2e-3 -0.015 4e-3 -0.022 6e-3l-6 1.52c-0.535 0.139-1.08-0.182-1.219-0.717 0-1e-3 -1e-3 -2e-3 -1e-3 -3e-3 -0.144-0.533 0.172-1.082 0.705-1.226 0.01-1e-3 0.01-3e-3 0.015-4e-3z" fill="#ac9565"/>
  <g fill="none" stroke="#fff">
   <path d="m1612.4 287.17 5.51 21.56 32.09-8.2" stroke-linejoin="round" stroke-width="2.54"/>
   <path d="m1608.9 295 7.68 28.87" stroke-miterlimit="10.18" stroke-width="4.07"/>
   <path d="m1624.5 331.88c0.521 2.897-1.406 5.668-4.303 6.189 0 0 0 1e-3 -0.01 1e-3v0c-2.899 0.515-5.667-1.413-6.19-4.31v0c-0.521-2.897 1.406-5.668 4.303-6.189l0.01-1e-3v0c2.897-0.521 5.668 1.406 6.189 4.303 0 2e-3 1e-3 5e-3 1e-3 7e-3z" stroke-linecap="round" stroke-linejoin="round" stroke-width="3.56"/>
  </g>
  <path d="m1607.4 335.2-5.87 0.87c-0.615-4.709-4.163-8.501-8.82-9.43l0.94-11.32 13.67-1.9 3 11c-2.12 2.26-3.91 5.31-2.93 10.77z" fill="#fff" stroke="#fff" stroke-miterlimit="10.18" stroke-width="4.07"/>
  <path d="m1594.4 337.26c0.52 2.892-1.403 5.657-4.295 6.177 0 1e-3 -0.01 2e-3 -0.015 3e-3v0c-2.897 0.522-5.668-1.403-6.19-4.3v0c-0.521-2.897 1.406-5.668 4.303-6.189l0.01-1e-3v0c2.897-0.521 5.668 1.406 6.189 4.303 0 2e-3 1e-3 5e-3 1e-3 7e-3z" fill="none" stroke="#fff" stroke-linecap="round" stroke-linejoin="round" stroke-width="3.56"/>
  <g fill="#fff">
   <path d="m1573.2 350.53c-1.867 0-3.38 1.513-3.38 3.38s1.513 3.38 3.38 3.38 3.38-1.513 3.38-3.38c-0.01-1.864-1.516-3.375-3.38-3.38zm0 1.55c1.011 0 1.83 0.819 1.83 1.83s-0.819 1.83-1.83 1.83-1.83-0.819-1.83-1.83c-0.01-1.005 0.805-1.824 1.81-1.83h0.02z"/>
   <path d="m1565.3 356.79v-5.79h1.58v2.19l1.75-2.19h1.79l-2.09 2.58 2.23 3.18h-1.81l-1.43-2.12-0.44 0.46v1.66z"/>
   <path d="m1578.7 354v2.83h-1.58v-5.83h1.24l2.3 2.93v-2.93h1.58v5.76h-1.22z"/>
   <path d="m1584.3 351 1.13 3.77 1.11-3.77h1.66l-2.11 5.76h-1.32l-2.14-5.76z"/>
   <path d="m1592.8 355.41v1.38h-4.1v-5.79h4v1.38h-2.45v0.81h2.09v1.28h-2.09v0.91z"/>
   <path d="m1594.7 351 1 2.49 1.06-2.49h1.71l-2 3.85v1.91h-1.57v-1.92l-2-3.84z"/>
   <path d="m1605.1 356.79v-5.79h2.64c0.271-2e-3 0.538 0.059 0.78 0.18 0.227 0.114 0.431 0.27 0.6 0.46 0.179 0.183 0.319 0.401 0.41 0.64 0.095 0.228 0.143 0.473 0.14 0.72 0 0.325-0.07 0.647-0.21 0.94-0.146 0.278-0.355 0.518-0.61 0.7l1.21 2.12h-1.78l-1-1.77h-0.59v1.77zm1.58-3.15h1c0.111-4e-3 0.213-0.065 0.27-0.16 0.094-0.13 0.141-0.289 0.13-0.45 0.011-0.167-0.043-0.332-0.15-0.46-0.07-0.092-0.175-0.15-0.29-0.16h-1z"/>
   <path d="m1601.3 350.53c-1.867-6e-3 -3.385 1.503-3.39 3.37-0.01 1.867 1.503 3.384 3.37 3.39s3.385-1.503 3.39-3.37v-0.01c-0.011-1.858-1.512-3.364-3.37-3.38zm0 1.55c1.011 5e-3 1.826 0.829 1.82 1.84-0.01 1.011-0.829 1.826-1.84 1.82-1.007-5e-3 -1.82-0.823-1.82-1.83-0.01-1.005 0.805-1.824 1.81-1.83h0.03z"/>
  </g>
 </g>
 <g transform="translate(-281.83 -120.87)">
  <path d="m1596.3 162.24c-0.4 0.032-0.699 0.38-0.67 0.78l2.06 28.13c0.032 0.4 0.38 0.699 0.78 0.67l28.13-2.06c0.397-0.027 0.697-0.37 0.67-0.766v-4e-3l-2.06-28.14c-0.032-0.4-0.38-0.699-0.78-0.67zm10.78 3.23 7.16-0.53c0.646-0.01 1.178 0.505 1.188 1.151 0.01 0.595-0.429 1.102-1.018 1.179l-7.16 0.53c-0.643 0.046-1.202-0.437-1.25-1.08-0.056-0.633 0.411-1.191 1.044-1.247l0.036-3e-3z" fill="#ac9565"/>
  <path d="m1605.6 147.33-13.59 14.23 2.21 34.27 37.2-2.66-2.65-34.7-18.61-16.64" fill="none" stroke="#fff" stroke-linecap="round" stroke-linejoin="round" stroke-width="2.95"/>
  <g stroke="#fff" stroke-linejoin="round">
   <path d="m1610 134.61-4.81-8.78 5.08-3.49 4.94 3.49-5.21 8.78c2.761 0 5 2.239 5 5s-2.239 5-5 5-5-2.239-5-5" fill="none" stroke-linecap="round" stroke-width="2.95"/>
   <path d="m1610.2 123.8c-0.513 0.252-1.005 0.547-1.47 0.88-0.63 0.44-1.3 0.82-1.88 1.31-0.31 0.34 0.09 0.74 0.22 1.07 0.85 1.58 1.68 3.17 2.62 4.7 0.178 0.189 0.475 0.198 0.664 0.02 0.058-0.055 0.101-0.124 0.126-0.2 1-1.72 2-3.42 3-5.16 0.13-0.47-0.42-0.65-0.7-0.9-0.79-0.57-1.57-1.15-2.39-1.67z" fill="#fff" stroke-width=".19"/>
  </g>
  <g fill="#fff">
   <path d="m1578.2 220.51c0-0.775 0.155-1.543 0.45-2.26 0.315-0.749 0.773-1.428 1.35-2 0.619-0.61 1.349-1.095 2.15-1.43 0.911-0.382 1.892-0.57 2.88-0.55 1.163-0.032 2.315 0.23 3.35 0.76 0.89 0.441 1.628 1.138 2.12 2l-2.8 1.88c-0.111-0.288-0.286-0.548-0.51-0.76-0.193-0.203-0.424-0.366-0.68-0.48-0.25-0.119-0.516-0.204-0.79-0.25-0.254-0.048-0.512-0.071-0.77-0.07-0.474-0.01-0.943 0.093-1.37 0.3-0.367 0.179-0.688 0.439-0.94 0.76-0.244 0.319-0.43 0.677-0.55 1.06-0.11 0.38-0.167 0.774-0.17 1.17-1e-3 0.426 0.07 0.848 0.21 1.25 0.131 0.388 0.335 0.748 0.6 1.06 0.279 0.316 0.619 0.571 1 0.75 0.411 0.176 0.853 0.265 1.3 0.26 0.258 1e-3 0.516-0.022 0.77-0.07 0.259-0.058 0.511-0.145 0.75-0.26 0.245-0.123 0.468-0.285 0.66-0.48 0.208-0.206 0.369-0.455 0.47-0.73l3 1.68c-0.212 0.479-0.53 0.903-0.93 1.24-0.413 0.377-0.882 0.687-1.39 0.92-0.532 0.257-1.092 0.448-1.67 0.57-0.571 0.126-1.155 0.19-1.74 0.19-0.936 0.013-1.863-0.175-2.72-0.55-0.796-0.356-1.518-0.858-2.13-1.48-0.584-0.605-1.048-1.314-1.37-2.09-0.323-0.749-0.489-1.555-0.49-2.37z"/>
   <path d="m1592 226.89v-12.55h6.14c0.625-5e-3 1.243 0.128 1.81 0.39 1.052 0.478 1.889 1.33 2.35 2.39 0.223 0.493 0.339 1.029 0.34 1.57 0.01 1.444-0.714 2.795-1.92 3.59l2.82 4.61h-4.14l-2.4-3.89h-1.38v3.85zm3.67-6.86h2.32c0.251-0.01 0.482-0.14 0.62-0.35 0.22-0.285 0.327-0.641 0.3-1 0.032-0.366-0.091-0.729-0.34-1-0.169-0.2-0.41-0.326-0.67-0.35h-2.23z"/>
   <path d="m1608.1 214.34h3.35l4.63 12.55h-3.73l-0.8-2.45h-3.57l-0.79 2.45h-3.75zm2.86 7.8-1.18-3.89-1.25 3.89z"/>
   <path d="m1620.9 220.72v6.17h-3.67v-12.55h2.86l5.37 6.38v-6.38h3.67v12.55h-2.92z"/>
   <path d="m1640.9 223.89v3h-9.53v-12.55h9.36v3h-5.69v1.77h4.86v2.79h-4.86v2z"/>
  </g>
  <g fill="#fff">
   <path d="m1586.1 205c-1.867 0-3.38 1.513-3.38 3.38s1.513 3.38 3.38 3.38 3.38-1.513 3.38-3.38c-0.01-1.864-1.516-3.375-3.38-3.38zm0 1.55c1.011 0 1.83 0.819 1.83 1.83s-0.819 1.83-1.83 1.83-1.83-0.819-1.83-1.83c0.016-0.997 0.833-1.796 1.83-1.79z"/>
   <path d="m1578.2 211.3v-5.76h1.58v2.19l1.75-2.19h1.78l-2.09 2.58 2.23 3.18h-1.81l-1.43-2.12-0.43 0.46v1.66z"/>
   <path d="m1591.6 208.47v2.83h-1.58v-5.76h1.23l2.31 2.93v-2.93h1.58v5.76h-1.26z"/>
   <path d="m1597.2 205.54 1.12 3.77 1.11-3.77h1.66l-2.11 5.76h-1.31l-2.14-5.76z"/>
   <path d="m1605.6 209.92v1.38h-4.1v-5.76h4v1.38h-2.45v0.81h2.09v1.27h-2.09v0.91z"/>
   <path d="m1607.6 205.54 1 2.49 1.06-2.49h1.72l-2 3.85v1.91h-1.57v-1.92l-2-3.84z"/>
   <path d="m1618 211.3v-5.76h2.64c0.271-2e-3 0.538 0.059 0.78 0.18 0.457 0.232 0.813 0.623 1 1.1 0.099 0.227 0.15 0.472 0.15 0.72-1e-3 0.326-0.077 0.647-0.22 0.94-0.146 0.278-0.355 0.518-0.61 0.7l1.22 2.12h-1.79l-1-1.77h-0.59v1.77zm1.58-3.15h1c0.108-8e-3 0.205-0.067 0.26-0.16 0.094-0.13 0.141-0.289 0.13-0.45 0.01-0.165-0.041-0.328-0.14-0.46-0.075-0.091-0.183-0.148-0.3-0.16h-1z"/>
   <path d="m1614.2 205c-1.867-6e-3 -3.385 1.503-3.39 3.37 0 1.867 1.503 3.384 3.37 3.39s3.385-1.503 3.39-3.37v-0.01c-0.01-1.861-1.509-3.369-3.37-3.38zm0 1.55c1.011 0 1.83 0.819 1.83 1.83s-0.819 1.83-1.83 1.83-1.83-0.819-1.83-1.83c0.016-0.997 0.833-1.796 1.83-1.79z"/>
  </g>
 </g>
 <g transform="translate(-281.83 -120.87)" enable-background="new    " fill="#fff">
  <path d="m413.13 442.58h-17.78v-23.798h17.645v4.352h-12.902v5.27h12.307v4.352h-12.307v5.474h13.038v4.35z"/>
  <path d="m427.5 434.2 6 8.38h-5.27l-3.706-5.235-3.638 5.235h-5.133l6.051-8.363-5.898-8.108h5.27l3.553 5.117 3.536-5.117h5.133z"/>
  <path d="m441.32 420.72c0 1.598-1.241 2.821-2.839 2.821s-2.822-1.224-2.822-2.821c0-1.599 1.224-2.856 2.822-2.856s2.839 1.257 2.839 2.856zm-0.595 21.859h-4.437v-16.472h4.437z"/>
 </g>
 <g transform="translate(-281.83 -120.87)" enable-background="new    ">
  <path d="m457.19 430.7c-1.309-0.646-3.399-1.326-5.252-1.343-1.683 0-2.533 0.595-2.533 1.496 0 0.951 1.19 1.189 2.686 1.41l1.462 0.222c3.57 0.544 5.559 2.142 5.559 4.929 0 3.4-2.788 5.593-7.564 5.593-2.244 0-5.185-0.425-7.326-1.938l1.751-3.366c1.411 0.936 3.127 1.615 5.609 1.615 2.057 0 3.042-0.578 3.042-1.547 0-0.799-0.833-1.241-2.737-1.513l-1.343-0.188c-3.808-0.526-5.694-2.192-5.694-4.997 0-3.383 2.618-5.389 6.952-5.389 2.635 0 4.692 0.493 6.885 1.564z" fill="#fff"/>
 </g>
 <g transform="translate(-281.83 -120.87)" enable-background="new    " fill="#fff">
  <path d="m474.45 430.05h-5.966v6.017c0 2.058 1.088 2.805 2.465 2.805 1.054 0 2.193-0.526 3.094-1.07l1.632 3.468c-1.445 0.985-3.111 1.733-5.457 1.733-4.08 0-6.17-2.312-6.17-6.578v-6.374h-3.179v-3.944h3.179v-4.896h4.437v4.896h5.966v3.943z"/>
  <path d="m483.39 420.72c0 1.598-1.241 2.821-2.839 2.821s-2.822-1.224-2.822-2.821c0-1.599 1.224-2.856 2.822-2.856 1.598-1e-3 2.839 1.257 2.839 2.856zm-0.595 21.859h-4.437v-16.472h4.437z"/>
  <path d="m503.02 432.09v10.488h-4.437v-9.061c0-2.379-1.19-3.688-3.213-3.688-1.904 0-3.485 1.241-3.485 3.723v9.026h-4.437v-16.472h4.318v1.938c1.173-1.751 2.975-2.38 4.844-2.38 3.741 1e-3 6.41 2.602 6.41 6.426z"/>
  <path d="m519.21 427.94v-1.836h4.352v15.112c0 5.286-3.451 8.481-8.89 8.481-2.601 0-5.354-0.68-7.208-1.988l1.581-3.621c1.649 1.088 3.468 1.683 5.439 1.683 2.753 0 4.691-1.529 4.691-4.368v-1.156c-1.122 1.377-2.788 2.228-5.065 2.228-4.012 0-7.581-3.349-7.581-8.397 0-5.065 3.569-8.414 7.581-8.414 2.296-1e-3 3.978 0.883 5.1 2.276zm-8.125 6.137c0 2.38 1.615 4.317 4.148 4.317 2.464 0 4.13-1.87 4.13-4.317 0-2.465-1.666-4.335-4.13-4.335-2.533 0-4.148 1.939-4.148 4.335z"/>
 </g>
 <g transform="translate(-281.83 -120.87)" enable-background="new    " fill="#fff">
  <path d="m417.31 483.38h-5.065l-2.074-5.541h-10.148l-2.074 5.541h-4.947l9.264-23.798h5.779zm-15.655-9.91h6.884l-3.434-9.196z"/>
  <path d="m437.24 475.14c0 4.946-3.434 8.669-7.972 8.669-2.209 0-3.773-0.867-4.844-2.142v8.516h-4.42v-23.271h4.335v1.819c1.071-1.343 2.651-2.261 4.912-2.261 4.555 1e-3 7.989 3.723 7.989 8.67zm-13.038 0c0 2.601 1.717 4.538 4.232 4.538 2.618 0 4.25-2.022 4.25-4.538s-1.632-4.539-4.25-4.539c-2.515 0-4.232 1.938-4.232 4.539z"/>
  <path d="m458.1 475.14c0 4.946-3.434 8.669-7.972 8.669-2.21 0-3.773-0.867-4.844-2.142v8.516h-4.42v-23.271h4.334v1.819c1.071-1.343 2.652-2.261 4.913-2.261 4.555 1e-3 7.989 3.723 7.989 8.67zm-13.038 0c0 2.601 1.717 4.538 4.232 4.538 2.618 0 4.25-2.022 4.25-4.538s-1.632-4.539-4.25-4.539c-2.515 0-4.232 1.938-4.232 4.539z"/>
  <path d="m466.16 483.38h-4.437v-24.478h4.437z"/>
  <path d="m475.85 461.52c0 1.598-1.241 2.821-2.839 2.821s-2.822-1.224-2.822-2.821c0-1.599 1.224-2.856 2.822-2.856s2.839 1.257 2.839 2.856zm-0.595 21.859h-4.437v-16.472h4.437z"/>
 </g>
 <g transform="translate(-281.83 -120.87)" enable-background="new    ">
  <path d="m494.26 469.58-3.196 2.669c-1.003-1.071-2.074-1.649-3.519-1.649-2.295 0-4.13 1.803-4.13 4.539 0 2.754 1.819 4.538 4.113 4.538 1.428 0 2.652-0.646 3.587-1.665l3.162 2.702c-1.547 1.989-3.859 3.094-6.612 3.094-5.252 0-8.771-3.672-8.771-8.669 0-4.98 3.519-8.669 8.771-8.669 2.754 0 5.083 1.122 6.595 3.11z" fill="#fff"/>
 </g>
 <g transform="translate(-281.83 -120.87)" enable-background="new    " fill="#fff">
  <path d="m513.34 483.38h-4.334v-1.818c-1.071 1.325-2.668 2.243-4.929 2.243-4.539 0-7.972-3.723-7.972-8.669s3.434-8.669 7.972-8.669c2.261 0 3.841 0.918 4.929 2.261v-1.819h4.334zm-12.698-8.244c0 2.516 1.648 4.538 4.25 4.538 2.533 0 4.25-1.938 4.25-4.538s-1.717-4.539-4.25-4.539c-2.601 0-4.25 2.023-4.25 4.539z"/>
  <path d="m529.95 470.85h-5.966v6.017c0 2.058 1.088 2.805 2.465 2.805 1.054 0 2.193-0.526 3.094-1.07l1.632 3.468c-1.445 0.985-3.111 1.733-5.457 1.733-4.08 0-6.17-2.312-6.17-6.578v-6.374h-3.179v-3.944h3.179v-4.896h4.437v4.896h5.966v3.943z"/>
  <path d="m538.9 461.52c0 1.598-1.241 2.821-2.839 2.821s-2.822-1.224-2.822-2.821c0-1.599 1.224-2.856 2.822-2.856 1.598-1e-3 2.839 1.257 2.839 2.856zm-0.595 21.859h-4.437v-16.472h4.437z"/>
  <path d="m559.75 475.14c0 4.964-3.791 8.669-8.924 8.669-5.117 0-8.89-3.705-8.89-8.669s3.773-8.669 8.89-8.669c5.133 0 8.924 3.705 8.924 8.669zm-13.293 0c0 2.669 1.87 4.538 4.369 4.538s4.385-1.869 4.385-4.538-1.887-4.539-4.385-4.539c-2.499 0-4.369 1.87-4.369 4.539z"/>
  <path d="m578.95 472.89v10.488h-4.437v-9.061c0-2.379-1.19-3.688-3.213-3.688-1.904 0-3.485 1.241-3.485 3.723v9.026h-4.437v-16.472h4.318v1.938c1.173-1.751 2.975-2.38 4.844-2.38 3.741 1e-3 6.41 2.601 6.41 6.426z"/>
 </g>
 <g transform="translate(-281.83 -120.87)" enable-background="new    " fill="#fff">
  <path d="m411.23 524.18-2.567-2.447c-1.734 1.631-3.978 2.872-7.037 2.872-4.691 0-7.479-2.431-7.479-6.323 0-2.788 1.92-4.845 4.113-6.527-1.989-2.04-2.958-3.553-2.958-5.83 0-3.451 2.788-5.967 6.986-5.967 4.13 0 6.935 2.363 6.935 5.882 0 2.566-2.142 4.453-4.471 6.136l3.723 3.604 3.417-4.793 3.349 2.312-3.808 5.354 5.898 5.729h-6.101zm-5.474-5.253-4.572-4.385c-1.326 1.07-2.278 2.158-2.278 3.416 0 1.599 1.224 2.618 3.077 2.618 1.479 1e-3 2.652-0.577 3.773-1.649zm-3.858-9.706c1.598-1.121 2.805-2.142 2.805-3.246 0-1.241-0.901-2.022-2.414-2.022-1.53 0-2.431 0.799-2.431 2.176 0 0.916 0.442 1.529 2.04 3.092z"/>
  <path d="m433.55 524.18h-4.743v-23.798h4.743z"/>
 </g>
 <g transform="translate(-281.83 -120.87)" enable-background="new    ">
  <path d="m454.15 513.69v10.488h-4.437v-9.061c0-2.379-1.19-3.688-3.213-3.688-1.904 0-3.485 1.241-3.485 3.723v9.026h-4.437v-16.472h4.318v1.938c1.173-1.751 2.975-2.38 4.844-2.38 3.741 1e-3 6.41 2.602 6.41 6.426z" fill="#fff"/>
 </g>
 <g transform="translate(-281.83 -120.87)" enable-background="new    ">
  <path d="m469.34 511.65h-5.117v12.527h-4.437v-12.527h-3.076v-3.944h3.076v-2.039c0-3.859 2.058-6.392 5.898-6.392 2.244 0 3.808 0.646 5.065 1.479l-1.768 3.451c-0.815-0.442-1.784-0.799-2.821-0.799-1.275 0-1.938 0.781-1.938 2.312v1.988h5.117v3.944z" fill="#fff"/>
 </g>
 <g transform="translate(-281.83 -120.87)" enable-background="new    ">
  <path d="m483.63 507.62-0.663 4.403c-0.731-0.323-1.785-0.527-2.686-0.527-2.057 0-3.468 1.258-3.468 3.706v8.975h-4.437v-16.472h4.301v1.802c1.037-1.547 2.618-2.243 4.641-2.243 0.952-1e-3 1.701 0.135 2.312 0.356z" fill="#fff"/>
 </g>
 <g transform="translate(-281.83 -120.87)" enable-background="new    ">
  <path d="m502.32 524.18h-4.334v-1.818c-1.071 1.325-2.668 2.243-4.929 2.243-4.539 0-7.972-3.723-7.972-8.669s3.434-8.669 7.972-8.669c2.261 0 3.841 0.918 4.929 2.261v-1.819h4.334zm-12.697-8.244c0 2.516 1.648 4.538 4.25 4.538 2.533 0 4.25-1.938 4.25-4.538s-1.717-4.539-4.25-4.539c-2.602 0-4.25 2.023-4.25 4.539z" fill="#fff"/>
 </g>
 <g transform="translate(-281.83 -120.87)" enable-background="new    ">
  <path d="m518.79 512.3c-1.309-0.646-3.399-1.326-5.252-1.343-1.683 0-2.533 0.595-2.533 1.496 0 0.951 1.19 1.189 2.686 1.41l1.462 0.222c3.57 0.544 5.559 2.142 5.559 4.929 0 3.4-2.788 5.593-7.564 5.593-2.244 0-5.185-0.425-7.326-1.938l1.751-3.366c1.411 0.936 3.127 1.615 5.609 1.615 2.057 0 3.042-0.578 3.042-1.547 0-0.799-0.833-1.241-2.737-1.513l-1.343-0.188c-3.808-0.526-5.694-2.192-5.694-4.997 0-3.383 2.618-5.389 6.952-5.389 2.635 0 4.692 0.493 6.885 1.564z" fill="#fff"/>
 </g>
 <g transform="translate(-281.83 -120.87)" enable-background="new    ">
  <path d="m536.04 511.65h-5.966v6.017c0 2.058 1.088 2.805 2.465 2.805 1.054 0 2.192-0.526 3.094-1.07l1.632 3.468c-1.445 0.985-3.111 1.733-5.457 1.733-4.079 0-6.17-2.312-6.17-6.578v-6.374h-3.179v-3.944h3.179v-4.896h4.437v4.896h5.966v3.943z" fill="#fff"/>
 </g>
 <g transform="translate(-281.83 -120.87)" enable-background="new    ">
  <path d="m551.21 507.62-0.663 4.403c-0.731-0.323-1.785-0.527-2.686-0.527-2.057 0-3.468 1.258-3.468 3.706v8.975h-4.437v-16.472h4.301v1.802c1.037-1.547 2.618-2.243 4.641-2.243 0.953-1e-3 1.701 0.135 2.312 0.356z" fill="#fff"/>
 </g>
 <g transform="translate(-281.83 -120.87)" enable-background="new    ">
  <path d="m569.57 517.16c0 5.202-3.672 7.445-7.785 7.445-4.131 0-7.802-2.243-7.802-7.445v-9.451h4.437v9.061c0 2.635 1.445 3.705 3.366 3.705 1.904 0 3.366-1.07 3.366-3.705v-9.061h4.419v9.451z" fill="#fff"/>
 </g>
 <g transform="translate(-281.83 -120.87)" enable-background="new    ">
  <path d="m588.44 510.38-3.196 2.669c-1.003-1.071-2.073-1.649-3.519-1.649-2.295 0-4.13 1.803-4.13 4.539 0 2.754 1.818 4.538 4.113 4.538 1.428 0 2.651-0.646 3.587-1.665l3.161 2.702c-1.547 1.989-3.858 3.094-6.612 3.094-5.252 0-8.771-3.672-8.771-8.669 0-4.98 3.519-8.669 8.771-8.669 2.754 0 5.083 1.122 6.596 3.11z" fill="#fff"/>
 </g>
 <g transform="translate(-281.83 -120.87)" enable-background="new    ">
  <path d="m603.77 511.65h-5.967v6.017c0 2.058 1.088 2.805 2.465 2.805 1.055 0 2.193-0.526 3.094-1.07l1.632 3.468c-1.444 0.985-3.11 1.733-5.456 1.733-4.08 0-6.171-2.312-6.171-6.578v-6.374h-3.179v-3.944h3.179v-4.896h4.437v4.896h5.967v3.943z" fill="#fff"/>
 </g>
 <g transform="translate(-281.83 -120.87)" enable-background="new    ">
  <path d="m622.98 517.16c0 5.202-3.672 7.445-7.785 7.445-4.131 0-7.802-2.243-7.802-7.445v-9.451h4.437v9.061c0 2.635 1.445 3.705 3.366 3.705 1.904 0 3.366-1.07 3.366-3.705v-9.061h4.419v9.451z" fill="#fff"/>
 </g>
 <g transform="translate(-281.83 -120.87)" enable-background="new    ">
  <path d="m638.75 507.62-0.663 4.403c-0.731-0.323-1.785-0.527-2.686-0.527-2.057 0-3.468 1.258-3.468 3.706v8.975h-4.437v-16.472h4.301v1.802c1.037-1.547 2.618-2.243 4.641-2.243 0.953-1e-3 1.701 0.135 2.312 0.356z" fill="#fff"/>
 </g>
 <g transform="translate(-281.83 -120.87)" enable-background="new    ">
  <path d="m656.53 515.92c0 0.51-0.034 1.121-0.085 1.495h-11.678c0.476 2.38 2.142 3.417 4.232 3.417 1.428 0 2.975-0.578 4.165-1.581l2.601 2.855c-1.87 1.717-4.25 2.499-7.021 2.499-5.048 0-8.55-3.434-8.55-8.618s3.399-8.72 8.329-8.72c4.744 1e-3 7.991 3.52 8.007 8.653zm-11.745-1.53h7.292c-0.408-2.107-1.683-3.298-3.586-3.298-2.092 0-3.315 1.258-3.706 3.298z" fill="#fff"/>
 </g>
 <g transform="translate(-281.83 -120.87)" enable-background="new    ">
  <path d="m1227 277.46c6.014 0 9.236 2.845 9.236 7.67 0 4.141-2.881 6.968-7.724 7.437l7.76 10.101h-6.086l-7.346-10.029h-1.477v10.029h-5.023v-25.207h10.66zm-5.636 4.627v6.176h5.546c2.736 0 4.159-1.008 4.159-3.133 0-2.089-1.495-3.043-4.159-3.043z" fill="#fff"/>
 </g>
 <g transform="translate(-281.83 -120.87)" enable-background="new    " fill="#fff">
  <path d="m1255.8 293.92c0 0.54-0.036 1.188-0.09 1.585h-12.37c0.504 2.521 2.269 3.619 4.483 3.619 1.513 0 3.151-0.612 4.411-1.675l2.755 3.025c-1.98 1.818-4.501 2.646-7.436 2.646-5.348 0-9.058-3.637-9.058-9.129 0-5.491 3.602-9.236 8.823-9.236 5.025 1e-3 8.463 3.727 8.482 9.165zm-12.442-1.62h7.724c-0.432-2.232-1.782-3.493-3.799-3.493-2.215 0-3.511 1.333-3.925 3.493z"/>
  <path d="m1264.4 287.1c1.242-1.729 3.097-2.341 5.006-2.341 3.961 0 6.787 2.755 6.787 6.806v11.109h-4.699v-9.597c0-2.521-1.26-3.907-3.402-3.907-2.017 0-3.691 1.314-3.691 3.943v9.561h-4.699v-25.945h4.699v10.371z"/>
 </g>
 <g transform="translate(-281.83 -120.87)" enable-background="new    " fill="#fff">
  <path d="m1298.7 293.94c0 5.258-4.016 9.183-9.453 9.183-5.419 0-9.417-3.925-9.417-9.183s3.998-9.183 9.417-9.183c5.438 0 9.453 3.925 9.453 9.183zm-14.08 0c0 2.826 1.98 4.808 4.627 4.808s4.646-1.981 4.646-4.808-1.998-4.808-4.646-4.808c-2.646 0-4.627 1.98-4.627 4.808z"/>
  <path d="m1315 290.08c-1.387-0.684-3.602-1.404-5.563-1.422-1.783 0-2.684 0.63-2.684 1.584 0 1.009 1.261 1.261 2.846 1.494l1.548 0.234c3.781 0.576 5.888 2.269 5.888 5.222 0 3.601-2.953 5.924-8.012 5.924-2.377 0-5.492-0.45-7.761-2.053l1.854-3.565c1.494 0.99 3.313 1.711 5.941 1.711 2.179 0 3.224-0.612 3.224-1.639 0-0.846-0.883-1.314-2.899-1.603l-1.422-0.198c-4.033-0.558-6.032-2.322-6.032-5.293 0-3.583 2.773-5.708 7.364-5.708 2.791 0 4.97 0.522 7.292 1.656z"/>
 </g>
 <g transform="translate(-281.83 -120.87)" enable-background="new    ">
  <path d="m1333.2 289.4h-6.32v6.373c0 2.179 1.152 2.972 2.611 2.972 1.116 0 2.322-0.559 3.277-1.135l1.729 3.673c-1.531 1.045-3.295 1.837-5.78 1.837-4.321 0-6.536-2.449-6.536-6.968v-6.752h-3.367v-4.178h3.367v-5.186h4.699v5.186h6.32z" fill="#fff"/>
 </g>
 <g transform="translate(-281.83 -120.87)" enable-background="new    ">
  <path d="m1220.6 423.37c6.014 0 9.237 2.845 9.237 7.67 0 4.141-2.881 6.968-7.725 7.437l7.761 10.101h-6.086l-7.347-10.029h-1.477v10.029h-5.023v-25.207h10.66zm-5.636 4.627v6.176h5.546c2.737 0 4.159-1.008 4.159-3.133 0-2.089-1.494-3.043-4.159-3.043z" fill="#fff"/>
 </g>
 <g transform="translate(-281.83 -120.87)" enable-background="new    " fill="#fff">
  <path d="m1249.5 439.83c0 0.54-0.036 1.188-0.09 1.585h-12.369c0.504 2.521 2.269 3.619 4.483 3.619 1.512 0 3.15-0.612 4.411-1.675l2.755 3.025c-1.98 1.818-4.502 2.646-7.437 2.646-5.348 0-9.057-3.637-9.057-9.129 0-5.491 3.601-9.236 8.822-9.236 5.025 1e-3 8.465 3.728 8.482 9.165zm-12.441-1.62h7.725c-0.433-2.232-1.783-3.493-3.8-3.493-2.214 0-3.511 1.333-3.925 3.493z"/>
  <path d="m1271.6 439.85c0 5.239-3.638 9.183-8.444 9.183-2.341 0-3.998-0.918-5.132-2.269v9.021h-4.682v-24.649h4.592v1.927c1.134-1.423 2.809-2.395 5.203-2.395 4.825-1e-3 8.463 3.941 8.463 9.182zm-13.81 0c0 2.755 1.818 4.808 4.483 4.808 2.773 0 4.502-2.143 4.502-4.808s-1.729-4.808-4.502-4.808c-2.665 0-4.483 2.053-4.483 4.808z"/>
  <path d="m1280.1 448.58h-4.699v-25.928h4.699z"/>
  <path d="m1302.2 448.58h-4.592v-1.927c-1.134 1.404-2.826 2.377-5.221 2.377-4.808 0-8.445-3.943-8.445-9.183s3.638-9.183 8.445-9.183c2.395 0 4.068 0.972 5.221 2.395v-1.927h4.592zm-13.45-8.732c0 2.665 1.747 4.808 4.502 4.808 2.683 0 4.501-2.053 4.501-4.808s-1.818-4.808-4.501-4.808c-2.755 0-4.502 2.143-4.502 4.808z"/>
 </g>
 <g transform="translate(-281.83 -120.87)" enable-background="new    ">
  <path d="m1319.8 435.31h-6.32v6.373c0 2.179 1.152 2.972 2.611 2.972 1.115 0 2.322-0.559 3.276-1.135l1.729 3.673c-1.53 1.045-3.295 1.837-5.78 1.837-4.32 0-6.535-2.449-6.535-6.968v-6.752h-3.367v-4.178h3.367v-5.186h4.699v5.186h6.32z" fill="#fff"/>
 </g>
 <g transform="translate(-281.83 -120.87)" enable-background="new    ">
  <path d="m1335.3 435.31h-5.419v13.27h-4.7v-13.27h-3.259v-4.178h3.259v-2.16c0-4.088 2.179-6.771 6.248-6.771 2.377 0 4.033 0.685 5.366 1.566l-1.873 3.655c-0.864-0.468-1.891-0.847-2.989-0.847-1.35 0-2.052 0.829-2.052 2.449v2.106h5.419z" fill="#fff"/>
 </g>
 <g transform="translate(-281.83 -120.87)" enable-background="new    " fill="#fff">
  <path d="m1356.1 439.85c0 5.258-4.016 9.183-9.453 9.183-5.419 0-9.417-3.925-9.417-9.183s3.998-9.183 9.417-9.183c5.437 0 9.453 3.925 9.453 9.183zm-14.08 0c0 2.826 1.98 4.808 4.627 4.808s4.646-1.981 4.646-4.808-1.998-4.808-4.646-4.808c-2.647 0-4.627 1.981-4.627 4.808z"/>
  <path d="m1371.8 431.04-0.702 4.663c-0.774-0.342-1.891-0.558-2.845-0.558-2.179 0-3.674 1.332-3.674 3.925v9.507h-4.699v-17.447h4.556v1.908c1.099-1.638 2.772-2.376 4.915-2.376 1.009 0 1.801 0.144 2.449 0.378z"/>
  <path d="m1403.3 437.47v11.109h-4.682v-9.597c0-2.521-1.278-3.907-3.402-3.907-2.017 0-3.691 1.314-3.691 3.943v9.561h-4.699v-9.597c0-2.521-1.261-3.907-3.403-3.907-2.017 0-3.691 1.314-3.691 3.943v9.561h-4.699v-17.447h4.573v2.053c1.243-1.854 3.151-2.521 5.132-2.521 2.521 0 4.592 1.134 5.762 2.988 1.351-2.214 3.637-2.988 5.924-2.988 4.103 0 6.876 2.755 6.876 6.806z"/>
 </g>
 <g transform="translate(-281.83 -120.87)" enable-background="new    ">
  <path d="m1224.8 569.28c6.014 0 9.237 2.845 9.237 7.67 0 4.141-2.881 6.968-7.725 7.437l7.76 10.101h-6.086l-7.346-10.029h-1.477v10.029h-5.023v-25.207h10.66zm-5.636 4.627v6.176h5.546c2.737 0 4.159-1.008 4.159-3.133 0-2.089-1.494-3.043-4.159-3.043z" fill="#fff"/>
 </g>
 <g transform="translate(-281.83 -120.87)" enable-background="new    ">
  <path d="m1253.7 585.74c0 0.54-0.036 1.188-0.09 1.585h-12.37c0.504 2.521 2.269 3.619 4.483 3.619 1.513 0 3.151-0.612 4.411-1.675l2.755 3.025c-1.98 1.818-4.501 2.646-7.436 2.646-5.348 0-9.058-3.637-9.058-9.129 0-5.491 3.602-9.236 8.823-9.236 5.025 1e-3 8.463 3.728 8.482 9.165zm-12.442-1.62h7.724c-0.432-2.232-1.782-3.493-3.799-3.493-2.215 0-3.511 1.333-3.925 3.493z" fill="#fff"/>
 </g>
 <g transform="translate(-281.83 -120.87)" enable-background="new    ">
  <path d="m1269 581.22h-5.42v13.27h-4.699v-13.27h-3.259v-4.178h3.259v-2.16c0-4.088 2.179-6.771 6.248-6.771 2.376 0 4.033 0.685 5.365 1.566l-1.872 3.655c-0.864-0.468-1.891-0.847-2.989-0.847-1.351 0-2.053 0.829-2.053 2.449v2.106h5.42z" fill="#fff"/>
 </g>
 <g transform="translate(-281.83 -120.87)" enable-background="new    ">
  <path d="m1289.1 594.49h-4.591v-1.927c-1.135 1.404-2.828 2.377-5.223 2.377-4.807 0-8.444-3.943-8.444-9.183s3.638-9.183 8.444-9.183c2.395 0 4.07 0.972 5.223 2.395v-1.927h4.591zm-13.45-8.732c0 2.665 1.746 4.808 4.502 4.808 2.682 0 4.5-2.053 4.5-4.808s-1.818-4.808-4.5-4.808c-2.756 0-4.502 2.143-4.502 4.808z" fill="#fff"/>
 </g>
 <g transform="translate(-281.83 -120.87)" enable-background="new    ">
  <path d="m1309.3 579.87-3.385 2.826c-1.062-1.134-2.196-1.746-3.727-1.746-2.431 0-4.376 1.908-4.376 4.808 0 2.917 1.927 4.808 4.357 4.808 1.513 0 2.809-0.685 3.799-1.765l3.35 2.862c-1.639 2.106-4.087 3.277-7.004 3.277-5.564 0-9.291-3.89-9.291-9.183 0-5.275 3.727-9.183 9.291-9.183 2.918 1e-3 5.383 1.19 6.986 3.296z" fill="#fff"/>
 </g>
 <g transform="translate(-281.83 -120.87)" enable-background="new    ">
  <path d="m1325.5 581.22h-6.319v6.373c0 2.179 1.152 2.972 2.61 2.972 1.116 0 2.323-0.559 3.277-1.135l1.729 3.673c-1.53 1.045-3.295 1.837-5.78 1.837-4.321 0-6.535-2.449-6.535-6.968v-6.752h-3.367v-4.178h3.367v-5.186h4.699v5.186h6.319z" fill="#fff"/>
 </g>
 <g transform="translate(-281.83 -120.87)" enable-background="new    ">
  <path d="m1347.2 585.76c0 5.258-4.016 9.183-9.453 9.183-5.419 0-9.417-3.925-9.417-9.183s3.998-9.183 9.417-9.183c5.438 0 9.453 3.925 9.453 9.183zm-14.08 0c0 2.826 1.98 4.808 4.627 4.808s4.646-1.981 4.646-4.808-1.998-4.808-4.646-4.808c-2.646 0-4.627 1.981-4.627 4.808z" fill="#fff"/>
 </g>
 <g transform="translate(-281.83 -120.87)" enable-background="new    ">
  <path d="m1362.9 576.95-0.702 4.663c-0.774-0.342-1.891-0.558-2.845-0.558-2.179 0-3.673 1.332-3.673 3.925v9.507h-4.699v-17.447h4.555v1.908c1.099-1.638 2.773-2.376 4.916-2.376 1.008 0 1.801 0.144 2.448 0.378z" fill="#fff"/>
 </g>
 <line x1="5.42" x2="1350.9" y1="656.55" y2="656.55" fill="none" stroke="#fff" stroke-miterlimit="10" stroke-width="5"/>
 <polygon transform="translate(-281.83 -120.87)" points="289.17 777.43 307.23 760.64 303.82 756.98 281.83 777.43 303.82 797.87 307.23 794.21" fill="#fff"/>
 <polygon transform="translate(-281.83 -120.87)" points="1630.8 777.43 1612.8 760.64 1616.2 756.98 1638.2 777.43 1616.2 797.87 1612.8 794.21" fill="#fff"/>
 <path d="m678.17 571.67c46.966 0 85.04 38.074 85.04 85.04s-38.074 85.04-85.04 85.04-85.04-38.074-85.04-85.04 38.074-85.04 85.04-85.04z" fill="#323581"/>
 <g transform="translate(-281.83 -120.87)">
  <g fill="#ac9565">
   <path d="m997.22 765.87c6e-3 0.851-0.679 1.544-1.53 1.55h-0.02c-0.856 5e-3 -1.554-0.684-1.56-1.54v-0.01c-0.069-0.859 0.571-1.611 1.43-1.68s1.611 0.571 1.68 1.43c7e-3 0.083 7e-3 0.167 0 0.25z"/>
   <path d="m927.41 765.87c0 0.856-0.694 1.55-1.55 1.55h-0.01c-0.851 6e-3 -1.544-0.679-1.55-1.53v-0.02c-0.069-0.859 0.571-1.611 1.43-1.68s1.611 0.571 1.68 1.43c7e-3 0.083 7e-3 0.167 0 0.25z"/>
  </g>
  <g fill="#ac9565">
   <path d="m996 756.43c0.222 0.827-0.268 1.677-1.095 1.899-2e-3 0-3e-3 1e-3 -5e-3 1e-3 -0.82 0.226-1.668-0.256-1.894-1.076l-6e-3 -0.024c-0.221-0.828 0.272-1.679 1.1-1.9s1.679 0.272 1.9 1.1z"/>
   <path d="m928.54 774.5c0.226 0.82-0.256 1.668-1.076 1.894l-0.024 6e-3c-0.82 0.226-1.668-0.256-1.894-1.076l-6e-3 -0.024c-0.221-0.828 0.272-1.679 1.1-1.9s1.679 0.272 1.9 1.1z"/>
  </g>
  <g fill="#ac9565">
   <path d="m992.34 747.63c0.43 0.746 0.175 1.699-0.57 2.13-0.746 0.424-1.695 0.17-2.13-0.57-0.406-0.76-0.119-1.705 0.641-2.111 0.724-0.387 1.625-0.146 2.059 0.551z"/>
   <path d="m931.88 782.54c0.43 0.746 0.175 1.699-0.57 2.13-0.746 0.43-1.699 0.175-2.13-0.57-0.406-0.76-0.119-1.705 0.641-2.111 0.724-0.387 1.625-0.146 2.059 0.551z"/>
  </g>
  <g fill="#ac9565">
   <path d="m986.54 740.08c0.608 0.603 0.611 1.584 8e-3 2.192l-8e-3 8e-3c-0.603 0.608-1.584 0.611-2.192 8e-3l-8e-3 -8e-3c-0.562-0.653-0.488-1.638 0.165-2.2 0.585-0.503 1.45-0.503 2.035 0z"/>
   <path d="m937.18 789.45c0.6 0.611 0.6 1.589 0 2.2-0.603 0.608-1.584 0.611-2.192 8e-3l-8e-3 -8e-3c-0.653-0.562-0.727-1.547-0.165-2.2s1.547-0.727 2.2-0.165c0.059 0.051 0.114 0.106 0.165 0.165z"/>
  </g>
  <path d="m979 734.29c0.742 0.426 0.999 1.374 0.572 2.116-1e-3 1e-3 -2e-3 3e-3 -2e-3 4e-3 -0.426 0.742-1.374 0.999-2.116 0.572-1e-3 -1e-3 -3e-3 -2e-3 -4e-3 -2e-3 -0.743-0.428-0.998-1.377-0.57-2.12s1.377-0.998 2.12-0.57z" fill="#ac9565"/>
  <path d="m970.2 730.65c0.827 0.219 1.32 1.068 1.101 1.895 0 2e-3 -1e-3 3e-3 -1e-3 5e-3 -0.224 0.831-1.079 1.323-1.91 1.1-0.828-0.224-1.319-1.077-1.095-1.905s1.077-1.319 1.905-1.095z" fill="#ac9565"/>
  <path d="m960.76 729.4c0.862 0 1.56 0.698 1.56 1.56 0 0.856-0.694 1.55-1.55 1.55h-0.01c-0.859 0.069-1.611-0.571-1.68-1.43s0.571-1.611 1.43-1.68c0.083-7e-3 0.167-7e-3 0.25 0z" fill="#ac9565"/>
  <path d="m951.32 730.65c0.825-0.227 1.679 0.258 1.906 1.083 2e-3 5e-3 3e-3 0.011 4e-3 0.016 0.222 0.827-0.268 1.677-1.095 1.899-2e-3 0-3e-3 1e-3 -5e-3 1e-3 -0.828 0.224-1.681-0.267-1.905-1.095-0.224-0.827 0.267-1.68 1.095-1.904z" fill="#ac9565"/>
  <path d="m942.53 734.29c0.741-0.428 1.689-0.175 2.118 0.566 1e-3 1e-3 2e-3 3e-3 2e-3 4e-3 0.428 0.741 0.175 1.689-0.566 2.118-1e-3 1e-3 -3e-3 2e-3 -4e-3 2e-3 -0.743 0.428-1.692 0.173-2.12-0.57s-0.173-1.692 0.57-2.12z" fill="#ac9565"/>
  <g fill="#ac9565">
   <path d="m935 740.08c0.611-0.6 1.589-0.6 2.2 0 0.6 0.611 0.6 1.589 0 2.2-0.562 0.653-1.547 0.727-2.2 0.165s-0.727-1.547-0.165-2.2c0.051-0.059 0.106-0.114 0.165-0.165z"/>
   <path d="m984.34 789.45c0.603-0.608 1.584-0.611 2.192-8e-3l8e-3 8e-3c0.608 0.603 0.611 1.584 8e-3 2.192l-8e-3 8e-3c-0.603 0.608-1.584 0.611-2.192 8e-3l-8e-3 -8e-3c-0.6-0.611-0.6-1.589 0-2.2z"/>
  </g>
  <g fill="#ac9565">
   <path d="m929.18 747.63c0.435-0.742 1.387-0.992 2.13-0.56 0.742 0.426 0.999 1.374 0.572 2.116-1e-3 1e-3 -2e-3 3e-3 -2e-3 4e-3 -0.456 0.731-1.418 0.955-2.149 0.499-0.697-0.434-0.938-1.335-0.551-2.059z"/>
   <path d="m989.64 782.54c0.435-0.74 1.384-0.994 2.13-0.57 0.745 0.431 1 1.384 0.57 2.13-0.406 0.76-1.351 1.047-2.111 0.641s-1.047-1.351-0.641-2.111c0.016-0.031 0.034-0.061 0.052-0.09z"/>
  </g>
  <g fill="#ac9565">
   <path d="m925.54 756.43c0.219-0.827 1.068-1.32 1.895-1.101 2e-3 0 3e-3 1e-3 5e-3 1e-3 0.824 0.213 1.319 1.052 1.106 1.876l-6e-3 0.024c-0.221 0.828-1.072 1.321-1.9 1.1s-1.321-1.072-1.1-1.9z"/>
   <path d="m993 774.5c0.219-0.827 1.068-1.32 1.895-1.101 2e-3 0 3e-3 1e-3 5e-3 1e-3 0.827 0.219 1.32 1.068 1.101 1.895 0 2e-3 -1e-3 3e-3 -1e-3 5e-3 -0.221 0.828-1.072 1.321-1.9 1.1s-1.321-1.072-1.1-1.9z"/>
  </g>
  <path d="m983 743.39-22.61 22.61 4 4 18.61-18.68z" fill="#ac9565"/>
  <path d="m983 743.39h-7.92l-18.65 18.61 4 4z" fill="#fff"/>
  <path d="m937.79 788.58 22.6-22.6-4-4-18.64 18.63z" fill="#ac9565"/>
  <path d="m937.79 788.58h7.93l18.63-18.58-4-4z" fill="#fff"/>
  <g fill="#fff">
   <path d="m917.62 825.6v-12.6h5.76c0.622-6e-3 1.237 0.127 1.8 0.39 0.532 0.236 1.011 0.576 1.41 1 0.406 0.398 0.726 0.874 0.94 1.4 0.223 0.493 0.339 1.029 0.34 1.57 3e-3 0.559-0.106 1.113-0.32 1.63-0.211 0.518-0.516 0.993-0.9 1.4-0.393 0.421-0.866 0.761-1.39 1-0.567 0.237-1.176 0.356-1.79 0.35h-2.18v3.86zm3.67-6.86h1.94c0.237-9e-3 0.461-0.114 0.62-0.29 0.233-0.302 0.34-0.681 0.3-1.06 0.043-0.386-0.081-0.771-0.34-1.06-0.185-0.172-0.427-0.272-0.68-0.28h-1.84z"/>
   <path d="m938.86 822.59v3h-9.52v-12.59h9.36v3h-5.7v1.77h4.86v2.79h-4.86v2z"/>
   <path d="m940.58 825.6v-12.6h3.67v9.55h6.06v3z"/>
   <path d="m957.44 825.7c-0.952 0.015-1.896-0.173-2.77-0.55-0.79-0.34-1.509-0.825-2.12-1.43-0.585-0.591-1.053-1.286-1.38-2.05-0.321-0.749-0.488-1.555-0.49-2.37-1e-3 -0.82 0.173-1.632 0.51-2.38 0.336-0.752 0.815-1.431 1.41-2 1.329-1.254 3.092-1.946 4.92-1.93 1.834-0.023 3.598 0.699 4.89 2 0.575 0.573 1.033 1.253 1.35 2 0.323 0.741 0.489 1.541 0.49 2.35-1e-3 0.823-0.171 1.636-0.5 2.39-0.343 0.75-0.825 1.429-1.42 2-0.628 0.593-1.36 1.064-2.16 1.39-0.864 0.363-1.793 0.544-2.73 0.53zm-3-6.36c-1e-3 0.421 0.063 0.839 0.19 1.24 0.125 0.365 0.314 0.703 0.56 1 0.26 0.307 0.58 0.559 0.94 0.74 0.879 0.373 1.871 0.373 2.75 0 0.366-0.18 0.687-0.44 0.94-0.76s0.44-0.687 0.55-1.08c0.122-0.395 0.186-0.806 0.19-1.22-2e-3 -0.414-0.066-0.825-0.19-1.22-0.123-0.369-0.321-0.71-0.58-1-0.274-0.315-0.616-0.565-1-0.73-0.42-0.192-0.878-0.287-1.34-0.28-0.472-9e-3 -0.94 0.086-1.37 0.28-0.383 0.18-0.724 0.439-1 0.76-0.253 0.318-0.443 0.681-0.56 1.07-0.112 0.39-0.17 0.794-0.17 1.2z"/>
   <path d="m965.82 825.6v-12.6h6.18c0.625-6e-3 1.243 0.127 1.81 0.39 1.052 0.478 1.889 1.33 2.35 2.39 0.223 0.493 0.339 1.029 0.34 1.57 8e-3 1.444-0.714 2.795-1.92 3.59l2.82 4.62h-4.14l-2.35-3.86h-1.37v3.86zm3.67-6.86h2.31c0.252-0.014 0.483-0.148 0.62-0.36 0.22-0.285 0.327-0.641 0.3-1 0.028-0.366-0.095-0.727-0.34-1-0.169-0.2-0.409-0.325-0.67-0.35h-2.22z"/>
   <path d="m984.24 822.64c0.38 0.015 0.758-0.075 1.09-0.26 0.294-0.173 0.547-0.409 0.74-0.69 0.187-0.31 0.326-0.648 0.41-1 0.089-0.387 0.133-0.783 0.13-1.18v-6.51h3.67v6.46c6e-3 0.83-0.115 1.657-0.36 2.45-0.211 0.743-0.59 1.428-1.11 2-0.528 0.572-1.177 1.02-1.9 1.31-1.75 0.64-3.67 0.64-5.42 0-0.711-0.314-1.345-0.778-1.86-1.36-0.498-0.581-0.864-1.263-1.07-2-0.231-0.772-0.346-1.574-0.34-2.38v-6.48h3.67v6.46c-2e-3 0.404 0.041 0.806 0.13 1.2 0.084 0.352 0.223 0.69 0.41 1 0.188 0.278 0.434 0.514 0.72 0.69 0.338 0.169 0.712 0.252 1.09 0.24z"/>
   <path d="m1000.5 817.15c-0.371-0.22-0.759-0.41-1.16-0.57-0.376-0.151-0.76-0.281-1.15-0.39-0.398-0.126-0.813-0.19-1.23-0.19-0.271-0.013-0.541 0.034-0.79 0.14-0.18 0.085-0.291 0.271-0.28 0.47-6e-3 0.155 0.056 0.305 0.17 0.41 0.144 0.129 0.31 0.231 0.49 0.3 0.252 0.097 0.509 0.18 0.77 0.25 0.32 0.08 0.67 0.18 1.06 0.3 0.561 0.161 1.112 0.355 1.65 0.58 0.46 0.193 0.89 0.449 1.28 0.76 0.342 0.268 0.619 0.61 0.81 1 0.201 0.474 0.296 0.986 0.28 1.5 0.021 0.665-0.135 1.324-0.45 1.91-0.282 0.498-0.684 0.918-1.17 1.22-0.499 0.318-1.051 0.545-1.63 0.67-0.601 0.132-1.215 0.199-1.83 0.2-0.502-2e-3 -1.003-0.039-1.5-0.11-0.522-0.071-1.039-0.171-1.55-0.3-0.498-0.128-0.988-0.281-1.47-0.46-0.443-0.172-0.873-0.372-1.29-0.6l1.58-3c0.44 0.262 0.898 0.492 1.37 0.69 0.44 0.195 0.895 0.355 1.36 0.48 0.508 0.14 1.033 0.21 1.56 0.21 0.284 0.026 0.57-0.022 0.83-0.14 0.147-0.08 0.239-0.233 0.24-0.4 0-0.181-0.09-0.35-0.24-0.45-0.19-0.15-0.408-0.262-0.64-0.33-0.28-0.1-0.6-0.19-1-0.29s-0.73-0.2-1.13-0.33c-0.523-0.164-1.035-0.364-1.53-0.6-0.364-0.203-0.7-0.451-1-0.74-0.272-0.288-0.483-0.628-0.62-1-0.135-0.392-0.199-0.805-0.19-1.22-0.015-0.636 0.122-1.267 0.4-1.84 0.262-0.52 0.642-0.972 1.11-1.32 0.473-0.362 1.008-0.633 1.58-0.8 0.615-0.191 1.256-0.285 1.9-0.28 0.48-4e-3 0.96 0.043 1.43 0.14 0.451 0.077 0.895 0.187 1.33 0.33 0.42 0.122 0.83 0.273 1.23 0.45 0.37 0.15 0.71 0.3 1 0.44z"/>
  </g>
  <g fill="#fff">
   <path d="m925.53 803.74c-1.867-6e-3 -3.384 1.503-3.39 3.37-5e-3 1.867 1.503 3.384 3.37 3.39s3.384-1.503 3.39-3.37v-0.01c-0.011-1.858-1.512-3.364-3.37-3.38zm0 1.55c1.011 6e-3 1.826 0.829 1.82 1.84s-0.829 1.825-1.84 1.82c-1.007-6e-3 -1.82-0.823-1.82-1.83-6e-3 -1.005 0.805-1.825 1.81-1.83h0.03z"/>
   <path d="m917.62 810v-5.75h1.58v2.18l1.75-2.18h1.78l-2.09 2.57 2.24 3.18h-1.82l-1.43-2.12-0.43 0.46v1.66z"/>
   <path d="m931 807.17v2.83h-1.6v-5.75h1.23l2.31 2.92v-2.92h1.58v5.75h-1.26z"/>
   <path d="m936.62 804.25 1.12 3.76 1.11-3.76h1.66l-2.11 5.75h-1.31l-2.09-5.75z"/>
   <path d="m945.05 808.62v1.38h-4.05v-5.75h4v1.37h-2.45v0.81h2.09v1.28h-2.09v0.91z"/>
   <path d="m947 804.25 1 2.48 1.06-2.48h1.72l-2 3.85v1.9h-1.58v-1.92l-2-3.83z"/>
   <path d="m957.42 810v-5.75h2.64c0.269-1e-3 0.535 0.057 0.78 0.17 0.231 0.113 0.438 0.269 0.61 0.46 0.171 0.187 0.306 0.404 0.4 0.64 0.097 0.228 0.148 0.472 0.15 0.72-1e-3 0.326-0.077 0.647-0.22 0.94-0.142 0.281-0.351 0.521-0.61 0.7l1.22 2.12h-1.79l-1-1.77h-0.6v1.77zm1.58-3.14h1c0.109-0.011 0.206-0.075 0.26-0.17 0.096-0.129 0.142-0.289 0.13-0.45 0.011-0.162-0.039-0.323-0.14-0.45-0.07-0.094-0.174-0.155-0.29-0.17h-1z"/>
   <path d="m953.61 803.74c-1.867 0-3.38 1.513-3.38 3.38s1.513 3.38 3.38 3.38 3.38-1.513 3.38-3.38c-0.011-1.862-1.518-3.369-3.38-3.38zm0 1.55c1.011 0 1.83 0.819 1.83 1.83s-0.819 1.83-1.83 1.83-1.83-0.819-1.83-1.83c-6e-3 -1.005 0.805-1.824 1.81-1.83h0.02z"/>
  </g>
 </g>
 <g transform="translate(-281.83 -120.87)" enable-background="new    ">
  <path d="m926.6 540.31h-5.365l-2.197-5.87h-10.749l-2.196 5.87h-5.24l9.813-25.207h6.122zm-16.583-10.497h7.292l-3.637-9.741z" fill="#fff"/>
 </g>
 <g transform="translate(-281.83 -120.87)" enable-background="new    ">
  <path d="m941.89 527.72c-1.386-0.684-3.601-1.404-5.563-1.422-1.783 0-2.683 0.63-2.683 1.584 0 1.009 1.26 1.261 2.845 1.494l1.548 0.234c3.781 0.576 5.888 2.269 5.888 5.222 0 3.601-2.953 5.923-8.012 5.923-2.377 0-5.492-0.45-7.761-2.052l1.854-3.565c1.495 0.99 3.313 1.711 5.942 1.711 2.179 0 3.223-0.612 3.223-1.639 0-0.846-0.882-1.314-2.899-1.603l-1.422-0.198c-4.033-0.558-6.032-2.322-6.032-5.293 0-3.583 2.773-5.708 7.364-5.708 2.791 0 4.969 0.522 7.292 1.656z" fill="#fff"/>
 </g>
 <g transform="translate(-281.83 -120.87)" enable-background="new    ">
  <path d="m960.02 527.72c-1.386-0.684-3.601-1.404-5.563-1.422-1.783 0-2.683 0.63-2.683 1.584 0 1.009 1.26 1.261 2.845 1.494l1.548 0.234c3.781 0.576 5.887 2.269 5.887 5.222 0 3.601-2.953 5.923-8.012 5.923-2.377 0-5.492-0.45-7.761-2.052l1.854-3.565c1.495 0.99 3.313 1.711 5.942 1.711 2.179 0 3.223-0.612 3.223-1.639 0-0.846-0.882-1.314-2.899-1.603l-1.422-0.198c-4.033-0.558-6.032-2.322-6.032-5.293 0-3.583 2.773-5.708 7.364-5.708 2.791 0 4.969 0.522 7.292 1.656z" fill="#fff"/>
 </g>
 <g transform="translate(-281.83 -120.87)" enable-background="new    " fill="#fff">
  <path d="m981.93 531.56c0 0.54-0.036 1.188-0.09 1.585h-12.37c0.504 2.521 2.269 3.619 4.483 3.619 1.513 0 3.151-0.612 4.411-1.675l2.755 3.025c-1.98 1.818-4.501 2.646-7.436 2.646-5.348 0-9.058-3.636-9.058-9.128 0-5.491 3.602-9.236 8.823-9.236 5.025 0 8.463 3.727 8.482 9.164zm-12.442-1.62h7.724c-0.432-2.232-1.782-3.493-3.799-3.493-2.215 0-3.511 1.333-3.925 3.493z"/>
  <path d="m998.15 527.72c-1.387-0.684-3.602-1.404-5.563-1.422-1.783 0-2.684 0.63-2.684 1.584 0 1.009 1.261 1.261 2.846 1.494l1.548 0.234c3.781 0.576 5.888 2.269 5.888 5.222 0 3.601-2.953 5.923-8.012 5.923-2.377 0-5.492-0.45-7.761-2.052l1.854-3.565c1.494 0.99 3.313 1.711 5.941 1.711 2.179 0 3.224-0.612 3.224-1.639 0-0.846-0.883-1.314-2.899-1.603l-1.422-0.198c-4.033-0.558-6.032-2.322-6.032-5.293 0-3.583 2.773-5.708 7.364-5.708 2.791 0 4.97 0.522 7.292 1.656z"/>
 </g>
 <g transform="translate(-281.83 -120.87)" enable-background="new    ">
  <path d="m1016.3 527.72c-1.387-0.684-3.602-1.404-5.563-1.422-1.783 0-2.684 0.63-2.684 1.584 0 1.009 1.261 1.261 2.846 1.494l1.548 0.234c3.781 0.576 5.888 2.269 5.888 5.222 0 3.601-2.953 5.923-8.012 5.923-2.377 0-5.492-0.45-7.761-2.052l1.854-3.565c1.494 0.99 3.313 1.711 5.941 1.711 2.179 0 3.224-0.612 3.224-1.639 0-0.846-0.883-1.314-2.899-1.603l-1.422-0.198c-4.033-0.558-6.032-2.322-6.032-5.293 0-3.583 2.773-5.708 7.364-5.708 2.791 0 4.97 0.522 7.292 1.656z" fill="#fff"/>
 </g>
 <g transform="translate(-281.83 -120.87)">
  <g fill="#fff">
   <path d="m936.36 479.55h-3.84v9.54h-3.67v-9.54h-3.85v-3h11.37z"/>
   <path d="m939.94 476.54h3.35l4.63 12.55h-3.73l-0.81-2.45h-3.56l-0.79 2.45h-3.74zm2.86 7.8-1.19-3.89-1.24 3.89z"/>
   <path d="m947.75 482.71c3e-3 -0.775 0.155-1.543 0.45-2.26 0.315-0.749 0.773-1.428 1.35-2 0.617-0.617 1.347-1.109 2.15-1.45 0.911-0.382 1.892-0.57 2.88-0.55 1.163-0.032 2.315 0.23 3.35 0.76 0.889 0.446 1.629 1.141 2.13 2l-2.81 1.88c-0.11-0.292-0.284-0.555-0.51-0.77-0.195-0.194-0.421-0.353-0.67-0.47-0.251-0.118-0.517-0.202-0.79-0.25-0.257-0.048-0.518-0.071-0.78-0.07-0.474-0.01-0.943 0.093-1.37 0.3-0.367 0.179-0.688 0.439-0.94 0.76-0.244 0.319-0.43 0.677-0.55 1.06-0.11 0.38-0.167 0.774-0.17 1.17-1e-3 0.426 0.07 0.848 0.21 1.25 0.131 0.388 0.335 0.748 0.6 1.06 0.281 0.313 0.621 0.568 1 0.75 0.411 0.175 0.853 0.264 1.3 0.26 0.258 1e-3 0.516-0.022 0.77-0.07 0.262-0.059 0.517-0.147 0.76-0.26 0.243-0.125 0.466-0.287 0.66-0.48 0.204-0.21 0.364-0.458 0.47-0.73l3 1.68c-0.211 0.476-0.525 0.9-0.92 1.24-0.418 0.374-0.89 0.684-1.4 0.92-0.532 0.257-1.092 0.448-1.67 0.57-0.568 0.126-1.148 0.19-1.73 0.19-0.939 0.012-1.869-0.175-2.73-0.55-0.794-0.36-1.516-0.862-2.13-1.48-0.584-0.605-1.048-1.314-1.37-2.09-0.323-0.749-0.489-1.555-0.49-2.37z"/>
   <path d="m961.49 489.09v-12.55h3.67v4.77l4.06-4.77h4.14l-4.85 5.62 5.19 6.93h-4.21l-3.32-4.61-1 1v3.62z"/>
   <path d="m974.47 489.09v-12.55h3.67v9.55h6.06v3z"/>
   <path d="m995 486.09v3h-9.53v-12.55h9.36v3h-5.69v1.76h4.86v2.8h-4.86v2z"/>
  </g>
  <path d="m968.78 387 3.32 1.91v26.09l-3.32-1.91z" fill="#ac9565"/>
  <path d="m950.58 387-3.32 1.91v27.27l3.32-1.91z" fill="#ac9565"/>
  <path d="m959.78 398.54c-8.284 0-15 6.716-15 15-1e-3 1.491 0.222 2.974 0.66 4.4l7 21.18c0.81 4.073 4.769 6.719 8.843 5.908 2.837-0.564 5.099-2.706 5.817-5.508l7.15-21.52h-0.09c2.419-7.952-2.066-16.36-10.019-18.779-1.414-0.43-2.884-0.65-4.361-0.651z" fill="#fff"/>
  <path d="m959.78 431.63c-2.614-7e-3 -4.763 2.058-4.86 4.67v8.36c-0.073 0.701 0.204 1.393 0.74 1.85l5.59 5.6c1.293 1.324 1.267 3.445-0.057 4.737-8e-3 8e-3 -0.016 0.015-0.023 0.023-1.333 1.263-3.411 1.293-4.78 0.07l-4-4c-0.379-0.355-0.974-0.336-1.329 0.043-0.2 0.214-0.289 0.508-0.241 0.797 0 1.24 1.38 1.16 1.38 1.75-0.021 3.993 3.198 7.247 7.191 7.268 0.13 1e-3 0.259-2e-3 0.389-8e-3 4.253-5e-3 7.696-3.456 7.692-7.708-3e-3 -2.324-1.054-4.522-2.862-5.982v-12.75c-0.076-2.624-2.225-4.711-4.85-4.71z" fill="#ac9565"/>
  <path d="m964 418c-1.934 0.647-3.922 1.122-5.94 1.42-1.533-1.345-2.939-2.828-4.2-4.43 0.4-2.002 0.982-3.964 1.74-5.86 1.931-0.648 3.915-1.123 5.93-1.42 1.531 1.349 2.94 2.832 4.21 4.43-0.408 2-0.99 3.961-1.74 5.86z" fill="#323581"/>
  <path d="m961.88 439c-0.978 0.322-1.982 0.559-3 0.71-0.768-0.673-1.471-1.416-2.1-2.22 0.194-0.999 0.485-1.977 0.87-2.92 0.976-0.332 1.98-0.573 3-0.72 0.76 0.68 1.463 1.423 2.1 2.22-0.205 1-0.496 1.98-0.87 2.93z" fill="#323581"/>
  <g fill="#fff">
   <path d="m932.9 467.24c-1.867 0-3.38 1.513-3.38 3.38s1.513 3.38 3.38 3.38 3.38-1.513 3.38-3.38c-5e-3 -1.864-1.516-3.375-3.38-3.38zm0 1.55c1.011 0 1.83 0.819 1.83 1.83s-0.819 1.83-1.83 1.83-1.83-0.819-1.83-1.83c-5e-3 -1.005 0.805-1.824 1.81-1.83h0.02z"/>
   <path d="m925 473.5v-5.76h1.58v2.19l1.75-2.19h1.79l-2.12 2.58 2.23 3.18h-1.81l-1.42-2.12-0.44 0.46v1.66z"/>
   <path d="m938.35 470.67v2.83h-1.58v-5.76h1.23l2.31 2.93v-2.93h1.58v5.76h-1.26z"/>
   <path d="m944 467.74 1.13 3.77 1.11-3.77h1.66l-2.11 5.76h-1.32l-2.14-5.76z"/>
   <path d="m952.43 472.12v1.38h-4.1v-5.76h4v1.38h-2.45v0.81h2.12v1.28h-2.09v0.91z"/>
   <path d="m954.33 467.74 1 2.49 1.06-2.49h1.71l-2 3.85v1.91h-1.57v-1.92l-2-3.84z"/>
   <path d="m964.8 473.5v-5.76h2.64c0.271-2e-3 0.538 0.059 0.78 0.18 0.227 0.114 0.431 0.27 0.6 0.46 0.18 0.183 0.319 0.401 0.41 0.64 0.099 0.227 0.15 0.472 0.15 0.72-1e-3 0.326-0.077 0.647-0.22 0.94-0.146 0.278-0.355 0.518-0.61 0.7l1.21 2.12h-1.76l-1-1.77h-0.59v1.77zm1.58-3.15h1c0.111-4e-3 0.213-0.065 0.27-0.16 0.094-0.13 0.14-0.289 0.13-0.45 9e-3 -0.165-0.04-0.328-0.14-0.46-0.075-0.091-0.183-0.148-0.3-0.16h-1z"/>
   <path d="m961 467.24c-1.867-6e-3 -3.384 1.503-3.39 3.37-5e-3 1.867 1.503 3.384 3.37 3.39s3.384-1.503 3.39-3.37v-0.01c-5e-3 -1.861-1.509-3.369-3.37-3.38zm0 1.55c1.011 6e-3 1.826 0.829 1.82 1.84s-0.829 1.826-1.84 1.82c-1.007-6e-3 -1.82-0.823-1.82-1.83-6e-3 -1.005 0.805-1.824 1.81-1.83h0.03z"/>
  </g>
 </g>
 <linearGradient id="SVGID_00000080183833811072927230000006069141946372674742_" x1="960" x2="960" y1="431.34" y2="793.04" gradientTransform="matrix(.99999 0 0 -.99999 -725.78 1337)" gradientUnits="userSpaceOnUse">
  <stop stop-color="#FAAB43" offset="0"/>
  <stop stop-color="#FAAB43" offset="1"/>
 </linearGradient>
 <circle transform="rotate(-45)" cx="234.21" cy="724.85" r="176.35" fill="none" stroke="url(#SVGID_00000080183833811072927230000006069141946372674742_)" stroke-linecap="round" stroke-linejoin="round" stroke-width="8.9999"/>
 <g fill="#fff">
  <circle cx="1251" cy="201.77" r="11.11"/>
  <circle cx="1251" cy="56.765" r="11.11"/>
  <circle cx="1251" cy="347.92" r="11.11"/>
  <circle cx="1251" cy="492.86" r="11.11"/>
 </g>
</svg>
