<svg enable-background="new 0 0 60 60" version="1.1" viewBox="0 0 60 60" xmlns="http://www.w3.org/2000/svg">
 <style type="text/css">.st0{fill:none;stroke:currentColor;stroke-miterlimit:10;}
	.st1{fill:none;stroke:currentColor;stroke-width:2;stroke-miterlimit:10;}
	.st2{fill:none;stroke:currentColor;stroke-linecap:round;stroke-linejoin:round;stroke-miterlimit:10;}
	.st3{fill:currentColor;stroke:currentColor;stroke-linecap:round;stroke-linejoin:round;stroke-miterlimit:10;}
	.st4{fill:currentColor;}
	.st5{fill:none;stroke:currentColor;stroke-width:0.5;stroke-linecap:round;stroke-linejoin:round;stroke-miterlimit:10;}
	.st6{fill:none;stroke:currentColor;stroke-width:0.9663;stroke-linecap:round;stroke-linejoin:round;stroke-miterlimit:10;}
	.st7{fill:none;stroke:currentColor;stroke-width:0.9663;stroke-linecap:round;stroke-linejoin:round;}
	.st8{fill:none;stroke:currentColor;stroke-width:1.9326;stroke-linecap:round;stroke-linejoin:round;stroke-miterlimit:10;}
	.st9{fill:none;stroke:currentColor;stroke-width:0.9344;stroke-linecap:round;stroke-linejoin:round;}
	.st10{fill:none;stroke:currentColor;stroke-width:0.9344;stroke-linecap:round;stroke-linejoin:round;stroke-miterlimit:10;}</style>
 <path class="st2" d="m55.29 41.89 0.73-0.73c0.4-0.4 0.4-1.05 0-1.45l-3.93-3.92-2.18 2.18 3.93 3.92c0.4 0.4 1.05 0.4 1.45 0z"/>
 <line class="st2" x1="49.06" x2="51" y1="34.94" y2="36.88"/>
 <path class="st2" d="m39.97 32.86c1.94 1.93 5.07 1.93 7.01 0 1.93-1.94 1.93-5.07 0-7.01s-5.07-1.93-7.01 0c-1.93 1.93-1.93 5.07 0 7.01z"/>
 <path class="st2" d="m37.89 34.94c3.08 3.08 8.08 3.08 11.17 0s3.09-8.08 0-11.17c-3.08-3.08-8.08-3.08-11.17 0s-3.08 8.08 0 11.17z"/>
 <path class="st2" d="m16.38 37.93h4l0.39-2.72c1.19-0.27 2.31-0.74 3.31-1.38l2.2 1.65 2.83-2.83-1.65-2.2c0.63-1 1.1-2.12 1.38-3.31l2.72-0.39v-4l-2.72-0.39c-0.27-1.19-0.74-2.31-1.38-3.31l1.65-2.2-2.83-2.83-2.2 1.65c-1.01-0.63-2.12-1.1-3.31-1.38l-0.39-2.72h-4l-0.39 2.72c-1.19 0.27-2.31 0.74-3.31 1.38l-2.2-1.65-2.83 2.83 1.65 2.2c-0.63 1-1.1 2.12-1.38 3.31l-2.72 0.39v4l2.72 0.39c0.27 1.19 0.74 2.31 1.38 3.31l-1.65 2.2 2.83 2.83 2.2-1.65c1.01 0.63 2.12 1.1 3.31 1.38l0.39 2.72z"/>
 <path class="st2" d="m26.15 46.83c0-2.6 2.11-4.71 4.71-4.71s4.71 2.11 4.71 4.71"/>
 <path class="st2" d="m41.27 46.83v-1.58l-2.15-0.31c-0.21-0.94-0.59-1.82-1.09-2.62l1.31-1.74-2.24-2.24-1.74 1.31c-0.79-0.5-1.68-0.87-2.62-1.09l-0.31-2.15h-3.16l-0.31 2.15c-0.94 0.22-1.82 0.59-2.62 1.09l-1.74-1.31-2.24 2.24 1.3 1.74c-0.5 0.79-0.87 1.67-1.09 2.62l-2.15 0.31v1.58"/>
 <path class="st2" d="m18.38 30.71c-3.29 0-5.96-2.67-5.96-5.96s2.67-5.96 5.96-5.96 5.96 2.67 5.96 5.96-2.67 5.96-5.96 5.96z"/>
</svg>
