<svg enable-background="new 0 0 60 60" version="1.1" viewBox="0 0 60 60" xmlns="http://www.w3.org/2000/svg">
 <style type="text/css">.st0{fill:none;stroke:currentColor;stroke-miterlimit:10;}
	.st1{fill:none;stroke:currentColor;stroke-width:2;stroke-miterlimit:10;}
	.st2{fill:none;stroke:currentColor;stroke-linecap:round;stroke-linejoin:round;stroke-miterlimit:10;}
	.st3{fill:currentColor;stroke:currentColor;stroke-linecap:round;stroke-linejoin:round;stroke-miterlimit:10;}
	.st4{fill:currentColor;}
	.st5{fill:none;stroke:currentColor;stroke-width:0.5;stroke-linecap:round;stroke-linejoin:round;stroke-miterlimit:10;}
	.st6{fill:none;stroke:currentColor;stroke-width:0.9663;stroke-linecap:round;stroke-linejoin:round;stroke-miterlimit:10;}
	.st7{fill:none;stroke:currentColor;stroke-width:0.9663;stroke-linecap:round;stroke-linejoin:round;}
	.st8{fill:none;stroke:currentColor;stroke-width:1.9326;stroke-linecap:round;stroke-linejoin:round;stroke-miterlimit:10;}
	.st9{fill:none;stroke:currentColor;stroke-width:0.9344;stroke-linecap:round;stroke-linejoin:round;}
	.st10{fill:none;stroke:currentColor;stroke-width:0.9344;stroke-linecap:round;stroke-linejoin:round;stroke-miterlimit:10;}</style>
 <path class="st2" d="m15.82 42.36c-0.65 0.04-1.22-0.57-1.26-1.35s0.45-1.45 1.1-1.49 1.21 0.57 1.26 1.35c0.04 0.79-0.45 1.45-1.1 1.49zm0-8.36c-0.65 0.04-1.22-0.57-1.26-1.35s0.45-1.45 1.1-1.49 1.21 0.57 1.26 1.35c0.04 0.78-0.45 1.45-1.1 1.49zm0-8.37c-0.65 0.04-1.22-0.57-1.26-1.35s0.45-1.45 1.1-1.49 1.21 0.57 1.26 1.35c0.04 0.79-0.45 1.46-1.1 1.49zm27.08 0.01v8.31c0 2.64-6.78 4.77-15.14 4.77s-15.14-2.14-15.14-4.77v-8.31m30.28 8.22v8.31c0 2.64-6.78 4.77-15.14 4.77s-15.14-2.14-15.14-4.77v-8.31m30.28-8.04c0 2.64-6.78 4.77-15.14 4.77s-15.14-2.14-15.14-4.77v-8.31m23.95 3.88c-0.45 0.1-0.92 0.2-1.41 0.28-2.19 0.39-4.71 0.61-7.4 0.61-8.36 0-15.14-2.14-15.14-4.77 0-2.64 6.78-4.77 15.14-4.77 3.38 0 6.51 0.35 9.03 0.94"/>
 <line class="st2" x1="49.64" x2="51.58" y1="23.22" y2="25.16"/>
 <path class="st2" d="m55.87 30.18 0.73-0.73c0.4-0.4 0.4-1.05 0-1.45l-3.93-3.92-2.18 2.18 3.93 3.92c0.4 0.4 1.05 0.4 1.45 0z"/>
 <path class="st2" d="m38.47 23.22c3.08 3.08 8.08 3.08 11.17 0s3.09-8.08 0-11.17c-3.08-3.08-8.08-3.08-11.17 0s-3.08 8.09 0 11.17z"/>
 <path class="st2" d="m40.55 21.14c1.94 1.93 5.07 1.93 7.01 0 1.93-1.94 1.93-5.07 0-7.01s-5.07-1.93-7.01 0c-1.93 1.94-1.93 5.08 0 7.01z"/>
</svg>
